<?xml version="1.0" encoding="UTF-8"?>
<svg id="Layer_1" data-name="Layer 1" xmlns="http://www.w3.org/2000/svg" viewBox="0 0 2681.86 1357.51">
  <defs>
    <style>
      .cls-1 {
        fill: #f0eee7;
      }
    </style>
  </defs>
  <path class="cls-1" d="M1496.26,77.51v-7.05c52.45-31.97,121.13-36.82,181.77-42.28,443.3-39.89,933.13,4.23,996.51,537.91,50.94,428.98-166.49,671.3-577.68,743.9-145.85,25.75-363.87,35.35-510.18,14.79-46.18-6.49-75.59-20.99-79.95-71.71-4.63-53.88,1.23-117.59.27-172.97-5.74-329.9-7.47-660.26-6.94-990.68l-3.79-11.92h-.01ZM1986.17,328.57c-11.2.18-31.84,1.73-43.03,3.16-23.51,3-71.64,11.87-76.13,40.28-4.66,200.96-2.11,401.96-7.09,602.65-.6,24.21-12.22,25.53,23.22,29.36,36.37,3.93,100.08,2.96,137.33.6,417.71-26.51,398.14-682.99-34.3-676.05h0Z"/>
  <path class="cls-1" d="M926.17,869.79c-28.79.67-57.8-.9-86.62-.16-55.34,1.43-113.06,12.71-168.43,2.85-25.53-4.55-30.28-28.92-33.91-50.73-7.62-45.79-18.7-137.32-17.12-181.85,1.97-55.45,22.78-38.72,64.47-41.38,144.54-9.2,299.04-12,444.37-14.39,42.18-.69,84.45.93,126.63,0l3.39,4.45c4.65,22.5,8.48,48.51,9.67,71.34,5.72,109.17,9.02,263.14-3.73,370.17-11.33,95.1-75.2,139.45-149.15,189.4C620.59,1553.92-36.48,1251.13,1.58,628.38,32.8,117.61,655.87-187.32,1070.49,128.22c34.68,26.39,127.81,112.28,142.31,150.41,5.71,15,4.86,33.7-4.31,46.61-13.05,18.37-112.78,72.61-138.8,86.95-45.21,24.93-91.33,48.82-138.89,69.11-39.18-19.92-63.54-57.59-98.81-83.17-177.82-128.93-400.39-10.82-437.67,192.49-30.9,168.5,65.23,425.55,261.7,437.93,103.46,6.52,254.46-40.05,270.15-158.76h0Z"/>
</svg>