<?xml version="1.0" encoding="UTF-8"?>
<svg id="Layer_1" data-name="Layer 1" xmlns="http://www.w3.org/2000/svg" viewBox="0 0 2827.05 214.16">
  <defs>
    <style>
      .cls-1 {
        fill: #f0eee7;
      }
    </style>
  </defs>
  <path class="cls-1" d="M1168.33,19.34v-1.05c7.79-4.75,17.98-5.47,26.98-6.28,65.81-5.92,138.52.63,147.93,79.85,7.56,63.68-24.71,99.65-85.75,110.43-21.65,3.82-54.01,5.25-75.73,2.19-6.86-.96-11.22-3.12-11.87-10.64-.69-8,.18-17.46.04-25.68-.85-48.97-1.11-98.01-1.03-147.06l-.56-1.77h-.01ZM1241.05,56.61c-1.66.03-4.73.26-6.39.47-3.49.45-10.63,1.76-11.3,5.98-.69,29.83-.31,59.67-1.05,89.46-.09,3.59-1.81,3.79,3.45,4.36,5.4.58,14.86.44,20.39.09,62.01-3.93,59.1-101.39-5.09-100.36h0Z"/>
  <path class="cls-1" d="M747.8,125.43l-.5-63.07c-.11-13.48-1.99-30.79-.58-43.96.27-2.48,2.05-4.02,2.73-6.42,2.19.11,4.28-.52,6.44-.63,11.08-.55,28.5-.86,39.27.59,1.56.21,3.14.92,4.26,2.02,3.62,3.56,1.33,15.15,1.26,20.14-.6,41.52,1.13,83.09,0,124.53-.33,12.01-.03,25.29-1.56,37.16-.8,6.18-2.66,9.09-9.17,9.68-10.7.97-27.29.53-38.26.03-3.04-.14-8.62-.41-11.36-1.22-5.7-1.68-9.63-7.28-12.55-12.06-19.72-32.28-35.74-68.26-55.17-100.82-.34-.57-.53-1.44-1.32-1.56-.91,10.71-.3,21.46-.51,32.2-.39,19.81-1.06,39.79-1.61,59.6-.11,3.93.79,13.66-.09,16.66-1,3.4-12.16,4.74-15.35,5.08-7.8.82-18.38,1.06-26.21.55-1.37-.09-5.33-.5-6.29-1.04-2.58-1.44-4.22-8.45-4.44-11.26V21.03c.16-8.25,6.86-7.97,13.38-8.61,12.9-1.26,26.83-.92,39.79-1.08,12.73-.16,17.62,10.52,23.55,19.96,19.02,30.25,33.1,63.71,52.3,93.75l1.97.39h.02Z"/>
  <path class="cls-1" d="M2258.52,99.38c33.08,13.23,43.17,48.57,22.95,78.13-22.05,32.24-61.29,29.75-96.06,30.68-14.21.38-29.25,1.61-43.45,0-3.87-.44-10.93-1.32-12.07-5.73-.82-64.1.16-128.24.25-192.32.23-2.64,3.81-3.66,6.06-3.89,6.81-.69,15.06-.3,22.02-.51,24.76-.76,51.26-1.92,75.94.5,37.23,3.66,58.42,40.27,41.22,74.12-3.97,7.81-10.05,13.69-16.86,19h0ZM2184.68,82.62c13.11,2.49,53.06-.05,41.64-22.49-7.5-14.73-27.66-4.72-40.09-8.87l-1.55,31.36h0ZM2183.64,160.58c11.87,1.72,24.33,2.57,36.12-.23,12.85-3.05,20.07-10.05,13.55-23.48-8.34-17.18-31.67-9.98-46.78-12.3l-2.89,36.01h0Z"/>
  <path class="cls-1" d="M1455.3,5.36c55.35-3.4,104.12,40.18,107.5,95.34,4.57,74.62-55.66,127.75-129.27,106.08-107.81-31.73-88.66-194.64,21.77-201.42h0ZM1463.16,57.69c-56.56,1.81-63.25,98.17-4.28,103.37,60.85,5.37,66.02-105.35,4.28-103.37Z"/>
  <path class="cls-1" d="M1634.47,9.55c56.96-.63,109.4,10.72,120.96,74.57,12.05,66.55-18.3,109.91-84.08,121.84-21.16,3.84-49.76,4.99-71.02,1.67-6.77-1.06-10.74-2.92-11.85-10.14-2.08-13.6-2.73-31-3.67-45-.54-8-.64-16.05-1.06-24.06-1.7-32.85-2.73-65.94-3.16-98.87-.05-3.5-.16-14.01,2.59-16.29.93-.77,2.84-1.05,4.05-1.19,14.7-1.74,32.37-2.36,47.24-2.53h0ZM1643.55,155.83c24.93,5.66,49.32-5.22,56.25-30.8,2.66-9.82,2.49-21.37.44-31.3-5.57-27.04-24.41-36.23-50.75-34.64-2.44.15-9.94.95-11.93,1.69-.41.15-.72.28-.82.75l6.81,94.3Z"/>
  <path class="cls-1" d="M137.49,136.95c-4.27.1-8.58-.13-12.86-.02-8.22.21-16.78,1.89-25,.42-3.79-.67-4.49-4.29-5.03-7.53-1.13-6.8-2.78-20.38-2.54-26.99.29-8.23,3.38-5.75,9.57-6.14,21.46-1.37,44.39-1.78,65.97-2.14,6.26-.1,12.54.14,18.8,0l.5.66c.69,3.34,1.26,7.2,1.44,10.59.85,16.21,1.34,39.06-.55,54.95-1.68,14.12-11.16,20.7-22.14,28.12C92.12,238.5-5.42,193.56.23,101.11,4.87,25.29,97.36-19.98,158.91,26.86c5.15,3.92,18.97,16.67,21.13,22.33.85,2.23.72,5-.64,6.92-1.94,2.73-16.74,10.78-20.6,12.91-6.71,3.7-13.56,7.25-20.62,10.26-5.82-2.96-9.43-8.55-14.67-12.35-26.4-19.14-59.44-1.61-64.97,28.57-4.59,25.01,9.68,63.17,38.85,65.01,15.36.97,37.77-5.95,40.1-23.57h0Z"/>
  <path class="cls-1" d="M1905.42,130.26h-31.17c-.4,0-5.2-4.9-5-5.99.9-10.12-1.11-22.04.03-31.94.27-2.3,1.67-4.53,3.14-6.28l12.34-.8c12,.14,24.15,3.05,36.1,3.18,8.72.09,27.54-2.57,34.7,1.97.65.41,1.28.8,1.79,1.39l-1.65,36.09c-.49,10.84-.98,21.63-1.57,32.44-.18,3.33.62,8.83-.79,11.77-2.24,4.65-15.48,15.08-20.19,18.03-46.07,28.85-122.72,18.36-146.73-34.4-36.09-79.29,19.55-170.3,110.64-152.88,15.41,2.95,48.23,19.19,55.62,33.4,3.12,6,1.56,7.9-2.99,11.85-5.29,4.59-24.05,16.74-30.4,18.3-12.56,3.08-16.09-10.65-27.34-14.49-18.61-6.36-41.86,1.77-51.22,19.22-10.57,19.69-10.86,55.82,3.96,73.51,16.15,19.29,66.6,20.65,60.75-14.37h-.02Z"/>
  <path class="cls-1" d="M489.43,9.44c54.16-3.08,96.65,29.72,103.76,83.9,9.56,72.84-45.87,124.11-117.91,113.05-110.87-17.02-105.99-190.11,14.15-196.95ZM489.43,57.57c-53.4,5.16-50.12,98.87,5.09,100.82,63.71,2.25,59.89-107.1-5.09-100.82Z"/>
  <path class="cls-1" d="M222.23,11.51c4.23-.18,9.74.87,13.98.93,46.85.75,126.73-9.65,136.35,54.27,3.4,22.61-8.06,52.97-29.36,63.52-2.54,1.26-6.03,1.01-6.99,4.35l35.41,65.4c0,1.74-3.24,4.67-4.97,4.94-10.65,1.64-26.28.67-37.17.03-8.56-.5-13.24.52-18.92-7.26-10.58-14.47-15.58-35.76-25.44-50.98-4.65-7.17-8.53-8.08-16.94-5.61l-.63,2.51c-.33,15.2,1.37,31.3.4,46.45-.59,9.33-1.98,12.84-11.88,13.78-7.89.74-34.38,1.82-40.77-.48-4.04-1.46-4.32-5.8-4.37-9.65-.14-9.63,1.23-21.26,1.44-31.41.95-45.2-4.37-93.39.55-138.1.72-6.51,1.23-12.35,9.3-12.69h0ZM267.96,96.11c18,4.29,55.5,5.29,47.26-23.39-6.11-21.27-30.21-14.14-46.76-16.35,0,0-.5,39.74-.5,39.74Z"/>
  <path class="cls-1" d="M2434.72,208.03c-6.4-5.94-7.59-25.09-11.3-33.45-.53-1.2-1.4-3.27-2.82-3.35l-58.37,3.23c-4.24,6.82-6.26,35.33-15.03,37.31-3.48.79-13.58.24-17.72.13-8-.21-19.4-.4-27.16-1.65-4.73-.76-6.53-3.92-6.62-8.55,18.85-63.54,39.87-126.46,59.33-189.84.78-1.68,8.07-2.63,10.17-2.93,14.26-2.03,31.67-2.27,46.01-1.62,8.27.37,12.51-2.03,16.78,6.26,6.61,12.83,12.6,30.11,17.95,43.81,15.95,40.9,30.79,83.5,44.28,125.3,2.02,6.26,5.49,14.52,4.6,21.09-.3,2.21-2,3.64-3.93,4.44-2.63,1.09-8.01,1.39-11.02,1.55-10.22.54-23.96,1.03-34.07.55-1.98-.1-6.64-.3-8.25-.65-.67-.15-2.28-1.15-2.81-1.64h-.02ZM2394.21,68l-3.41-1.57-15.98,69.57,35.1-2.62c-2.62-12.81-5.53-25.71-9.06-38.31-1.02-3.64-1.97-7.4-3.15-10.98-1.66-5.07-6.28-10.82-3.51-16.1h0Z"/>
  <path class="cls-1" d="M2098.65,47.5l-69.59,3.23,1.56,27.48c.66.66,6.69,1.28,8.11,1.32,14.14.39,29.21-2.17,43.53-1.09,9.18.7,11.69,5.48,13.2,14.03,1.04,5.9,1.46,23.45-2.71,27.87-2.78,2.94-11.7,3.95-15.72,4.18-15.42.9-31.02-1.65-46.33.03l-1.14,29.01.34.83c2.23,1.48,15.85,1.07,19.37,1.01,14.12-.26,29.31-2.69,43.4-.48,5.5.86,7.23,1.39,8.85,6.86,2.47,8.33,3.1,23.9,1.89,32.52-1.08,7.7-3.01,7.2-10.22,8.11-23.72,2.99-53.86,2.28-78.02,1.66-9.42-.24-19.43-.55-28.79-1.6-3.7-.41-7.36-.87-10.66-2.7l2.01-192.98,72.58-2.59c10.23-.37,20.64-1.42,30.87-1.61,6.55-.12,14.32-1.83,17.15,5.41,2.61,6.65,3.53,29.15,1.75,35.97-.32,1.23-.99,2.37-1.42,3.55v-.02Z"/>
  <path class="cls-1" d="M1000.13,59.69c-8.04-7.86-34.38-11.89-39.84-.13-1.61,3.48-.1,10.84,2.56,13.55,2.88,2.93,12.96,6.07,17.15,7.46,25.38,8.44,51.53,10.41,65.98,36.13,17.9,31.89-1.84,67.42-32.91,80.85-31.08,13.44-79.13,7.79-106.49-12.27-4.92-3.61-8.36-7.2-6.35-13.58,2.36-7.53,12.46-22.73,17.85-28.74,5.16-5.76,6.52-6.56,13.56-2.59,4.14,2.33,7.6,5.82,11.74,8.16,12.38,6.98,44.47,18.27,52.6,1.08,6.71-14.2-8.26-17.07-18.32-20.14-31.68-9.69-63.69-11.26-72.44-49.56-15.86-69.39,76.16-86.85,122.49-59.55,6.38,3.76,21.35,15.58,20.77,23.64-.43,5.99-11.5,12.29-15.94,16.03-5.4,4.54-11.86,13.83-19.9,12.51-4.72-.78-9.18-9.61-12.52-12.87v.02Z"/>
  <path class="cls-1" d="M2741.53,163.75c5.14-.13,10.33.16,15.48.02,17.65-.5,35.77-3.08,53.41-1.06,7.88.9,11.82,1.52,14.56,9.53,3.06,8.95,2.87,27.9-1.63,36.34-.83,1.55-2.33,3.84-4.13,4.25-17.57.59-35.28-.65-52.78.66-24.51-1.68-51.84,2.15-76.01,0-7.04-.63-11.69-7.1-11.76-13.89-.09-7.77,1.39-17.1,1.59-25.09,1.37-54.01-2.01-108.37,2.61-162.21.54-6.24,3.03-10,9.39-11.55,7.13-1.74,21.9-.03,29.57.88,3.26.39,20.8,2.79,21.72,5.51l-2.01,156.62h-.01Z"/>
  <path class="cls-1" d="M2573.97,163.67c.28.45,5.43,1.08,6.45,1.14,21.85,1.35,45.16-2.05,67.1-.57,2.67.18,7.87.44,8.89,3.15,1.62,4.3,1.47,16.26,1.3,21.19-.18,5.17-.7,12.08-1.72,17.12-.21,1.05-1.5,6-2.29,6.19-25.47.35-50.94.28-76.42.48-16.56.13-37.22,2.16-53.44.57-8.59-.84-7.73-7.82-7.59-14.44,1.34-62.33,2.78-124.72,4.46-187.04,1.05-4.03,6.84-5.47,10.47-5.76,10.63-.83,29.78-.34,40.35,1.07,2.71.36,5.31,1.39,6.21,4.27s.43,11.73.37,15.37c-.64,40.69-3.42,81.65-4.23,122.39-.1,4.94.05,9.92.09,14.86h0Z"/>
  <path class="cls-1" d="M842.5,11.51c26.83-3.62,39.01,23.32,37.32,46.16-1.29,17.48-14.6,42.65-34.29,43.71-10.38.56-14.92-7.01-8.66-15.45,3.64-4.92,16.73-12.28,14.43-19.65-1.57-5.05-8.45-2.53-12.37-3.34-6.92-1.43-14.65-9.62-16.76-16.22-4.57-14.25,4.89-33.12,20.33-35.21h0Z"/>
</svg>