<?xml version="1.0" encoding="UTF-8"?>
<svg id="Layer_1" data-name="Layer 1" xmlns="http://www.w3.org/2000/svg" viewBox="0 0 75 50">
  <defs>
    <style>
      .cls-1 {
        fill: #141414;
      }

      .cls-2 {
        fill: #fff;
      }
    </style>
  </defs>
  <rect class="cls-1" width="75" height="50" rx="10" ry="10"/>
  <path class="cls-2" d="M44.17,17.86c-3.13,0-5.93,1.62-5.93,4.62,0,3.44,4.96,3.68,4.96,5.4,0,.73-.83,1.38-2.26,1.38-2.02,0-3.53-.91-3.53-.91l-.65,3.03s1.74.77,4.05.77c3.42,0,6.12-1.7,6.12-4.75,0-3.63-4.98-3.86-4.98-5.47,0-.57.68-1.19,2.1-1.19,1.6,0,2.91.66,2.91.66l.63-2.92s-1.42-.61-3.43-.61h0ZM15.53,18.08l-.08.44s1.32.24,2.5.72c1.53.55,1.64.87,1.89,1.87l2.8,10.81h3.76l5.79-13.84h-3.75l-3.72,9.41-1.52-7.98c-.14-.91-.84-1.43-1.71-1.43h-5.98ZM33.71,18.08l-2.94,13.84h3.58l2.93-13.84h-3.56ZM53.65,18.08c-.86,0-1.32.46-1.65,1.27l-5.24,12.57h3.75l.73-2.1h4.57l.44,2.1h3.31l-2.89-13.84h-3.01ZM54.14,21.82l1.11,5.19h-2.98l1.87-5.19h0Z"/>
</svg>