<?xml version="1.0" encoding="UTF-8"?>
<svg id="Layer_1" data-name="Layer 1" xmlns="http://www.w3.org/2000/svg" viewBox="0 0 1920 9720">
  <defs>
    <style>
      .cls-1 {
        fill: #f0eee7;
      }
    </style>
  </defs>
  <g>
    <path class="cls-1" d="M1608.72,0c-2.49,19.8-4.96,39.69-7.37,59.94-57,478.35-106.52,1030.05-146.38,1617.12-38.42,565.83-67.89,1180.35-115.55,1692.99-70.35,756.63-178.95,1220.31-282.88,1500.03-145.05,390.51-275.98,422.64-393.31,1392.21-119.76,989.64-182.57,2290.95-271.3,3457.71h371.44c13.33-177.57,27.49-356.22,40.03-539.19,39.67-578.88,75.76-1216.62,122.21-1762.83,80.59-947.7,222.58-1396.08,348.12-1651.77,134.95-274.86,303.83-309.06,403.46-1281.24,50.66-494.28,70.4-1125,105.67-1703.61,34.04-558.36,82.33-1162.98,137.14-1645.29V0h-311.28ZM868.77,0c-54.53,505.26-97.88,1091.34-149.52,1613.07-99.55,1006.02-208.66,1096.56-343.06,1477.89-82.72,234.72-166.27,567.63-231.54,1080.72-58.26,458.01-101.57,1016.46-144.65,1577.88v2724.3c43.61-175.77,89.64-298.62,134.55-450.27,84.06-283.77,160.98-582.39,228.47-1128.42,76.66-620.19,123.32-1461.69,200.2-2076.66,129.82-1038.42,309.93-1356.66,458.15-2121.39,70.92-365.85,131.32-834.75,182.7-1397.79,39.4-431.82,74.22-901.71,118.41-1299.33h-453.71ZM0,0v957.6c5.95-11.43,11.91-22.32,17.88-32.4,96.86-163.08,200.8-195.48,284.17-717.21,9.82-61.38,19.72-131.85,29-207.99H0Z"/>
    <path class="cls-1" d="M1920,5589.63v2340.72c-1.04,5.49-2.08,10.98-3.12,16.38-1.04,5.49-2.09,10.8-3.14,16.02-1.05,5.31-2.1,10.53-3.15,15.75-.99,4.95-1.99,9.81-2.99,14.58-1.42,6.93-2.85,13.68-4.29,20.25-.99,4.59-1.97,9.09-2.96,13.59-1.98,9-3.96,17.82-5.96,26.46-.99,4.32-1.99,8.55-2.99,12.78-1.08,4.59-2.17,9.09-3.25,13.5-1.08,4.5-2.17,8.91-3.26,13.32-1.09,4.41-2.18,8.73-3.27,12.96-1.09,4.32-2.18,8.55-3.28,12.69-1.09,4.23-2.19,8.37-3.29,12.42-3.27,12.24-6.56,24.03-9.86,35.46-.03.09-.06.18-.09.27-1.67,5.76-3.34,11.43-5.01,17.01-1.67,5.58-3.35,11.07-5.04,16.47-3.36,10.8-6.74,21.24-10.14,31.32-4.53,13.5-9.08,26.46-13.65,38.88-1.15,3.15-2.29,6.21-3.44,9.18-1.14,3.06-2.29,6.03-3.44,9-3.45,8.91-6.9,17.55-10.37,26.01-2.32,5.58-4.64,11.07-6.96,16.47-1.16,2.7-2.32,5.4-3.49,8.01-2.32,5.22-4.65,10.44-6.99,15.57-1.17,2.61-2.34,5.13-3.51,7.56-3.16,6.75-6.32,13.41-9.49,19.8-9.52,19.35-19.09,37.35-28.7,54.63-3.8,6.84-7.6,13.5-11.41,20.07-1.92,3.33-3.83,6.66-5.75,9.9-2.84,4.86-5.69,9.63-8.54,14.4-4.77,8.01-9.54,15.93-14.32,23.76-2.38,3.96-4.77,7.92-7.16,11.79-1.92,3.15-3.83,6.3-5.75,9.45-2.65,4.41-5.3,8.73-7.95,13.14-1.33,2.25-2.65,4.41-3.98,6.66-3.97,6.57-7.95,13.23-11.92,19.98-1.32,2.25-2.65,4.5-3.97,6.75s-2.64,4.59-3.96,6.84c-1.33,2.34-2.65,4.59-3.97,6.93-7.61,13.32-15.21,27.09-22.79,41.58-1.18,2.25-2.36,4.5-3.54,6.84-3.06,5.85-6.11,11.97-9.16,18.18-1.31,2.61-2.62,5.31-3.92,8.01-1.31,2.7-2.61,5.4-3.91,8.19-.99,2.07-1.98,4.14-2.96,6.3-2.75,5.85-5.5,11.88-8.24,18.09-1.17,2.61-2.34,5.31-3.5,8.01-1.04,2.34-2.08,4.77-3.12,7.2-1.84,4.32-3.67,8.64-5.5,13.14-1.29,3.06-2.57,6.21-3.86,9.45-.67,1.62-1.34,3.33-2.01,5.04-.97,2.43-1.94,4.86-2.9,7.38-6.92,17.73-13.8,36.54-20.62,56.7-1.13,3.33-2.27,6.75-3.4,10.17-1.14,3.42-2.27,6.93-3.4,10.44-1.13,3.42-2.26,7.02-3.38,10.62-2.02,6.39-4.04,12.87-6.06,19.62-1.24,4.05-2.49,8.28-3.73,12.51-6.81,23.22-13.56,47.97-20.23,74.52-1.05,4.14-2.11,8.37-3.16,12.69-.11.45-.22.9-.33,1.35-.97,3.96-1.93,7.92-2.89,11.88-1.38,5.76-2.75,11.61-4.12,17.55-.84,3.6-1.69,7.29-2.54,10.98-3.23,14.22-6.45,28.89-9.64,44.01-1.04,4.86-2.07,9.9-3.1,14.85-.04.18-.08.36-.12.63-.89,4.32-1.77,8.64-2.66,13.05-.85,4.23-1.7,8.46-2.55,12.78-.76,3.87-1.52,7.74-2.28,11.7-.87,4.41-1.74,9-2.61,13.59-.82,4.32-1.64,8.64-2.45,13.05-.05.27-.09.45-.14.81-.98,5.22-1.96,10.53-2.93,15.93-2.1,11.52-4.19,23.4-6.27,35.46-1,5.76-1.99,11.61-2.98,17.55-1,5.94-1.99,11.88-2.98,17.91-.99,6.03-1.98,12.15-2.97,18.36-.17,1.08-.34,2.16-.51,3.15-.82,5.13-1.63,10.26-2.45,15.57-.98,6.21-1.97,12.6-2.95,19.08-.98,6.39-1.95,12.87-2.93,19.44-.86,5.76-1.72,11.61-2.58,17.55-5.63,38.52-11.16,79.11-16.53,121.5-.73,5.76-1.47,11.61-2.19,17.46-.73,5.85-1.45,11.7-2.17,17.55-.01.09-.02.18-.03.27-1.29,10.53-2.57,21.24-3.83,32.04-1.33,11.34-2.65,22.77-3.96,34.38-.53,4.59-1.05,9.27-1.57,13.95-1.77,15.93-3.51,32.04-5.22,48.33-.67,6.39-1.33,12.69-1.99,19.17-.66,6.3-1.31,12.69-1.95,19.17-.02.09-.03.27-.03.36-.65,6.39-1.28,12.78-1.91,19.17-1.28,13.05-2.54,26.19-3.77,39.42-.62,6.57-1.24,13.23-1.84,19.89-.57,6.21-1.13,12.42-1.68,18.63-.05.45-.09.99-.13,1.44h-262.49c3.14-63.72,6.33-126.9,9.59-189.63.81-15.66,1.63-31.32,2.46-46.89,1.58-30.15,3.18-60.12,4.81-90,.67-12.42,1.35-24.75,2.03-37.08.28-5.31.57-10.53.87-15.75.49-8.91.99-18,1.5-26.91,1.53-27.45,3.08-54.72,4.67-81.9.32-5.67.65-11.34.99-17.01,1.84-31.59,3.71-63,5.62-94.23,1-16.38,2.01-32.67,3.03-48.96.41-6.57.83-13.23,1.25-19.8.41-6.66.83-13.23,1.26-19.8.94-14.76,1.89-29.52,2.85-44.19.48-7.38.96-14.67,1.45-21.96.48-7.38.97-14.67,1.46-21.96,1.24-18.63,2.5-37.17,3.78-55.62.6-8.73,1.21-17.37,1.82-26.01.63-9,1.27-18,1.91-27,2.24-31.59,4.55-62.91,6.9-94.05.76-9.99,1.52-19.98,2.29-29.97,1.42-18.45,2.86-36.81,4.33-55.08.51-6.48,1.03-12.96,1.55-19.35.63-7.83,1.26-15.57,1.9-23.31.56-6.84,1.13-13.68,1.71-20.52.53-6.57,1.08-13.05,1.63-19.53.83-9.81,1.67-19.62,2.51-29.34.1-1.26.21-2.43.32-3.69.59-6.84,1.19-13.68,1.79-20.52.64-7.38,1.3-14.76,1.96-22.14.66-7.38,1.32-14.76,1.99-22.14,1.73-19.08,3.49-38.07,5.28-56.97.63-6.66,1.26-13.32,1.91-19.98.64-6.66,1.28-13.32,1.93-19.98.96-9.99,1.94-19.89,2.93-29.7.99-9.9,1.98-19.71,2.98-29.52,144.74-1416.15,376.47-1358.01,560.57-2103.12,1.62-6.57,3.24-13.14,4.84-19.89,2.22-9.18,4.43-18.45,6.61-27.81,1.2-5.04,2.39-10.17,3.57-15.39.31-1.35.63-2.7.94-4.14.73-3.15,1.46-6.3,2.18-9.63.86-3.69,1.72-7.56,2.57-11.43.89-3.96,1.78-7.92,2.66-11.97,1.26-5.76,2.52-11.43,3.77-17.28.76-3.51,1.53-7.11,2.29-10.71,1.5-7.02,2.99-14.04,4.48-21.24,1.33-6.3,2.66-12.78,3.98-19.26.22-1.08.44-2.16.66-3.24,1.46-7.11,2.9-14.31,4.34-21.51,1.82-9.18,3.62-18.45,5.42-27.72,1.59-8.28,3.18-16.56,4.75-24.93.04-.18.07-.36.1-.54,1.55-8.19,3.08-16.47,4.61-24.84,1.97-10.71,3.93-21.51,5.87-32.49,1.44-8.1,2.88-16.2,4.3-24.48,1.62-9.27,3.23-18.63,4.83-28.17,1.55-9.09,3.1-18.36,4.63-27.72.61-3.69,1.23-7.47,1.84-11.25,4.93-30.06,9.8-61.02,14.6-92.97.21-1.26.42-2.7.62-4.14.01.09.02-.09.02-.09.86-5.58,1.71-11.34,2.56-17.1,1.22-8.1,2.43-16.38,3.65-24.84.5-3.33,1-6.84,1.5-10.35.5-3.42,1-6.84,1.5-10.44.12-.72.23-1.53.34-2.34,3.23-22.5,6.43-45.45,9.61-68.85Z"/>
  </g>
  <g>
    <path class="cls-1" d="M1322.48,0c-44.19,397.62-79.01,867.51-118.41,1299.33-51.38,563.04-111.78,1031.94-182.7,1397.79-148.22,764.73-328.33,1082.97-458.15,2121.39-76.88,614.97-123.54,1456.47-200.2,2076.66-67.49,546.03-144.41,844.65-228.47,1128.42-44.91,151.65-90.94,274.5-134.55,450.27v1246.14h391.93c88.73-1166.76,151.54-2468.07,271.3-3457.71,117.33-969.57,248.26-1001.7,393.31-1392.21,103.93-279.72,212.53-743.4,282.88-1500.03,47.66-512.64,77.13-1127.16,115.55-1692.99,39.86-587.07,89.38-1138.77,146.38-1617.12,2.41-20.25,4.88-40.14,7.37-59.94h-286.24Z"/>
    <path class="cls-1" d="M1920,1136.07v4453.56c-3.18,23.4-6.38,46.35-9.61,68.85-.11.81-.22,1.62-.34,2.34-.5,3.6-1,7.02-1.5,10.44-.5,3.51-1,7.02-1.5,10.35-1.22,8.46-2.43,16.74-3.65,24.84-.85,5.76-1.7,11.43-2.56,17.1,0,0-.01.18-.02.09-.2,1.44-.41,2.88-.62,4.14-4.8,31.95-9.67,62.91-14.6,92.97-.61,3.78-1.23,7.56-1.84,11.25-1.53,9.36-3.08,18.63-4.63,27.72-1.6,9.54-3.21,18.9-4.83,28.17-1.42,8.28-2.86,16.38-4.3,24.48-1.94,10.98-3.9,21.78-5.87,32.49-1.53,8.37-3.06,16.65-4.61,24.84-.03.18-.06.36-.1.54-1.57,8.37-3.16,16.65-4.75,24.93-1.8,9.27-3.6,18.54-5.42,27.72-1.44,7.2-2.88,14.4-4.34,21.51-.22,1.08-.44,2.16-.66,3.24-1.32,6.48-2.65,12.96-3.98,19.26-1.49,7.2-2.98,14.22-4.48,21.24-.76,3.6-1.53,7.2-2.29,10.71-1.25,5.85-2.51,11.52-3.77,17.28-.88,4.05-1.77,8.01-2.66,11.97-.85,3.87-1.71,7.74-2.57,11.43-.72,3.33-1.45,6.48-2.18,9.63-.31,1.44-.63,2.79-.94,4.14-1.18,5.22-2.37,10.35-3.57,15.39-2.18,9.36-4.39,18.63-6.61,27.81-1.6,6.75-3.22,13.32-4.84,19.89-184.1,745.11-415.83,686.97-560.57,2103.12-1,9.81-1.99,19.62-2.98,29.52-.99,9.81-1.97,19.71-2.93,29.7-.65,6.66-1.29,13.32-1.93,19.98-.65,6.66-1.28,13.32-1.91,19.98-1.79,18.9-3.55,37.89-5.28,56.97-.67,7.38-1.33,14.76-1.99,22.14-.66,7.38-1.32,14.76-1.96,22.14-.6,6.84-1.2,13.68-1.79,20.52-.11,1.26-.22,2.43-.32,3.69-.84,9.72-1.68,19.53-2.51,29.34-.55,6.48-1.1,12.96-1.63,19.53-.58,6.84-1.15,13.68-1.71,20.52-.64,7.74-1.27,15.48-1.9,23.31-.52,6.39-1.04,12.87-1.55,19.35-1.47,18.27-2.91,36.63-4.33,55.08-.77,9.99-1.53,19.98-2.29,29.97-2.35,31.14-4.66,62.46-6.9,94.05-.64,9-1.28,18-1.91,27-.61,8.64-1.22,17.28-1.82,26.01-1.28,18.45-2.54,36.99-3.78,55.62-.49,7.29-.98,14.58-1.46,21.96-.49,7.29-.97,14.58-1.45,21.96-.96,14.67-1.91,29.43-2.85,44.19-.43,6.57-.85,13.14-1.26,19.8-.42,6.57-.84,13.23-1.25,19.8-1.02,16.29-2.03,32.58-3.03,48.96-1.91,31.23-3.78,62.64-5.62,94.23-.34,5.67-.67,11.34-.99,17.01-1.59,27.18-3.14,54.45-4.67,81.9-.51,8.91-1.01,18-1.5,26.91-.3,5.22-.59,10.44-.87,15.75-.68,12.33-1.36,24.66-2.03,37.08-1.63,29.88-3.23,59.85-4.81,90-.83,15.57-1.65,31.23-2.46,46.89-3.26,62.73-6.45,125.91-9.59,189.63h-387.16c13.33-177.57,27.49-356.22,40.03-539.19,39.67-578.88,75.76-1216.62,122.21-1762.83,80.59-947.7,222.58-1396.08,348.12-1651.77,134.95-274.86,303.83-309.06,403.46-1281.24,50.66-494.28,70.4-1125,105.67-1703.61,34.04-558.36,82.33-1162.98,137.14-1645.29Z"/>
    <path class="cls-1" d="M1916.88,7946.73c1.04-5.31,2.08-10.8,3.12-16.38v1789.65h-506.98c.04-.45.08-.99.13-1.44.55-6.21,1.11-12.42,1.68-18.63.6-6.66,1.22-13.32,1.84-19.89,1.23-13.23,2.49-26.37,3.77-39.42.63-6.39,1.26-12.78,1.91-19.17,0-.09.01-.27.03-.36.64-6.48,1.29-12.87,1.95-19.17.66-6.48,1.32-12.78,1.99-19.17,1.71-16.29,3.45-32.4,5.22-48.33.52-4.68,1.04-9.36,1.57-13.95,1.31-11.61,2.63-23.04,3.96-34.38,1.26-10.8,2.54-21.51,3.83-32.04,0-.09.02-.18.03-.27.72-5.85,1.44-11.7,2.17-17.55.72-5.85,1.46-11.7,2.19-17.46,5.37-42.39,10.9-82.98,16.53-121.5.86-5.94,1.72-11.79,2.58-17.55.98-6.57,1.95-13.05,2.93-19.44.98-6.39,1.96-12.78,2.95-19.08.81-5.22,1.63-10.44,2.45-15.57.17-.99.34-2.07.51-3.15.99-6.21,1.98-12.33,2.97-18.36.99-6.03,1.98-11.97,2.98-17.91.99-5.94,1.98-11.79,2.98-17.55,2.08-12.06,4.17-23.94,6.27-35.46.97-5.4,1.95-10.71,2.93-15.93.05-.36.09-.54.14-.81.81-4.41,1.63-8.73,2.45-13.05.87-4.59,1.74-9.18,2.61-13.59.76-3.96,1.52-7.83,2.28-11.7.85-4.32,1.7-8.55,2.55-12.78.89-4.41,1.77-8.73,2.66-13.05.04-.27.08-.45.12-.63,1.03-4.95,2.06-9.99,3.1-14.85,3.19-15.12,6.41-29.79,9.64-44.01.85-3.69,1.7-7.38,2.54-10.98,1.37-5.94,2.74-11.79,4.12-17.55.96-3.96,1.92-7.92,2.89-11.88.11-.45.22-.9.33-1.35,1.05-4.32,2.11-8.55,3.16-12.69,6.67-26.55,13.42-51.3,20.23-74.52,1.24-4.23,2.49-8.46,3.73-12.51,2.02-6.75,4.04-13.23,6.06-19.62,1.12-3.6,2.25-7.2,3.38-10.62,1.13-3.51,2.26-7.02,3.4-10.44,1.13-3.42,2.27-6.84,3.4-10.17,6.82-20.16,13.7-38.97,20.62-56.7.96-2.52,1.93-4.95,2.9-7.38.67-1.71,1.34-3.42,2.01-5.04,1.29-3.24,2.57-6.39,3.86-9.45,1.83-4.5,3.66-8.82,5.5-13.14,1.04-2.43,2.08-4.86,3.12-7.2,1.16-2.7,2.33-5.4,3.5-8.01,2.74-6.21,5.49-12.24,8.24-18.09.98-2.16,1.97-4.23,2.96-6.3,1.3-2.79,2.6-5.49,3.91-8.19,1.3-2.7,2.61-5.4,3.92-8.01,3.05-6.21,6.1-12.33,9.16-18.18,1.18-2.34,2.36-4.59,3.54-6.84,7.58-14.49,15.18-28.26,22.79-41.58,1.32-2.34,2.64-4.59,3.97-6.93,1.32-2.25,2.64-4.59,3.96-6.84s2.65-4.5,3.97-6.75c3.97-6.75,7.95-13.41,11.92-19.98,1.33-2.25,2.65-4.41,3.98-6.66,2.65-4.41,5.3-8.73,7.95-13.14,1.92-3.15,3.83-6.3,5.75-9.45,2.39-3.87,4.78-7.83,7.16-11.79,4.78-7.83,9.55-15.75,14.32-23.76,2.85-4.77,5.7-9.54,8.54-14.4,1.92-3.24,3.83-6.57,5.75-9.9,3.81-6.57,7.61-13.23,11.41-20.07,12.81-22.95,25.56-47.34,38.19-74.43,1.17-2.43,2.34-4.95,3.51-7.56,2.34-5.04,4.67-10.26,6.99-15.57,1.17-2.61,2.33-5.31,3.49-8.01,2.33-5.31,4.65-10.8,6.96-16.47,3.47-8.37,6.93-17.01,10.37-26.01,1.15-2.88,2.29-5.85,3.44-9,1.15-2.97,2.29-6.03,3.44-9.18,4.57-12.33,9.13-25.29,13.65-38.88,3.4-10.08,6.78-20.52,10.14-31.32,3.37-10.8,6.72-21.87,10.05-33.48.03-.09.06-.18.09-.27,3.3-11.43,6.59-23.22,9.86-35.46,1.1-4.05,2.2-8.19,3.29-12.42,1.1-4.14,2.19-8.37,3.28-12.69,1.09-4.23,2.18-8.55,3.27-12.96,1.09-4.32,2.18-8.73,3.26-13.32,1.08-4.32,2.17-8.91,3.25-13.5,4-16.83,7.97-34.47,11.91-52.83,1.44-6.57,2.87-13.32,4.29-20.25,1-4.77,2-9.63,2.99-14.58,1.05-5.13,2.1-10.35,3.15-15.75,1.05-5.22,2.1-10.53,3.14-16.02Z"/>
    <path class="cls-1" d="M868.77,0c-54.53,505.26-97.88,1091.34-149.52,1613.07-99.55,1006.02-208.66,1096.56-343.06,1477.89-82.72,234.72-166.27,567.63-231.54,1080.72-58.26,458.01-101.57,1016.46-144.65,1577.88V957.6c5.95-11.43,11.91-22.32,17.88-32.4,96.86-163.08,200.8-195.48,284.17-717.21,9.82-61.38,19.72-131.85,29-207.99h537.72Z"/>
  </g>
</svg>