<?xml version="1.0" encoding="UTF-8"?>
<svg id="Layer_2" data-name="Layer 2" xmlns="http://www.w3.org/2000/svg" viewBox="0 0 280.34 32.91">
  <g id="Layer_1-2" data-name="Layer 1">
    <g>
      <path d="M14.47,32.84c-.48-.19-.89-.57-1.18-.96-.21-.23-.49-.42-.62-.7-.59-1.18-.71-2.57-.78-3.88-.16-3.1-.09-6.21.06-9.29-.92,2.58-2.14,4.76-5.21,4.84C1.65,23,.2,15.07.01,11.25c-.03-1.12-.07-3.94.58-4.92.26-.49.85-.98,1.41-.92.6.1,1.14.92,1.24,1.52.09.55.22,3.66.27,4.18.18,2.31.6,4.64,1.5,6.77.38.95,1.3,2.32,2.33,2.21,1.15-.19,2.09-2.29,2.46-3.41.67-1.85,1.13-3.82,1.76-5.71.29-1,.62-1.97.96-2.93.15-.4.1-.88.33-1.24.27-.49.7-.7,1.13-.71.72-.02,1.45.52,1.47,1.39,0,.08-.06.56-.06.64.03,1-.09,6.97-.1,8.01-.1,3.71-.16,7.41.02,11.08.05.48.36,3.06.34,3.54.98.93.11,2.51-1.18,2.1Z"/>
      <path d="M23.1,28.06c-2.23.06-4.2-2.23-4.51-4.82-.26-2.1.12-4.35.74-6.35.22-.68.48-1.33.86-1.9.23-.29.54-.57.9-.7.44-.13.91-.1,1.32.08.2.11,1.2.13,1.44.16,2.44.37,4.44,2.19,4.63,4.73.23,2.54-1.6,6.98-3.76,8.31-.55.33-1.1.47-1.62.48ZM23.81,24.62c.04-.08.35-.45.38-.53.73-1.17,1.33-2.51,1.49-3.91.06-.52-.03-1.07-.24-1.55-.29-.51-.74-.9-1.27-1.2-.43.21-1.52-.12-1.92-.34-.39,1.6-.79,3.25-.74,4.92.06.79.16,1.63.58,2.33.17.27.62.82.9.85.24.03.63-.38.82-.58Z"/>
      <path d="M40.88,28.49c-2.03.06-2.4-4.56-2.51-5.99-.84,1.38-2.34,3.37-3.83,4.09-.47.25-1.03.35-1.55.32-1.44-.24-2.11-1.42-2.54-2.68-.61-2.02-.63-4.21-.45-6.28.09-.96.15-1.92.48-2.8.18-.6.73-.98,1.25-.99.36,0,.68.1.93.37.17.23.29.51.34.79.09.48.04,2.79.05,3.27-.01,1.04.02,2.03.08,3.03.1.79.2,1.63.5,2.38,2.43-1.54,3.92-5.37,4.64-8.02.04-.12,0-.24.03-.36.1-.8.72-1.25,1.4-1.27,1.27-.04,1.5,1.07,1.53,2.11.16,2.74.19,5.49.62,8.19.05.52.35,2.5.2,3.02-.18.52-.66.81-1.17.83Z"/>
      <path d="M51.27,32.55c-.32,0-.64-.1-.92-.25-1.38-.96-2.05-2.05-2.69-3.59-1.07-2.72-1.35-5.74-1.63-8.68-.6.02-1.19.03-1.75-.07-1.24-.17-1.29-1.88-.06-2.15.51-.09,1.07-.19,1.63-.24-.21-3.1-.17-6.17.02-9.24.03-.48.25-2.6.4-3.04.22-.64.73-1.02,1.25-1.03.52-.01,1.04.25,1.3.88.3.67.18,3.58.2,4.34-.01,2.51.02,5.06.21,7.56.48-.05,3.14-.33,3.61-.46,1.23-.31,2.03,1.26,1.09,2.08-.7.62-3.6,1.01-4.47,1.12.28,2.82.61,6.44,1.72,9.04.21.43.46.86.71,1.29.53.22.78.78.71,1.3-.1.72-.69,1.13-1.32,1.15Z"/>
      <path d="M59.6,31.29c-.4.01-.8-.1-1.17-.37-1.79-1.38-1.86-6.76-1.84-9.03.03-3.39.25-6.74.44-10.13.06-.8.31-4.67.57-5.47.22-.56.73-.94,1.25-.95.32,0,.64.14.89.41,0,.04.12.16.16.15.25.31.3.79.19,1.15.22,2.11.16,4.22.09,6.33-.05,4.03-.3,8.1-.07,12.11,1-2.78,1.92-5.59,3.28-8.26.45-.93.98-1.9,1.8-2.6.35-.25.74-.5,1.18-.59.63-.1,1.28.08,1.77.47,2.04,1.66,2.59,7.18,2.69,9.57.06.68,0,1.32-.19,1.96-.14.64-.6,1.25-1.32,1.27-.88.02-1.22-.72-1.32-1.48-.25-1.83-.42-3.69-.75-5.52-.19-.99-.33-1.98-.72-2.93-.54.77-.91,1.62-1.33,2.47-1.39,3.03-2.13,6.39-3.48,9.5-.22.56-.53,1.13-1,1.5-.31.29-.71.42-1.14.43Z"/>
      <path d="M104.1,32.42c-.2,0-.4-.03-.6-.1-.32-.15-5.57-4.23-6.06-4.61-1.9,1.96-4.32,3.82-7.14,3.9-1.99.05-4.09-.88-4.54-2.98-.27-1.03.06-2.23.55-3.2.87-1.78,2.26-3.29,3.57-4.8-1.48-1.83-2.85-3.83-3.63-6.08-.61-1.78-.78-3.8-.27-5.61.99-3.25,4.08-5.37,7.42-5.46,3.07-.08,7.59,2.02,8.31,5.27.18.91.05,1.91-.32,2.76-.41,1.01-1.06,1.9-1.76,2.76-1.77,2.28-3.87,4.29-5.76,6.45,1.11,1.08,2.25,2.13,3.43,3.13.96-1.18,1.93-2.4,2.77-3.66.92-1.3,1.72-2.64,2.64-3.9.23-.33.54-.49.86-.5.68-.02,1.33.56,1.23,1.36-.07.48-.94,2.14-1.2,2.54-1.22,2.1-2.68,4.06-4.22,5.89,1.14,1,2.33,1.97,3.43,3.01.24.19,1.35,1.28,1.52,1.51,1.19-.11,1.75,1.39.73,2.01-.27.17-.63.3-.95.3ZM91.84,18.45c1.35-1.51,6.51-6.63,6.98-8.6.14-.6-.24-1.31-.65-1.78-1.19-1.28-2.92-1.99-4.67-1.94-2.27.06-4.3,1.39-4.88,3.68-.21.96-.14,2,.08,2.95.5,2.1,1.78,4.02,3.14,5.69ZM90.45,28.81c2.03-.25,3.47-1.41,4.86-2.84-1.14-.96-2.29-1.97-3.35-3.06-.93,1.14-1.85,2.28-2.53,3.58-.23.4-.72,1.29-.55,1.69.21.43,1.09.65,1.57.63Z"/>
      <path d="M122.51,31.24c-.24,0-.52-.07-.72-.22-.49-.31-.55-1.02-.56-1.62-.08-1.39.16-2.79.36-4.19-.83.06-2.43.03-2.77-.72-.38-.79.52-1.45,1.36-1.19.52.15,1.12.13,1.68.07.67-4.44,1.63-8.85,3.07-13.07.52-1.45,1-2.9,1.64-4.27.68-1.37,1.88-3.92,3.71-3.97,1.59-.04,1.99,1.26,2.26,2.61.25,1.87.38,3.74.55,5.6.33,3.46.63,6.96,1.12,10.41.6.02,1.13.49,1.03,1.05-.07.36-.42.61-.74.74.23,1.03,1.27,5.5,1.92,6.24.45.39.39,1.11-.12,1.48-.23.17-.55.25-.87.26-2.63.07-3.65-5.2-3.98-7.14-2.53.67-5.06,1.29-7.64,1.68-.24,1.52-.51,3.08-.39,4.63,0,.12.13.55.14.67-.06.56-.53.93-1.05.95ZM124.12,23.03c2.38-.42,4.71-1.05,7.05-1.63-.6-4.53-.61-9.15-1.01-13.68-.06-.79-.16-1.59-.26-2.38-2.56,4.05-4.86,13.04-5.77,17.69Z"/>
      <path d="M150.85,31.66c-.4.01-.84-.14-1.17-.45-2.25-2.01-2.8-6.34-3.04-9.16-.62,1.93-1.95,5.91-4.26,5.97-2.63.07-3.81-3.88-4.02-5.91-.16-1.35,0-2.71.33-3.99.71-3.01,2.8-6.97,6.34-7.07.48-.01.92.05,1.32.24.04-1.44.12-7.13.69-8.42.19-.44.54-.65.94-.66.52-.01,1.04.29,1.22.88.05.2.11,1.19.12,1.39.06.83.12,5.73.1,6.57.06,3.74.21,7.49.51,11.22.18,2.38.53,4.85,1.51,7.05.73.34.99,1.21.49,1.82-.27.33-.66.5-1.06.51ZM142.38,25.12c.31-.41.57-.89.76-1.38,1.2-2.62,2-5.39,2.44-8.24.03-.2.16-1.32.2-1.52.07-.24-.33-.19-.52-.11-.99.35-1.77.92-2.3,1.82-.91,1.5-1.54,3.27-1.65,5.07-.08,1.48.24,3.1,1.08,4.35Z"/>
      <path d="M163.98,25.12c-2.03.06-2.4-4.56-2.51-5.99-.84,1.38-2.34,3.37-3.83,4.09-.47.25-1.03.35-1.54.32-1.44-.24-2.11-1.42-2.54-2.68-.61-2.02-.63-4.21-.45-6.28.09-.96.15-1.92.48-2.8.18-.6.73-.98,1.25-.99.36,0,.68.1.93.37.17.23.29.51.34.79.09.48.04,2.79.05,3.27-.01,1.04.02,2.03.08,3.03.1.79.2,1.63.5,2.38,2.43-1.54,3.92-5.37,4.64-8.02.04-.12,0-.24.03-.36.1-.8.72-1.25,1.4-1.27,1.27-.04,1.5,1.07,1.53,2.11.16,2.75.19,5.49.62,8.19.05.52.35,2.5.2,3.02-.18.52-.65.81-1.17.83Z"/>
      <path d="M170.2,28.38c-2.43.07-2.68-8.93-2.72-10.64-.07-2.43-.33-13.7.62-15.24.23-.29.58-.45.94-.46.16,0,.28.03.44.07.08.04.16.04.24.07.56.18.9.81.71,1.38-.08.12-.03.28.01.4.23,2.5.39,17.24.54,19.75.07.95.21,1.91.32,2.86,0,.32.1.67-.01,1-.18.52-.62.81-1.09.83Z"/>
      <path d="M181.17,29c-.32,0-.64-.1-.92-.25-1.38-.96-2.05-2.05-2.69-3.59-1.07-2.72-1.35-5.74-1.63-8.68-.6.02-1.19.03-1.75-.07-1.24-.17-1.29-1.88-.06-2.15.52-.09,1.07-.19,1.63-.24-.21-3.1-.17-6.17.03-9.24.03-.48.25-2.6.4-3.04.22-.64.73-1.02,1.25-1.03.52-.01,1.04.25,1.3.88.3.67.18,3.58.2,4.34-.01,2.51.02,5.06.21,7.56.48-.05,3.14-.33,3.61-.46,1.23-.31,2.03,1.26,1.09,2.08-.7.62-3.6,1.01-4.47,1.12.28,2.82.61,6.44,1.72,9.04.21.43.46.86.71,1.29.53.22.78.78.71,1.3-.1.72-.69,1.13-1.32,1.15Z"/>
      <path d="M201.87,24.05c-1.43.04-3.4-.42-4-1.96-.38-.91.51-1.89,1.47-1.55.28.07.49.27.77.34.4.11,1.95.03,2.39-.07-.8-1.65-2.23-2.93-3.31-4.37-.7-.9-1.29-1.96-1.36-3.11-.06-.84.27-1.76.77-2.45.81-1.06,2.06-1.69,3.3-1.72,1.59-.04,2.81.76,3.09,2.31.18.79-.44,1.29-1.04,1.3-.44.01-.88-.22-1.06-.77-.64.02-1.04.03-1.5.52-.12.08-.35.37-.35.49-.03.32.43,1.02.59,1.26,1.16,1.44,2.47,2.76,3.43,4.33.42.71.76,1.53.78,2.37.06,2.23-2.07,3.04-3.98,3.1Z"/>
      <path d="M213.41,21.9c-3.11.08-5.75-2.11-6.12-5.25,0-.08-.17-.27-.21-.35-.37-.59-.27-1.19.28-1.56.17-.92.47-1.85.92-2.66.87-1.62,2.83-2.99,4.66-3.04.4-.01.84.06,1.24.21,2.29.81,2.65,3.75.99,5.55-1.16,1.31-2.97,2.03-4.68,2.24.52,1.38,1.89,2.3,3.41,2.26.92-.02,1.78-.41,2.57-.87.12-.08.28-.17.43-.17,1.19-.27,1.83,1.38.77,2.01-.86.54-1.76,1.16-2.75,1.43-.47.13-.99.19-1.51.2ZM210.5,14.49c.99-.26,2.1-.57,2.71-1.39.19-.24.42-.77.33-1.04-.08-.16-.36-.23-.56-.18-1.31.2-2.11,1.45-2.48,2.62Z"/>
      <path d="M223.53,23.45c-1.43.04-3.4-.42-4-1.96-.38-.91.51-1.89,1.47-1.55.28.07.49.27.77.34.4.11,1.95.03,2.39-.07-.8-1.65-2.23-2.93-3.31-4.37-.7-.9-1.29-1.96-1.36-3.11-.06-.84.27-1.76.77-2.45.81-1.06,2.07-1.69,3.3-1.72,1.59-.04,2.81.76,3.09,2.31.18.79-.44,1.29-1.04,1.3-.44.01-.88-.22-1.06-.77-.64.02-1.04.03-1.5.52-.12.08-.35.37-.35.49-.03.32.43,1.02.59,1.26,1.16,1.44,2.47,2.76,3.43,4.33.42.71.76,1.53.78,2.37.06,2.23-2.07,3.04-3.98,3.1Z"/>
      <path d="M233.01,23.19c-1.43.04-3.4-.42-4-1.96-.38-.91.51-1.89,1.47-1.55.28.07.49.27.77.34.4.11,1.95.03,2.39-.07-.8-1.65-2.23-2.93-3.31-4.37-.7-.9-1.29-1.96-1.36-3.11-.06-.83.27-1.76.77-2.45.81-1.06,2.06-1.69,3.3-1.72,1.59-.04,2.81.76,3.09,2.31.18.79-.44,1.29-1.04,1.3-.44.01-.88-.21-1.06-.77-.64.02-1.04.03-1.5.52-.12.08-.35.37-.35.49-.03.32.43,1.02.59,1.26,1.15,1.44,2.47,2.76,3.42,4.33.42.71.76,1.53.78,2.37.06,2.23-2.07,3.04-3.98,3.1Z"/>
      <path d="M241.22,23.37c-1.23.03-1.83-1.38-2.06-2.41-.65-3.41-.51-6.96-.08-10.4.06-.52.29-1.12.76-1.38.2-.12.39-.17.59-.18.56-.01,1.13.41,1.3,1.08,0,.08.05.52.06.6.07,2.71-.05,5.42.14,8.12,0,.28.18,2.07.18,2.35,0,.08.25.27.29.31.62.86-.19,1.88-1.18,1.91ZM240.57,6.81c-.48.01-.96-.25-1.22-.8-.47-1.02-.3-2.22-.21-3.34.02-.6.05-1.16.23-1.72.18-.6.69-.93,1.17-.95.52-.01,1.04.33,1.18,1,.18.91.27,4.06-.02,4.94-.18.56-.66.85-1.13.87Z"/>
      <path d="M248.95,21.88c-2.23.06-4.21-2.23-4.52-4.82-.26-2.1.12-4.35.74-6.35.22-.68.48-1.33.86-1.9.23-.29.54-.57.9-.7.44-.13.91-.1,1.32.08.2.11,1.2.13,1.44.16,2.44.37,4.44,2.19,4.63,4.73.23,2.54-1.6,6.98-3.76,8.31-.55.33-1.1.47-1.62.48ZM249.65,18.44c.04-.08.35-.45.38-.53.73-1.17,1.33-2.51,1.49-3.91.06-.52-.03-1.07-.24-1.55-.29-.51-.74-.9-1.27-1.2-.43.21-1.52-.12-1.92-.34-.4,1.6-.79,3.25-.74,4.92.06.79.16,1.63.58,2.33.17.27.62.82.9.85.24.03.63-.38.82-.58Z"/>
      <path d="M258.37,21.31c-1.23.03-1.98-1.06-2.21-2.17-.15-.95-.21-1.91-.24-2.86-.05-1.87-.02-3.75.09-5.58.07-.52.13-1.08.24-1.56.18-.68.89-1.02,1.57-.84.4.07.73.5.86.89.31.99.32,5.85.35,6.88,1.59-2.83,3.34-5.99,5.75-8.25.5-.49,1.17-.79,1.81-.81,1.04-.03,1.73.79,2.08,1.7.86,2.17,1.04,4.59,1.74,6.84.04.16.18.75.26.87.58.78-.03,1.95-1.02,1.98-.6.02-1.53-.71-1.83-1.26-.17-.31-.65-1.81-.74-2.17-.1-.6-.71-3.92-.84-4.48-2.4,2.74-4.14,5.89-5.85,9.04-.34.53-.73,1.1-1.23,1.51-.19.16-.51.25-.79.26Z"/>
      <path d="M276.36,22.01c-1.43.04-3.4-.42-4-1.96-.38-.91.51-1.89,1.47-1.55.28.07.49.27.77.34.4.11,1.95.03,2.39-.07-.8-1.65-2.23-2.93-3.31-4.37-.7-.9-1.29-1.96-1.36-3.11-.06-.83.27-1.76.77-2.45.81-1.06,2.07-1.69,3.3-1.72,1.59-.04,2.81.76,3.09,2.31.18.79-.44,1.29-1.04,1.3-.44.01-.88-.22-1.06-.77-.64.02-1.04.03-1.5.52-.12.08-.35.37-.35.49-.03.32.43,1.02.59,1.26,1.16,1.44,2.47,2.76,3.43,4.33.42.71.76,1.53.78,2.37.06,2.23-2.07,3.04-3.98,3.1Z"/>
    </g>
  </g>
</svg>