<?xml version="1.0" encoding="UTF-8"?>
<svg id="Layer_2" data-name="Layer 2" xmlns="http://www.w3.org/2000/svg" viewBox="0 0 147.27 40.66">
  <g id="Layer_1-2" data-name="Layer 1">
    <g>
      <path d="M9.08,29.19c-3.72-.36-6.53-3.6-7.89-6.89C.04,19.34-.27,15.95.24,12.8.9,8.46,3.73,1.61,8.39.19c.58-.18,1.23-.28,1.81-.06.47.13.88.41,1.16.79.11.13.81,1.16.91,1.33,6.12.88,6.93,6.92,6.69,12.18-.18,3.9-1.18,8.01-3.38,11.27-1.46,2.26-3.77,3.75-6.5,3.49ZM9.61,26.24c3.92.38,5.97-6.18,6.42-9.18.47-2.76.51-5.67-.14-8.38-.51-2.13-1.62-3.48-3.81-4.01-.2-.02-.86-.2-1.07-.1-.08.03-.13.07-.21.1-.21.1-.41.12-.57.1-.75-.07-1.28-.84-.92-1.61-3.44,2.03-5.56,7.78-5.92,11.51-.2,2.46.19,5.02,1.25,7.24.78,1.8,2.88,4.12,4.98,4.33Z"/>
      <path d="M21.05,36.12c-.59-.5-.87-1.37-.95-2.13-.14-.97-.09-1.97-.03-2.93.27-5.25.95-10.51,2.05-15.64.24-1.18,1-4.95,1.84-5.78.31-.29.64-.38.99-.34.75.07,1.37.73,1.17,1.59-.42,1.44-1.66,9.2-1.85,10.74,0,.04.28.03.32-.05.96-2.83,3.62-9.97,7.18-9.62,1.71.17,3.08,2.06,3.41,4.01.19.94.29,1.91.13,2.81-.66,3.86-3.8,7.39-8,6.98-.36-.04-.75-.11-1.1-.23-.7,2.21-1.28,4.48-1.82,6.74-.33,1.29-.74,3.89-2.08,4.08-.41.08-.92.03-1.26-.24ZM27.15,22.75c.36.04.69-.09,1.06-.18,2.22-.58,3.92-2.82,3.9-5.06,0-.88-.14-1.85-.76-2.47-1.61.92-3.58,5.97-4.19,7.71Z"/>
      <path d="M42.3,25.43c-3.09-.3-5.45-2.81-5.42-5.97,0-.08-.13-.29-.16-.38-.3-.63-.12-1.21.47-1.52.29-.89.69-1.77,1.25-2.52,1.07-1.5,3.17-2.61,5-2.43.4.04.82.16,1.21.36,2.17,1.09,2.17,4.05.29,5.63-1.31,1.15-3.2,1.65-4.92,1.64.34,1.43,1.59,2.52,3.1,2.66.91.09,1.82-.18,2.65-.54.13-.07.29-.13.45-.12,1.21-.12,1.64,1.6.52,2.09-.92.43-1.89.94-2.91,1.08-.49.07-1.01.06-1.52.01ZM40.33,17.71c1.01-.14,2.15-.31,2.86-1.04.22-.22.51-.71.46-.99-.06-.17-.33-.27-.54-.25-1.32.03-2.28,1.18-2.79,2.29Z"/>
      <path d="M50.68,26.88c-1.23-.12-1.83-1.3-1.92-2.43-.03-.96.03-1.92.12-2.87.18-1.86.44-3.72.78-5.53.13-.51.26-1.05.43-1.52.26-.66,1.01-.9,1.66-.64.39.12.66.58.74.99.18,1.02-.41,5.84-.51,6.87,1.94-2.61,4.06-5.53,6.73-7.47.56-.43,1.26-.64,1.9-.58,1.03.1,1.62,1,1.85,1.94.58,2.26.46,4.69.88,7.01.02.16.08.77.15.9.48.85-.27,1.93-1.26,1.84-.59-.06-1.43-.9-1.66-1.48-.13-.33-.42-1.88-.46-2.25-.02-.6-.21-3.98-.28-4.55-2.72,2.42-4.84,5.33-6.93,8.25-.41.48-.86,1-1.41,1.34-.21.14-.54.19-.82.16Z"/>
      <path d="M81.16,36.06c-2.74-.27-2.9-9.29-2.89-11.37-1.5-.27-1.43-2.18.06-2.27.14-2.67.44-5.36,1.21-7.89.71-2.33,2.48-6.16,5.49-5.87.79.08,1.55.51,1.91,1.39.1.25.32.39.5.61.59.9-.4,2.04-1.39,1.58-.12-.05-.56-.46-.67-.54-.21-.26-.44.04-.67.29-.67.66-1.11,1.57-1.44,2.46-.88,2.48-1.18,5.13-1.36,7.75.56-.02,2.73-.09,3.52-.02.12.01.2.02.24.02,1.21.36,1.16,2.03.01,2.32-.57.14-3.27.32-3.87.3,0,2.08.16,4.14.4,6.2.05.29.25,1.95.31,2.19,0,.08,0,.48.02.56.11.53.13,1.09-.11,1.55-.25.5-.75.77-1.27.72Z"/>
      <path d="M91.75,31.21c-2.22-.22-3.89-2.74-3.88-5.34,0-2.12.66-4.3,1.53-6.21.3-.65.64-1.26,1.09-1.77.26-.25.61-.5.98-.58.45-.08.92.01,1.3.25.19.14,1.17.27,1.41.34,2.38.67,4.14,2.72,4.01,5.27-.09,2.55-2.46,6.72-4.76,7.78-.59.26-1.15.33-1.67.28ZM92.88,27.88c.05-.08.4-.4.45-.48.86-1.08,1.63-2.32,1.96-3.69.13-.51.1-1.07-.05-1.57-.23-.54-.62-.98-1.11-1.35-.46.16-1.49-.31-1.86-.58-.59,1.54-1.19,3.13-1.35,4.79-.04.8-.04,1.64.29,2.39.13.29.51.89.79.96.23.06.67-.29.89-.47Z"/>
      <path d="M101.04,30.76c-.36-.04-.74-.23-.98-.58-.43-.56-.43-1.36-.48-2.09-.05-2.73.05-5.48.36-8.21.09-.95.42-2.24,1.61-2.12.48.05.96.37,1.11.95.03.08.07.13.1.21.17.26.22.58.15.9,0,.04-.1.23-.11.27,0,1.16-.03,2.36-.1,3.51.1-.19.66-1.02.76-1.21.96-1.19,2.03-2.36,3.66-2.2.79.08,2.03.52,2.33,1.15.33.75-.19,1.58-.96,1.63-.36.04-.74-.23-1.09-.27-1.15-.11-2.65,2.58-3.1,3.46-.25.5-1.66,3.44-1.95,3.93-.29.49-.79.72-1.31.67Z"/>
      <path d="M124.99,35.42c-.95-.09-1.93-.75-2.41-1.52-.89-1.49-.94-3.45-.62-5.14.51-2.75,2.79-6.81,5.67-7.69.45-.12.9-.15,1.33-.11.4.04.75.15,1.09.31.42.16.79.52,1.03.94.26-.21.59-.26.9-.23.36.04.74.19.95.53.28.43.3,1.03.21,1.58-.18,1.42-.44,2.88-.55,4.35-.1,1.43.04,2.85.15,4.22.02.16.03.92.05,1.09.23.94-.51,1.59-1.27,1.52-.32-.03-.62-.18-.87-.52-.47-.57-.97-2.78-1.06-3.47-.88,1.63-2.39,4.37-4.61,4.15ZM125.39,32.58c.46-.23,1.4-1.62,1.68-2.04,1.1-1.81,1.93-3.77,2.76-5.69-.3-.23-.46-.6-.54-.97-.68.05-1.3.63-1.75,1.11-1.38,1.47-2.34,3.49-2.46,5.48-.03.72-.07,1.51.31,2.11Z"/>
      <path d="M137.07,40c-2.42-.24-1.54-9.19-1.38-10.9.24-2.42,1.37-13.63,2.51-15.04.26-.25.64-.38.99-.34.16.02.27.07.43.12.08.05.16.06.23.1.54.25.79.92.54,1.45-.09.11-.07.27-.04.4-.09,2.51-1.75,17.15-1.92,19.66-.05.96-.03,1.92-.04,2.88-.03.32.01.68-.14.99-.25.5-.71.73-1.19.68Z"/>
      <path d="M143.85,40.66c-2.42-.24-1.54-9.19-1.38-10.9.24-2.42,1.37-13.63,2.51-15.04.26-.25.64-.38.99-.34.16.01.27.07.43.12.08.05.16.05.23.1.54.25.79.92.54,1.45-.09.11-.07.27-.04.4-.09,2.51-1.75,17.16-1.92,19.66-.05.96-.03,1.92-.04,2.88-.03.32.01.68-.14.99-.25.5-.71.73-1.19.68Z"/>
    </g>
  </g>
</svg>