<?xml version="1.0" encoding="UTF-8"?>
<svg id="Layer_2" data-name="Layer 2" xmlns="http://www.w3.org/2000/svg" viewBox="0 0 120.9 48.14">
  <g id="Layer_1-2" data-name="Layer 1">
    <g>
      <path d="M6.57,28.51C.5,27.61-.21,20.53.04,15.54c.12-1.63.4-3.24.76-4.84.58-2.25,1.44-4.54,2.84-6.38C5.26,2.14,8.29-.38,11.21.05c1.34.2,2.53.9,3.29,1.98.61.78.88,1.94.66,2.88-.04.28,0,.56-.16.78-.23.45-.66.63-1.09.56-.43-.06-.79-.36-.92-.86-.24-.84-1.19-1.75-2.13-1.89-.43-.06-.86.11-1.29.25-2.27,1.15-3.86,3.49-4.69,5.82-.73,1.91-1.03,3.91-1.25,5.93-.34,3.13-.29,9.5,3.85,10.12,1.06.16,2.16-.2,3.06-.79,1.84-1.26,4.1-5.07,3.86-7.28-.12-1.35-1.26-1.84-2.41-2.17-.42-.14-3.09-.62-3.51-.76-1.07-.36-1-1.92.12-2.16.29-.04.96.02,1.59.12,2.36.35,5.38,1.16,6.27,3.63.48,1.36.25,2.94-.2,4.32-1.26,4.16-4.84,8.7-9.68,7.98Z"/>
      <path d="M19.94,22.57c-.35-.05-.72-.27-.95-.62-.4-.58-.36-1.38-.37-2.11.08-2.73.33-5.47.77-8.18.14-.95.53-2.22,1.71-2.04.47.07.94.42,1.06,1,.03.08.06.13.09.21.16.27.19.59.11.9,0,.04-.12.22-.12.26-.05,1.16-.15,2.35-.28,3.5.11-.19.71-.98.82-1.17,1.02-1.14,2.15-2.26,3.76-2.02.79.12,2,.62,2.27,1.26.29.77-.27,1.57-1.04,1.58-.37.03-.73-.27-1.08-.32-1.14-.17-2.78,2.45-3.27,3.3-.27.48-1.83,3.35-2.14,3.83-.31.48-.83.68-1.34.61Z"/>
      <path d="M32.7,25.83c-2.21-.33-3.75-2.93-3.61-5.53.11-2.12.88-4.26,1.84-6.13.34-.63.71-1.22,1.18-1.72.28-.24.63-.47,1-.54.45-.05.92.06,1.28.31.18.15,1.16.33,1.39.41,2.34.79,3.99,2.93,3.74,5.47-.22,2.54-2.79,6.59-5.15,7.53-.6.23-1.17.27-1.68.19ZM33.99,22.56c.05-.07.42-.38.47-.45.92-1.03,1.74-2.24,2.14-3.59.15-.5.16-1.06.03-1.57-.2-.55-.57-1.01-1.04-1.4-.46.13-1.47-.38-1.83-.68-.67,1.51-1.34,3.06-1.59,4.72-.08.79-.12,1.63.17,2.4.12.3.47.92.74,1,.23.07.68-.26.91-.43Z"/>
      <path d="M42.08,26.91c-1.22-.18-1.77-1.39-1.8-2.52.02-.96.12-1.91.26-2.86.28-1.85.63-3.69,1.06-5.48.15-.5.31-1.04.5-1.5.3-.64,1.05-.85,1.69-.55.38.14.63.62.69,1.03.13,1.03-.7,5.81-.86,6.84,2.06-2.51,4.33-5.31,7.1-7.12.58-.4,1.29-.57,1.92-.48,1.03.15,1.57,1.08,1.75,2.03.46,2.28.22,4.7.52,7.04.02.16.05.77.11.9.43.87-.37,1.92-1.35,1.77-.59-.09-1.39-.97-1.58-1.56-.11-.34-.32-1.9-.35-2.27,0-.6,0-3.99-.05-4.56-2.83,2.28-5.1,5.08-7.33,7.89-.43.46-.91.95-1.48,1.27-.22.13-.55.16-.82.12Z"/>
      <path d="M58.35,30.94c-1.22-.18-1.56-1.68-1.61-2.74-.05-3.47.71-6.94,1.73-10.25.15-.5.48-1.06.99-1.22.21-.09.42-.1.62-.07.55.08,1.04.6,1.1,1.29-.01.08-.04.52-.05.6-.4,2.68-.99,5.33-1.27,8.02-.04.28-.19,2.07-.23,2.34-.01.08.2.31.23.36.46.95-.51,1.82-1.5,1.67ZM60.59,14.52c-.47-.07-.9-.42-1.06-1-.28-1.09.09-2.24.37-3.33.13-.58.25-1.13.53-1.65.29-.56.84-.8,1.32-.73.51.08.97.51.99,1.19.02.93-.44,4.04-.88,4.86-.28.52-.79.73-1.27.66Z"/>
      <path d="M64.34,30.22c-1.22-.18-1.77-1.39-1.8-2.52.02-.96.12-1.91.26-2.86.28-1.85.63-3.69,1.06-5.48.16-.5.32-1.04.5-1.5.3-.64,1.05-.85,1.69-.55.38.14.63.62.69,1.03.13,1.03-.7,5.81-.86,6.84,2.06-2.51,4.33-5.31,7.1-7.12.58-.4,1.29-.57,1.92-.48,1.03.15,1.57,1.08,1.75,2.03.46,2.28.23,4.7.52,7.04.02.16.04.77.11.9.44.87-.37,1.92-1.35,1.77-.59-.09-1.38-.97-1.58-1.56-.11-.34-.32-1.9-.35-2.27,0-.6,0-3.99-.05-4.56-2.83,2.28-5.1,5.08-7.33,7.89-.43.46-.9.95-1.48,1.27-.22.13-.55.16-.82.12Z"/>
      <path d="M82.21,48.1c-1.3-.19-2.5-1.06-3.18-2.16-.13-.18-.79-1.2-.88-1.42-.35-.9.42-1.75,1.25-1.63.16.02.27.08.42.14.15.06.29.21.43.35.52.56,1.79,1.8,2.53,1.7,2.71-.36,4.95-12.43,5.35-14.55-1.39,2.05-3.89,5.34-6.77,4.91-.35-.05-.74-.19-1.07-.36-1.47-.7-2.08-2.52-1.93-4.07.05-1.16.46-2.27,1-3.23,1.52-2.88,6.2-8.14,9.59-7.63.51.08,1.01.23,1.46.5.13-.34.26-.69.47-.98.35-.43.81-.6,1.29-.53.67.1,1.3.72,1.33,1.61,0,.52-.19,1.02-.26,1.49-.13.62-.84,4.3-.93,4.89-.67,3.97-1.31,8.02-2.49,11.87-1.04,3.23-3.14,9.76-7.59,9.1ZM81.91,32.27c.51.08.96-.22,1.33-.53,2.51-2,4.73-5.82,6.09-8.72-.04,0-.4-.02-.48,0-1.86.29-6.1,4.97-6.89,7.07-.21.57-.38,1.19-.26,1.77.02.12.11.38.22.4Z"/>
      <path d="M99.53,34.81c-3.07-.46-5.3-3.08-5.11-6.24.01-.08-.12-.3-.14-.38-.27-.64-.06-1.22.54-1.49.33-.88.78-1.74,1.37-2.45,1.14-1.44,3.3-2.45,5.12-2.18.39.06.82.2,1.19.42,2.12,1.2,1.96,4.16,0,5.64-1.37,1.08-3.28,1.49-5,1.39.27,1.45,1.47,2.59,2.96,2.82.91.13,1.83-.09,2.68-.41.13-.06.3-.12.46-.09,1.22-.06,1.56,1.68.41,2.11-.94.38-1.94.84-2.96.93-.49.05-1.01.01-1.52-.07ZM97.95,27c1.02-.09,2.17-.2,2.91-.9.23-.21.54-.68.51-.97-.06-.17-.32-.29-.52-.28-1.32-.04-2.33,1.06-2.9,2.15Z"/>
      <path d="M107.83,36.69c-1.22-.18-1.77-1.39-1.8-2.52.02-.96.12-1.92.26-2.86.28-1.85.63-3.69,1.06-5.48.16-.5.32-1.04.5-1.49.3-.64,1.05-.85,1.69-.55.38.14.63.62.69,1.03.13,1.03-.7,5.81-.86,6.84,2.06-2.51,4.33-5.31,7.1-7.12.58-.4,1.29-.57,1.92-.48,1.03.15,1.57,1.08,1.75,2.03.46,2.28.23,4.7.52,7.04.02.16.04.77.11.9.44.87-.37,1.92-1.35,1.77-.59-.09-1.38-.97-1.58-1.56-.11-.34-.32-1.9-.35-2.27,0-.6-.01-3.99-.05-4.56-2.84,2.28-5.11,5.08-7.34,7.89-.43.46-.9.95-1.48,1.27-.22.13-.55.16-.82.12Z"/>
    </g>
  </g>
</svg>