<?xml version="1.0" encoding="UTF-8"?>
<svg id="Layer_2" data-name="Layer 2" xmlns="http://www.w3.org/2000/svg" viewBox="0 0 257.61 82.07">
  <g id="Layer_1-2" data-name="Layer 1">
    <g>
      <path d="M18,80.01c-.59.09-1.23-.01-1.74-.3-2.99-1.49-6.22-6.28-7.98-8.99-1.55-2.35-3.02-4.75-4.54-7.14.8,4.64,1.84,9.3,2.68,13.93.06.44.46,2.75.46,3.16.01.77-.46,1.25-1,1.37-.54.12-1.09-.12-1.25-.82-.15-.66-.52-1.23-.75-1.87-.46-1.49-.87-2.95-1.2-4.43-.95-4.03-1.74-8.1-2.33-12.21-.14-.99-.23-1.95-.29-2.92-.14-1.19-.21-2.77,1.26-3.1.54-.12,1.1,0,1.62.33.81.51,2.95,3.67,3.5,4.48,2.52,3.76,4.71,7.72,7.37,11.37.98,1.29,2.01,2.57,3.22,3.6.09-1.04.01-2.12-.06-3.17-.35-4.82-1.33-9.58-2.54-14.24-.08-.35-.72-2.49-.8-2.84-.04-.16.02-.82,0-.94,0-.04-.08-.19-.09-.22-.17-.74.33-1.26.91-1.39.51-.11,1.12.08,1.41.66.14.25.39.44.56.69.26.43.74,2.4.89,2.86.91,3.67,1.66,7.38,2.17,11.15.31,2.3.54,4.61.53,6.9.03,1.58-.16,3.67-2.02,4.09Z"/>
      <path d="M27.73,72.44c-2.18.49-4.55-1.39-5.36-3.86-.66-2.02-.72-4.29-.49-6.38.08-.71.22-1.4.48-2.03.17-.32.42-.67.75-.86.4-.21.88-.28,1.31-.17.22.07,1.2-.11,1.44-.12,2.47-.1,4.78,1.29,5.45,3.76.71,2.45-.23,7.15-2.09,8.88-.47.43-.99.67-1.5.79ZM27.75,68.93c.02-.09.25-.51.27-.59.49-1.29.82-2.71.71-4.12-.04-.52-.24-1.05-.54-1.47-.39-.44-.9-.74-1.47-.93-.38.29-1.51.18-1.95.03-.08,1.65-.15,3.34.22,4.97.21.77.47,1.57,1.02,2.18.22.24.77.69,1.05.66.24-.01.54-.49.69-.73Z"/>
      <path d="M52,66.02c-3.03.68-6.05-.97-7.01-3.98-.02-.08-.22-.24-.27-.31-.48-.5-.49-1.11-.03-1.59,0-.94.1-1.9.4-2.78.54-1.75,2.2-3.47,3.99-3.87.39-.09.83-.11,1.26-.04,2.41.36,3.32,3.17,2.04,5.26-.89,1.5-2.53,2.57-4.16,3.1.77,1.26,2.3,1.89,3.78,1.56.89-.2,1.67-.74,2.35-1.34.1-.1.24-.22.39-.25,1.11-.5,2.06,1.01,1.15,1.82-.74.7-1.5,1.48-2.42,1.93-.44.22-.94.37-1.44.49ZM47.72,59.3c.92-.45,1.95-.97,2.39-1.88.14-.28.26-.83.12-1.09-.11-.14-.4-.16-.59-.07-1.25.44-1.79,1.83-1.93,3.04Z"/>
      <path d="M58.94,65.11c-.58.13-1.24-.25-1.4-.95-.06-.27.03-.58.13-.89.24-.91,2.33-5.05,2.75-5.92-.89-1.06-1.78-2.13-2.75-3.18-.51.11-.96-.07-1.22-.5,0-.04-.21-.4-.27-.47-.33-.74.15-1.5.89-1.67.82-.18,1.65.28,2.25.76.89.7,1.68,1.5,2.48,2.34.23-.42,1.52-3.04,1.75-3.46.27-.43.5-.89.87-1.21.13-.15.32-.23.47-.27.78-.17,1.55.55,1.3,1.42-.06.26-.31.44-.41.71-.28.55-1.93,4.15-2.21,4.7.69.7,3.46,3.43,3.82,4.29.28.71-.12,1.46-.82,1.61-.78.17-2.3-.99-2.86-1.48-.51-.46-1-1-1.49-1.54-.78,1.64-1.55,3.29-2.43,4.83-.11.23-.18.45-.35.61-.13.15-.31.23-.51.28Z"/>
      <path d="M74.75,73.93c-.72-.29-1.25-1.03-1.57-1.73-.44-.88-.7-1.84-.95-2.77-1.38-5.08-2.39-10.28-2.95-15.5-.15-1.19-.59-5.01-.06-6.07.2-.37.49-.56.84-.64.74-.17,1.53.27,1.61,1.15.05,1.5,1.3,9.26,1.6,10.78,0,.04.27-.06.29-.15.02-2.98.32-10.6,3.81-11.38,1.67-.38,3.57.99,4.49,2.75.47.83.88,1.72,1,2.63.58,3.87-1.3,8.21-5.42,9.13-.35.08-.75.13-1.11.13.03,2.32.19,4.65.38,6.98.09,1.33.51,3.93-.7,4.52-.36.2-.87.32-1.27.16ZM76.37,59.32c.35-.08.62-.3.95-.5,1.92-1.25,2.84-3.9,2.12-6.03-.27-.84-.71-1.72-1.49-2.11-1.24,1.38-1.54,6.79-1.57,8.64Z"/>
      <path d="M91.59,57.13c-3.03.68-6.05-.97-7.01-3.98-.02-.08-.22-.24-.27-.31-.48-.5-.49-1.11-.03-1.58,0-.94.1-1.9.4-2.78.54-1.75,2.2-3.47,3.99-3.87.39-.09.83-.11,1.26-.04,2.41.36,3.32,3.17,2.04,5.26-.89,1.51-2.53,2.57-4.16,3.1.77,1.26,2.3,1.89,3.78,1.56.89-.2,1.67-.74,2.35-1.34.1-.1.24-.22.39-.25,1.11-.49,2.06,1.01,1.14,1.83-.74.7-1.5,1.48-2.42,1.93-.44.22-.94.37-1.44.49ZM87.31,50.42c.92-.45,1.95-.97,2.39-1.88.14-.28.26-.83.12-1.09-.11-.14-.4-.16-.59-.07-1.25.44-1.79,1.83-1.93,3.05Z"/>
      <path d="M99.55,54.94c-.35.08-.77,0-1.12-.24-.58-.4-.83-1.16-1.11-1.83-.9-2.57-1.66-5.22-2.22-7.91-.21-.93-.3-2.26.86-2.52.47-.1,1.03.05,1.35.55.06.07.1.1.16.17.25.19.39.48.43.8,0,.04-.03.25-.02.29.37,1.1.71,2.25,1,3.37.03-.21.31-1.17.34-1.38.54-1.43,1.19-2.88,2.78-3.24.78-.17,2.09-.14,2.57.36.55.61.31,1.56-.4,1.84-.33.16-.77.01-1.12.09-1.13.25-1.71,3.28-1.86,4.25-.08.55-.5,3.78-.62,4.34-.12.56-.52.93-1.03,1.05Z"/>
      <path d="M107.5,38.87c-.47.1-.99-.06-1.35-.55-.65-.91-.72-2.12-.85-3.24-.09-.59-.17-1.14-.1-1.73.06-.63.5-1.05.96-1.16.5-.11,1.09.12,1.35.76.36.86,1.04,3.93.93,4.85-.07.59-.48.96-.94,1.07ZM111.32,54.99c-1.21.27-2.06-1.01-2.48-1.97-1.29-3.22-1.84-6.73-2.08-10.19-.04-.52.07-1.16.48-1.5.17-.16.35-.24.55-.29.54-.12,1.18.18,1.49.81.02.08.15.5.17.57.59,2.64.99,5.33,1.7,7.94.06.27.57,1.99.63,2.27.02.08.29.22.34.25.78.72.18,1.88-.79,2.1Z"/>
      <path d="M120.12,50.73c-3.03.68-6.05-.97-7.01-3.98-.02-.08-.22-.24-.27-.31-.48-.5-.49-1.11-.03-1.58,0-.94.1-1.9.4-2.78.54-1.75,2.2-3.47,3.99-3.87.39-.09.83-.11,1.26-.04,2.41.36,3.32,3.17,2.04,5.26-.89,1.51-2.53,2.57-4.16,3.1.77,1.26,2.3,1.89,3.78,1.56.89-.2,1.67-.74,2.35-1.34.1-.1.24-.22.39-.25,1.11-.49,2.06,1.01,1.14,1.83-.74.7-1.5,1.48-2.42,1.93-.44.22-.94.37-1.44.49ZM115.84,44.02c.92-.45,1.95-.97,2.39-1.88.14-.28.26-.83.12-1.09-.11-.14-.4-.15-.59-.07-1.25.44-1.79,1.83-1.93,3.05Z"/>
      <path d="M128.53,49.5c-1.21.27-2.15-.66-2.59-1.71-.33-.91-.58-1.83-.78-2.76-.41-1.83-.74-3.67-.99-5.49-.04-.52-.08-1.08-.07-1.58.04-.7.68-1.17,1.38-1.12.41,0,.81.35,1.02.71.49.91,1.44,5.68,1.66,6.69,1.02-3.09,2.13-6.52,4.06-9.2.4-.58,1-1,1.62-1.14,1.01-.23,1.85.44,2.37,1.27,1.26,1.96,1.91,4.31,3.03,6.38.07.15.32.7.42.8.72.65.35,1.92-.62,2.14-.58.13-1.64-.41-2.04-.89-.22-.28-.98-1.66-1.14-1.99-.21-.57-1.45-3.72-1.68-4.23-1.83,3.14-2.93,6.58-4,10-.24.58-.5,1.21-.92,1.72-.16.2-.45.35-.72.41Z"/>
      <path d="M146.5,45.88c-1.55.35-3.09.04-4.12-1.28-.75-.98-1.22-2.17-1.45-3.35-.45-2.55-.31-9.56,2.96-10.29,1.55-.35,2.39.65,2.89,1.96.97.52.82,1.82-.2,2.04-.66.15-1.35-.19-1.79-.7-.24.58-.39,1.19-.45,1.82-.24,1.48-.39,2.99-.25,4.51.08.72.48,2.14,1.16,2.43.23.11.55.08.9,0,.78-.17,1.72-.71,2.17-1.06.18-.12.97-.75,1.16-.83,1.01-.43,2.02.65,1.51,1.62-.2.37-1.35,1.45-1.66,1.72-.83.67-1.85,1.19-2.83,1.41Z"/>
      <path d="M158.67,42.08c-3.03.68-6.05-.97-7.01-3.98-.02-.08-.22-.24-.27-.31-.48-.5-.49-1.11-.03-1.59,0-.94.1-1.9.4-2.78.55-1.75,2.2-3.47,3.99-3.87.39-.09.83-.11,1.26-.04,2.41.36,3.32,3.17,2.04,5.26-.89,1.5-2.53,2.57-4.16,3.1.77,1.26,2.3,1.89,3.78,1.56.89-.2,1.67-.74,2.35-1.34.1-.1.24-.22.39-.25,1.11-.5,2.06,1.01,1.14,1.82-.74.7-1.5,1.48-2.42,1.93-.44.22-.94.37-1.44.49ZM154.38,35.37c.92-.45,1.95-.97,2.39-1.88.14-.28.26-.83.12-1.09-.11-.14-.4-.16-.59-.07-1.25.44-1.79,1.83-1.93,3.04Z"/>
      <path d="M178.74,38.23c-1.2.27-2.15-.66-2.59-1.71-.33-.91-.58-1.83-.78-2.76-.41-1.83-.74-3.67-.99-5.49-.04-.52-.08-1.08-.07-1.58.04-.7.68-1.17,1.38-1.13.41,0,.81.35,1.02.71.49.91,1.44,5.68,1.66,6.69,1.02-3.09,2.13-6.52,4.06-9.2.4-.58,1-1,1.62-1.14,1.01-.23,1.86.44,2.37,1.27,1.26,1.96,1.91,4.31,3.02,6.38.07.15.32.7.42.8.72.66.35,1.92-.62,2.14-.58.13-1.64-.41-2.04-.89-.23-.28-.98-1.66-1.14-1.99-.21-.57-1.45-3.72-1.69-4.24-1.83,3.15-2.93,6.58-4,10-.24.58-.5,1.21-.92,1.72-.16.2-.45.35-.72.41Z"/>
      <path d="M198.19,33.22c-3.03.68-6.05-.97-7.01-3.98-.02-.08-.22-.24-.27-.31-.48-.5-.49-1.11-.03-1.58,0-.94.1-1.9.4-2.78.54-1.75,2.2-3.47,3.99-3.87.39-.09.83-.11,1.26-.04,2.41.36,3.32,3.17,2.04,5.26-.89,1.5-2.53,2.57-4.16,3.1.77,1.26,2.3,1.89,3.78,1.56.89-.2,1.67-.74,2.35-1.34.1-.1.24-.22.39-.25,1.11-.49,2.06,1.01,1.15,1.83-.74.7-1.5,1.48-2.42,1.93-.44.22-.94.37-1.44.49ZM193.9,26.51c.92-.45,1.95-.97,2.39-1.88.14-.28.26-.83.12-1.09-.11-.14-.4-.15-.59-.07-1.25.44-1.79,1.83-1.93,3.05Z"/>
      <path d="M210.08,30.55c-3.03.68-6.05-.97-7.01-3.98-.02-.08-.22-.24-.27-.31-.48-.5-.49-1.11-.03-1.59,0-.94.1-1.9.4-2.78.54-1.75,2.2-3.47,3.99-3.87.39-.09.83-.1,1.26-.04,2.41.36,3.32,3.17,2.04,5.26-.89,1.5-2.53,2.57-4.16,3.1.77,1.26,2.3,1.89,3.78,1.56.89-.2,1.67-.74,2.35-1.34.1-.1.24-.22.39-.25,1.11-.5,2.06,1.01,1.14,1.82-.74.7-1.5,1.48-2.42,1.93-.44.22-.94.37-1.44.49ZM205.8,23.84c.92-.45,1.95-.97,2.39-1.88.14-.28.26-.83.12-1.09-.11-.14-.4-.15-.59-.07-1.25.44-1.79,1.83-1.93,3.05Z"/>
      <path d="M229.95,34.34c-.39.09-.85.03-1.23-.21-2.59-1.54-3.97-5.68-4.74-8.41-.24,2.01-.78,6.17-3.03,6.68-2.56.58-4.49-3.08-5.09-5.02-.41-1.29-.52-2.66-.44-3.98.12-3.09,1.41-7.38,4.86-8.15.47-.11.91-.12,1.34-.02-.24-1.42-1.25-7.03-.95-8.4.1-.47.4-.74.79-.83.5-.11,1.08.08,1.37.63.08.19.34,1.15.38,1.34.22.81,1.22,5.6,1.36,6.43.78,3.66,1.64,7.31,2.65,10.92.64,2.3,1.45,4.65,2.83,6.63.78.19,1.2,1,.83,1.69-.2.37-.56.61-.94.7ZM220.38,29.54c.22-.46.39-.99.48-1.5.68-2.81.93-5.68.82-8.55,0-.2-.09-1.33-.1-1.53.02-.25-.36-.12-.53,0-.9.53-1.56,1.25-1.91,2.22-.61,1.65-.89,3.5-.65,5.29.21,1.46.83,3,1.89,4.07Z"/>
      <path d="M236.66,24.59c-3.03.68-6.05-.97-7.01-3.98-.02-.08-.22-.24-.27-.31-.48-.5-.49-1.11-.03-1.59,0-.94.11-1.9.4-2.78.54-1.75,2.2-3.47,3.99-3.87.39-.09.83-.11,1.26-.04,2.41.36,3.32,3.17,2.04,5.26-.89,1.5-2.53,2.57-4.16,3.1.77,1.26,2.3,1.89,3.78,1.56.89-.2,1.67-.74,2.35-1.34.1-.1.24-.22.39-.25,1.11-.5,2.06,1.01,1.14,1.82-.74.7-1.5,1.48-2.42,1.93-.44.22-.94.37-1.44.49ZM232.38,17.87c.92-.45,1.95-.97,2.39-1.88.14-.28.26-.83.12-1.09-.11-.14-.4-.16-.59-.07-1.25.44-1.79,1.83-1.93,3.04Z"/>
      <path d="M256.53,28.37c-.39.09-.85.03-1.23-.21-2.59-1.54-3.97-5.68-4.74-8.41-.24,2.01-.78,6.17-3.03,6.68-2.56.58-4.48-3.08-5.08-5.02-.41-1.29-.52-2.66-.44-3.98.12-3.09,1.41-7.38,4.86-8.15.47-.1.91-.12,1.34-.02-.24-1.42-1.25-7.03-.95-8.4.1-.47.4-.74.79-.83.51-.11,1.08.08,1.37.63.08.19.34,1.15.38,1.34.22.81,1.22,5.6,1.36,6.43.78,3.66,1.64,7.31,2.65,10.92.64,2.31,1.45,4.65,2.83,6.63.78.19,1.2.99.83,1.69-.2.37-.56.61-.94.7ZM246.96,23.58c.22-.46.39-.99.48-1.49.68-2.81.93-5.68.82-8.55,0-.2-.09-1.33-.1-1.53.02-.25-.36-.12-.53,0-.9.53-1.56,1.25-1.91,2.22-.61,1.65-.89,3.5-.65,5.29.21,1.46.83,3,1.89,4.06Z"/>
    </g>
  </g>
</svg>