<?xml version="1.0" encoding="UTF-8"?>
<svg id="Layer_2" data-name="Layer 2" xmlns="http://www.w3.org/2000/svg" viewBox="0 0 132.84 36.84">
  <g id="Layer_1-2" data-name="Layer 1">
    <g>
      <path d="M3.78,31c-.24,0-.52-.07-.72-.22-.49-.3-.55-1.02-.56-1.62-.08-1.39.16-2.79.36-4.19-.83.06-2.43.03-2.77-.72-.38-.79.52-1.45,1.36-1.19.52.14,1.12.13,1.67.07.67-4.44,1.63-8.85,3.07-13.07.52-1.45,1-2.9,1.64-4.27.68-1.37,1.88-3.92,3.71-3.97,1.59-.04,1.99,1.26,2.26,2.61.25,1.87.38,3.74.55,5.6.33,3.46.63,6.96,1.12,10.41.6.02,1.13.49,1.03,1.05-.07.36-.42.61-.74.74.23,1.03,1.27,5.5,1.92,6.24.45.39.39,1.11-.12,1.48-.23.17-.55.25-.87.26-2.63.07-3.65-5.2-3.98-7.14-2.53.67-5.06,1.29-7.64,1.68-.24,1.52-.51,3.08-.39,4.63,0,.12.13.55.14.67-.06.56-.53.93-1.05.95ZM5.39,22.79c2.38-.42,4.71-1.04,7.05-1.63-.6-4.53-.61-9.15-1.01-13.68-.06-.79-.16-1.59-.26-2.38-2.56,4.05-4.86,13.04-5.77,17.69Z"/>
      <path d="M24.36,30.39c-2.75.08-4.03-8.85-4.28-10.92-1.52-.08-1.69-1.99-.22-2.26-.19-2.66-.23-5.37.22-7.97.41-2.4,1.7-6.42,4.72-6.5.8-.02,1.6.32,2.06,1.14.12.24.37.35.57.54.7.82-.14,2.08-1.19,1.75-.12-.04-.61-.38-.73-.46-.25-.23-.44.09-.63.38-.58.73-.91,1.7-1.12,2.62-.57,2.57-.54,5.23-.38,7.86.56-.09,2.7-.43,3.49-.45.12,0,.2,0,.24,0,1.24.21,1.41,1.87.3,2.3-.55.21-3.21.73-3.8.78.26,2.06.67,4.08,1.16,6.1.09.28.49,1.9.58,2.14,0,.08.05.48.09.55.17.51.27,1.07.08,1.55-.18.52-.65.86-1.17.87Z"/>
      <path d="M37.48,29.44c-.32,0-.64-.1-.92-.25-1.38-.96-2.05-2.05-2.69-3.59-1.07-2.72-1.35-5.74-1.63-8.68-.6.02-1.19.03-1.75-.07-1.24-.17-1.29-1.88-.06-2.15.52-.09,1.07-.19,1.63-.24-.21-3.1-.17-6.17.03-9.24.03-.48.25-2.6.4-3.04.22-.64.73-1.02,1.25-1.03.52-.01,1.04.25,1.3.88.3.67.18,3.58.2,4.34-.01,2.51.02,5.06.21,7.56.48-.05,3.14-.33,3.61-.46,1.23-.31,2.03,1.26,1.09,2.08-.7.62-3.6,1.02-4.47,1.12.28,2.82.61,6.44,1.72,9.04.21.43.46.86.71,1.29.53.22.78.78.71,1.3-.1.72-.69,1.13-1.32,1.15Z"/>
      <path d="M48.3,22.93c-3.11.08-5.75-2.11-6.12-5.25,0-.08-.17-.27-.21-.35-.38-.59-.27-1.19.28-1.56.17-.92.47-1.84.92-2.65.87-1.62,2.83-2.99,4.66-3.04.4-.01.84.06,1.24.21,2.29.81,2.65,3.75.99,5.55-1.16,1.31-2.97,2.03-4.68,2.24.52,1.38,1.89,2.3,3.41,2.26.92-.03,1.78-.41,2.57-.87.12-.08.27-.17.43-.17,1.19-.27,1.83,1.38.77,2.01-.86.54-1.76,1.16-2.75,1.43-.47.13-.99.19-1.51.2ZM45.39,15.52c.99-.27,2.1-.58,2.71-1.39.19-.24.42-.77.33-1.04-.08-.16-.36-.23-.56-.18-1.31.2-2.11,1.45-2.48,2.62Z"/>
      <path d="M56.53,22.3c-.36,0-.76-.14-1.05-.45-.49-.5-.59-1.3-.73-2.01-.39-2.7-.62-5.44-.66-8.19-.03-.96.14-2.27,1.33-2.31.48-.01,1,.25,1.22.8.04.08.08.12.12.2.21.23.29.55.26.87,0,.04-.07.24-.07.28.15,1.15.26,2.34.34,3.5.07-.2.53-1.09.6-1.29.8-1.3,1.72-2.6,3.35-2.64.8-.02,2.08.26,2.45.85.42.71,0,1.59-.75,1.73-.36.09-.76-.14-1.12-.13-1.16.03-2.31,2.89-2.64,3.82-.19.52-1.22,3.62-1.44,4.14-.22.52-.69.82-1.21.83Z"/>
      <path d="M77.74,30.17c-.4.01-.84-.14-1.17-.45-2.25-2.01-2.8-6.34-3.04-9.16-.62,1.93-1.95,5.91-4.26,5.97-2.63.07-3.81-3.88-4.03-5.91-.16-1.35,0-2.71.33-3.99.71-3.01,2.8-6.97,6.34-7.07.48-.01.92.05,1.32.24.04-1.43.12-7.13.69-8.42.19-.44.54-.65.94-.66.52-.01,1.04.29,1.22.88.05.2.11,1.19.12,1.39.06.83.12,5.73.1,6.57.06,3.74.21,7.49.51,11.22.18,2.39.53,4.85,1.51,7.05.73.34.99,1.21.49,1.82-.27.33-.66.5-1.06.51ZM69.28,23.63c.31-.41.57-.89.76-1.38,1.2-2.62,2-5.39,2.44-8.24.03-.2.16-1.32.2-1.52.07-.24-.32-.19-.52-.11-.99.35-1.77.93-2.3,1.82-.91,1.5-1.54,3.27-1.65,5.06-.08,1.48.24,3.1,1.08,4.35Z"/>
      <path d="M84.48,22.89c-2.23.06-4.2-2.24-4.51-4.82-.26-2.1.12-4.35.74-6.35.22-.68.48-1.33.86-1.9.23-.29.54-.57.9-.7.44-.13.91-.1,1.32.08.2.11,1.2.13,1.44.16,2.44.37,4.44,2.19,4.63,4.73.23,2.54-1.6,6.98-3.76,8.31-.55.33-1.1.47-1.62.48ZM85.18,19.45c.04-.08.35-.45.38-.53.72-1.17,1.33-2.51,1.49-3.91.06-.52-.03-1.07-.24-1.55-.29-.51-.74-.9-1.27-1.2-.43.21-1.52-.12-1.92-.35-.4,1.6-.79,3.25-.74,4.92.06.79.16,1.63.58,2.33.17.27.62.82.9.85.24.03.63-.38.82-.58Z"/>
      <path d="M104.18,29.44c-.4.01-.84-.14-1.17-.45-2.25-2.01-2.8-6.34-3.04-9.16-.62,1.93-1.95,5.91-4.26,5.97-2.63.07-3.81-3.88-4.03-5.91-.16-1.35,0-2.71.33-3.99.71-3.01,2.8-6.97,6.34-7.07.48-.01.92.05,1.32.24.04-1.43.12-7.13.69-8.42.19-.44.54-.65.94-.66.52-.01,1.04.29,1.22.88.05.2.11,1.19.12,1.39.06.83.12,5.73.1,6.57.06,3.74.21,7.49.51,11.22.18,2.38.53,4.85,1.51,7.05.73.34.99,1.21.49,1.82-.27.33-.66.5-1.06.51ZM95.71,22.9c.31-.41.57-.89.76-1.38,1.2-2.62,2-5.39,2.44-8.24.03-.2.16-1.32.2-1.52.07-.24-.32-.19-.52-.11-.99.35-1.77.92-2.3,1.82-.91,1.5-1.54,3.27-1.65,5.06-.08,1.48.24,3.1,1.08,4.35Z"/>
      <path d="M113.3,36.84c-1.31.04-2.65-.61-3.51-1.58-.16-.16-.99-1.05-1.11-1.24-.5-.82.11-1.8.95-1.82.16,0,.28.03.44.07.16.04.32.15.49.27.61.46,2.07,1.46,2.78,1.24,2.61-.83,2.71-13.1,2.73-15.25-1.01,2.26-2.91,5.94-5.81,6.01-.36,0-.76-.06-1.12-.17-1.57-.43-2.49-2.12-2.61-3.67-.15-1.15.06-2.31.43-3.36.99-3.09,4.69-9.09,8.11-9.19.52-.01,1.04.05,1.52.24.07-.36.14-.72.29-1.04.27-.49.7-.74,1.17-.75.68-.02,1.41.48,1.59,1.35.09.51-.01,1.04,0,1.51-.02.64-.08,4.38-.06,4.98.03,4.02.1,8.12-.39,12.12-.47,3.36-1.39,10.16-5.89,10.28ZM110.25,21.31c.52-.01.91-.38,1.22-.75,2.12-2.41,3.64-6.55,4.48-9.64-.04,0-.4.05-.48.09-1.78.61-5.14,5.96-5.55,8.16-.1.6-.17,1.24.05,1.79.04.12.17.35.29.35Z"/>
      <path d="M128.04,20.74c-3.11.08-5.75-2.11-6.12-5.25,0-.08-.17-.27-.21-.35-.38-.59-.27-1.19.28-1.56.17-.92.47-1.85.92-2.66.87-1.62,2.83-2.99,4.66-3.04.4-.01.84.06,1.24.21,2.29.81,2.65,3.75.99,5.55-1.16,1.31-2.97,2.03-4.68,2.24.51,1.38,1.89,2.3,3.41,2.26.92-.02,1.78-.41,2.57-.87.12-.08.28-.17.43-.17,1.19-.27,1.83,1.38.77,2.01-.86.54-1.76,1.16-2.75,1.43-.47.13-.99.19-1.51.2ZM125.13,13.33c.99-.27,2.1-.57,2.71-1.39.19-.24.42-.77.33-1.04-.08-.16-.36-.23-.56-.18-1.31.2-2.11,1.45-2.48,2.62Z"/>
    </g>
  </g>
</svg>