<?xml version="1.0" encoding="UTF-8"?>
<svg id="Layer_2" data-name="Layer 2" xmlns="http://www.w3.org/2000/svg" viewBox="0 0 457.82 63.66">
  <g id="Layer_1-2" data-name="Layer 1">
    <g>
      <path d="M5.86,49.19c-.39,0-.85-.13-1.17-.39-.78-.52-.85-1.7-.85-2.67-.06-2.28.39-4.56.78-6.84-1.37.06-3.97-.06-4.5-1.3-.59-1.3.91-2.35,2.28-1.89.85.26,1.82.26,2.74.2,1.3-7.23,3.06-14.4,5.6-21.24.91-2.35,1.76-4.69,2.87-6.91,1.17-2.21,3.26-6.32,6.25-6.32,2.61,0,3.19,2.15,3.58,4.37.33,3.06.46,6.12.65,9.19.39,5.67.72,11.4,1.37,17.07.98.07,1.82.85,1.63,1.76-.13.59-.72.98-1.24,1.17.33,1.7,1.82,9.06,2.87,10.29.72.65.59,1.82-.26,2.41-.39.26-.91.39-1.43.39-4.3,0-5.73-8.67-6.19-11.86-4.17.98-8.34,1.89-12.57,2.41-.46,2.47-.98,5.02-.85,7.56,0,.2.2.91.2,1.11-.13.91-.91,1.5-1.76,1.5ZM8.86,35.84c3.91-.59,7.75-1.5,11.6-2.35-.78-7.43-.59-14.99-1.04-22.41-.07-1.3-.2-2.61-.33-3.91-4.37,6.52-8.54,21.11-10.23,28.67Z"/>
      <path d="M37.4,46.72c-2.87,0-3.58-4.43-3.84-6.58-1.04-7.04-1.11-14.21-.85-21.31.13-1.56.65-9.9.98-11.47.2-1.43.65-3.32,2.48-3.32,1.5,0,2.08,1.11,2.28,2.41.39,2.87-.13,18.44-.06,21.31.52-1.95,1.04-3.97,1.76-5.93,1.04-2.74,2.87-6.25,6.25-6.25,1.24-.07,2.54.52,3.45,1.37,1.24,1.11,2.08,2.74,2.54,4.37.65,2.48.78,5.21.26,7.69-.91,4.37-4.56,9.45-8.93,9.45-1.11,0-2.08-.2-3.06-.78-.26,1.96-.46,3.91-.72,5.86-.2,1.37-.85,3.19-2.54,3.19ZM43.26,33.49c2.08,0,4.1-2.8,4.69-5.47.39-1.69.46-3.45.2-5.15-.13-.91-.33-1.82-.91-2.54-.26-.39-.78-.85-1.17-.65-2.41,1.04-4.23,10.42-4.69,12.84l.06.06c.59.59,1.24.91,1.82.91Z"/>
      <path d="M62.68,39.55c-3.65,0-6.78-3.84-7.17-8.08-.33-3.45.39-7.1,1.5-10.36.39-1.11.85-2.15,1.5-3.06.39-.46.91-.91,1.5-1.11.72-.2,1.5-.13,2.15.2.33.2,1.95.26,2.35.33,3.97.72,7.17,3.78,7.36,7.95.26,4.17-2.93,11.34-6.52,13.42-.91.52-1.82.71-2.67.71ZM63.98,33.95c.06-.13.59-.72.65-.85,1.24-1.89,2.28-4.04,2.61-6.32.13-.85,0-1.76-.33-2.54-.46-.85-1.17-1.5-2.02-2.02-.72.33-2.48-.26-3.13-.65-.72,2.61-1.43,5.28-1.43,8.01.07,1.3.2,2.67.85,3.85.26.46.98,1.37,1.43,1.43.39.06,1.04-.59,1.37-.91Z"/>
      <path d="M91.74,41.05c-3.32,0-3.71-7.56-3.84-9.9-1.43,2.21-3.97,5.41-6.45,6.52-.78.39-1.69.52-2.54.46-2.35-.46-3.39-2.41-4.04-4.5-.91-3.32-.85-6.91-.46-10.3.2-1.56.33-3.13.91-4.56.33-.98,1.24-1.56,2.08-1.56.59,0,1.11.2,1.5.65.26.39.46.85.52,1.3.13.78-.06,4.56-.06,5.34-.07,1.69-.07,3.32,0,4.95.13,1.3.26,2.67.72,3.91,4.04-2.41,6.65-8.6,7.95-12.9.07-.2,0-.39.07-.59.2-1.3,1.24-2.02,2.35-2.02,2.08,0,2.41,1.82,2.41,3.52.13,4.5.07,8.99.65,13.42.06.85.46,4.11.2,4.95-.33.85-1.11,1.3-1.95,1.3Z"/>
      <path d="M108.55,48.15c-.52,0-1.04-.2-1.5-.46-2.22-1.63-3.26-3.45-4.24-5.99-1.63-4.49-1.95-9.45-2.28-14.27-.98,0-1.95,0-2.87-.2-2.02-.33-2.02-3.13,0-3.52.85-.13,1.76-.26,2.67-.33-.2-5.08,0-10.1.46-15.12.06-.78.52-4.23.78-4.95.39-1.04,1.24-1.63,2.08-1.63s1.69.46,2.08,1.5c.46,1.11.13,5.86.13,7.1-.13,4.1-.2,8.27,0,12.38.78-.06,5.15-.39,5.93-.59,2.02-.46,3.26,2.15,1.69,3.45-1.17.98-5.93,1.5-7.36,1.63.33,4.63.72,10.55,2.41,14.86.33.72.72,1.43,1.11,2.15.85.39,1.24,1.3,1.11,2.15-.2,1.17-1.17,1.82-2.22,1.82Z"/>
      <path d="M151.09,50.17c-10.03,0-12.9-11.27-13.68-19.42-.2-2.67-.13-5.34.07-8.01.39-3.78,1.24-7.69,3.06-11.01,2.08-3.91,6.39-8.73,11.21-8.73,2.22,0,4.3.85,5.8,2.41,1.17,1.11,1.89,2.93,1.76,4.5,0,.46.13.91-.06,1.3-.26.78-.91,1.17-1.63,1.17s-1.37-.39-1.69-1.17c-.59-1.3-2.35-2.54-3.91-2.54-.72,0-1.37.39-2.02.72-3.39,2.41-5.41,6.58-6.19,10.55-.72,3.26-.72,6.58-.59,9.9.2,5.15,1.82,15.44,8.67,15.44,1.76,0,3.45-.85,4.76-2.02,2.67-2.48,5.41-9.19,4.5-12.71-.52-2.15-2.48-2.67-4.43-2.93-.72-.13-5.15-.26-5.86-.39-1.82-.33-2.08-2.87-.33-3.52.46-.13,1.56-.2,2.61-.2,3.91,0,8.99.59,11.01,4.36,1.11,2.09,1.11,4.69.72,7.04-1.04,7.04-5.73,15.25-13.75,15.25Z"/>
      <path d="M171.29,37.33c-.59,0-1.24-.26-1.69-.78-.78-.85-.91-2.15-1.11-3.32-.52-4.43-.78-8.93-.72-13.42,0-1.56.33-3.71,2.28-3.71.78,0,1.63.46,1.95,1.37.06.13.13.2.2.33.33.39.46.91.39,1.43,0,.07-.13.39-.13.46.2,1.89.33,3.84.39,5.73.13-.33.91-1.76,1.04-2.08,1.37-2.08,2.93-4.17,5.6-4.17,1.3,0,3.39.52,3.97,1.5.65,1.17-.07,2.61-1.3,2.8-.59.13-1.24-.26-1.82-.26-1.89,0-3.91,4.63-4.5,6.12-.33.85-2.15,5.86-2.54,6.71-.39.85-1.17,1.3-2.02,1.3Z"/>
      <path d="M192.73,39.55c-3.65,0-6.78-3.84-7.17-8.08-.33-3.45.39-7.1,1.5-10.36.39-1.11.85-2.15,1.5-3.06.39-.46.91-.91,1.5-1.11.72-.2,1.5-.13,2.15.2.33.2,1.95.26,2.35.33,3.97.72,7.17,3.78,7.36,7.95.26,4.17-2.93,11.34-6.52,13.42-.91.52-1.82.71-2.67.71ZM194.03,33.95c.06-.13.59-.72.65-.85,1.24-1.89,2.28-4.04,2.61-6.32.13-.85,0-1.76-.33-2.54-.46-.85-1.17-1.5-2.02-2.02-.72.33-2.48-.26-3.13-.65-.72,2.61-1.43,5.28-1.43,8.01.07,1.3.2,2.67.85,3.85.26.46.98,1.37,1.43,1.43.39.06,1.04-.59,1.37-.91Z"/>
      <path d="M208.17,39.03c-2.02,0-3.19-1.82-3.52-3.65-.2-1.56-.26-3.13-.26-4.69,0-3.06.13-6.13.39-9.12.13-.85.26-1.76.46-2.54.33-1.11,1.5-1.63,2.61-1.3.65.13,1.17.85,1.37,1.5.46,1.63.26,9.58.26,11.27,2.74-4.56,5.73-9.64,9.77-13.23.85-.78,1.96-1.24,3-1.24,1.69,0,2.8,1.37,3.32,2.87,1.3,3.58,1.5,7.56,2.54,11.27.06.26.26,1.24.39,1.43.91,1.3-.13,3.19-1.76,3.19-.98,0-2.48-1.24-2.93-2.15-.26-.52-.98-3-1.11-3.58-.13-.98-.98-6.45-1.17-7.36-4.04,4.37-7.04,9.45-9.97,14.53-.59.85-1.24,1.76-2.08,2.41-.33.26-.85.39-1.3.39Z"/>
      <path d="M234.3,8.47c-1.24,0-2.67-1.56-2.93-2.67-.33-1.11-.39-2.41,0-3.52.39-.98,1.63-2.28,2.74-2.28,1.63,0,2.54,2.28.91,3.39-.13.06-.13.2-.13.33-.07.26,0,.91.13,1.11.06.07.39.26.46.33,1.24,1.3.33,3.32-1.17,3.32Z"/>
      <path d="M245.18,40.98c-2.35,0-5.54-.85-6.45-3.39-.59-1.5.91-3.06,2.48-2.48.46.13.78.46,1.24.59.65.2,3.19.13,3.91,0-1.24-2.74-3.52-4.89-5.21-7.3-1.11-1.5-2.02-3.26-2.08-5.15-.07-1.37.52-2.87,1.37-3.97,1.37-1.69,3.45-2.67,5.47-2.67,2.61,0,4.56,1.37,4.95,3.91.26,1.3-.78,2.08-1.76,2.08-.72,0-1.43-.39-1.69-1.3-1.04,0-1.69,0-2.48.78-.2.13-.59.59-.59.78-.07.52.65,1.69.91,2.08,1.82,2.41,3.91,4.63,5.41,7.23.65,1.17,1.17,2.54,1.17,3.91,0,3.65-3.52,4.89-6.65,4.89Z"/>
      <path d="M281.14,46.85c-.52,0-1.04-.2-1.43-.65-1.56-1.82-2.48-4.23-2.93-6.52-.72-3.71-.98-7.49-1.11-11.27-.2-6.19.07-12.44.78-18.57.2-1.43.33-2.8.65-4.17-.72-1.11-.07-2.54,1.17-3,.85-.33,5.15-.46,6.12-.46,7.1,0,15.57,3.13,17.72,10.62,1.17,4.43.85,9.32-.33,13.68-1.89,7.04-9.06,15.12-16.42,16.94-.85.26-1.82.46-2.74.33-.07,0,.26.72.33.85.2,1.3-.78,2.21-1.82,2.21ZM281.34,39.75c1.04-.2,2.08-.33,3-.85,7.49-3.84,12.83-10.69,12.97-19.35.07-2.48-.13-5.21-1.56-7.17-1.17-1.56-3-2.61-4.89-3.39-2.8-1.11-5.93-1.37-8.99-1.69,0,.98-.52,6.84-.59,7.82-.39,4.76-.59,9.45-.52,14.2,0,3.45.13,6.97.59,10.43Z"/>
      <path d="M312.94,39.55c-3.65,0-6.78-3.84-7.17-8.08-.33-3.45.39-7.1,1.5-10.36.39-1.11.85-2.15,1.5-3.06.39-.46.91-.91,1.5-1.11.72-.2,1.5-.13,2.15.2.33.2,1.96.26,2.35.33,3.97.72,7.17,3.78,7.36,7.95.26,4.17-2.93,11.34-6.52,13.42-.91.52-1.82.71-2.67.71ZM314.24,33.95c.07-.13.59-.72.65-.85,1.24-1.89,2.28-4.04,2.61-6.32.13-.85,0-1.76-.33-2.54-.46-.85-1.17-1.5-2.02-2.02-.72.33-2.48-.26-3.13-.65-.72,2.61-1.43,5.28-1.43,8.01.07,1.3.2,2.67.85,3.85.26.46.98,1.37,1.43,1.43.39.06,1.04-.59,1.37-.91Z"/>
      <path d="M344.86,51.15c-.65,0-1.37-.26-1.89-.78-3.58-3.39-4.3-10.49-4.56-15.12-1.11,3.13-3.45,9.58-7.23,9.58-4.3,0-6.06-6.52-6.32-9.84-.2-2.21.13-4.43.72-6.52,1.3-4.89,4.89-11.27,10.69-11.27.78,0,1.5.13,2.15.46.13-2.35.52-11.66,1.5-13.75.33-.72.91-1.04,1.56-1.04.85,0,1.69.52,1.96,1.5.07.33.13,1.96.13,2.28.07,1.37-.06,9.38-.13,10.75-.07,6.12,0,12.25.33,18.37.2,3.91.65,7.95,2.15,11.6,1.17.59,1.56,2.02.72,3-.46.52-1.11.78-1.76.78ZM331.31,40.07c.52-.65.98-1.43,1.3-2.21,2.09-4.23,3.52-8.73,4.37-13.36.06-.33.33-2.15.39-2.48.13-.39-.52-.33-.85-.2-1.63.52-2.93,1.43-3.84,2.87-1.56,2.41-2.67,5.28-2.93,8.21-.2,2.41.26,5.08,1.56,7.17Z"/>
      <path d="M359.46,63.66c-2.15,0-4.3-1.11-5.67-2.74-.26-.26-1.56-1.76-1.76-2.08-.78-1.37.26-2.93,1.63-2.93.26,0,.46.06.72.13.26.07.52.26.78.46.98.78,3.32,2.48,4.5,2.15,4.3-1.24,5.02-21.31,5.15-24.82-1.76,3.65-5.02,9.58-9.77,9.58-.59,0-1.24-.13-1.82-.33-2.54-.78-3.97-3.58-4.1-6.12-.2-1.89.2-3.78.85-5.47,1.76-5.02,8.08-14.66,13.68-14.66.85,0,1.69.13,2.48.46.13-.59.26-1.17.52-1.69.46-.78,1.17-1.17,1.96-1.17,1.11,0,2.28.85,2.54,2.28.13.85-.07,1.69-.07,2.48-.07,1.04-.33,7.17-.33,8.15-.13,6.58-.2,13.29-1.17,19.81-.91,5.47-2.74,16.55-10.1,16.55ZM355.16,38.12c.85,0,1.5-.59,2.02-1.17,3.58-3.84,6.25-10.55,7.75-15.57-.06,0-.65.07-.78.13-2.93.91-8.67,9.51-9.45,13.1-.2.98-.33,2.02,0,2.93.07.2.26.59.46.59Z"/>
      <path d="M384.28,37.99c-5.08,0-9.32-3.71-9.77-8.86,0-.13-.26-.46-.33-.59-.59-.98-.39-1.96.52-2.54.33-1.5.85-3,1.63-4.3,1.5-2.61,4.76-4.76,7.75-4.76.65,0,1.37.13,2.02.39,3.71,1.43,4.17,6.25,1.37,9.12-1.96,2.09-4.95,3.19-7.75,3.45.78,2.28,3,3.84,5.47,3.84,1.5,0,2.93-.59,4.23-1.3.2-.13.46-.26.72-.26,1.96-.39,2.93,2.35,1.17,3.32-1.43.85-2.93,1.82-4.56,2.21-.78.2-1.63.26-2.48.26ZM379.85,25.74c1.63-.39,3.45-.85,4.5-2.15.33-.39.72-1.24.59-1.69-.13-.26-.59-.39-.91-.33-2.15.26-3.52,2.28-4.17,4.17Z"/>
      <path d="M400.31,46.72c-2.87,0-3.58-4.43-3.84-6.58-1.04-7.04-1.11-14.21-.85-21.31.13-1.56.65-9.9.98-11.47.2-1.43.65-3.32,2.48-3.32,1.5,0,2.08,1.11,2.28,2.41.39,2.87-.13,18.44-.07,21.31.52-1.95,1.04-3.97,1.76-5.93,1.04-2.74,2.87-6.25,6.25-6.25,1.24-.07,2.54.52,3.45,1.37,1.24,1.11,2.08,2.74,2.54,4.37.65,2.48.78,5.21.26,7.69-.91,4.37-4.56,9.45-8.93,9.45-1.11,0-2.08-.2-3.06-.78-.26,1.96-.46,3.91-.72,5.86-.2,1.37-.85,3.19-2.54,3.19ZM406.17,33.49c2.08,0,4.1-2.8,4.69-5.47.39-1.69.46-3.45.2-5.15-.13-.91-.33-1.82-.91-2.54-.26-.39-.78-.85-1.17-.65-2.41,1.04-4.24,10.42-4.69,12.84l.07.06c.59.59,1.24.91,1.82.91Z"/>
      <path d="M424.35,41.11c-1.56,0-3.26-.91-4.17-2.08-1.69-2.28-2.08-5.47-1.82-8.28.39-4.56,3.45-11.53,8.01-13.42.72-.26,1.43-.39,2.15-.39.65,0,1.24.13,1.82.33.72.2,1.37.72,1.83,1.37.39-.39.91-.52,1.43-.52.59,0,1.24.2,1.63.72.52.65.65,1.63.59,2.54-.07,2.35-.26,4.76-.2,7.17.06,2.35.52,4.62.91,6.84.06.26.2,1.5.26,1.76.52,1.5-.59,2.67-1.83,2.67-.52,0-1.04-.2-1.5-.72-.85-.85-2.02-4.37-2.28-5.47-1.17,2.8-3.19,7.49-6.84,7.49ZM424.55,36.42c.72-.46,2.02-2.87,2.41-3.58,1.5-3.13,2.54-6.45,3.58-9.71-.52-.33-.85-.91-1.04-1.5-1.11.2-2.02,1.24-2.67,2.08-2.02,2.61-3.26,6.06-3.13,9.32.07,1.17.13,2.47.85,3.39Z"/>
      <path d="M444.74,46.65c-3.97,0-3.97-14.73-3.97-17.53,0-3.97.06-22.41,1.69-24.89.39-.46.98-.72,1.56-.72.26,0,.46.07.72.13.13.07.26.07.39.13.91.33,1.43,1.37,1.11,2.28-.13.2-.07.46,0,.65.26,4.1-.13,28.21,0,32.32.07,1.56.26,3.13.39,4.69,0,.52.13,1.11-.06,1.63-.33.85-1.04,1.3-1.82,1.3Z"/>
      <path d="M455.89,46.65c-3.97,0-3.97-14.73-3.97-17.53,0-3.97.06-22.41,1.69-24.89.39-.46.98-.72,1.56-.72.26,0,.46.07.72.13.13.07.26.07.39.13.91.33,1.43,1.37,1.11,2.28-.13.2-.07.46,0,.65.26,4.1-.13,28.21,0,32.32.07,1.56.26,3.13.39,4.69,0,.52.13,1.11-.06,1.63-.33.85-1.04,1.3-1.82,1.3Z"/>
    </g>
  </g>
</svg>