<?xml version="1.0" encoding="UTF-8"?>
<svg id="Layer_2" data-name="Layer 2" xmlns="http://www.w3.org/2000/svg" viewBox="0 0 131.17 35.51">
  <g id="Layer_1-2" data-name="Layer 1">
    <g>
      <path d="M7.17,27.38c-1.43-.02-2.9-.68-3.92-1.69C.94,23.54.2,19.94.05,16.91-.24,12.52.75,7.92,2.92,4.13,4.15,2,6.17-.04,8.8,0c1.2.06,2.5.52,3.24,1.45.74.97,1.24,2.21,1.18,3.44,0,.6-.14,1.15-.31,1.75-.04.16-.17.32-.17.48-.01.72-.53,1.07-1.09,1.06-.48,0-.99-.29-1.22-.9-.11-.4-.07-.92-.1-1.36-.06-1.04-.28-2.71-1.59-2.73-.48-.09-1.04.14-1.4.46-.44.39-.85.82-1.17,1.3-2.25,3.47-2.95,7.96-2.9,12.1.05,1.87.42,3.83,1.27,5.56.54.96,1.64,2.18,2.83,2.2,1.83.03,3.86-2.25,4.8-3.55.2-.28.94-1.5,1.18-1.69.24-.2.48-.27.68-.27.8.01,1.42.9.93,1.73-1.55,2.56-4.4,6.42-7.79,6.37Z"/>
      <path d="M20.87,22.42c-2.23-.04-4.11-2.41-4.3-5.01-.17-2.11.31-4.34,1.02-6.32.25-.67.54-1.31.95-1.86.24-.27.57-.55.93-.66.44-.11.92-.06,1.31.14.2.12,1.19.18,1.43.22,2.42.48,4.34,2.38,4.42,4.93.12,2.55-1.9,6.9-4.11,8.14-.56.31-1.12.42-1.64.41ZM21.73,19c.04-.08.37-.43.41-.51.78-1.14,1.43-2.45,1.65-3.84.09-.52.02-1.07-.17-1.56-.27-.52-.7-.93-1.21-1.25-.44.19-1.51-.18-1.91-.43-.46,1.59-.93,3.21-.95,4.88.03.8.09,1.63.48,2.36.15.28.58.85.86.89.24.04.64-.35.85-.54Z"/>
      <path d="M29.55,20.4c-1.98-.55-1.61-3.77-1.38-5.84.1-1.11.68-5.37,1.25-6.35.25-.4.69-.63,1.13-.62.4,0,.75.21.94.61.31.64.18,1.44.09,2.15-.05.6-.42,3.9-.43,4.53.9-1.54,1.76-3.08,3.02-4.33.53-.55,1.25-1.02,2.01-1,.68.01,1.35.38,1.74.94.82,1.21,1.11,2.69,1.53,4.09.82-1.22,1.51-2.48,2.45-3.63.73-.94,2.07-2.16,3.38-2.14.68.01,1.35.34,1.74.9,1.01,1.49,1.06,3.48.99,5.23,0,.4-.15,2.03-.32,2.42,0,.04-.04.08-.04.16-.13.6-.65.99-1.21.98-.76-.01-1.3-.74-1.45-1.42-.07-.52.05-3.27.06-3.82-.03-.52-.02-1.04-.13-1.56-.85.62-1.42,1.53-1.99,2.4-.37.55-1.88,3.04-2.41,3.47-.4.35-.92.5-1.4.5-.64,0-1.23-.3-1.62-.86-.89-1.33-1.11-2.96-1.6-4.49-.81.94-1.47,2.01-2.12,3.07-.37.59-2.01,3.47-2.53,3.98-.41.43-1.09.78-1.68.61Z"/>
      <path d="M50.93,20.74c-1.98-.55-1.61-3.77-1.38-5.84.1-1.11.68-5.37,1.25-6.35.25-.39.69-.63,1.13-.62.4,0,.75.21.95.61.31.64.18,1.44.09,2.15-.05.6-.42,3.9-.43,4.53.9-1.54,1.76-3.08,3.02-4.33.53-.55,1.25-1.02,2.01-1,.68.01,1.35.38,1.74.94.82,1.21,1.11,2.69,1.53,4.09.82-1.22,1.51-2.49,2.45-3.63.73-.94,2.07-2.16,3.38-2.14.68.01,1.35.34,1.74.9,1.01,1.49,1.06,3.48.99,5.23,0,.4-.15,2.03-.32,2.42,0,.04-.04.08-.04.16-.13.6-.65.99-1.21.98-.76-.01-1.3-.74-1.45-1.42-.07-.52.05-3.27.06-3.82-.03-.52-.02-1.04-.13-1.56-.85.62-1.42,1.53-1.99,2.4-.37.55-1.88,3.04-2.4,3.47-.4.35-.92.5-1.4.5-.64-.01-1.23-.3-1.62-.86-.89-1.33-1.11-2.96-1.6-4.49-.81.94-1.47,2.01-2.12,3.07-.37.59-2.01,3.47-2.53,3.98-.41.43-1.09.78-1.68.61Z"/>
      <path d="M81.39,24.28c-2.03-.03-2.2-4.65-2.25-6.09-.9,1.34-2.48,3.27-4,3.92-.48.23-1.04.3-1.56.25-1.43-.3-2.05-1.51-2.42-2.79-.53-2.04-.45-4.23-.18-6.3.14-.95.23-1.91.6-2.78.21-.59.77-.94,1.29-.94.36,0,.68.13.91.41.16.24.27.52.31.8.07.48-.08,2.79-.09,3.26-.06,1.03-.07,2.03-.05,3.03.07.8.13,1.64.4,2.4,2.49-1.43,4.15-5.19,4.98-7.81.04-.12,0-.24.05-.36.13-.79.78-1.22,1.45-1.21,1.27.02,1.46,1.14,1.44,2.17.04,2.75-.05,5.5.27,8.21.03.52.24,2.51.07,3.03-.21.51-.69.79-1.21.78Z"/>
      <path d="M86.66,23.13c-1.24-.02-1.93-1.15-2.12-2.26-.11-.96-.13-1.91-.12-2.87.03-1.87.14-3.74.33-5.57.09-.52.18-1.07.3-1.55.21-.67.93-.98,1.61-.77.4.09.71.53.82.93.26,1,.07,5.86.05,6.89,1.72-2.76,3.6-5.84,6.1-7.99.53-.47,1.21-.74,1.84-.73,1.04.02,1.7.86,2,1.78.76,2.2.84,4.63,1.45,6.91.04.16.15.76.22.88.54.8-.11,1.95-1.11,1.93-.6,0-1.5-.78-1.77-1.34-.15-.32-.57-1.84-.64-2.2-.07-.6-.54-3.95-.65-4.51-2.51,2.63-4.39,5.71-6.23,8.78-.37.51-.77,1.06-1.3,1.45-.2.16-.52.23-.8.23Z"/>
      <path d="M103.32,24.99c-1.23-.02-1.77-1.46-1.95-2.5-.5-3.43-.21-6.97.36-10.39.09-.52.34-1.11.82-1.34.2-.12.4-.15.6-.15.56,0,1.11.46,1.26,1.13,0,.08.03.52.03.6-.04,2.71-.28,5.41-.21,8.12,0,.28.09,2.07.08,2.35,0,.08.23.28.27.32.58.88-.27,1.87-1.26,1.85ZM103.38,8.42c-.48,0-.95-.29-1.18-.86-.42-1.04-.2-2.23-.07-3.35.05-.6.1-1.15.31-1.71.21-.59.73-.9,1.21-.9.52,0,1.03.37,1.14,1.05.14.92.09,4.06-.24,4.93-.21.55-.69.83-1.17.82Z"/>
      <path d="M114.09,29.14c-.32,0-.63-.13-.91-.29-1.34-1.02-1.96-2.14-2.53-3.7-.95-2.76-1.1-5.79-1.26-8.74-.6,0-1.19-.02-1.75-.15-1.23-.22-1.21-1.93.03-2.15.52-.07,1.08-.14,1.64-.17-.07-3.11.1-6.17.42-9.23.05-.48.36-2.58.53-3.02.25-.63.77-.98,1.29-.98.52,0,1.03.29,1.26.94.27.68.02,3.58.01,4.34-.12,2.51-.2,5.06-.12,7.57.48-.03,3.15-.19,3.63-.3,1.24-.26,1.97,1.35,1,2.13-.73.59-3.64.86-4.52.92.16,2.83.34,6.46,1.33,9.1.19.44.42.88.66,1.32.51.25.74.81.66,1.32-.13.72-.73,1.1-1.37,1.09Z"/>
      <path d="M129.28,35.51c-2.51-.04-2.83-4.55-2.81-6.3.03-2.07.18-4.14.38-6.21-.57.95-1.15,1.93-1.99,2.6-.48.39-1.13.66-1.72.65-.68.03-1.43-.34-1.94-.83-1.14-1.13-1.71-2.85-1.84-4.49-.2-2.59-.08-5.26.56-7.76.25-.91.63-2.02,1.74-2,.52,0,.95.29,1.14.81.19.6.06,1.32-.03,1.99-.14,1.39-.16,2.79-.18,4.18-.02,1.51-.02,3.7.72,5.07,1.94-1.64,4.05-7.03,4.73-9.37.21-.75.19-1.67.67-2.3.29-.39.65-.55,1.04-.54.68.01,1.31.5,1.41,1.3.03.48-.05.92-.1,1.39-.37,3.42-2.21,16.3-1.02,19.54,0,.04.12.08.16.12.9.77.21,2.15-.91,2.14Z"/>
    </g>
  </g>
</svg>