<?xml version="1.0" encoding="UTF-8"?>
<svg id="Layer_2" data-name="Layer 2" xmlns="http://www.w3.org/2000/svg" viewBox="0 0 204.02 37.41">
  <g id="Layer_1-2" data-name="Layer 1">
    <g>
      <path d="M4.6,27.87c-2.91.02-4.13-3.76-4.38-6.06-.38-3.1-.2-6.21.02-9.32.22-2.83.48-5.7,1.26-8.41.16-.48.59-1.36,1.02-1.64.16-.12.36-.16.56-.16.76,0,1.32.91,1.33,1.62,0,.08-.16.52-.16.64-.11,1.67-.3,3.35-.44,5.06-.18,2.83-.32,5.7-.34,8.53,0,1.51.02,3.07.39,4.58.12.68.29,1.39.73,1.91.59-.72,1.84-4.43,2.12-5.35,1.21-4.03,2.17-8.14,3.26-12.21.15-.64.79-1,1.43-1,1.43,0,1.6,1.62,1.61,2.7.19,4.34.66,10.15,2.92,14.04.24.36.44.79.76,1.07,1.23-1.12,1.71-5.75,1.86-7.38.33-4.14.5-8.33.08-12.47-.04-.48-.21-2.23-.06-2.67.16-.52.63-.76,1.07-.76.48,0,.92.27,1.12.79.49,1.27.65,2.62.74,3.98.18,2.79.12,5.57-.02,8.36-.14,2.59-.36,5.18-.86,7.69-.42,2.07-1.44,5.39-4.03,5.4-3.62.02-5.71-7.73-6.17-10.51-.62,2.39-1.28,4.79-2.1,7.1-.59,1.68-1.56,4.47-3.71,4.49Z"/>
      <path d="M27.74,27.68c-.4,0-.8-.11-1.16-.39-1.76-1.42-1.72-6.8-1.65-9.07.1-3.39.39-6.73.65-10.12.07-.8.41-4.66.68-5.46.24-.56.75-.92,1.27-.92.32,0,.64.16.88.43,0,.04.12.16.16.16.24.32.29.79.17,1.15.17,2.11.07,4.22-.04,6.33-.13,4.02-.46,8.09-.32,12.11,1.06-2.76,2.03-5.55,3.45-8.19.47-.92,1.02-1.88,1.85-2.56.36-.24.75-.48,1.19-.57.64-.08,1.28.11,1.76.51,2,1.7,2.44,7.23,2.49,9.62.04.68-.03,1.31-.23,1.95-.16.64-.63,1.24-1.35,1.24-.88,0-1.2-.75-1.28-1.5-.21-1.83-.34-3.7-.63-5.53-.17-.99-.29-1.99-.66-2.94-.55.76-.95,1.6-1.38,2.44-1.45,3-2.27,6.35-3.68,9.42-.24.56-.55,1.12-1.03,1.48-.32.28-.71.4-1.15.41Z"/>
      <path d="M44.45,24.3c-.96,0-2-.54-2.56-1.26-1.04-1.39-1.3-3.34-1.15-5.05.22-2.79,2.06-7.06,4.84-8.24.44-.16.88-.24,1.31-.25.4,0,.76.07,1.12.19.44.12.84.43,1.12.83.24-.24.55-.32.87-.32.36,0,.76.11,1,.43.32.4.4.99.37,1.55-.03,1.43-.14,2.91-.09,4.38.05,1.43.34,2.83.59,4.18.04.16.13.92.17,1.07.33.91-.35,1.63-1.1,1.64-.32,0-.64-.11-.92-.43-.52-.51-1.25-2.66-1.42-3.34-.71,1.72-1.92,4.59-4.15,4.61ZM44.55,21.43c.43-.28,1.22-1.76,1.46-2.2.9-1.92,1.53-3.95,2.15-5.95-.32-.2-.52-.55-.64-.91-.68.12-1.23.77-1.62,1.29-1.22,1.6-1.97,3.72-1.87,5.71.04.72.09,1.51.53,2.07Z"/>
      <path d="M61.08,28.49c-.32,0-.64-.11-.92-.27-1.36-.99-2.01-2.1-2.61-3.65-1.01-2.74-1.23-5.77-1.45-8.71-.6,0-1.19,0-1.75-.11-1.24-.19-1.25-1.9-.01-2.15.52-.08,1.07-.17,1.63-.21-.14-3.11-.04-6.17.22-9.24.04-.48.3-2.59.46-3.03.23-.64.75-1,1.27-1,.52,0,1.04.27,1.28.91.28.68.1,3.58.11,4.34-.06,2.51-.09,5.06.05,7.57.48-.04,3.14-.26,3.62-.38,1.23-.29,2,1.3,1.05,2.1-.71.6-3.62.94-4.5,1.03.22,2.83.48,6.45,1.54,9.07.2.44.44.87.69,1.31.52.23.76.79.69,1.31-.12.72-.71,1.12-1.35,1.12Z"/>
      <path d="M69.93,24.05c-1.43,0-3.39-.5-3.96-2.04-.36-.91.54-1.88,1.5-1.52.28.08.48.28.76.35.4.12,1.95.07,2.39-.02-.77-1.67-2.17-2.97-3.21-4.44-.68-.91-1.25-1.98-1.3-3.14-.05-.84.31-1.75.82-2.44.83-1.04,2.1-1.65,3.33-1.66,1.59-.01,2.79.82,3.04,2.37.16.8-.47,1.28-1.07,1.28-.44,0-.88-.23-1.04-.79-.64,0-1.04,0-1.51.49-.12.08-.36.36-.36.48-.04.32.41,1.03.57,1.27,1.12,1.47,2.41,2.81,3.34,4.4.4.71.73,1.55.73,2.38.01,2.23-2.13,3-4.04,3.01Z"/>
      <path d="M78.49,29.01c-.24,0-.52-.08-.72-.23-.48-.32-.52-1.03-.53-1.63-.05-1.39.22-2.79.45-4.19-.83.05-2.43-.02-2.75-.78-.36-.79.55-1.44,1.39-1.16.52.16,1.12.15,1.67.11.77-4.43,1.81-8.81,3.34-13.01.55-1.44,1.06-2.87,1.72-4.23C83.77,2.53,85.02.01,86.86,0c1.59-.01,1.96,1.3,2.21,2.65.21,1.87.3,3.74.44,5.61.26,3.46.49,6.97.91,10.43.6.04,1.12.51,1,1.07-.08.36-.43.6-.75.72.21,1.03,1.15,5.53,1.79,6.28.44.4.37,1.11-.15,1.47-.24.16-.56.24-.87.24-2.63.02-3.54-5.27-3.83-7.22-2.54.61-5.09,1.19-7.68,1.52-.27,1.52-.58,3.07-.49,4.62,0,.12.12.56.12.68-.08.56-.55.92-1.07.92ZM80.27,20.83c2.39-.37,4.73-.95,7.08-1.48-.51-4.54-.42-9.16-.73-13.7-.05-.8-.13-1.59-.22-2.39-2.64,4-5.13,12.94-6.13,17.56Z"/>
      <path d="M96.37,34.74c-.64-.43-1-1.27-1.17-2.02-.24-.95-.29-1.95-.34-2.9-.27-5.26-.15-10.55.41-15.77.11-1.2.48-5.02,1.23-5.94.28-.32.59-.44.95-.44.76,0,1.44.59,1.32,1.46-.27,1.48-.69,9.32-.72,10.88,0,.04.28,0,.32-.08.66-2.91,2.56-10.29,6.14-10.32,1.71-.01,3.28,1.73,3.81,3.64.29.91.49,1.87.42,2.79-.25,3.9-3.01,7.75-7.24,7.77-.36,0-.76-.04-1.12-.11-.46,2.27-.8,4.59-1.11,6.9-.19,1.31-.33,3.94-1.64,4.27-.4.12-.92.13-1.28-.11ZM101.06,20.81c.36,0,.68-.16,1.03-.29,2.14-.81,3.6-3.21,3.35-5.44-.08-.88-.33-1.83-1.01-2.38-1.51,1.09-2.95,6.31-3.37,8.11Z"/>
      <path d="M112.38,34.64c-.64-.43-1-1.27-1.17-2.02-.24-.95-.29-1.95-.34-2.9-.27-5.26-.15-10.55.41-15.77.11-1.2.48-5.02,1.23-5.94.28-.32.59-.44.95-.44.76,0,1.44.59,1.32,1.46-.27,1.48-.69,9.32-.72,10.88,0,.04.28,0,.32-.08.66-2.91,2.56-10.29,6.14-10.32,1.71-.01,3.28,1.73,3.81,3.64.29.91.49,1.87.42,2.79-.25,3.9-3.01,7.75-7.24,7.77-.36,0-.76-.04-1.12-.11-.46,2.27-.8,4.59-1.11,6.9-.19,1.31-.33,3.94-1.64,4.27-.4.12-.92.13-1.28-.11ZM117.07,20.71c.36,0,.68-.16,1.03-.29,2.14-.81,3.6-3.21,3.35-5.44-.08-.88-.33-1.83-1.01-2.38-1.51,1.09-2.95,6.31-3.37,8.11Z"/>
      <path d="M144.7,37.41c-1.31,0-2.63-.66-3.48-1.65-.16-.16-.96-1.07-1.08-1.27-.48-.83.15-1.79.98-1.8.16,0,.28.04.44.08.16.04.32.16.48.28.6.47,2.04,1.5,2.76,1.3,2.62-.77,2.98-13.04,3.04-15.19-1.06,2.24-3.03,5.87-5.93,5.89-.36,0-.76-.07-1.12-.19-1.56-.47-2.44-2.17-2.53-3.73-.13-1.15.1-2.31.5-3.35,1.05-3.07,4.88-8.99,8.3-9.02.52,0,1.04.07,1.52.27.08-.36.15-.72.31-1.04.27-.48.71-.72,1.19-.72.68,0,1.4.51,1.56,1.38.08.52-.03,1.04-.03,1.51-.04.64-.17,4.38-.17,4.98-.05,4.02-.06,8.13-.64,12.11-.54,3.35-1.6,10.13-6.1,10.16ZM141.96,21.81c.52,0,.91-.36,1.23-.73,2.17-2.36,3.78-6.48,4.68-9.55-.04,0-.4.04-.48.08-1.79.57-5.26,5.85-5.72,8.04-.12.6-.19,1.24.01,1.79.04.12.16.36.28.36Z"/>
      <path d="M155.82,21.24c-.36,0-.76-.15-1.04-.47-.48-.51-.57-1.31-.69-2.03-.34-2.71-.51-5.45-.49-8.2,0-.96.18-2.27,1.38-2.28.48,0,1,.27,1.2.83.04.08.08.12.12.2.2.24.28.56.25.87,0,.04-.08.24-.08.28.13,1.15.21,2.35.26,3.5.08-.2.55-1.08.63-1.28.83-1.28,1.78-2.56,3.41-2.57.8,0,2.07.31,2.44.9.4.71-.03,1.59-.79,1.72-.36.08-.76-.15-1.12-.15-1.16,0-2.37,2.84-2.72,3.76-.2.52-1.29,3.59-1.53,4.11s-.71.8-1.23.8Z"/>
      <path d="M168.93,22.51c-2.23.02-4.16-2.32-4.41-4.91-.21-2.11.21-4.34.87-6.34.23-.68.51-1.32.9-1.88.24-.28.55-.56.91-.68.44-.12.92-.09,1.32.11.2.12,1.2.15,1.44.19,2.43.42,4.4,2.28,4.53,4.83.18,2.55-1.75,6.94-3.93,8.23-.55.32-1.11.45-1.63.45ZM169.7,19.08c.04-.08.36-.44.39-.52.75-1.16,1.38-2.48,1.57-3.87.08-.52,0-1.08-.21-1.55-.28-.52-.72-.91-1.24-1.23-.44.2-1.51-.15-1.92-.39-.43,1.6-.85,3.23-.84,4.9.04.8.13,1.63.53,2.35.16.28.6.83.88.87.24.04.63-.36.83-.56Z"/>
      <path d="M186.7,23.31c-2.03.01-2.3-4.6-2.39-6.04-.87,1.36-2.41,3.32-3.92,4.01-.48.24-1.03.33-1.55.29-1.43-.27-2.08-1.46-2.49-2.73-.57-2.03-.55-4.22-.32-6.29.11-.96.19-1.91.54-2.79.2-.6.75-.96,1.27-.96.36,0,.68.11.92.39.16.24.28.52.32.79.08.48-.02,2.79-.02,3.27-.03,1.04-.03,2.03.02,3.03.08.8.17,1.63.45,2.39,2.46-1.49,4.03-5.28,4.81-7.92.04-.12,0-.24.04-.36.11-.8.75-1.24,1.42-1.24,1.27,0,1.48,1.11,1.49,2.14.1,2.75.08,5.5.45,8.2.04.52.3,2.51.14,3.03-.19.52-.67.8-1.19.8Z"/>
      <path d="M191.63,34.11c-.64-.43-1-1.27-1.17-2.02-.24-.95-.29-1.95-.34-2.9-.27-5.26-.15-10.55.41-15.77.11-1.2.48-5.02,1.23-5.94.28-.32.59-.44.95-.44.76,0,1.44.59,1.32,1.46-.27,1.48-.69,9.32-.72,10.88,0,.04.28,0,.32-.08.66-2.91,2.56-10.29,6.14-10.32,1.71-.01,3.28,1.73,3.81,3.64.29.91.49,1.87.42,2.79-.25,3.9-3.01,7.75-7.24,7.77-.36,0-.76-.04-1.12-.11-.46,2.27-.8,4.59-1.11,6.9-.19,1.31-.33,3.94-1.64,4.27-.4.12-.92.12-1.28-.11ZM196.31,20.17c.36,0,.68-.16,1.03-.29,2.14-.81,3.6-3.21,3.35-5.44-.08-.88-.33-1.83-1.01-2.38-1.51,1.08-2.95,6.31-3.37,8.11Z"/>
    </g>
  </g>
</svg>