<?xml version="1.0" encoding="UTF-8"?>
<svg id="Layer_2" data-name="Layer 2" xmlns="http://www.w3.org/2000/svg" viewBox="0 0 189.06 37.16">
  <g id="Layer_1-2" data-name="Layer 1">
    <g>
      <path d="M3.96,27.79c-.28,0-.56-.08-.84-.31-1.68-1.66-2.44-7.71-2.62-10.02-.2-.28-.24-.68-.13-1l.04-.12c-.23-4.22.1-8.44.63-12.63C.37,3.56-.15,3.01.04,2.37c.2-.68.75-1.12,1.35-1.12.2,0,.36.04.56.12.24-.16.44-.2.68-.2.24,0,.48.04.72.19,1.39-.05,2.83-.18,4.22-.19.88,0,1.75.03,2.63.14.36.08.76.15,1.04.35.84.71.37,2.07-.74,2.08-.76,0-1.51.17-2.31.25-1.35.09-2.71.1-4.06.03,0,1.39-.14,2.75-.21,4.14-.14,2.43-.29,4.9-.23,7.37.96-.09,1.91-.13,2.87-.14.96,0,1.91.03,2.83.14.56.04,1.12.03,1.59.31.84.47.85,1.67.02,2.19-.44.24-1.07.21-1.59.21-1.87.09-3.75-.25-5.58-.28.05.88.77,7.52,1.13,8.12.56.87-.15,1.71-.98,1.72Z"/>
      <path d="M17.55,23.12c-2.23.02-4.16-2.32-4.42-4.91-.21-2.11.21-4.34.87-6.34.23-.68.51-1.32.9-1.88.24-.28.55-.56.91-.68.44-.12.92-.09,1.32.11.2.12,1.2.15,1.43.19,2.43.42,4.4,2.28,4.53,4.83.18,2.55-1.74,6.94-3.93,8.23-.56.32-1.11.45-1.63.45ZM18.32,19.69c.04-.08.36-.44.39-.52.75-1.16,1.38-2.48,1.57-3.87.08-.52,0-1.08-.21-1.55-.28-.52-.72-.91-1.24-1.23-.44.2-1.51-.15-1.91-.38-.43,1.6-.85,3.23-.84,4.9.05.8.13,1.63.53,2.35.16.28.6.83.88.87.24.04.63-.36.83-.56Z"/>
      <path d="M28.19,24c-.96,0-2-.54-2.56-1.26-1.04-1.39-1.3-3.34-1.15-5.05.22-2.79,2.06-7.06,4.84-8.24.44-.16.88-.25,1.31-.25.4,0,.76.07,1.12.19.44.12.84.43,1.12.83.24-.24.56-.32.87-.33.36,0,.76.11,1,.43.32.4.4.99.37,1.55-.03,1.43-.14,2.91-.09,4.38.05,1.43.34,2.83.59,4.18.04.16.13.92.17,1.07.33.91-.35,1.64-1.1,1.64-.32,0-.64-.11-.92-.43-.52-.51-1.25-2.66-1.42-3.34-.71,1.72-1.92,4.59-4.15,4.61ZM28.29,21.13c.44-.28,1.22-1.76,1.46-2.2.9-1.92,1.53-3.95,2.15-5.95-.32-.2-.52-.55-.64-.91-.68.12-1.23.77-1.62,1.29-1.22,1.6-1.97,3.72-1.87,5.71.04.72.09,1.51.53,2.07Z"/>
      <path d="M38.96,20.82c-2-.5-1.7-3.73-1.51-5.8.07-1.12.56-5.38,1.11-6.38.24-.4.67-.64,1.11-.65.4,0,.76.19.96.59.32.63.21,1.43.13,2.15-.04.6-.33,3.91-.33,4.54.87-1.56,1.69-3.12,2.92-4.4.51-.56,1.23-1.04,1.98-1.05.68,0,1.36.35,1.76.9.84,1.19,1.17,2.66,1.62,4.05.79-1.24,1.46-2.52,2.36-3.68.71-.96,2.02-2.2,3.33-2.21.68,0,1.36.31,1.76.86,1.04,1.47,1.14,3.46,1.11,5.21,0,.4-.11,2.03-.26,2.43,0,.04-.04.08-.04.16-.12.6-.63,1-1.19,1-.76,0-1.32-.71-1.48-1.38-.08-.52-.02-3.27-.03-3.82-.04-.52-.05-1.04-.17-1.55-.83.64-1.38,1.56-1.94,2.44-.35.56-1.81,3.08-2.33,3.52-.4.36-.91.52-1.39.53-.64,0-1.24-.27-1.64-.83-.93-1.31-1.18-2.94-1.7-4.45-.79.96-1.42,2.04-2.05,3.12-.35.6-1.93,3.52-2.44,4.04-.4.44-1.07.8-1.67.65Z"/>
      <path d="M83.23,29.76c-.4,0-.84-.15-1.16-.47-2.2-2.06-2.67-6.39-2.85-9.22-.66,1.92-2.07,5.87-4.38,5.88-2.63.02-3.73-3.96-3.9-5.99-.13-1.35.06-2.71.41-3.99.78-2.99,2.94-6.91,6.48-6.93.48,0,.92.07,1.32.27.07-1.43.27-7.13.86-8.41.2-.44.55-.64.95-.64.52,0,1.04.31,1.2.91.04.2.09,1.19.09,1.39.05.84,0,5.73-.04,6.57-.01,3.74.05,7.49.28,11.23.13,2.39.43,4.86,1.36,7.08.72.35.96,1.23.45,1.83-.28.32-.67.48-1.07.48ZM74.9,23.04c.32-.4.59-.88.79-1.36,1.26-2.6,2.11-5.35,2.61-8.18.04-.2.19-1.32.23-1.51.08-.24-.32-.2-.52-.12-.99.33-1.79.89-2.34,1.77-.95,1.48-1.61,3.24-1.76,5.03-.11,1.47.18,3.11.99,4.37Z"/>
      <path d="M90.11,22.62c-2.23.02-4.16-2.32-4.42-4.91-.21-2.11.21-4.34.87-6.34.23-.68.51-1.32.9-1.88.24-.28.55-.56.91-.68.44-.12.92-.09,1.32.11.2.12,1.2.15,1.43.19,2.43.42,4.4,2.28,4.53,4.83.18,2.55-1.74,6.94-3.92,8.23-.56.32-1.11.45-1.63.45ZM90.88,19.19c.04-.08.36-.44.39-.52.75-1.16,1.38-2.48,1.57-3.87.08-.52,0-1.08-.21-1.55-.28-.52-.72-.91-1.24-1.23-.44.2-1.51-.15-1.91-.38-.43,1.6-.85,3.23-.84,4.9.05.8.13,1.63.53,2.35.16.28.6.83.88.87.24.04.63-.36.83-.56Z"/>
      <path d="M109.67,29.57c-.4,0-.84-.15-1.16-.47-2.2-2.06-2.67-6.39-2.85-9.22-.66,1.92-2.07,5.87-4.38,5.88-2.63.02-3.73-3.96-3.9-5.99-.13-1.35.06-2.71.41-3.99.78-2.99,2.94-6.91,6.48-6.93.48,0,.92.07,1.32.27.07-1.43.27-7.13.86-8.41.2-.44.55-.64.95-.64.52,0,1.04.31,1.2.91.04.2.09,1.19.09,1.39.05.84,0,5.73-.04,6.57-.01,3.74.05,7.49.28,11.23.13,2.39.43,4.86,1.36,7.08.72.35.96,1.23.45,1.83-.28.32-.67.48-1.07.48ZM101.34,22.86c.32-.4.59-.88.79-1.36,1.26-2.6,2.11-5.35,2.61-8.18.04-.2.19-1.31.23-1.51.08-.24-.32-.2-.52-.12-.99.33-1.79.89-2.34,1.77-.95,1.48-1.61,3.24-1.76,5.03-.11,1.47.18,3.11.99,4.37Z"/>
      <path d="M118.64,37.16c-1.31,0-2.63-.66-3.48-1.65-.16-.16-.96-1.07-1.08-1.27-.48-.83.15-1.79.98-1.8.16,0,.28.04.44.08.16.04.32.16.48.28.6.47,2.04,1.5,2.76,1.3,2.62-.77,2.98-13.04,3.04-15.19-1.06,2.24-3.03,5.88-5.93,5.9-.36,0-.76-.07-1.12-.19-1.56-.47-2.44-2.17-2.53-3.73-.13-1.15.1-2.31.49-3.35,1.05-3.07,4.88-8.99,8.3-9.02.52,0,1.04.07,1.52.27.08-.36.15-.72.31-1.04.28-.48.71-.72,1.19-.73.68,0,1.4.51,1.56,1.38.08.52-.03,1.04-.03,1.51-.04.64-.17,4.38-.17,4.98-.05,4.02-.06,8.12-.63,12.11-.53,3.35-1.6,10.13-6.1,10.16ZM115.91,21.57c.52,0,.91-.36,1.23-.73,2.17-2.37,3.78-6.48,4.67-9.55-.04,0-.4.04-.48.08-1.79.57-5.26,5.85-5.72,8.04-.12.6-.19,1.24.01,1.79.04.12.16.36.28.36Z"/>
      <path d="M133.71,21.36c-3.11.02-5.71-2.23-6.01-5.38,0-.08-.16-.28-.2-.36-.36-.59-.25-1.19.31-1.56.19-.92.5-1.84.98-2.64.91-1.6,2.89-2.93,4.72-2.94.4,0,.84.07,1.24.23,2.28.86,2.57,3.81.88,5.57-1.19,1.28-3.01,1.97-4.72,2.14.49,1.39,1.85,2.34,3.36,2.33.92,0,1.79-.37,2.58-.81.12-.08.28-.16.44-.16,1.19-.25,1.8,1.42.73,2.03-.87.52-1.79,1.13-2.78,1.37-.48.12-.99.17-1.51.17ZM130.95,13.9c.99-.25,2.11-.53,2.74-1.33.2-.24.43-.76.35-1.04-.08-.16-.36-.24-.56-.2-1.31.17-2.14,1.41-2.53,2.57Z"/>
      <path d="M143.54,26.63c-1.75.01-2.21-2.69-2.38-4.01-.67-4.3-.74-8.68-.61-13.02.07-.96.36-6.06.55-7.01.11-.88.38-2.03,1.5-2.04.92,0,1.28.67,1.4,1.46.25,1.75,0,11.27.05,13.02.31-1.2.62-2.43,1.05-3.63.63-1.68,1.73-3.84,3.8-3.85.76-.04,1.56.31,2.12.82.76.67,1.29,1.66,1.57,2.66.41,1.51.5,3.18.19,4.7-.54,2.67-2.75,5.79-5.42,5.81-.68,0-1.28-.11-1.87-.46-.15,1.2-.26,2.39-.41,3.59-.11.84-.5,1.96-1.54,1.96ZM147.07,18.52c1.27,0,2.5-1.73,2.84-3.36.23-1.04.27-2.11.1-3.15-.08-.56-.21-1.11-.57-1.55-.16-.24-.48-.51-.72-.39-1.47.65-2.54,6.39-2.81,7.86l.04.04c.36.36.76.55,1.12.55Z"/>
      <path d="M158.21,23.11c-.96,0-2-.54-2.56-1.26-1.04-1.39-1.3-3.34-1.15-5.05.22-2.79,2.06-7.06,4.84-8.24.44-.16.88-.25,1.31-.25.4,0,.76.07,1.12.19.44.12.84.43,1.12.83.24-.24.56-.32.87-.32.36,0,.76.11,1,.43.32.4.4.99.37,1.55-.03,1.43-.14,2.91-.09,4.38.05,1.43.34,2.83.59,4.18.04.16.13.92.17,1.07.33.91-.35,1.64-1.1,1.64-.32,0-.64-.11-.92-.43-.52-.51-1.25-2.66-1.42-3.34-.71,1.72-1.92,4.59-4.15,4.61ZM158.31,20.24c.44-.28,1.22-1.76,1.46-2.2.9-1.92,1.53-3.95,2.15-5.95-.32-.2-.52-.55-.64-.91-.68.12-1.23.77-1.62,1.29-1.22,1.6-1.97,3.72-1.87,5.71.04.72.09,1.51.53,2.07Z"/>
      <path d="M170.7,26.41c-2.43.02-2.49-8.98-2.5-10.7-.02-2.43-.05-13.7.93-15.22.24-.28.59-.44.95-.44.16,0,.28.04.44.08.08.04.16.04.24.08.56.2.88.83.69,1.39-.08.12-.04.28,0,.4.18,2.51.04,17.24.14,19.75.05.96.17,1.91.26,2.87,0,.32.08.68-.03,1-.2.52-.63.8-1.11.8Z"/>
      <path d="M177.51,26.36c-2.43.02-2.49-8.98-2.5-10.7-.02-2.43-.05-13.7.93-15.22.24-.28.59-.44.95-.44.16,0,.28.04.44.08.08.04.16.04.24.08.56.2.88.83.69,1.39-.08.12-.04.28,0,.4.18,2.51.04,17.24.14,19.75.05.96.17,1.91.26,2.87,0,.32.08.68-.03,1-.2.52-.63.8-1.11.8Z"/>
      <path d="M185.02,22.84c-1.43.01-3.39-.49-3.96-2.04-.37-.91.54-1.88,1.5-1.52.28.08.48.28.76.35.4.12,1.95.07,2.39-.02-.77-1.67-2.17-2.97-3.22-4.44-.68-.91-1.25-1.98-1.3-3.14-.05-.84.31-1.75.82-2.44.83-1.04,2.1-1.65,3.33-1.66,1.59-.01,2.79.82,3.04,2.37.17.8-.47,1.28-1.07,1.28-.44,0-.88-.23-1.04-.79-.64,0-1.04,0-1.51.49-.12.08-.36.36-.36.48-.04.32.41,1.03.57,1.27,1.13,1.47,2.41,2.81,3.34,4.4.4.71.73,1.55.73,2.38.02,2.23-2.13,3-4.04,3.01Z"/>
    </g>
  </g>
</svg>