<?xml version="1.0" encoding="UTF-8"?>
<svg id="Layer_2" data-name="Layer 2" xmlns="http://www.w3.org/2000/svg" viewBox="0 0 189.2 40.29">
  <g id="Layer_1-2" data-name="Layer 1">
    <g>
      <path d="M6.26,27.18c-1.43-.14-2.83-.92-3.76-2.01C.36,22.84-.08,19.2.01,16.16.08,11.77,1.44,7.26,3.91,3.66,5.31,1.64,7.5-.23,10.11.02c1.19.16,2.45.72,3.11,1.71.66,1.02,1.06,2.3.9,3.53-.06.59-.23,1.14-.45,1.72-.06.15-.19.3-.21.46-.07.71-.62,1.02-1.17.97-.48-.05-.96-.38-1.14-.99-.08-.41,0-.92.01-1.36.02-1.04-.05-2.73-1.36-2.85-.47-.13-1.05.06-1.43.34-.47.35-.91.75-1.28,1.2-2.52,3.28-3.59,7.69-3.88,11.83-.1,1.87.1,3.85.81,5.64.46,1,1.46,2.3,2.64,2.42,1.82.18,4.03-1.93,5.07-3.15.23-.26,1.06-1.42,1.32-1.59.26-.18.5-.23.7-.21.79.08,1.34,1.01.79,1.8-1.76,2.43-4.91,6.04-8.28,5.71Z"/>
      <path d="M20.32,23.35c-2.22-.22-3.89-2.74-3.88-5.34,0-2.12.66-4.3,1.53-6.21.3-.65.64-1.26,1.09-1.78.26-.25.61-.5.98-.58.45-.08.92,0,1.3.25.19.14,1.17.27,1.41.34,2.38.67,4.14,2.72,4.01,5.27-.09,2.55-2.46,6.72-4.76,7.78-.59.26-1.15.33-1.67.28ZM21.44,20.02c.05-.08.4-.4.45-.48.87-1.08,1.63-2.32,1.96-3.69.13-.51.1-1.07-.05-1.57-.23-.54-.62-.98-1.11-1.35-.46.16-1.49-.31-1.86-.58-.59,1.54-1.19,3.13-1.35,4.79-.04.8-.04,1.64.29,2.39.13.29.51.89.79.96.23.06.67-.29.89-.47Z"/>
      <path d="M30.81,25.33c-.95-.09-1.93-.75-2.41-1.52-.89-1.49-.94-3.45-.62-5.14.51-2.75,2.79-6.81,5.67-7.69.45-.12.9-.15,1.33-.11.4.04.75.15,1.09.31.42.16.79.52,1.03.94.26-.22.59-.26.9-.23.36.03.74.19.95.53.28.43.3,1.03.21,1.58-.18,1.42-.44,2.88-.54,4.35-.1,1.43.04,2.85.15,4.22.02.16.03.92.05,1.08.23.94-.52,1.59-1.27,1.52-.32-.03-.62-.18-.87-.52-.46-.57-.97-2.78-1.06-3.46-.88,1.63-2.39,4.37-4.61,4.15ZM31.21,22.49c.46-.23,1.4-1.62,1.68-2.04,1.1-1.81,1.93-3.77,2.76-5.69-.3-.23-.46-.61-.54-.97-.69.05-1.3.63-1.75,1.11-1.38,1.46-2.34,3.49-2.46,5.48-.03.72-.07,1.51.32,2.11Z"/>
      <path d="M44.37,25.78c-1.59-.15-2.95-.93-3.52-2.5-.41-1.16-.48-2.45-.33-3.63.37-2.56,2.7-9.18,6.03-8.86,1.59.16,2.07,1.36,2.13,2.77.76.79.21,1.98-.82,1.88-.67-.07-1.22-.6-1.48-1.22-.41.48-.74,1.01-.99,1.58-.69,1.33-1.31,2.71-1.65,4.2-.15.71-.21,2.18.34,2.67.18.18.5.25.85.28.79.08,1.85-.14,2.39-.33.21-.06,1.16-.41,1.36-.43,1.09-.09,1.72,1.25.92,2.01-.31.29-1.73.95-2.11,1.12-1,.38-2.13.55-3.12.45Z"/>
      <path d="M54,30.88c-.4-.04-.78-.2-1.11-.51-1.6-1.6-1-6.94-.7-9.19.45-3.36,1.09-6.66,1.7-10,.16-.78.89-4.59,1.24-5.36.29-.53.84-.84,1.36-.79.32.03.62.22.83.52,0,.04.1.17.14.17.21.34.2.82.05,1.17-.04,2.12-.37,4.21-.69,6.29-.55,3.99-1.3,8-1.57,12.01,1.34-2.63,2.6-5.31,4.28-7.79.56-.87,1.21-1.76,2.11-2.36.38-.2.8-.4,1.24-.44.64-.02,1.26.24,1.69.69,1.82,1.9,1.68,7.45,1.48,9.83-.03.68-.17,1.3-.43,1.92-.22.62-.75,1.17-1.47,1.1-.87-.09-1.12-.87-1.12-1.63-.02-1.84.04-3.72-.06-5.57-.06-1.01-.08-2.01-.35-3-.63.7-1.11,1.49-1.62,2.28-1.76,2.83-2.91,6.08-4.64,8.99-.29.53-.66,1.06-1.17,1.37-.34.25-.75.33-1.19.28Z"/>
      <path d="M73.64,27.59c-3.09-.3-5.45-2.81-5.42-5.97,0-.08-.13-.29-.16-.38-.3-.63-.12-1.21.47-1.52.29-.89.69-1.77,1.25-2.52,1.07-1.5,3.18-2.61,5-2.43.4.04.82.16,1.21.36,2.17,1.09,2.17,4.05.29,5.63-1.31,1.15-3.2,1.65-4.92,1.64.34,1.43,1.59,2.52,3.1,2.66.91.09,1.82-.18,2.65-.54.13-.07.29-.13.45-.12,1.21-.12,1.64,1.6.52,2.09-.92.43-1.89.94-2.91,1.08-.49.07-1.01.06-1.52.01ZM71.68,19.88c1.01-.14,2.15-.31,2.86-1.04.22-.22.51-.71.46-1-.06-.17-.33-.27-.54-.25-1.32.03-2.28,1.18-2.79,2.29Z"/>
      <path d="M91.33,37.4c-.4-.04-.82-.24-1.1-.59-1.98-2.27-1.99-6.64-1.88-9.47-.86,1.84-2.67,5.62-4.97,5.4-2.62-.25-3.3-4.32-3.26-6.36.01-1.36.34-2.69.82-3.92,1.08-2.9,3.64-6.57,7.17-6.22.48.05.9.17,1.28.41.22-1.42,1.01-7.06,1.73-8.28.24-.42.62-.58,1.01-.54.51.05,1,.42,1.1,1.03.02.2-.04,1.2-.06,1.4-.04.84-.6,5.7-.72,6.53-.4,3.72-.73,7.45-.89,11.2-.11,2.39-.08,4.87.62,7.18.68.43.83,1.32.26,1.87-.31.29-.72.41-1.12.37ZM83.75,29.86c.36-.37.68-.81.92-1.27,1.52-2.45,2.66-5.1,3.45-7.87.06-.2.33-1.29.39-1.48.1-.23-.3-.23-.5-.17-1.02.22-1.87.7-2.51,1.52-1.09,1.37-1.94,3.05-2.27,4.82-.26,1.46-.14,3.11.53,4.45Z"/>
      <path d="M110.37,33.02c-1.43-.14-3.32-.84-3.72-2.44-.27-.95.74-1.81,1.65-1.36.27.11.45.32.72.43.38.16,1.93.27,2.38.23-.59-1.74-1.85-3.18-2.74-4.75-.59-.98-1.04-2.1-.96-3.25.04-.84.49-1.71,1.07-2.34.93-.95,2.26-1.42,3.49-1.3,1.58.15,2.69,1.1,2.78,2.67.08.81-.6,1.22-1.19,1.16-.44-.04-.85-.32-.95-.89-.63-.06-1.03-.1-1.55.33-.13.07-.39.32-.4.44-.07.31.3,1.07.43,1.32.97,1.58,2.1,3.05,2.86,4.72.33.75.56,1.61.48,2.45-.22,2.22-2.43,2.76-4.33,2.58Z"/>
      <path d="M122.08,32.32c-3.09-.3-5.45-2.81-5.42-5.97,0-.08-.13-.29-.16-.38-.3-.63-.12-1.21.47-1.51.29-.89.69-1.77,1.25-2.52,1.07-1.5,3.18-2.61,5-2.43.4.04.82.16,1.21.36,2.17,1.09,2.17,4.05.29,5.63-1.31,1.15-3.2,1.65-4.92,1.64.34,1.43,1.59,2.52,3.1,2.66.91.09,1.82-.18,2.65-.54.13-.07.29-.13.45-.12,1.21-.12,1.64,1.6.52,2.09-.92.43-1.89.94-2.91,1.08-.49.07-1.01.06-1.52.01ZM120.11,24.61c1.01-.14,2.15-.31,2.86-1.04.22-.22.51-.71.46-1-.06-.17-.33-.27-.54-.25-1.32.03-2.28,1.18-2.79,2.29Z"/>
      <path d="M131.93,35.12c-1.43-.14-3.32-.84-3.72-2.44-.27-.95.74-1.81,1.65-1.36.27.11.45.32.72.43.38.16,1.93.27,2.38.23-.59-1.74-1.85-3.18-2.74-4.75-.58-.98-1.04-2.1-.96-3.26.04-.84.49-1.71,1.07-2.34.93-.95,2.26-1.42,3.49-1.3,1.58.16,2.69,1.1,2.78,2.67.08.81-.6,1.22-1.19,1.16-.44-.04-.85-.32-.95-.89-.63-.06-1.03-.1-1.55.33-.13.07-.39.32-.4.44-.07.31.3,1.07.43,1.32.97,1.58,2.1,3.05,2.86,4.72.33.75.56,1.61.48,2.45-.22,2.22-2.43,2.76-4.33,2.58Z"/>
      <path d="M141.36,36.04c-1.43-.14-3.32-.84-3.72-2.44-.27-.95.74-1.81,1.65-1.36.27.11.45.32.72.43.38.16,1.93.27,2.38.23-.59-1.74-1.85-3.18-2.74-4.75-.58-.98-1.04-2.1-.96-3.25.04-.84.49-1.71,1.07-2.34.93-.95,2.26-1.42,3.49-1.3,1.59.15,2.69,1.1,2.78,2.67.08.81-.6,1.22-1.19,1.16-.44-.04-.85-.32-.95-.89-.63-.06-1.03-.1-1.55.33-.13.07-.39.32-.4.44-.07.31.3,1.07.43,1.32.97,1.58,2.1,3.05,2.86,4.72.33.75.56,1.61.48,2.45-.22,2.22-2.43,2.76-4.33,2.58Z"/>
      <path d="M149.49,37.24c-1.23-.12-1.65-1.6-1.74-2.65-.22-3.46.36-6.97,1.21-10.33.13-.51.43-1.08.92-1.27.21-.1.41-.12.61-.1.55.05,1.07.54,1.16,1.23,0,.08-.01.52-.02.6-.26,2.7-.72,5.37-.87,8.08-.03.28-.08,2.07-.11,2.35,0,.08.21.3.25.34.51.93-.42,1.84-1.41,1.74ZM150.9,20.73c-.48-.05-.93-.37-1.11-.95-.33-1.07-.02-2.24.21-3.34.1-.59.19-1.14.44-1.68.26-.58.8-.84,1.28-.8.51.05,1,.46,1.05,1.14.07.93-.24,4.06-.64,4.9-.25.54-.76.77-1.23.72Z"/>
      <path d="M157.34,36.72c-2.22-.22-3.89-2.74-3.88-5.34,0-2.12.66-4.3,1.53-6.21.3-.65.64-1.26,1.09-1.77.26-.25.61-.5.98-.58.45-.08.92,0,1.3.25.19.14,1.17.27,1.41.34,2.38.67,4.14,2.72,4.01,5.27-.09,2.55-2.46,6.72-4.76,7.78-.59.26-1.15.33-1.67.28ZM158.47,33.39c.05-.08.4-.4.45-.48.87-1.08,1.63-2.32,1.96-3.69.13-.51.1-1.07-.05-1.57-.23-.54-.62-.98-1.11-1.35-.46.16-1.49-.31-1.86-.58-.59,1.54-1.19,3.12-1.35,4.79-.04.8-.04,1.64.29,2.39.13.29.51.89.79.96.23.06.67-.29.89-.47Z"/>
      <path d="M166.77,37.32c-1.23-.12-1.83-1.3-1.92-2.43-.03-.96.03-1.92.12-2.87.18-1.86.44-3.72.78-5.53.13-.51.26-1.05.43-1.52.26-.65,1.01-.9,1.66-.64.39.12.66.58.74.99.18,1.02-.41,5.84-.51,6.87,1.94-2.61,4.06-5.53,6.73-7.47.56-.42,1.26-.64,1.9-.58,1.03.1,1.62,1,1.85,1.94.58,2.26.46,4.69.88,7.01.02.16.09.77.15.89.48.85-.27,1.94-1.26,1.84-.59-.06-1.43-.9-1.66-1.48-.13-.33-.42-1.88-.46-2.24-.02-.6-.21-3.98-.28-4.55-2.72,2.42-4.84,5.33-6.93,8.25-.41.48-.86,1-1.41,1.34-.21.14-.54.19-.82.16Z"/>
      <path d="M184.53,40.26c-1.43-.14-3.32-.84-3.72-2.44-.27-.95.74-1.81,1.65-1.36.27.11.45.32.72.43.39.16,1.93.27,2.38.23-.59-1.74-1.85-3.18-2.74-4.75-.58-.98-1.04-2.1-.96-3.25.04-.84.49-1.71,1.07-2.34.93-.95,2.26-1.42,3.49-1.3,1.59.15,2.69,1.1,2.78,2.67.08.81-.6,1.22-1.19,1.16-.44-.04-.85-.32-.95-.89-.63-.06-1.03-.1-1.55.33-.13.07-.39.32-.4.44-.07.31.3,1.07.43,1.32.97,1.58,2.1,3.05,2.86,4.72.33.75.56,1.61.48,2.45-.22,2.22-2.43,2.76-4.33,2.58Z"/>
    </g>
  </g>
</svg>