<?xml version="1.0" encoding="UTF-8"?>
<svg id="Layer_1" data-name="Layer 1" xmlns="http://www.w3.org/2000/svg" viewBox="0 0 122.92 162.09">
  <defs>
    <style>
      .cls-1 {
        fill: #010101;
      }
    </style>
  </defs>
  <g>
    <path class="cls-1" d="M117.98,5.28c.06-.08.03-.28-.12-.24l-.11.33.23-.09Z"/>
    <path class="cls-1" d="M116.97,4.68c-.18.16-.38.45-.26.75.17-.32.21-.19.4-.57.15-.04.26.1.24.22.05-.09.23.07.32-.14-.19-.25-.45-.26-.7-.04-.06-.07,0-.16,0-.22Z"/>
    <path class="cls-1" d="M102.23,6.43h.1s-.07,0-.1,0Z"/>
    <path class="cls-1" d="M93.5,9.51c.06-.04.08-.08.07-.11-.05.05-.09.09-.07.11Z"/>
    <path class="cls-1" d="M91.91,9.86s.06-.01.09-.02c-.05-.01-.08-.01-.09.02Z"/>
    <path class="cls-1" d="M102.23,6.43l-.27-.02c.01.11.14.04.27.02Z"/>
    <path class="cls-1" d="M114.97,5.52s.09-.05.13-.09c-.04.02-.08.03-.12.04v.05Z"/>
    <path class="cls-1" d="M106.13,5.16l.07-.02s.02-.09.03-.14l-.11.16Z"/>
    <path class="cls-1" d="M109.21,4.52c-.07,0-.05.28-.06.4.02-.12.06-.18.12-.21,0-.05-.03-.11-.06-.19Z"/>
    <path class="cls-1" d="M114.21,4.44l.09-.05s-.06.03-.09.05Z"/>
    <path class="cls-1" d="M103.93,5.64s-.04-.07-.05-.09c0,.03.03.06.05.09Z"/>
    <path class="cls-1" d="M53.42,68.6s-.03,0-.05,0c.03.02.05.02.05,0Z"/>
    <path class="cls-1" d="M52.33,72.26l-.02-.05c-.05,0-.11,0-.16,0l.18.04Z"/>
    <path class="cls-1" d="M89.14,10.85s0,0,.01,0c.05-.07.02-.04-.01,0Z"/>
    <path class="cls-1" d="M68.16,27.28c.39-.05-.1.58.42.44-.11-.04-.03-.6-.42-.44Z"/>
    <path class="cls-1" d="M114.89,5.49s-.08.01-.12.01c.06,0,.1,0,.12-.01Z"/>
    <path class="cls-1" d="M68.57,27.72h0s.05-.01.05-.01c-.02,0-.03,0-.05.01Z"/>
    <path class="cls-1" d="M83.43,14.4s.08.05.12.07c-.02-.02-.05-.04-.12-.07Z"/>
    <path class="cls-1" d="M87.91,12.17l-.13.03c.06,0,.09-.01.13-.03Z"/>
    <path class="cls-1" d="M81.5,16.17c-.07.02-.11,0-.16.08.02,0,.03.01.04.01,0-.05.03-.09.12-.09Z"/>
    <path class="cls-1" d="M79.32,17.75s.05.01.07.02l.06-.06-.13.05Z"/>
    <path class="cls-1" d="M53.66,60.75c-.09.05-.18.07-.26.08.2-.01.23.38.26-.08Z"/>
    <path class="cls-1" d="M114.96,5.36c-.01.07-.03.11-.07.13l.09-.02s0-.08-.01-.11Z"/>
    <path class="cls-1" d="M82.67,18.05c-.12.06-.24.13-.36.21.11-.05.24-.13.36-.21Z"/>
    <path class="cls-1" d="M59.57,43.13v.1s.02-.06,0-.1Z"/>
    <path class="cls-1" d="M81.34,19.02c-.12-.04-.22-.04-.3-.02,0,.03,0,.05,0,.09l.3-.07Z"/>
    <path class="cls-1" d="M53.4,60.84h0s0,0,0,0Z"/>
    <path class="cls-1" d="M53.77,63.6c.03-.39-.35-.21-.56-.31-.08-.48.28-.19.48-.34-.06-.3-.37-.55-.33-.77.06,0,.09-.05.16,0-.25-.34.1-.91-.22-1.32.04-.02.07-.03.1-.03-.19.03-.38.02-.51-.01.02-.18-.19-.36.06-.4-.02.11.07.13.14.19l-.08-.2c.36-.12.09.27.34.31-.06-.37-.31-.84-.16-1.1.33,0,.02.66.36.34l-.18.41c.57-.25-.07.25.53.04.16-.54-.08-.65.12-1.18-.16-.16-.28,0-.44-.16-.18-.85.96-.46.63-1.12-.19-.19-.6-.34-.3-.71l.35.22c.15-.52-.5-.43-.1-.93.12.13.02.44.08.38.38-.29-.15-.3-.08-.58l.35.02c.09-.57.02-1.25.12-1.9.09.06.16.2.3.08.02-.84.55-1.65.97-2.32l-.19-.38c.02-.07.17-.08.2,0,.2-.25-.17-.08-.23-.25.03-.17.23-.16.28-.03-.09-.6.03-1.63.53-2.05l.04.13c.27-.37-.38-.69.03-.97l.02.09c.45-.86.67-1.93,1.38-2.41-.32-.31.57-.78.06-1.1.49-.37.52-.18,1.06-.78.12-.17-.18-.44-.12-.7l.28.14-.12-.46h.41s.04-.24.04-.24c-.06.08-.22.11-.29.06.05-.4.61-.71.76-.64.06-.31.13-.6.21-.9.1.08.06.23.07.37-.03-.56.33.09.3-.43-.09.01-.14-.12-.19-.16.27-.09.52-.51.64-.87l.15.17c.39-.53.6-1.25,1.02-1.86-.23.17-.51-.08-.42-.28l.32.1c-.09-.23-.23.12-.28-.25.18-.21.41.05.42.24l.09-.34c.09.04.09.13.18.21-.09-.23.59-.3.41-.66l.09.04c.41-.61.49-.96.83-1.45-.22-.17-.03-.32-.11-.6.34-.31.8-.57,1.1-1.01.11-.39-.13-.23-.16-.47.22.13.52-.31.5.02.34-.55.45-.68.8-1.44-.14,0-.24.05-.27-.04.06-.14.29-.19.38-.1v.05c.28-.95,1.87-1.17,1.95-2.04v.05s.28-.75.28-.75c.26-.23,0,.28.3.2.22-.89.89-.92,1.12-1.61.91.15,1.23-1.35,2.06-1.52l-.15-.1c0-.25.22-.08.34-.15-.11-.08-.25.03-.24-.12.93-1.23,2.43-2.02,3.7-2.92.46-.34-.37-.9.46-1.06l.06.38c.3-.53.75-.92,1.2-1.29.46-.36.93-.71,1.27-1.19,0,.1.06.18-.03.25.34.04.69-.54.58-.7.15-.09.14.11.29.12.27-.04.28-.62.53-.51.04.02,0,.1-.03.15.05-.19.6-.41.31-.54.42-.14.58-.58.95-.65,0-.38.67-.31.47-.7.24.39.81-.15.91-.47,0,.16.27-.01.3.2.25-.17.43-.4.26-.56.77.14.7-.99,1.35-.59.61-.72,1.25-1.3,1.89-1.81.21.4-.75.51-.47.89.56-.56.75-1.12,1.46-1.43.2-.05,0,.23-.02.33.56-.57,1.31-.72,1.8-1.27.02.04-.02.11-.07.18.11-.08.31-.09.2-.27l-.09.11c-.34-.16.18-.8.12-.96.08.63.67-.2.7.63.06-.08.11-.22.03-.33.14-.03.21.02.17.22.37-.33.12-.44.51-.65.04.09-.02.17,0,.29.1-.28.22-.56.59-.64,0,.06.08.11-.02.16.56-.31.75-.94,1.47-1.09,0,.48.28.02.47.34l.29-.27-.21-.1c.3-.14.45-.52.77-.52l-.16.24.54-.31h-.38c.23-.3-.23-.4.22-.49-.07.07.31-.13.56,0h0c.1-.17.21-.36.47-.37.11.08.12.4.19.46.03-.35.68-.39.74-.78-.03.1.04.28.07.31l.03-.29c.17.01.21.04.24.2.44-.14-.32-.39.27-.4-.03.03,0,.06-.07.13.56-.1.94-.53,1.46-.59.27.3-.38.24-.11.48.66-.31,1.25-.97,1.96-1.11h-.14c-.08-.53.59.09.85-.26-.07.06-.02.31-.01.25.49-.07.9-.43,1.56-.81l-.05.16c.31.02.74-.16,1.05-.17.05-.15.23-.18.07-.34,1.12.51,1.66-.87,2.63-.44-.1.02-.21.17-.13.15l.68-.27c-.11-.21-.12-.12-.31-.26.06-.15.24-.3.41-.33-.29.21.08.36.25.46-.04-.06,0-.15-.03-.22.45.33-.03-.47.53-.3v.12c.17-.1.32-.29.53-.3.14.25-.18.16-.15.38.28-.07.47-.61.78-.4-.11.1-.28.14-.39.23.34.25.36.17.57.17h-.02c.17,0,.34.03.51.06l-.14-.07c.24-.74.71-.23,1.13-.75-.41.5-.04.26-.03.56.14.07.34.13.3.22.19-.28.41.14.68-.27.03.09.25-.03.22.22.29-.12-.09-.16-.08-.28.42-.41,1.12.26,1.74-.24.56-.23.64-.57,1.16-.78.19.14-.12.37-.12.37.3.12.52.07.78-.06-.05.09.01.16.1.26.22-.04.13-.36.43-.22-.05.11-.1.28-.2.4.25-.09.5-.28.77-.37.08.17-.15.26-.24.37.3-.08.77-.17.86-.44l-.2-.09c.11-.01.06.23-.02.28-.25.22-.37-.09-.39-.18l.19-.07c-.21-.57-.77.1-1.15.08l.14-.42c-.13.11-.25.24-.38.37-.09-.1-.16-.33.03-.41-.29-.18-.24.17-.49-.04-.03-.03-.02-.05,0-.07l-.26.15c.05-.09-.07-.29.11-.24-.51-.2-.77.38-.98.08l.04-.03c-.67.2-.04.31-.51.71l-.42-.72-.03.31c-.07,0-.21-.02-.2-.14-.24.23.06.13-.07.34-.37-.23-.9.26-1.04-.21-.09.25.34.13,0,.34-.17-.5-.4.15-.74-.05.05-.28.37-.18.02-.38-.12.48-.61-.01-.86.11.05.37-.54.21-.95.43,0-.13-.84-.03-1.27-.08v-.06c0,.38-.43.39-.71.53-.04-.22,0-.31.14-.44l-.28.06c-.04.13-.12.21-.29.29v-.28c-.37.08-.67.48-1.19.43.04.26.55.59.09.89-.05-.13-.13-.35-.01-.44-.04.03-.13.15-.23.12l.14-.28c-.24-.04-.07.22-.24.24-.05-.19-.16-.1-.18-.26.04-.03.17.04.22-.05-.2.02-.47-.03-.59-.16.05.1.07.26-.07.32-.37.11-.19-.2-.43-.24-.05.16-.33.08-.26.37-.11.03-.17-.1-.23-.17-.16.17-.89.28-.58.52h.05s-.03.03-.03.03h0s0,0,0,0c-.53.48-1.33.25-1.91.57l-.03-.09c-.33.22-.8.32-.99.61-.11.03-.31-.08-.31-.21-.25.17-.24.29-.7.29.22-.27-.15-.11.24-.23-.39.05-.52-.06-.82.34.04-.29-.38-.2-.53-.06l.32.07c-.18.11-.35.15-.53.19l-.03-.35c-.89-.1-1.07,1.14-1.87.76-.1.3.46-.02.39.31-.35.1-.88-.19-.99-.14-.53.03-.23.63-.76.72.11.08.29.35-.01.6-.35.1-.61-.28-.44-.45.08-.04.13-.03.14.01.09-.09.21-.19.03-.25v.13c-.21-.04-.66.17-.64-.05-.2.22-.03.22.19.2-.5.03-.66.31-1.14.41.1.03.22.12.15.15-.69.18-.18.34-.58.59-.32-.04-.1-.43-.47-.08-.32.02-.2-.25-.13-.39-.29.4-.8.23-1.05.3l.16-.19c-.1.11-.2.16-.3.21l.23.15c-.14.02-.24.07-.29-.02-.05.2.28.3.13.62-.21-.02-.42.38-.62.13.55-.18-.2-.25.19-.52-.06.08-.16.13-.3.16-.03-.02-.01-.07.01-.1-.61.01-.05.43-.55.7-.02-.19-.28-.23-.34-.16.2-.11.24.21.12.43-.38.05-.29.28-.46.35l.22-.05c.02.19-.15.26-.34.42-.09-.11.15-.19.04-.2-.09.41-.71.02-.94.39-.21-.01-.18-.28-.36-.27-.26.42-.53.04-.82.44.24.14.22.07.07.44l.56-.53-.23.55c.19-.11.33-.38.47-.41-.1.29-.11.22.09.34-.45-.15-.42.5-.84.47l-.3-.51c-.6.06-.66.76-1.34.99l.25-.03c.05.25-.35.25-.49.46-.09-.18-.25-.16-.39-.21.09.12-.43.27-.27.64l-.4-.04c-.53.23-.22.83-.71,1.07.01-.27-.27-.25-.05-.58-.15.1-.31.16-.23.27-.16-.04-.27.5-.51.44-.01.11.08.29-.09.4-.04-.02-.06-.08-.06-.08.06.08-.18.3.09.37-.81-.17-1.22.95-1.93.81-.28.29-.63.61-.9.85-.02-.06-.06-.08,0-.1-.5.16.11.64-.45.83-.42-.07.13-.32-.09-.31-.46-.46-.47.49-1.01.43l.05-.09c-.37,0-.4.63-.79.89,0,0-.02-.06-.06-.08-.05.45-.43.94-.71,1.3-.06-.29.07-.24-.16-.38-.13.16.31.28.06.6-.19-.02-.49.08-.7-.1l.28-.26c-.38-.14-.37.34-.56.42l-.08-.13c-.41.43-.16.72-.65,1.12l.13.04c0,.52-.37.02-.42.48l-.34-.22c-.1.23-.32.83-.56,1.16-.03-.37.21-.81.31-1.14-.17.15-.54.55-.49.77.04-.09.06-.24.16-.26.01.42-.15.78-.47,1.08-.47-.6-.99.66-1.63.48-.35.77-1.19,1.06-1.8,1.76.66.17-.18.21.31.58-.12.18-.19.23-.23.22l-.71.24c-.23,0,.04-.25-.08-.32-.35.33-.32-.02-.65.1.21.1.12.33-.12.48l.46-.1c-.2.71-.76.09-.97.81v-.29c-.14.33-.86.95-.69,1.53-.09,0-.27-.04-.21-.19-.58.6-.74,1.75-1.38,2.06l-.08-.14c-.06.15.05.38-.19.44-.04-.05-.08-.14-.13-.09,0,.1-.05.47-.24.59l-.03-.24c-.63.53-.4,1.24-.71,1.84-.35-.26-.84.17-1.09.38l-.04-.04c-.6.72-.59,1.53-.93,2.33-.7.18-1.17,1.4-1.83,2.02.14-.07.28.2.24.35-.18.13-.02.64-.35.4l.04-.06c-.42-.07-.54.34-.72.62l.43.31c-1.12.35-.8,2.09-1.64,2.18.02.24-.1.47-.08.71l-.25-.14c-.34.47-.48.72-.72,1.39l-.12-.22c-.18.36.53.8.39,1.14l-.43-.08c-.27.63-.94,1.12-.82,1.91-.05-.03-.16-.1-.13-.21-.13.3-.73,1.07-.15,1.18-.35-.13-.3.65-.28,1.06l-.24-.15c.22.42.3.46.24.9-.07.09-.24.01-.13-.1-.25.28.16.34-.11.69l-.12-.21c-.13.33-.03.34.1.59.04.25-.28.62-.53.59.13.09.27.34.13.52-.1,0-.13-.09-.15-.14-.36.52.02.93-.34,1.25-.09-.02-.14,0-.18.02.12-.46.28-.81.28-.78-.25-.08-.41.28-.65-.12.08.35.35.98.14,1.31-.03.01-.06.02-.1.02l-.02-.05c-.05.08-.04.16-.02.24-.07.1-.12.17-.15.28-.22-.01-.22.4-.28.58.28.05.17.29.45.11-.03.02-.02-.04,0-.17,0-.03,0-.06,0-.09l.02.02c.03-.12.06-.28.1-.47.1.18.18.37-.03.53.15.14.3.29.37.37-.45.16-.78.6-1.03.61,0,.6-.17,1.38.27,1.84.04.18-.18.16-.28.2-.03-.1,0-.21-.07-.28.07.35-.14.98.21,1.12-.24.38-.29-.29-.34.29l-.1-.09c-.78,1.04.69,1.95-.23,3.09.06-.08.08-.12.15-.13-.28.69-.21,1.44-.2,2.17.03.74-.03,1.46-.26,2.16-.1.4.14.45.32.69l-.3.09.36.41c.27.58-.74,1.05-.2,1.78l.19-.11c-.01.27.2.84-.04.81.04.02.22.07.12.18l-.16.02.33.63c-.07.52-.63-.02-.59.74.09.27.53.74.63.62,0-.11.07-.3.23-.33l.11.24c.47-.01.96.11,1.22-.53l-.32-.38.21-.16.05.35c.19-.22,0-.33-.15-.45.12-.05.19-.11.23-.2l-.48-.37c.18-.07.38.15.45-.13-.22-.17-.39.22-.55-.09.19-.22.37-.17.17-.39.12-.04.2,0,.26.09-.16-.2-.11-.54-.37-.64.23-.22-.1-.7.34-.7-.11-.06-.35-.35-.37-.55.53.33.02-.72.58-.64-.48-.25-.23-.93-.5-1.39.04.03.12.08.09.12.03-.26.19-.33.29-.49-.39-.04-.46-.45-.69-.68.39-.3.45.21.82.13-.32,0-.29-.56-.56-.47.25-.23.12-.2.46-.31-.49-.07-.07-.23-.36-.45.26-.34.46-.06.33-.45.16-.17.31.18.31.18ZM54.54,54.43h0c-.01.08-.03.15-.03.19,0-.04.01-.09.03-.19ZM54.74,53.68c-.04.09-.07.2-.1.32-.1,0-.19-.06-.16-.13.05.06.15-.1.26-.19ZM52.43,54.78c0-.13.06-.16.12-.16-.01.06-.02.13-.02.23l.03.02s-.09-.05-.12-.08Z"/>
    <path class="cls-1" d="M52.73,55.09s.01.03,0,.06c.03-.02.06-.04.08-.06l-.07-.07v.07Z"/>
    <path class="cls-1" d="M102.35,6.44h-.02s.03.01.04.03c-.01,0-.02-.02-.03-.03Z"/>
    <polygon class="cls-1" points="59.29 43.96 59.23 43.93 59.25 44.02 59.29 43.96"/>
    <path class="cls-1" d="M106.81,6.33s.03.04.07.06c0-.02-.04-.04-.07-.06Z"/>
    <path class="cls-1" d="M108.65,6.01c.09.02.18.03.28.05-.12-.04-.21-.05-.28-.05Z"/>
    <path class="cls-1" d="M110.09,5.94c.01-.05.01-.09,0-.12h0s0,.12,0,.12Z"/>
    <path class="cls-1" d="M88.92,13.76s-.03.02-.04.04c-.09.11-.02.05.04-.04Z"/>
    <path class="cls-1" d="M94.69,10.16c-.05.08-.09.15-.15.21.12-.03.21-.06.15-.21Z"/>
    <polygon class="cls-1" points="82.72 18.03 82.71 18.02 82.67 18.05 82.72 18.03"/>
    <path class="cls-1" d="M94.25,10.49c.13,0,.22-.05.29-.12-.1.02-.22.04-.29.12Z"/>
    <path class="cls-1" d="M116.24,5.52h.07s0-.02,0-.04l-.08.04Z"/>
    <path class="cls-1" d="M116.31,5.49l.08-.03s-.07,0-.08.03Z"/>
    <path class="cls-1" d="M116.55,5.38l-.16.07c.06,0,.12,0,.16-.07Z"/>
    <path class="cls-1" d="M114.35,5.47l-.02.1s.02-.06.02-.1Z"/>
    <path class="cls-1" d="M113.78,5.54c.14.01.36.19.54.11v-.08c-.07.16-.42-.21-.54-.03Z"/>
    <path class="cls-1" d="M111.24,4.52h.5c-.1-.09-.23-.21,0-.27-.65-.23.16.22-.49.27Z"/>
    <path class="cls-1" d="M109.71,4.59c.26-.09-.03-.16-.02-.22-.15.12-.19.15.02.22Z"/>
    <path class="cls-1" d="M99.01,7.29l-.06-.25c-.18.11.03.09.06.25Z"/>
    <polygon class="cls-1" points="97.51 9.26 97.75 9.34 97.76 9.09 97.51 9.26"/>
    <polygon class="cls-1" points="95.68 8.02 95.75 7.95 95.47 8.17 95.68 8.02"/>
    <path class="cls-1" d="M79.56,17.27l.24.22c.08-.13-.11-.43-.24-.22Z"/>
    <path class="cls-1" d="M73.55,22.57c-.17-.06-.41.01-.41.22.15-.11.37-.13.41-.22Z"/>
    <polygon class="cls-1" points="58.06 40.9 58.05 40.71 57.97 41.02 58.06 40.9"/>
  </g>
  <g>
    <path class="cls-1" d="M110.26.04c-.07.06-.2.2-.16.18l.24-.23-.08.04Z"/>
    <path class="cls-1" d="M109.91.56c.13-.1.34-.28.55-.51-.24.21-.15.11-.43.37-.04.02.05-.1.14-.18-.06.06.03-.07-.12.07-.17.2-.15.22.02.09-.05.06-.11.11-.16.16Z"/>
    <path class="cls-1" d="M110.71,2.09l.02-.04s-.02.03-.02.04Z"/>
    <path class="cls-1" d="M111.3,2.93s-.04.02-.06.04c.02-.01.04-.02.06-.04Z"/>
    <path class="cls-1" d="M111.16,3.31s0-.02,0-.02c-.02.02-.03.04,0,.02Z"/>
    <path class="cls-1" d="M110.71,2.09l-.05.09c.08-.07.05-.07.05-.09Z"/>
    <path class="cls-1" d="M110.63.15s-.04.03-.07.05c.01,0,.03-.01.03-.02.01-.01.02-.02.04-.04Z"/>
    <path class="cls-1" d="M110.2,1.96h0s-.06.05-.1.08l.11-.08Z"/>
    <path class="cls-1" d="M109.92,1.75s.2-.18.29-.27c-.08.08-.13.11-.15.12-.04.04-.08.08-.14.14Z"/>
    <path class="cls-1" d="M109.88,1.01l-.03.02s.02-.01.03-.02Z"/>
    <path class="cls-1" d="M110.33,2.17s-.05.06-.07.07c.02-.02.05-.05.07-.07Z"/>
    <path class="cls-1" d="M118.64,7.5s-.02.02-.04.04c.02-.02.04-.03.04-.04Z"/>
    <path class="cls-1" d="M117.94,8.76h-.01s-.08.08-.11.12l.13-.12Z"/>
    <path class="cls-1" d="M111.14,3.79s0,0,0,0c-.03.02-.02.02,0,0Z"/>
    <path class="cls-1" d="M113.35,5.71c.15-.2.27-.19.43-.42-.07.08-.34.28-.43.42Z"/>
    <path class="cls-1" d="M110.62.19s.01,0,.01,0c0-.01,0-.01-.01,0Z"/>
    <path class="cls-1" d="M113.78,5.29s0,0,0,0l.02-.02s-.01.02-.02.02Z"/>
    <path class="cls-1" d="M111.77,4.19s.06-.06.08-.09c-.02.02-.04.05-.08.09Z"/>
    <path class="cls-1" d="M111.67,3.52l-.02.04s.02-.03.02-.04Z"/>
    <path class="cls-1" d="M112.25,4.11s-.04.05,0,.03c0-.01.02-.02.02-.03-.03.02-.05.03-.02,0Z"/>
    <path class="cls-1" d="M112.46,4.32s.02-.03.04-.04c0,0-.01,0-.02,0l-.02.04Z"/>
    <path class="cls-1" d="M117.91,6.96c-.05.06-.11.12-.17.19.14-.14.22-.16.17-.19Z"/>
    <path class="cls-1" d="M110.52.27c.05-.05.08-.07.09-.08,0,0-.01,0-.02,0-.03.03-.06.06-.07.08Z"/>
    <path class="cls-1" d="M113.83,2.55v.06s.01-.05,0-.06Z"/>
    <path class="cls-1" d="M116.39,5.49l.03-.02s0,0-.03.02Z"/>
    <path class="cls-1" d="M113.96,2.69c-.06.08-.1.12-.12.16.02-.01.03-.03.06-.05l.06-.11Z"/>
    <path class="cls-1" d="M117.74,7.15s0,0,0,0c0,0,0,0,0,0Z"/>
    <path class="cls-1" d="M118.43,6.9s-.27.24-.43.38c-.11.04.17-.21.3-.36-.09.05-.35.27-.36.24.04-.04.05-.06.11-.11-.23.18-.08-.06-.37.17.02-.03.04-.05.06-.07-.13.14-.26.27-.35.36-.02,0-.19.14-.03-.04,0,.01.07-.05.13-.1l-.09.06c.23-.26.11-.06.29-.25-.11.05-.35.22-.3.13.24-.24.13-.03.32-.27l-.06.13c.35-.41,0,.05.38-.38.02-.11-.17.07-.15-.04-.14.12-.19.2-.34.32-.3.18.55-.65.19-.38-.17.15-.48.45-.35.25l.28-.26c-.02-.07-.42.37-.28.14.11-.1.12-.06.15-.09.18-.24-.18.13-.2.11l.24-.25c-.08,0-.31.11-.4.11.07-.07.16-.14.22-.22-.19.06-.11-.17-.03-.37l-.23.18s.08-.1.13-.14c.05-.1-.13.13-.23.2-.03,0,.1-.14.17-.19-.22.13-.5.26-.33-.01l.07-.05c.05-.12-.47.39-.3.16l.04-.03c.01-.17-.26-.06,0-.43-.31.29.06-.21-.36.2.16-.25.25-.31.33-.51,0-.04-.28.24-.35.26l.22-.22-.26.2.25-.28-.08.04s-.08.11-.15.18c-.13.07.08-.22.19-.34l-.26.11c.09-.09.13-.1.2-.15-.26.18.22-.24-.02-.07-.04.05-.13.13-.18.17.11-.15.08-.19,0-.16l.16-.14c-.01-.09-.18-.04-.24-.1-.05.09-.31.35-.36.35l.22-.24c-.15.13-.07.1-.27.26,0-.05.25-.28.33-.34l-.11.05c.07-.07.11-.1.2-.19-.15.13.18-.28-.08-.04l.07-.07c-.06-.06-.16,0-.22-.04-.2.2-.17.14-.35.28.03-.1.15-.29.09-.32-.13.07-.18.16-.31.26.18-.18.12-.21.27-.32-.08-.02-.1-.03-.31.05-.07.08-.09.12-.16.18-.04.02.05-.1.14-.19l.02-.02c-.34.2.36-.69-.07-.37l.02-.02-.26.14c0-.06.15-.12.24-.25-.37.24-.06-.15-.31,0,.49-.58-.18-.11.1-.5l-.12.13c-.14.11.05-.09.07-.13-.1.1-.1.13-.17.19-.27.03-.07-.43-.08-.67-.01-.08-.68.63-.43.27l.25-.22c-.37.19-.18-.2-.51-.05.06-.05.13-.12.14-.11.15-.19-.06-.08-.2.06,0-.03.12-.13.18-.21.08-.12-.26.17-.11-.01.03-.03.06-.05.08-.06-.09.07-.04-.08-.22.13.06-.13-.15.02-.06-.12-.24.2.05-.16-.27.14.32-.32.2-.32.03-.19.1-.09.08-.12.22-.24-.03-.02-.11.02-.27.19.34-.43-.4.22.07-.3-.24.1-.43.15-.57.16.32-.32.1.04.44-.3-.19.07-.5.31-.49.17.03-.06.15-.13.21-.18-.19.07-.09-.15-.32-.03.03-.03.07-.06.1-.07-.02,0,.02-.07-.12.07l.05-.03c-.19.23-.48.4-.6.51.43-.4.05-.16.6-.65-.03.02-.11.08-.21.18.02-.04.07-.1.19-.2-.12.04-.26.21-.29.17.07-.07.1-.09.19-.17-.15.12-.31.24-.28.15.04-.04.1-.1.1-.09-.07-.03-.45.28-.38.09.32-.29.08-.12.34-.39l-.11.05-.12.14s-.24.14-.17.03l.13-.09h-.1s-.07.13-.07.13c-.16.11-.33.34-.29.23.03-.02-.02-.03.12-.2,0,0,0,0,0,0-.1.07-.2.15-.15.06.08-.09.3-.29.35-.35-.23.21-.12,0-.37.22.06-.05.2-.19.23-.22l-.19.17c.05-.07.07-.1.18-.21,0-.07-.32.35-.22.16.02-.01.04-.04.08-.06.03-.12-.2.03-.15-.1.25-.28.1-.03.31-.27-.11,0-.44.2-.43.08l-.02.04c-.38.37.14-.23-.06-.08.03-.02.22-.2.17-.16.02-.1-.17.01-.35.07l.1-.09c.06-.11-.01-.11,0-.18-.1.09-.1.06-.23.21.47-.62-.44.15-.05-.37,0,0,.1-.07.1-.07l-.15.03c-.16.17-.09.11-.21.25-.1.09-.2.15-.21.13.13-.08.26-.26.34-.36-.05.05-.11.1-.16.16.26-.32-.33.32-.18.09l.09-.08c-.06.03-.19.13-.18.09.18-.2.1-.07.26-.23-.03-.01-.4.31-.24.1.06-.04.08-.03.14-.07.2-.24.14-.19.16-.24h0s.06-.13.06-.13l-.05.07c-.52.46-.15.03-.51.32.34-.27.18-.17.4-.38.05-.07.1-.15.17-.21-.19.15.11-.17-.17.06.07-.07-.01-.03.16-.2-.08.03-.11.13-.2.21-.27.2.2-.37-.18-.1-.18.09-.42.31-.58.39.1-.12.26-.24.26-.24.08-.12.04-.12-.06-.07.06-.06.11-.11.18-.2-.04,0-.26.24-.18.11.08-.07.21-.19.29-.26-.08.04-.23.15-.32.19.11-.13.2-.17.28-.24-.08.03-.17.05-.37.23l-.05.08s.16-.17.2-.2c.17-.13-.04.1-.1.17l-.06.03c-.39.42.13,0,.13.05l-.31.28.28-.21c-.07.08-.23.25-.29.28-.12.17.12-.09-.02.1-.02.03-.04.04-.05.05l.11-.07c-.07.06-.2.21-.17.16-.13.21.28-.16.07.08h-.02c.15-.03.22-.2.51-.41l-.51.56.22-.21s0,.04-.1.12c.17-.13.09-.1.24-.23-.17.22.16-.02-.17.33.17-.15.1-.15.24-.24-.36.38.1-.03-.05.16-.2.18-.12.06-.27.25.34-.31-.02.12.06.08.26-.26.15-.06.27-.11-.09.08-.08.21-.14.33l-.04.04c.27-.25.25-.17.33-.2-.16.15-.22.21-.3.27l.02.02c.09-.08.14-.11.18-.13l-.2.19s.29-.17.2,0c.18-.18.47-.53.64-.61-.1.1-.26.27-.31.3.02,0,.09-.07.06-.02l-.18.15c-.05.09.15-.13.15-.1-.14.14-.09.11-.2.22-.02,0,.05-.07-.01-.02,0,.04-.07.14-.17.25.08-.08.19-.19.22-.19.04.02-.16.18-.21.27.1-.09.02.03.23-.18,0,0-.09.11-.14.17.11-.08.1.05.3-.19v-.02s.02,0,.02,0h0s0,0,0,0c.26-.16-.01.22.13.18l-.07.07c.11-.05.11.02.29-.11,0,0-.11.15-.19.23.08-.03.16-.11.07.04-.14.1-.1.12-.11.07-.03.09-.14.21.09.05-.19.17-.2.25-.14.21l.11-.15s.04.02.04.05l-.24.23c-.23.35.6-.38.16.15.18-.15.08-.15.29-.33,0,.06-.31.43-.3.44-.09.17.38-.31.33-.18.08-.09.3-.32.41-.37,0,.06-.32.39-.4.44-.01,0,0-.03.04-.06-.04.02-.09.05-.17.15l.09-.08c-.07.1-.02.13-.17.26.1-.06.15-.13.17-.19-.09.16.05.06,0,.18.04-.05.13-.16.14-.15-.05.16.18-.14.26-.14-.11.15-.31.3-.17.23-.06.11-.22.23-.3.29.2-.13-.04.17-.05.22l-.09.05c.05-.03.06-.02.07-.01l.16-.18s-.01.05-.08.12c.12-.1.27-.29.44-.42-.07.1.13-.05-.08.18.03-.12-.22.23-.29.23.03-.02.04,0,.02.03-.02.03-.05.04-.06.05-.16.24.27-.23.31-.18-.13.12-.23.25-.19.23-.01-.02.2-.22.31-.3-.07.13.1-.04.11-.02l.03-.06c.13-.12.13-.09.19-.11-.1.1-.08.05-.12.1.24-.2-.18.28,0,.16-.07.1-.23.24-.28.31.2-.13-.14.21.03.11.16-.18.12-.14.3-.28l-.18.06.28-.21s-.14.07-.12.03c.16-.12.11-.08.24-.23-.23.28.19-.1.05.1l-.42.42c-.14.23.29-.14.24.02l.06-.09c.17-.16.06.01.14-.04-.14.14-.18.2-.26.29.1-.1.03.05.31-.22l-.16.21c-.03.12.45-.35.44-.26-.16.14-.24.26-.38.34.01.02,0,.05.1-.04-.08.1.23-.15.11,0,.07-.06.22-.2.22-.17-.03.03-.07.07-.07.07.07-.07.12-.07.26-.24-.39.48.15.09-.18.5.08-.02.16-.02.2,0-.04.04-.07.07-.06.05-.09.17.42-.38.32-.19-.2.25-.15.1-.22.2-.45.47.12,0-.12.29l-.03.02c-.13.18.23-.12.23-.05,0,0-.04.04-.07.07.26-.21.38-.24.48-.27-.19.17-.11.08-.29.27.04-.01.29-.3.37-.32-.09.11-.15.22-.34.42l-.04-.02c-.24.27.05.03.02.09l-.11.11c.08,0,.36-.27.39-.2l.08-.09c.3-.25-.13.18.1,0l-.27.29c.08-.05.33-.21.42-.23-.22.19-.37.26-.51.36.02.02.08.04.23-.09-.03.02-.11.08-.08.03.24-.2.38-.28.41-.24-.55.54-.05.23-.44.67.26-.14.04.21.14.25.4-.45.03,0,.46-.43.04-.01.04,0,.02.03l-.21.31c-.11.14-.11.08-.21.18,0,.07-.17.2-.26.34.15-.16.23-.21.2-.13l.17-.23c.28-.18-.32.41-.04.23l-.15.12c.11-.05.1.1.47-.22-.05.05-.16.18-.2.2.01.12.51-.23.35.03l-.11.1s.22-.18.13-.06c-.04.04-.11.1-.11.11.04-.03.22-.15.17-.08l-.13.11c-.08.2.38-.19.51-.22-.31.31-.36.46-.39.54l-.04.04c.03.11.38-.14.57-.19-.3.38,0,.28-.12.54.05-.07.24-.24.29-.26-.05.08.26-.17-.03.11h0c-.27.28-.16.24-.14.27l.38-.37c-.48.61.37-.03-.08.49.11-.08.13-.06.24-.13l-.2.2c0,.09-.01.14.09.15l-.15.13s.62-.54.66-.52l-.29.31c.06.05-.15.37.17.15-.04.04-.13.13-.15.13.02.03-.11.3.3-.12-.27.27.03.08.18,0l-.2.19c.28-.23.35-.3.45-.33-.02.03-.15.16-.11.1-.08.13.21-.17.14-.03l-.14.11s.08-.03.24-.16c.1-.06,0,.1-.17.28.11-.1.27-.23.24-.17-.07.07-.11.11-.14.12-.09.18.3-.16.14.06-.06.07-.1.1-.11.12-.03-.04-.05-.08-.03-.09-.18.18-.18.24-.46.47.16-.11.5-.37.44-.26-.02.02-.03.04-.06.07l-.02.02s.01.01.05-.01c-.02.04-.04.07-.03.08-.15.15-.05.11-.04.14.2-.2.18-.15.33-.33-.01.02-.03.02-.04.02,0,0-.01,0-.03.01,0,0,.01-.01.02-.02-.02,0-.03-.01-.05-.02.11-.09.21-.16.12-.04.14-.12.28-.24.34-.3-.26.3-.37.49-.53.66.16-.07.18.03.58-.31.06-.04-.09.12-.15.19-.04.03-.05.02-.11.07.12-.07.11.04.38-.22-.09.15-.26.22-.17.22l-.09.07c-.33.5.81-.52.37.11.03-.04.04-.06.08-.1-.13.35.45,0,.18.49-.04.11.13-.06.27-.16l-.21.22.28-.21c.23-.13-.44.6-.05.32l.14-.15s.15-.02-.02.14c.03-.02.16-.14.09-.06l-.11.11.24-.14c-.04.12-.45.44-.41.52.06-.02.39-.26.45-.35,0-.01.05-.09.16-.2l.08-.04c.33-.33.69-.65.87-.93l-.23.17.15-.17.04.02c.13-.17,0-.04-.11.04.08-.09.14-.15.16-.19l-.35.28c.12-.13.27-.24.32-.33-.16.13-.27.3-.4.37.13-.17.26-.28.11-.17.08-.09.14-.14.18-.17-.12.08-.09,0-.27.16.17-.2-.1,0,.21-.32-.08.07-.27.22-.3.21.4-.34-.04-.08.37-.47-.36.31-.22.07-.45.22.03-.02.09-.07.07-.05,0-.05.1-.16.15-.23-.28.27-.38.31-.56.46.24-.29.34-.31.59-.57-.22.23-.27.18-.45.38.15-.18.06-.1.28-.34-.35.34-.08.04-.31.24.14-.2.32-.33.18-.26.09-.12.24-.22.24-.22ZM117.09,6.76s0,0,0,0c.01,0,.02,0,.03,0,0,0-.01,0-.03,0ZM117.03,6.7s0,.03.02.03c-.07.07-.14.14-.14.13.05-.04.07-.1.12-.16ZM115.78,8.21s0-.02.04-.07c0,0,.02,0,.04,0,0,0,.02-.02.03-.02-.04.04-.08.07-.1.1Z"/>
    <path class="cls-1" d="M116.06,7.96s.01-.01.02-.01c.02-.02.03-.04.04-.05-.02.02-.04.04-.07.06,0,0,0,0,0,0Z"/>
    <path class="cls-1" d="M110.73,2.04h0s.01-.01.03-.03c0,.01-.01.02-.02.03Z"/>
    <polygon class="cls-1" points="116.55 5.46 116.5 5.51 116.55 5.47 116.55 5.46"/>
    <path class="cls-1" d="M111.07,1.02s.03-.04.05-.06c-.01.01-.03.03-.05.06Z"/>
    <path class="cls-1" d="M110.97.83l.05-.09s-.04.07-.05.09Z"/>
    <path class="cls-1" d="M110.95.62s-.06.06-.09.08c0,0,0,0,0,0l.09-.08Z"/>
    <path class="cls-1" d="M112.99,2.19s0,0,.01,0c.05-.03.03-.02-.01,0Z"/>
    <path class="cls-1" d="M111.99,2.11s.08-.06.11-.08c0-.02,0-.04-.11.08Z"/>
    <polygon class="cls-1" points="113.83 2.55 113.83 2.55 113.83 2.55 113.83 2.55"/>
    <path class="cls-1" d="M112.12,2.07s.01-.05-.02-.03c0,.02-.02.05.02.03Z"/>
    <path class="cls-1" d="M110.55.03h0s-.02.01-.03.02l.03-.02Z"/>
    <path class="cls-1" d="M110.52.05l-.03.02s0,0,.03-.02Z"/>
    <path class="cls-1" d="M110.43.11l.06-.04s0-.02-.06.04Z"/>
    <path class="cls-1" d="M110.61.28l.07-.07s-.04.04-.07.07Z"/>
    <path class="cls-1" d="M110.68.3s.13-.18.07-.15l-.06.06c.11-.1-.14.21,0,.1Z"/>
    <path class="cls-1" d="M109.98,1.38l.02-.1c-.07.08-.16.2-.2.2-.18.28.16-.18.18-.1Z"/>
    <path class="cls-1" d="M109.98,1.61c-.06.02-.11.11-.16.15.08-.06.1-.07.16-.15Z"/>
    <path class="cls-1" d="M110.84,2.47l-.18.18s.07-.07.18-.18Z"/>
    <polygon class="cls-1" points="111.94 1.7 112.04 1.57 111.86 1.73 111.94 1.7"/>
    <polygon class="cls-1" points="110.75 3.08 110.71 3.1 110.81 3.06 110.75 3.08"/>
    <path class="cls-1" d="M112.25,4.46l.22-.23c-.05.03-.3.28-.22.23Z"/>
    <path class="cls-1" d="M113.1,4.85c-.1.12-.16.21-.04.11,0-.03.07-.13.04-.11Z"/>
    <polygon class="cls-1" points="114.6 7.08 114.51 7.14 114.6 7.1 114.6 7.08"/>
  </g>
  <g>
    <path class="cls-1" d="M111.84,10.1c0,.09,0,.28,0,.24v-.33s0,.09,0,.09Z"/>
    <path class="cls-1" d="M111.88,10.71c0-.16.02-.44.01-.75,0,.32,0,.19-.02.56,0,.04-.01-.11,0-.23,0,.08,0-.07-.01.14,0,.26.02.27.03.05,0,.07,0,.16,0,.22Z"/>
    <path class="cls-1" d="M112.46,11.23v-.04s0,.03,0,.04Z"/>
    <path class="cls-1" d="M112.82,11.41s0,.04,0,.07c0-.02,0-.04,0-.07Z"/>
    <path class="cls-1" d="M112.89,11.77s0-.02,0-.02c0,.03,0,.05,0,.02Z"/>
    <path class="cls-1" d="M112.46,11.23v.1c.01-.11,0-.08,0-.1Z"/>
    <path class="cls-1" d="M111.96,9.91s0,.05,0,.09c0-.01,0-.03,0-.04,0-.02,0-.03,0-.05Z"/>
    <path class="cls-1" d="M112.31,11.49h0s0,.08,0,.14v-.14Z"/>
    <path class="cls-1" d="M112.18,11.55s0-.27,0-.39c0,.12,0,.17,0,.19,0,.05,0,.12,0,.2Z"/>
    <path class="cls-1" d="M111.99,11.05v.04s0-.02,0-.04Z"/>
    <path class="cls-1" d="M112.39,11.56s0,.08,0,.1c0-.04,0-.07,0-.1Z"/>
    <path class="cls-1" d="M115.8,9.44s0,.03,0,.05c0-.03,0-.05,0-.05Z"/>
    <path class="cls-1" d="M115.94,10.83v.02c0,.05,0,.11,0,.16v-.17Z"/>
    <path class="cls-1" d="M113,12.13s0,0,0,0c0,.03,0,.03,0,0Z"/>
    <path class="cls-1" d="M114.03,11.93c-.01-.25.02-.32,0-.6,0,.11-.02.44,0,.6Z"/>
    <path class="cls-1" d="M111.97,9.95s0,0,0,0c0,0,0,0,0,0Z"/>
    <path class="cls-1" d="M114.03,11.32h0s0-.03,0-.03c0,.01,0,.02,0,.03Z"/>
    <path class="cls-1" d="M113.26,11.96s0-.09,0-.12c0,.03,0,.06,0,.12Z"/>
    <path class="cls-1" d="M113.06,11.56v.04s0-.03,0-.04Z"/>
    <path class="cls-1" d="M113.36,11.57s0,.06,0,.02c0-.01,0-.02,0-.03,0,.04,0,.06,0,.01Z"/>
    <path class="cls-1" d="M113.46,11.57s0-.04,0-.06c0,0,0,.01,0,.02v.04Z"/>
    <path class="cls-1" d="M115.48,9.58c0,.08,0,.17,0,.25,0-.2.01-.27,0-.25Z"/>
    <path class="cls-1" d="M111.96,10.07c0-.07,0-.11,0-.12,0,0,0,0,0,.02,0,.04,0,.08,0,.11Z"/>
    <path class="cls-1" d="M113.36,9.35l.02.04s-.01-.04-.02-.04Z"/>
    <path class="cls-1" d="M114.73,9.62v-.03s0,0,0,.03Z"/>
    <path class="cls-1" d="M113.43,9.35c0,.1,0,.16,0,.19,0-.02,0-.04,0-.07v-.12Z"/>
    <path class="cls-1" d="M115.6,9.17s0,.36-.01.57c-.02.1,0-.27-.02-.46-.01.1-.02.44-.03.42,0-.06,0-.08,0-.16-.01.29-.04.01-.05.38,0-.03,0-.06,0-.09,0,.19,0,.37,0,.51,0,0-.01.23-.02,0,0,0,0-.09,0-.17v.1c-.01-.35,0-.12,0-.38-.01.11-.03.4-.04.3,0-.34.03-.11.01-.42l.02.13c-.01-.54.01.04,0-.54-.02-.1-.03.17-.05.07,0,.19,0,.28,0,.47-.03.34-.03-.85-.05-.4,0,.23,0,.66-.03.43v-.38s0,.55-.03.29c0-.15.02-.13.01-.17-.01-.3-.01.22-.02.22v-.34c-.03.05-.05.3-.08.36,0-.1,0-.21,0-.31-.03.17-.07-.04-.1-.24v.29s-.02-.13-.01-.19c-.01-.11,0,.19,0,.3,0,.02,0-.17,0-.26-.02.25-.06.54-.08.22v-.09c-.01-.12-.02.6-.03.33v-.05c-.04-.13-.08.14-.11-.3,0,.42-.04-.19-.04.4-.02-.29-.02-.4-.05-.59,0-.03-.01.37-.02.43v-.31s-.01.32-.01.32v-.37s-.02.08-.02.08c0,.02,0,.14,0,.23-.02.14-.04-.21-.04-.37l-.04.26c0-.12,0-.17.01-.25-.02.31,0-.32-.02-.04,0,.07,0,.18,0,.25,0-.19-.03-.19-.04-.11v-.21c-.02-.05-.05.1-.08.1.01.1,0,.47,0,.5v-.33c0,.2,0,.12,0,.37-.01-.04,0-.37,0-.48v.11c-.01-.1-.01-.15-.01-.27,0,.2-.02-.33-.03.02v-.1s-.04.11-.07.13c0,.28,0,.22-.02.45-.02-.09-.04-.31-.06-.29-.01.14,0,.24-.01.41,0-.26-.02-.23-.01-.42-.03.04-.03.05-.06.26,0,.1,0,.15,0,.24,0,.04-.01-.11-.01-.23v-.03c-.03.38-.08-.75-.11-.21v-.03s-.03.28-.03.28c-.01-.04,0-.19,0-.35-.03.43-.05-.06-.08.22-.02-.76-.07.05-.1-.43v.18c0,.17,0-.1-.01-.14,0,.14,0,.16,0,.26-.06.21-.13-.26-.19-.42-.02-.05-.01.92-.04.5v-.33c-.04.4-.09-.01-.13.32,0-.08,0-.18,0-.17,0-.24-.04-.01-.04.18,0-.02,0-.18,0-.28,0-.14-.02.31-.03.07,0-.04,0-.08,0-.1,0,.12-.03-.03-.02.25-.02-.13-.03.12-.05-.04,0,.31-.03-.15-.03.29,0-.45-.03-.36-.04-.15,0-.14,0-.14,0-.33-.01,0-.02.09-.02.32-.02-.54-.05.44-.06-.26-.04.24-.07.41-.1.51,0-.45.04-.04.03-.52-.03.19-.05.57-.08.46,0-.06,0-.2,0-.27-.03.19-.06-.04-.09.2,0-.04,0-.09,0-.12,0,.01-.01-.07-.01.14v-.06c.01.3-.02.62-.02.78,0-.59-.03-.15-.01-.89,0,.04,0,.14,0,.27,0-.04,0-.12,0-.28-.02.11-.01.33-.03.32,0-.1,0-.14,0-.25,0,.19-.02.39-.03.3,0-.06,0-.14,0-.14-.03.03-.04.52-.07.33,0-.43,0-.14-.01-.52l-.02.11v.18s-.02.27-.03.14v-.15s-.01.07-.01.07v.14c0,.19.02.47,0,.37,0-.04-.01,0-.02-.22,0,0,0,0,0,0,0,.12-.01.24-.02.15,0-.12,0-.41,0-.49,0,.31-.03.09-.04.42,0-.08,0-.27,0-.31v.25c-.01-.08-.01-.12-.01-.28-.02-.05,0,.47-.02.27,0-.02,0-.06,0-.1-.02-.11-.04.16-.06.04,0-.38.02-.09.01-.41-.03.07-.06.45-.09.36v.04c0,.53-.02-.26-.03-.01,0-.04,0-.29,0-.24-.02-.09-.04.13-.07.3v-.14c0-.12-.03-.07-.04-.13,0,.14-.01.11,0,.31-.04-.78-.07.42-.11-.23,0,0,0-.12,0-.12l-.03.13c0,.23,0,.14,0,.32,0,.14-.01.24-.02.24.01-.15,0-.37,0-.5,0,.07,0,.15,0,.22-.01-.41,0,.46-.02.19v-.12c0,.06-.01.22-.02.19,0-.27,0-.12,0-.34-.01.02-.02.51-.03.24,0-.07.01-.08.02-.15-.01-.31-.01-.23-.02-.28h0s-.02-.14-.02-.14v.09c0,.7-.02.13-.04.58.02-.43,0-.25,0-.55,0-.08-.01-.18-.01-.26,0,.24-.02-.19-.03.16,0-.1,0,0,0-.25-.01.08,0,.17,0,.29-.02.33-.04-.4-.07.05-.02.19-.03.52-.05.68,0-.16,0-.36,0-.36-.01-.14-.02-.12-.03,0,0-.09,0-.16,0-.27,0,.03,0,.36-.02.21,0-.11,0-.28,0-.39-.01.09-.02.27-.03.36,0-.17,0-.26.01-.37-.01.08-.03.15-.03.42v.1s0-.23,0-.28c.01-.21.01.09.02.19v.06c0,.57.02-.09.04-.06v.42s0-.35,0-.35c0,.11,0,.34,0,.4.01.21,0-.15.02.08,0,.04,0,.06,0,.07v-.12c0,.09.01.29,0,.23.02.24.03-.31.04,0v.03c.02-.14,0-.31.02-.66v.75s.02-.31.02-.31c0,.01,0,.03,0,.16.01-.21,0-.13,0-.33.01.28.04-.13.04.36,0-.23-.01-.18,0-.34,0,.52.02-.09.03.15,0,.27-.02.13,0,.37,0-.46.02.1.03.01,0-.36.02-.15.04-.27,0,.12.03.2.05.33v.06c0-.37.02-.3.03-.37,0,.22,0,.31,0,.4h.01c0-.12,0-.18.01-.22v.27s.03-.32.05-.14c0-.26-.02-.71,0-.88,0,.14,0,.38,0,.43,0-.02,0-.11,0-.06v.23c0,.1,0-.19,0-.17,0,.2,0,.14,0,.3,0,.02,0-.08,0,0,0,.04.02.15.02.3,0-.11,0-.27,0-.29.02-.01,0,.24.01.34,0-.14.01,0,.01-.29,0,0,0,.14,0,.22,0-.13.04-.04.03-.35v-.02s0,0,0-.01c.03-.29.05.17.08.04v.1c.01-.11.03-.07.04-.28,0,0,.01.18,0,.3.01-.07.01-.19.03-.02-.01.17,0,.15-.01.13.01.09.02.24.03-.03,0,.25.01.32.02.24v-.18s0-.01.01,0v.33c.03.4.05-.69.07-.01,0-.23-.02-.16,0-.44.01.04.03.52.03.52.02.18.02-.49.04-.36,0-.12,0-.44.01-.55.01.04.02.5,0,.59,0,.01,0-.03,0-.07,0,.04-.01.09,0,.22v-.12c0,.12.03.11.02.3.01-.11,0-.19,0-.26.02.17.03,0,.05.12,0-.07,0-.2,0-.2.03.15.01-.23.03-.28.01.18,0,.43.01.28.01.12,0,.31,0,.41.02-.23.03.15.04.19v.1c0-.06,0-.06,0-.05v-.24s0,.04,0,.14c0-.16,0-.39,0-.61,0,.12.02-.13.02.19-.02-.11,0,.32-.02.37,0-.04,0-.04.01,0,0,.04,0,.07,0,.08.02.28,0-.36.03-.35,0,.18,0,.34,0,.3,0,0,0-.3,0-.43.01.14.02-.1.02-.09v-.06c0-.18,0-.15.01-.21,0,.14,0,.1,0,.16.01-.31.02.32.04.11,0,.12,0,.33,0,.42.02-.23.02.24.04.05,0-.24,0-.18,0-.41l-.03.17.02-.35s-.02.15-.02.11c0-.19,0-.14,0-.33.01.36.02-.21.04.03v.59c.02.26.04-.3.06-.15v-.1c0-.23,0-.03.02-.13,0,.2,0,.27,0,.39,0-.15.02.01.02-.38v.26c.03.11.04-.56.06-.5,0,.21,0,.35-.01.51,0,0,.01.04.01-.1,0,.12.02-.27.03-.08,0-.09,0-.29.01-.28,0,.04,0,.1,0,.1,0-.1.01-.13,0-.35.02.62.06-.04.08.48.02-.07.03-.13.05-.14,0,.06,0,.1,0,.08.02.18.01-.57.03-.36.01.32-.01.17,0,.29,0,.65.03-.09.04.29v.04c0,.22.02-.25.04-.2,0,0,0,.06,0,.1.01-.33.04-.44.05-.53,0,.25,0,.13,0,.39,0-.04,0-.41.01-.49,0,.14.02.26.02.54h-.02c0,.37.02,0,.03.06v.16c.02-.05.02-.44.05-.42v-.12c.01-.39,0,.22.02-.07v.39c.01-.1.04-.38.05-.46,0,.29-.03.44-.04.62,0,0,.03-.03.03-.22,0,.04,0,.13-.01.07.01-.31.02-.46.04-.46,0,.77.05.19.06.79.03-.28.06.12.1.08-.01-.6.01-.02,0-.63,0-.04.01-.03.01.01l.03.37c0,.18,0,.13,0,.27.02.05,0,.26.02.42,0-.22,0-.31.02-.23v-.28c.01-.33,0,.51.03.19v.19c0-.11.04,0,.05-.49,0,.07,0,.24,0,.28.03.07.07-.52.1-.22v.15s0-.28.02-.13c0,.06,0,.15,0,.16,0-.05.02-.26.02-.17v.17c.02.2.04-.41.07-.51,0,.44.02.58.04.65v.06c.04.05.06-.36.09-.54.02.48.07.2.1.47,0-.08,0-.34,0-.39,0,.09.02-.31.02.1h0c0,.39.02.28.03.29v-.53c.03.77.09-.28.11.41,0-.13.02-.13.03-.26v.28c.02.07.03.11.06.04v.2s.01-.82.03-.83v.42s.06.36.08-.02c0,.06,0,.18,0,.2.01.01.05.29.04-.29,0,.38.03.04.04-.13v.28c.01-.36.01-.45.03-.55,0,.04,0,.22,0,.15.01.15.01-.26.03-.12v.18s0-.07.01-.28c0-.11.03.07.03.32,0-.15,0-.36.02-.29,0,.1,0,.15,0,.18.02.19.03-.32.05-.05,0,.09,0,.14,0,.17-.02,0-.03-.02-.03-.04,0,.26.01.3,0,.66.01-.19.03-.61.05-.49,0,.02,0,.05,0,.09v.03s0,0,0-.04c0,.04,0,.07.01.08,0,.21.02.11.02.12,0-.28,0-.24,0-.47,0,.02,0,.03,0,.05,0,0,0,.01,0,.03,0,0,0-.02,0-.02,0,0-.01.01-.02.02,0-.14.01-.26.02-.11,0-.18,0-.37.01-.45.01.39.03.6.03.85.02-.16.05-.1.07-.63,0-.07,0,.15,0,.23,0,.05,0,.04-.01.12.01-.14.04-.05.04-.42.02.17,0,.34.01.28v.11c.04.59.07-.94.12-.18,0-.05,0-.07,0-.13.06.33.11-.31.17.22.02.11.02-.13.03-.31v.3s.02-.35.02-.35c.02-.26.04.74.07.26v-.2s.03-.12.03.11c0-.04,0-.21,0-.11v.16s.03-.27.03-.27c.02.11,0,.63.03.66.01-.06.03-.46.03-.57,0,0-.01-.1-.01-.26v-.08c.01-.47.02-.94,0-1.27l-.02.28v-.23s0-.01,0-.01c0-.21-.01-.02-.02.1,0-.12,0-.2,0-.25l-.02.44c0-.18,0-.36,0-.46,0,.21,0,.41,0,.54,0-.21,0-.38-.02-.2,0-.12,0-.2,0-.25,0,.14-.02.06-.03.31,0-.26-.03.07-.03-.37,0,.11-.01.35-.02.36.01-.53-.03-.03-.03-.6-.01.47-.04.21-.06.47,0-.04,0-.11,0-.09-.01-.04-.01-.18-.02-.27,0,.39-.02.48-.03.72-.01-.38,0-.46,0-.82,0,.32-.02.32-.02.58,0-.23,0-.11-.01-.44,0,.49,0,.08-.02.38-.01-.24,0-.46-.02-.31,0-.15,0-.32,0-.32ZM115.23,10.01h0s0-.02,0-.02c0,0,0,0,0,.02ZM115.2,10.02s0,.01.01.01c0,.1,0,.2,0,.19,0-.06,0-.12-.01-.2ZM115.26,11.97s0-.02,0-.07c0,0,0-.01,0-.03,0-.01,0-.02,0-.03,0,.05,0,.1,0,.14Z"/>
    <path class="cls-1" d="M115.27,11.6s0-.02,0-.02c0-.02,0-.05,0-.06,0,.03,0,.06,0,.09,0,0,0,0,0,0Z"/>
    <path class="cls-1" d="M112.46,11.18h0s0-.02,0-.03c0,.01,0,.02,0,.03Z"/>
    <polygon class="cls-1" points="114.77 9.48 114.77 9.55 114.77 9.49 114.77 9.48"/>
    <path class="cls-1" d="M112.29,10.22s0-.05,0-.07c0,.02,0,.04,0,.07Z"/>
    <path class="cls-1" d="M112.21,10.15v-.1c0,.06,0,.08,0,.1Z"/>
    <path class="cls-1" d="M112.16,10.01s0,.09,0,.12c0,0,0,0,0,0v-.12Z"/>
    <path class="cls-1" d="M113.06,9.68s0,0,0-.01c0-.05,0-.03,0,.01Z"/>
    <path class="cls-1" d="M112.79,10.34c0-.05,0-.1,0-.13,0-.02,0-.03,0,.13Z"/>
    <polygon class="cls-1" points="113.36 9.34 113.36 9.35 113.36 9.35 113.36 9.34"/>
    <path class="cls-1" d="M112.81,10.21c0-.06,0-.04-.01,0,0,.02,0,.05.01,0Z"/>
    <path class="cls-1" d="M111.91,9.89h0s0,.02,0,.03v-.03Z"/>
    <path class="cls-1" d="M111.91,9.92v.03s0,0,0-.03Z"/>
    <path class="cls-1" d="M111.9,10.02v-.07s0,0,0,.07Z"/>
    <path class="cls-1" d="M111.99,10.02v-.1s0,.05,0,.1Z"/>
    <path class="cls-1" d="M112.01,9.99s-.01-.22-.02-.15v.08c0-.15.02.24.02.07Z"/>
    <path class="cls-1" d="M112.11,11.25l-.02-.08c0,.11,0,.25,0,.28.02.32,0-.24.02-.2Z"/>
    <path class="cls-1" d="M112.16,11.4c-.01.05,0,.16,0,.22,0-.1,0-.12,0-.22Z"/>
    <path class="cls-1" d="M112.59,11.4v.26s0-.1,0-.26Z"/>
    <polygon class="cls-1" points="112.68 10.08 112.67 9.92 112.66 10.16 112.68 10.08"/>
    <polygon class="cls-1" points="112.72 11.9 112.72 11.94 112.73 11.85 112.72 11.9"/>
    <path class="cls-1" d="M113.44,11.81v-.31c0,.06,0,.41,0,.31Z"/>
    <path class="cls-1" d="M113.75,11.49c0,.16.01.26.02.1,0-.02-.01-.14-.02-.1Z"/>
    <polygon class="cls-1" points="114.69 12.01 114.68 12.11 114.69 12.02 114.69 12.01"/>
  </g>
  <g>
    <path class="cls-1" d="M8.49,118.03c-1.43.12-2.95-.38-4.07-1.28-2.53-1.9-3.63-5.4-4.09-8.4-.74-4.33-.23-9.02,1.54-13.01,1-2.25,2.81-4.48,5.42-4.71,1.19-.06,2.54.26,3.37,1.1.84.89,1.46,2.07,1.53,3.3.05.6-.02,1.16-.13,1.77-.03.16-.13.33-.12.49.06.71-.42,1.12-.98,1.16-.48.04-1.02-.19-1.31-.77-.15-.39-.16-.91-.24-1.34-.17-1.02-.55-2.67-1.86-2.56-.48-.04-1.02.25-1.35.6-.4.44-.76.91-1.04,1.41-1.88,3.68-2.12,8.22-1.64,12.34.24,1.86.81,3.77,1.83,5.4.64.9,1.85,2,3.04,1.89,1.83-.16,3.61-2.63,4.41-4.02.17-.3.78-1.59,1-1.81.22-.22.45-.32.65-.34.79-.07,1.5.75,1.1,1.62-1.28,2.71-3.72,6.84-7.09,7.14Z"/>
    <path class="cls-1" d="M21.1,115.97c-.4.03-.8-.05-1.19-.3-1.87-1.27-2.26-6.64-2.38-8.91-.18-3.38-.15-6.74-.17-10.14.01-.8.03-4.68.24-5.5.19-.58.67-.98,1.19-1.02.32-.03.65.1.91.36,0,.04.13.15.17.15.27.3.35.77.26,1.14.34,2.09.41,4.2.47,6.31.19,4.02.19,8.1.66,12.1.83-2.83,1.58-5.69,2.78-8.44.4-.95.87-1.96,1.64-2.7.33-.27.71-.54,1.14-.66.63-.13,1.28,0,1.79.36,2.13,1.53,3.01,7.01,3.26,9.39.1.67.07,1.31-.07,1.96-.1.65-.53,1.29-1.24,1.35-.87.08-1.26-.65-1.4-1.4-.36-1.81-.64-3.66-1.08-5.46-.25-.98-.45-1.96-.89-2.88-.49.8-.81,1.67-1.18,2.54-1.21,3.1-1.75,6.51-2.91,9.69-.19.58-.46,1.16-.9,1.56-.29.31-.68.46-1.12.5Z"/>
    <path class="cls-1" d="M39.81,109.13c-3.09.27-5.87-1.77-6.42-4.88,0-.08-.18-.26-.23-.34-.41-.56-.34-1.17.18-1.58.12-.93.36-1.87.76-2.71.77-1.67,2.64-3.15,4.47-3.31.4-.03.84,0,1.25.13,2.34.67,2.87,3.59,1.32,5.48-1.08,1.37-2.84,2.21-4.54,2.52.6,1.35,2.03,2.18,3.54,2.05.91-.08,1.75-.51,2.51-1.02.11-.09.26-.18.42-.2,1.17-.34,1.91,1.27.89,1.96-.83.59-1.69,1.27-2.66,1.59-.46.16-.98.25-1.49.29ZM36.46,101.91c.97-.32,2.06-.7,2.62-1.55.18-.26.37-.79.27-1.06-.09-.15-.38-.21-.57-.15-1.3.27-2.02,1.58-2.32,2.76Z"/>
    <path class="cls-1" d="M50.3,109.26c-1.59.14-3.07-.37-3.92-1.82-.61-1.07-.92-2.32-.99-3.51-.11-2.59.97-9.52,4.3-9.81,1.59-.14,2.28.96,2.6,2.33.9.64.57,1.91-.46,2-.67.06-1.31-.37-1.68-.93-.31.55-.54,1.13-.69,1.74-.43,1.44-.79,2.91-.85,4.43-.02.72.19,2.18.82,2.57.21.14.53.15.89.12.79-.07,1.8-.48,2.29-.76.19-.1,1.07-.61,1.26-.67,1.05-.29,1.92.91,1.28,1.81-.25.34-1.53,1.25-1.87,1.48-.91.56-2,.93-2.99,1.02Z"/>
    <path class="cls-1" d="M60.33,111.02c-.2.02-.44,0-.65-.1-.42-.2-.66-.66-.97-1.03-.19-.3-.29-.61-.4-.96-.16-.47-.57-2.83-.65-3.3,0-.08-.22-.26-.31-.33-.4-.48-.44-1.36-.12-1.87.07-.13.14-.21.14-.29-.49-4.71-.67-9.46-.61-14.22,0-.56.01-2.6.29-3.06.07-.17.17-.29.28-.42.22-.22.45-.32.69-.34.52-.04,1.06.27,1.31.77.25.58.44,3.16.49,3.75.11,1.23.6,8.66.71,9.89.9-1.16,1.71-2.35,2.48-3.62.32-.51,1.91-3.29,2.35-3.76.29-.34.96-.96,1.43-1,.91-.08,1.66,1.1.85,1.89-.33.31-.66.7-.82,1.11-1.09,2.65-2.46,5.21-4.18,7.52.78-.19,1.57-.34,2.4-.41,1.27-.11,3.06-.19,4.09.6.64.46.72,1.38.17,1.94-.37.35-.88.52-1.35.56-1.22.23-2.5.18-3.72.41-1.06.17-2.12.5-3.13.79.04.4.27,2.65.27,3.05.87.84.05,2.35-1.02,2.45Z"/>
    <path class="cls-1" d="M91.33,110.86c-.32.03-.64-.06-.94-.2-1.44-.87-2.17-1.93-2.9-3.42-1.23-2.65-1.69-5.65-2.15-8.57-.6.05-1.19.1-1.76.03-1.25-.09-1.4-1.8-.19-2.14.51-.12,1.06-.25,1.61-.34-.39-3.08-.54-6.15-.53-9.23,0-.48.09-2.61.21-3.06.18-.66.67-1.06,1.18-1.1.52-.04,1.06.19,1.35.8.34.65.39,3.56.46,4.32.14,2.51.32,5.05.66,7.54.47-.08,3.11-.51,3.58-.67,1.21-.38,2.1,1.14,1.22,2.01-.66.66-3.53,1.23-4.4,1.38.45,2.8,1,6.39,2.26,8.92.24.42.51.83.79,1.25.54.19.82.73.79,1.25-.06.72-.62,1.17-1.25,1.23Z"/>
    <path class="cls-1" d="M99.58,109.1c-.4.04-.8-.05-1.19-.3-1.87-1.28-2.26-6.64-2.38-8.91-.18-3.38-.15-6.74-.17-10.14,0-.8.03-4.68.24-5.5.19-.58.67-.98,1.19-1.02.32-.03.65.1.91.36,0,.04.13.15.17.15.27.3.35.77.26,1.14.34,2.09.41,4.2.47,6.31.19,4.02.19,8.1.66,12.1.83-2.83,1.58-5.69,2.78-8.44.4-.95.87-1.96,1.64-2.7.34-.27.71-.54,1.14-.66.63-.13,1.28,0,1.79.36,2.13,1.53,3.01,7.01,3.26,9.39.1.67.07,1.31-.07,1.97-.1.65-.53,1.29-1.24,1.35-.87.08-1.26-.65-1.4-1.4-.36-1.81-.64-3.66-1.08-5.46-.25-.98-.45-1.96-.89-2.88-.49.8-.81,1.67-1.18,2.54-1.21,3.1-1.75,6.51-2.91,9.69-.19.58-.46,1.16-.9,1.56-.29.31-.68.46-1.11.5Z"/>
    <path class="cls-1" d="M118.29,102.27c-3.09.27-5.87-1.77-6.42-4.88,0-.08-.18-.26-.23-.34-.41-.56-.34-1.17.18-1.58.12-.93.36-1.87.76-2.71.77-1.67,2.64-3.15,4.47-3.31.4-.03.84,0,1.25.13,2.34.68,2.87,3.59,1.32,5.48-1.08,1.37-2.85,2.21-4.54,2.52.6,1.35,2.03,2.18,3.54,2.05.91-.08,1.75-.51,2.51-1.02.11-.09.26-.18.42-.2,1.17-.34,1.91,1.27.89,1.96-.83.59-1.69,1.27-2.66,1.59-.46.16-.98.25-1.49.29ZM114.94,95.04c.97-.32,2.06-.7,2.62-1.55.18-.25.37-.79.27-1.06-.09-.15-.38-.21-.57-.15-1.29.27-2.02,1.58-2.32,2.76Z"/>
    <path class="cls-1" d="M22.22,160.49c-1.43.12-3.42-.22-4.11-1.72-.44-.88.39-1.91,1.38-1.64.29.06.5.24.79.29.41.08,1.95-.09,2.38-.21-.9-1.6-2.4-2.79-3.56-4.17-.76-.85-1.41-1.88-1.54-3.02-.11-.83.16-1.77.62-2.49.74-1.1,1.96-1.81,3.19-1.92,1.59-.14,2.85.59,3.22,2.12.23.78-.37,1.31-.96,1.36-.44.04-.89-.16-1.1-.7-.64.06-1.03.09-1.47.61-.11.09-.33.39-.32.51-.01.32.49,1,.67,1.22,1.24,1.37,2.63,2.61,3.68,4.12.46.68.85,1.48.92,2.32.19,2.22-1.88,3.16-3.79,3.33Z"/>
    <path class="cls-1" d="M31.95,158.83c-1.59.14-3.07-.37-3.92-1.82-.61-1.07-.92-2.32-.99-3.51-.11-2.59.97-9.52,4.3-9.81,1.59-.14,2.28.96,2.6,2.33.9.64.57,1.91-.46,2-.67.06-1.31-.37-1.68-.93-.31.55-.54,1.13-.69,1.74-.43,1.44-.79,2.91-.85,4.43-.02.72.19,2.18.82,2.57.21.14.53.15.89.12.79-.07,1.8-.48,2.29-.76.19-.1,1.07-.61,1.26-.67,1.05-.29,1.92.91,1.28,1.81-.25.34-1.53,1.25-1.87,1.48-.91.56-2,.93-2.99,1.02Z"/>
    <path class="cls-1" d="M42.35,162.08c-.4.04-.8-.05-1.19-.3-1.87-1.28-2.26-6.64-2.38-8.91-.18-3.38-.15-6.74-.17-10.14.01-.8.03-4.68.24-5.5.19-.58.67-.98,1.19-1.02.32-.03.65.1.91.36,0,.04.13.15.17.14.27.3.35.77.26,1.14.34,2.09.41,4.2.47,6.31.19,4.02.19,8.1.66,12.1.83-2.83,1.58-5.69,2.78-8.44.4-.95.87-1.96,1.64-2.7.33-.27.71-.54,1.14-.66.63-.13,1.28,0,1.79.36,2.13,1.53,3.01,7.01,3.26,9.39.1.67.07,1.31-.07,1.97-.1.65-.53,1.29-1.24,1.35-.87.08-1.26-.65-1.4-1.4-.36-1.81-.64-3.66-1.08-5.46-.25-.98-.45-1.96-.89-2.88-.49.8-.81,1.67-1.18,2.54-1.21,3.1-1.75,6.51-2.91,9.69-.19.58-.46,1.16-.9,1.56-.29.31-.68.46-1.12.5Z"/>
    <path class="cls-1" d="M61.06,155.25c-3.09.27-5.87-1.77-6.42-4.88,0-.08-.18-.26-.23-.34-.41-.56-.34-1.17.18-1.58.12-.93.36-1.87.76-2.71.77-1.67,2.64-3.15,4.47-3.31.4-.03.84,0,1.25.13,2.34.68,2.87,3.59,1.32,5.48-1.08,1.37-2.85,2.21-4.54,2.52.6,1.35,2.03,2.18,3.54,2.05.91-.08,1.75-.51,2.51-1.02.11-.09.26-.18.42-.2,1.17-.34,1.91,1.27.89,1.96-.83.59-1.69,1.27-2.66,1.59-.46.16-.98.25-1.49.29ZM57.71,148.02c.97-.32,2.06-.7,2.62-1.55.18-.25.37-.79.27-1.06-.09-.15-.38-.21-.57-.15-1.29.27-2.02,1.58-2.32,2.76Z"/>
    <path class="cls-1" d="M80.25,161.64c-.4.03-.85-.09-1.19-.38-2.36-1.87-3.18-6.16-3.58-8.96-.51,1.96-1.59,6.02-3.89,6.22-2.62.23-4.04-3.65-4.37-5.65-.24-1.34-.16-2.71.09-4.01.53-3.05,2.37-7.12,5.91-7.43.48-.04.92,0,1.33.16-.04-1.44-.3-7.13.18-8.45.16-.45.5-.68.9-.72.52-.04,1.06.23,1.27.81.06.2.18,1.18.2,1.38.11.83.46,5.72.49,6.55.29,3.73.65,7.46,1.18,11.17.33,2.37.82,4.8,1.93,6.95.75.29,1.06,1.15.6,1.79-.25.34-.63.53-1.03.57ZM71.41,155.62c.28-.42.52-.93.68-1.42,1.04-2.69,1.68-5.5,1.95-8.37.02-.2.08-1.33.11-1.53.06-.25-.33-.17-.53-.07-.96.4-1.71,1.03-2.19,1.95-.82,1.55-1.35,3.36-1.35,5.16,0,1.48.43,3.08,1.33,4.28Z"/>
    <path class="cls-1" d="M92.96,154.33c-2.02.18-2.67-4.4-2.87-5.83-.75,1.43-2.13,3.5-3.58,4.31-.46.28-1,.41-1.52.41-1.45-.15-2.19-1.29-2.7-2.52-.73-1.98-.88-4.16-.83-6.24.04-.96.03-1.92.31-2.83.15-.61.67-1.02,1.19-1.06.36-.03.68.06.95.32.18.22.32.49.39.77.12.47.2,2.78.25,3.26.05,1.04.14,2.03.26,3.01.15.79.3,1.61.64,2.34,2.33-1.68,3.59-5.59,4.15-8.28.03-.12-.02-.24,0-.36.05-.8.65-1.3,1.32-1.35,1.27-.11,1.56.98,1.66,2.01.32,2.73.52,5.47,1.11,8.14.09.51.5,2.48.38,3-.15.53-.6.85-1.12.9Z"/>
    <path class="cls-1" d="M99.37,157.21c-2.42.21-3.21-8.75-3.35-10.46-.21-2.42-1.15-13.65-.29-15.25.21-.3.56-.49.91-.52.16-.01.28.02.44.04.08.03.16.03.25.06.57.15.95.76.79,1.33-.07.13-.01.28.04.4.38,2.48,1.42,17.19,1.72,19.68.12.95.33,1.89.49,2.83.03.32.14.67.05,1-.15.53-.57.85-1.04.89Z"/>
    <path class="cls-1" d="M108.51,151.09c-3.09.27-5.87-1.77-6.42-4.88,0-.08-.18-.26-.23-.34-.41-.56-.34-1.17.18-1.58.12-.93.36-1.87.76-2.71.77-1.67,2.64-3.15,4.47-3.31.4-.03.84,0,1.25.13,2.34.68,2.87,3.59,1.32,5.48-1.08,1.37-2.85,2.21-4.54,2.52.6,1.35,2.03,2.18,3.54,2.05.91-.08,1.75-.51,2.51-1.02.11-.09.26-.18.42-.2,1.17-.34,1.91,1.27.89,1.96-.83.59-1.69,1.27-2.66,1.59-.46.16-.98.25-1.49.29ZM105.16,143.87c.97-.32,2.06-.7,2.62-1.55.18-.25.37-.79.27-1.06-.09-.15-.38-.21-.57-.15-1.29.27-2.02,1.58-2.32,2.76Z"/>
  </g>
</svg>