<?xml version="1.0" encoding="UTF-8"?>
<svg id="Layer_1" data-name="Layer 1" xmlns="http://www.w3.org/2000/svg" viewBox="0 0 218.45 151.35">
  <defs>
    <style>
      .cls-1 {
        fill: #010101;
      }
    </style>
  </defs>
  <g>
    <path class="cls-1" d="M8.49,43.13c-1.43.12-2.95-.38-4.07-1.28-2.52-1.9-3.63-5.4-4.09-8.4-.74-4.33-.23-9.02,1.54-13.01,1-2.25,2.81-4.48,5.42-4.71,1.19-.06,2.54.26,3.38,1.1.84.89,1.46,2.07,1.53,3.3.05.59-.02,1.16-.13,1.77-.03.16-.13.33-.12.49.06.71-.42,1.12-.98,1.16-.48.04-1.02-.19-1.31-.76-.16-.39-.16-.91-.24-1.34-.17-1.02-.55-2.67-1.86-2.56-.48-.04-1.02.25-1.35.6-.4.44-.76.91-1.04,1.41-1.88,3.68-2.12,8.22-1.64,12.34.24,1.86.81,3.77,1.83,5.4.64.9,1.85,2,3.04,1.89,1.83-.16,3.61-2.63,4.41-4.02.17-.29.78-1.59,1-1.81.22-.22.45-.32.65-.34.79-.07,1.5.75,1.1,1.62-1.28,2.71-3.72,6.84-7.09,7.14Z"/>
    <path class="cls-1" d="M20.92,41.2c-2.42.21-3.21-8.75-3.35-10.46-.21-2.42-1.16-13.65-.29-15.25.21-.3.56-.49.91-.52.16-.01.28.02.44.04.08.03.16.03.25.06.57.15.95.76.8,1.33-.07.13-.02.28.04.4.38,2.49,1.42,17.19,1.72,19.68.12.95.33,1.89.49,2.83.03.32.14.67.05,1-.15.53-.57.85-1.04.89Z"/>
    <path class="cls-1" d="M27.72,37.21c-.95.08-2.03-.38-2.65-1.05-1.15-1.3-1.56-3.22-1.55-4.94,0-2.8,1.49-7.21,4.16-8.6.42-.2.85-.31,1.29-.35.4-.03.76.01,1.13.1.45.08.87.36,1.18.74.22-.26.53-.37.84-.39.36-.03.76.05,1.03.35.35.37.48.96.49,1.52.08,1.43.09,2.91.26,4.38.17,1.43.56,2.79.92,4.12.05.16.2.9.25,1.06.4.88-.21,1.66-.97,1.72-.32.03-.65-.06-.95-.36-.56-.47-1.46-2.55-1.68-3.21-.56,1.77-1.54,4.73-3.77,4.93ZM27.59,34.34c.41-.32,1.08-1.85,1.28-2.31.75-1.98,1.2-4.06,1.67-6.1-.33-.17-.56-.51-.71-.86-.66.18-1.16.86-1.52,1.41-1.09,1.69-1.66,3.86-1.41,5.84.1.71.21,1.5.7,2.02Z"/>
    <path class="cls-1" d="M37.97,20c-.48.04-.98-.2-1.26-.73-.53-.99-.43-2.2-.41-3.32-.01-.6-.02-1.16.13-1.73.15-.61.63-.98,1.11-1.02.52-.04,1.06.27,1.24.93.24.9.51,4.03.27,4.93-.15.57-.6.89-1.08.93ZM39.61,36.49c-1.23.11-1.91-1.27-2.2-2.29-.85-3.36-.92-6.92-.71-10.37.03-.52.22-1.14.67-1.42.19-.14.38-.19.58-.21.56-.05,1.15.34,1.37,1,0,.08.08.51.09.59.24,2.7.27,5.41.63,8.1.02.28.3,2.05.32,2.33,0,.08.26.26.31.29.67.82-.07,1.89-1.07,1.97Z"/>
    <path class="cls-1" d="M44.31,32.64c-2.03-.34-1.99-3.58-1.97-5.66-.02-1.12.13-5.41.59-6.45.2-.42.62-.69,1.06-.73.4-.04.77.13,1,.51.37.61.32,1.41.31,2.13.01.6-.02,3.92.04,4.55.74-1.62,1.43-3.24,2.55-4.62.47-.6,1.14-1.14,1.89-1.21.67-.06,1.38.24,1.83.76.94,1.12,1.38,2.56,1.94,3.91.69-1.3,1.25-2.63,2.06-3.86.63-1.01,1.83-2.36,3.14-2.47.67-.06,1.38.2,1.82.72,1.16,1.38,1.41,3.36,1.53,5.11.03.4.06,2.03-.07,2.44,0,.04-.03.08-.03.16-.07.61-.55,1.05-1.1,1.1-.75.07-1.37-.6-1.59-1.26-.12-.51-.28-3.25-.33-3.81-.08-.51-.13-1.03-.29-1.53-.78.71-1.25,1.67-1.73,2.59-.31.59-1.56,3.21-2.04,3.7-.37.39-.87.6-1.34.64-.63.05-1.25-.17-1.7-.69-1.03-1.23-1.41-2.83-2.05-4.3-.71,1.02-1.25,2.15-1.79,3.27-.31.63-1.64,3.66-2.11,4.22-.36.47-1,.89-1.61.78Z"/>
    <path class="cls-1" d="M87.47,42.45c-2.5.22-3.29-4.23-3.44-5.98-.18-2.06-.24-4.14-.26-6.21-.47,1-.94,2.04-1.71,2.79-.44.44-1.05.77-1.65.82-.67.1-1.46-.19-2.01-.62-1.25-1.01-1.99-2.66-2.29-4.28-.46-2.56-.62-5.22-.24-7.78.16-.93.42-2.08,1.53-2.17.52-.05.98.19,1.22.69.25.58.19,1.3.17,1.98,0,1.4.12,2.79.25,4.18.13,1.51.36,3.69,1.24,4.97,1.76-1.83,3.31-7.4,3.74-9.8.13-.77.01-1.68.43-2.36.24-.42.59-.61.98-.65.67-.06,1.35.36,1.54,1.14.08.47.04.92.04,1.4-.02,3.44-.52,16.44.99,19.54,0,.04.13.07.17.11.98.67.43,2.12-.68,2.22Z"/>
    <path class="cls-1" d="M94.01,30.45c-2.22.2-4.33-1.98-4.79-4.54-.38-2.08-.14-4.35.36-6.39.18-.7.4-1.35.75-1.94.21-.3.51-.6.85-.75.43-.16.91-.16,1.32,0,.21.1,1.2.05,1.44.07,2.46.22,4.57,1.92,4.91,4.45.38,2.53-1.18,7.06-3.25,8.52-.53.37-1.07.53-1.59.58ZM94.51,26.97c.03-.08.32-.47.35-.55.65-1.22,1.17-2.58,1.25-3.99.03-.52-.09-1.07-.33-1.53-.32-.49-.79-.85-1.34-1.12-.42.24-1.52-.03-1.94-.23-.3,1.62-.59,3.29-.45,4.96.11.79.26,1.62.72,2.29.18.26.67.78.95.8.24.02.6-.41.79-.63Z"/>
    <path class="cls-1" d="M111.79,29.81c-2.02.18-2.67-4.4-2.87-5.83-.75,1.43-2.13,3.5-3.58,4.31-.46.28-1,.41-1.52.41-1.45-.15-2.19-1.29-2.7-2.52-.73-1.97-.88-4.16-.83-6.24.04-.96.03-1.92.31-2.83.15-.61.67-1.02,1.19-1.06.36-.03.69.06.95.32.18.22.32.49.39.76.12.47.21,2.78.25,3.26.05,1.04.14,2.03.26,3.01.15.79.3,1.61.64,2.34,2.33-1.68,3.59-5.59,4.15-8.28.03-.12-.02-.24,0-.36.05-.8.65-1.29,1.32-1.35,1.27-.11,1.56.98,1.66,2.01.32,2.73.52,5.47,1.11,8.14.09.51.5,2.47.38,3-.15.53-.6.85-1.12.9Z"/>
    <path class="cls-1" d="M116.59,27.11c-.36.03-.77-.09-1.07-.39-.52-.47-.67-1.26-.85-1.96-.55-2.67-.95-5.39-1.15-8.13-.08-.95,0-2.28,1.19-2.38.48-.04,1.02.19,1.26.73.05.08.09.11.13.19.22.22.33.53.32.85,0,.04-.06.25-.06.29.22,1.14.4,2.32.54,3.47.06-.21.46-1.12.52-1.33.72-1.34,1.56-2.7,3.19-2.84.79-.07,2.09.14,2.5.7.46.68.1,1.59-.64,1.78-.35.11-.77-.09-1.13-.06-1.15.1-2.13,3.02-2.41,3.97-.15.53-1,3.68-1.19,4.22-.19.54-.65.86-1.16.9Z"/>
    <path class="cls-1" d="M141.38,27.18c-1.43.12-3.42-.22-4.11-1.72-.44-.88.39-1.91,1.38-1.64.29.06.5.24.79.29.41.08,1.95-.09,2.38-.21-.9-1.6-2.4-2.79-3.56-4.17-.76-.85-1.4-1.88-1.54-3.02-.11-.83.17-1.77.62-2.49.74-1.1,1.96-1.81,3.19-1.92,1.59-.14,2.85.59,3.22,2.12.23.78-.37,1.31-.96,1.36-.44.04-.89-.16-1.1-.7-.64.06-1.03.09-1.47.61-.11.09-.33.39-.32.51-.01.32.49,1,.67,1.22,1.24,1.37,2.63,2.61,3.68,4.12.46.68.85,1.48.92,2.32.2,2.22-1.88,3.16-3.79,3.33Z"/>
    <path class="cls-1" d="M149.78,37.36c-.67-.38-1.1-1.18-1.33-1.92-.32-.93-.45-1.92-.57-2.87-.7-5.22-1-10.51-.86-15.76.01-1.2.08-5.04.75-6.02.25-.34.56-.49.91-.52.75-.07,1.48.47,1.44,1.35-.15,1.49.06,9.35.15,10.9,0,.04.28-.02.31-.11.42-2.96,1.72-10.47,5.29-10.78,1.71-.15,3.41,1.46,4.09,3.32.36.89.64,1.82.64,2.74.06,3.91-2.38,7.96-6.59,8.33-.36.03-.76.03-1.12-.02-.28,2.3-.43,4.64-.55,6.96-.08,1.33-.01,3.96-1.29,4.39-.39.15-.9.2-1.28,0ZM153.33,23.1c.36-.03.66-.22,1.01-.37,2.07-.98,3.33-3.49,2.9-5.69-.16-.87-.48-1.8-1.2-2.29-1.41,1.2-2.43,6.53-2.71,8.35Z"/>
    <path class="cls-1" d="M167.05,24.06c-2.22.2-4.33-1.98-4.79-4.54-.38-2.08-.14-4.34.36-6.39.18-.7.4-1.35.75-1.94.21-.3.51-.6.85-.75.43-.16.91-.16,1.32,0,.21.1,1.2.05,1.44.07,2.46.22,4.57,1.92,4.91,4.45.38,2.53-1.18,7.06-3.25,8.52-.53.37-1.07.53-1.59.58ZM167.54,20.57c.03-.08.32-.47.35-.55.65-1.22,1.17-2.58,1.25-3.99.03-.52-.09-1.07-.33-1.53-.32-.49-.79-.85-1.34-1.12-.42.24-1.52-.03-1.94-.23-.3,1.62-.59,3.29-.45,4.96.11.79.26,1.62.72,2.3.18.26.67.78.95.8.24.02.6-.41.79-.63Z"/>
    <path class="cls-1" d="M181.91,28.03c-.32.03-.64-.06-.94-.2-1.43-.87-2.17-1.93-2.9-3.42-1.23-2.65-1.69-5.65-2.15-8.57-.6.05-1.19.1-1.76.03-1.25-.09-1.4-1.8-.19-2.14.51-.12,1.06-.25,1.61-.34-.39-3.08-.54-6.15-.53-9.23,0-.48.09-2.61.21-3.06.18-.66.67-1.06,1.18-1.1.52-.05,1.06.19,1.35.8.33.65.39,3.56.46,4.32.14,2.51.32,5.05.66,7.54.47-.08,3.11-.51,3.58-.67,1.21-.38,2.1,1.14,1.22,2.01-.66.66-3.53,1.23-4.4,1.38.45,2.8,1,6.39,2.26,8.92.24.42.51.83.79,1.25.54.19.82.73.79,1.25-.06.72-.62,1.17-1.25,1.23Z"/>
  </g>
  <g>
    <path class="cls-1" d="M182.28,123.08c-.07.06-.16.23-.05.25l.23-.25h-.18Z"/>
    <path class="cls-1" d="M182.54,123.95c.18-.08.44-.25.53-.55-.26.21-.22.09-.52.35-.1-.02-.09-.18-.02-.28-.07.06-.09-.14-.25.01-.02.29.11.38.37.28,0,.08-.08.14-.12.19Z"/>
    <path class="cls-1" d="M190.41,129.43l-.03-.07s.01.05.03.07Z"/>
    <path class="cls-1" d="M195.25,132.87s-.08,0-.09.02c.05,0,.09,0,.09-.02Z"/>
    <path class="cls-1" d="M195.87,133.74s-.02-.04-.04-.05c0,.04.01.06.04.05Z"/>
    <path class="cls-1" d="M190.41,129.43l.08.17c.07-.08-.02-.11-.08-.17Z"/>
    <path class="cls-1" d="M184.08,123.94s-.08,0-.12.03c.03,0,.06,0,.09.01l.03-.04Z"/>
    <path class="cls-1" d="M188.07,128.25l-.04-.03s-.07.06-.11.09l.15-.07Z"/>
    <path class="cls-1" d="M186.34,127.23s.19-.2.27-.29c-.08.08-.14.11-.19.11-.03.05-.06.1-.09.18Z"/>
    <path class="cls-1" d="M183.88,125.15h-.07s.05,0,.07,0Z"/>
    <path class="cls-1" d="M189.24,129.07s-.03.07-.04.09c.02-.03.03-.06.04-.09Z"/>
    <path class="cls-1" d="M192.96,151.06s0-.03,0-.05c-.01.03-.02.05,0,.05Z"/>
    <polygon class="cls-1" points="190.64 149.66 190.67 149.64 190.67 149.48 190.64 149.66"/>
    <path class="cls-1" d="M197.17,135.1h0c-.06-.01-.03,0,0,0Z"/>
    <path class="cls-1" d="M210.29,145.64c.04-.31.45-.01.44-.41-.06.1-.49.13-.44.41Z"/>
    <path class="cls-1" d="M184.11,124s.05.02.07.04c-.03-.03-.05-.04-.07-.04Z"/>
    <path class="cls-1" d="M210.73,145.23h0s0-.04,0-.04c0,.02,0,.03,0,.04Z"/>
    <path class="cls-1" d="M200.68,137.48s.03-.08.04-.12c-.02.02-.03.06-.04.12Z"/>
    <path class="cls-1" d="M198.38,135.27l.04.08s-.03-.06-.04-.08Z"/>
    <path class="cls-1" d="M202.23,138.17s0,.08.08.09c0-.01,0-.03,0-.04-.04.02-.07.01-.08-.05Z"/>
    <path class="cls-1" d="M203.57,139.22s0-.04.01-.06l-.05-.02.04.09Z"/>
    <path class="cls-1" d="M198.19,150.96c-.04-.08-.06-.17-.08-.25.02.2-.23.27.08.25Z"/>
    <path class="cls-1" d="M184,124.08c.05-.06.08-.08.11-.08-.02,0-.04-.01-.06-.02-.03.03-.05.07-.05.09Z"/>
    <path class="cls-1" d="M203.64,136.46l.19.2c-.04-.07-.11-.14-.19-.2Z"/>
    <path class="cls-1" d="M210.58,150.94l-.06.03s.05,0,.06-.03Z"/>
    <path class="cls-1" d="M204.51,137.14c-.02.11-.02.19,0,.25.02-.01.04-.02.07-.04l-.07-.21Z"/>
    <path class="cls-1" d="M198.11,150.7h0s0,0,0,0Z"/>
    <path class="cls-1" d="M196.31,151.35c.26.01.13-.36.18-.57.31-.1.14.27.25.46.2-.1.35-.43.49-.42.01.06.04.08,0,.16.21-.29.61,0,.85-.38.02.03.03.06.03.09-.04-.19-.04-.37-.03-.51.12,0,.22-.23.26.01-.07,0-.08.09-.11.16l.12-.1c.11.35-.17.12-.17.38.24-.11.52-.4.7-.3.04.34-.43.11-.19.41l-.28-.13c.21.54-.17-.04.02.54.37.1.42-.17.79-.07.09-.19-.03-.28.06-.47.53-.33.41.86.8.41.1-.23.15-.65.42-.43l-.1.38c.36.04.21-.55.59-.29-.07.15-.28.12-.23.17.24.31.18-.22.36-.21l.04.34c.39-.05.81-.29,1.24-.35-.02.1-.1.21,0,.31.54-.17,1.15.05,1.67.25l.2-.29s.08.13.03.19c.2.11.01-.19.11-.3.11-.02.15.17.08.26.36-.25,1.02-.53,1.39-.22l-.07.09c.29.12.33-.6.6-.33l-.05.05c.64.12,1.34-.14,1.82.3.09-.42.63.18.67-.41.37.29.26.4.78.59.14.03.2-.37.37-.43v.31s.23-.33.23-.33l.13.37.16-.08c-.06-.02-.14-.14-.13-.23.25-.14.61.21.62.36l.58-.27c-.01.12-.11.17-.18.25.31-.32.06.32.34.03-.04-.07.02-.18.02-.25.07.09.19.14.32.15.14.01.45-.01.63-.06l-.04.21c.84.03,1.65-.15,2.51-.17-.42-.09-.68-.45-.51-.49l.44.31c-.08-.2-.36-.11-.34-.36.31.03.63.35.56.46l.25-.12c.15.09.12.14.25.26-.12-.2,1.18.29.92-.05l.17.09c.78-.02,1.06-.11,1.54-.16-.06-.07-.14-.16-.23-.25-.58-.25-.63-.4-1.19-.71-.11-.27-.08-.58-.52-1.06-.48-.35-.44-.15-.8-.32.37.04-.05-.42.4-.17-.52-.54-.69-.74-1.45-1.3-.05.11-.03.19-.15.19-.13-.08-.1-.28.03-.32l.05.02c-.25-.13-.41-.3-.55-.52-.14-.22-.15-.36-.22-.55-.11-.36-.22-.7-.57-.69h.04c-.18-.06-.36-.11-.55-.16-.13-.19.24-.04.23-.27-.69-.08-.56-.65-1.08-.76.28-.78-.9-.83-.91-1.48l-.1.15c-.21.05-.04-.17-.07-.26-.09.11-.01.21-.14.22-.89-.53-1.36-1.62-2.05-2.42-.26-.29-.77.55-.85-.08l.32-.16c-.83-.21-1.18-1.03-1.98-1.25.08-.03.15-.11.2-.06.03-.29-.44-.38-.57-.23-.08-.09.09-.15.1-.28-.03-.21-.5-.02-.42-.26.01-.04.08-.03.12-.03-.15.02-.35-.33-.45-.05-.14-.28-.5-.24-.57-.5-.31.15-.29-.41-.59-.1.3-.34-.16-.59-.43-.53.13-.07-.03-.21.14-.31-.16-.12-.36-.17-.48.04.04-.66-.86-.11-.6-.79-.63-.17-1.17-.37-1.67-.61.28-.35.5.32.77-.07-.52-.16-.99-.03-1.33-.42-.07-.13.18-.11.26-.15-.52-.15-.78-.61-1.29-.68.03-.03.09-.04.15-.04-.08-.04-.13-.18-.24,0h.1c-.06.33-.65.3-.76.42.47-.39-.28-.38.35-.84-.07,0-.19.03-.26.15-.05-.08-.02-.17.14-.24-.33-.1-.36.15-.59-.03.06-.08.13-.08.22-.15-.23.07-.46.14-.62-.07.05-.04.07-.12.13-.08-.36-.22-.89.01-1.16-.41.36-.28-.05-.21.15-.53l-.27-.05-.02.21c-.18-.13-.49-.02-.57-.22l.22-.03-.38-.18.11.25c-.29.03-.25.4-.43.15.07,0-.18-.13-.15-.37h0c-.16.04-.32.08-.4-.09.03-.12.26-.32.28-.4-.26.2-.47-.21-.77-.01.08-.04.19-.2.2-.24l-.22.16c-.04-.12-.03-.16.07-.28-.23-.21-.19.45-.37.08.03,0,.04-.04.12-.04-.24-.29-.67-.26-.87-.55.13-.37.29.09.37-.24-.43-.21-1.08-.17-1.42-.5l.05.08c-.34.41-.14-.41-.48-.33.07,0,.22-.2.18-.16-.22-.25-.61-.25-1.11-.37l.12-.08c-.09-.21-.38-.32-.51-.49-.12.08-.21,0-.26.21-.11-.99-1.22-.29-1.34-1.13.06.03.2-.02.15-.04l-.46-.15c-.09.22-.02.15-.03.36-.12.08-.29.1-.39.04.26-.02.2-.32.19-.47-.02.07-.09.12-.12.18.01-.48-.28.37-.42-.04l.08-.09c-.14-.01-.32.06-.42-.04.09-.26.18-.04.3-.22-.17-.09-.59.23-.59-.09.11-.02.21.04.31.02,0-.37-.05-.31-.15-.43h0s-.2-.28-.2-.28l.02.12c-.57.47-.48-.15-.99.07.49-.2.17-.19.35-.43-.03-.11-.08-.26,0-.31-.26.13-.12-.3-.49-.1.04-.09-.13-.09.02-.28-.21-.04-.05.17-.13.26-.43.13-.4-.72-1.01-.55-.42-.04-.65.21-1.03.17-.02-.19.27-.25.27-.25-.09-.22-.23-.27-.44-.27.08-.05.08-.14.09-.26-.14-.05-.27.26-.35.03.08-.08.21-.2.33-.26-.19-.01-.43.06-.63.04.05-.17.22-.17.33-.23-.21-.04-.52-.13-.71.07l.06.15c-.07-.03.09-.22.16-.23.25-.09.16.21.12.29h-.14c-.18.55.48.17.68.33l-.3.3.4-.16c0,.12-.1.34-.24.33.05.27.21-.04.23.23,0,.04-.02.05-.04.06h.21c-.07.04-.13.25-.19.14.15.37.6,0,.53.33h-.04c.45.12.19-.23.66-.37l-.2.76.2-.24s.1.1.02.19c.25-.09.04-.13.23-.25.04.35.58.2.37.64.19-.16-.08-.26.2-.28-.22.48.28.06.32.37-.19.2-.28-.02-.24.29.34-.33.28.29.46.3.2-.3.39.06.69.11-.08.09.34.45.5.7l-.04.05c.24-.28.43-.08.64-.04-.12.18-.2.24-.34.26l.16.1c.1-.08.18-.1.3-.07l-.19.21c.21.12.59,0,.76.32.15-.21.17-.74.54-.7-.06.12-.18.33-.28.33.03,0,.15-.04.17.04l-.24.12c.07.16.17-.12.25-.04-.11.17,0,.16-.1.29-.04,0-.04-.12-.12-.08.09.1.16.28.12.44.05-.1.14-.22.24-.19.21.12-.06.25,0,.41.12-.08.18.12.34-.13.06.04,0,.16-.02.24.18-.04.52.29.57-.05l-.02-.03s.01,0,.02,0h0s0,0,0,0c.51-.02.63.61,1.05.73l-.05.08c.27.04.5.24.76.16.06.04.05.24-.05.33.2.04.28-.04.42.25-.25.04-.03.16-.23,0,.16.21.12.37.48.29-.21.16-.02.37.11.37l-.04-.25c.13.04.21.13.3.21l-.24.24c.19.62,1.13-.07,1.07.71.24-.12-.13-.29.12-.45.17.17.1.7.16.74.16.33.52-.24.72.05.03-.12.18-.41.44-.36.16.17-.05.57-.22.57-.05-.02-.05-.07-.03-.1-.09,0-.19-.02-.19.14l.09-.08c.03.17.29.34.12.45.21,0,.17-.12.1-.24.14.31.38.27.56.54,0-.08.04-.22.08-.19.28.38.29-.07.57.06.04.25-.3.32.04.37.08.21-.15.28-.27.32.36-.03.34.42.44.54h-.17c.1,0,.16.04.22.08l.07-.24c.05.08.1.12.05.2.16-.08.17-.36.44-.43.02.17.36.1.21.38-.23-.3-.15.28-.43.14.07,0,.13.05.17.13-.01.04-.05.05-.08.05.11.43.33-.2.62.02-.14.12-.13.32-.06.32-.11-.09.12-.28.3-.31.1.25.26.06.35.15l-.07-.13c.14-.12.22-.03.38.02-.07.12-.17,0-.16.07.33-.15.13.5.46.47.02.16-.19.28-.16.4.36-.02.1.37.44.39.08-.24.03-.2.33-.27l-.48-.15.45-.1c-.11-.09-.33-.06-.38-.14.23-.07.19-.03.25-.23-.05.4.44.06.48.4l-.36.47c.12.42.67.12.93.51l-.05-.17c.19-.15.24.14.41.15-.13.15-.1.26-.13.4.08-.12.25.21.52-.08v.33c.22.3.67-.2.9.07-.21.11-.18.31-.45.29.09.07.15.17.23.06-.02.14.41-.01.38.2.09-.04.23-.19.32-.1-.01.04-.06.08-.06.08.06-.08.24.02.29-.22-.1.7.81.58.72,1.18.24.1.51.25.7.38-.05.04-.06.08-.08.03.13.34.51-.32.65.07-.06.36-.26.01-.24.18-.37.53.39.21.33.65h-.07c0,.28.5.09.71.32,0,0-.05.03-.06.07.37-.12.74.04,1.02.17-.23.13-.19.02-.31.25.12.06.24-.34.48-.22-.03.16.03.38-.13.6l-.19-.15c-.14.35.25.2.3.33l-.11.11c.31.21.58-.09.86.2l.05-.12c.42-.15,0,.29.35.21l-.21.34c.17.02.64.05.88.17-.3.12-.63.02-.89.03.11.09.38.3.57.21-.07-.01-.19.01-.19-.07.34-.11.61-.07.82.14-.55.53.42.65.16,1.23.56.14.65.76,1.09,1.15.27-.57.13.11.54-.35.12.07.16.11.14.15l.04.55c-.06.2-.19,0-.28.11.18.24-.09.27-.07.52.13-.18.3-.15.36.03l.03-.37c.53.07-.11.61.42.68l-.23.04c.24.07.54.57,1.04.39-.03.08-.11.23-.21.19.13.2.47.37.66.43.14,0,.31.07.19.17l-.17.04c.06,0,.35-.04.2.03-.07,0-.18.02-.19.03.06,0,.37.03.29.07l-.24-.02c-.09.05.06.07.32.15.25.08.61.21.78.33-.77-.2-.98-.22-1.11-.27l-.13-.05s.01.02.06.04c.15.08.59.37.57.51-.41-.23-.52-.28-.62-.3-.09-.02-.19-.02-.28-.15.04.08.12.34.08.39-.05-.09-.12.31-.14-.1h.02c.01-.39-.33-.28-.51-.28l-.02.53c-.55-.76-1.41.3-1.71-.38-.13.13-.29.13-.42.27v-.28c-.36-.07-.54-.1-.98-.03l.09-.2c-.25-.02-.31.82-.54.84l-.07-.42c-.44,0-.88-.36-1.32.02,0-.06.02-.18.09-.2-.21-.01-.8-.28-.72.29,0-.38-.45-.04-.69.13l.04-.28c-.2.36-.21.45-.49.55-.07-.04-.06-.22.03-.15-.22-.15-.17.26-.44.11l.1-.18c-.23-.02-.21.07-.34.28-.14.11-.43-.07-.46-.32-.03.15-.16.36-.29.29-.02-.1.03-.15.06-.18-.38-.19-.57.32-.83.05,0-.09-.02-.14-.04-.17.3,0,.55.03.52.05,0-.26-.24-.3-.05-.66-.2.19-.53.61-.77.49-.01-.03-.02-.05-.03-.09l.02-.03c-.05-.03-.1,0-.15.04-.08-.04-.12-.07-.2-.08-.03-.21-.28-.12-.4-.13,0,.28-.15.23,0,.47-.02-.02.02-.03.1-.04.02,0,.04-.01.05-.03v.02c.07,0,.18-.01.29-.02-.1.14-.2.26-.33.1-.06.18-.13.37-.17.45-.16-.39-.48-.61-.53-.85-.37.15-.88.1-1.11.62-.11.07-.12-.15-.16-.24.06-.05.13-.04.17-.12-.21.13-.63.05-.68.42-.27-.17.15-.34-.21-.28l.05-.11c-.71-.6-1.18.93-1.97.17.05.05.08.07.09.13-.91-.34-1.88.3-2.78-.24-.26-.11-.28.13-.44.31l-.05-.3-.27.35c-.38.25-.65-.74-1.13-.26l.06.2c-.17-.04-.55.12-.52-.12-.02.04-.06.21-.12.11v-.16s-.43.27-.43.27c-.33-.11.05-.63-.43-.66-.18.06-.51.46-.44.56.07,0,.18.1.19.26l-.16.08c-.03.47-.15.94.24,1.27l.28-.28.09.23h-.23c.13.23.22.04.31-.09.02.12.06.2.12.25l.27-.44c.03.18-.12.36.06.46.13-.21-.12-.41.09-.54.13.21.09.38.25.2.02.12-.01.2-.07.25.14-.14.37-.06.44-.31.14.26.47-.07.45.37.04-.11.25-.34.37-.36-.24.53.48.03.41.6.17-.47.62-.21.93-.47-.02.04-.05.11-.08.09.17.04.22.18.33.27.02-.39.29-.48.44-.72.21.38-.13.46-.07.82,0-.32.37-.31.3-.58.16.24.14.11.22.44.03-.49.15-.08.29-.38.23.24.06.46.31.31.12.15-.11.32-.11.32ZM202.41,150.56h0c-.05.01-.1.02-.13.02.03,0,.06-.01.13-.02ZM202.92,150.56c-.06-.01-.14-.01-.22-.01-.02-.1,0-.2.05-.19-.03.06.09.12.17.2ZM201.85,148.6c.08-.04.11.02.12.07-.04,0-.08.01-.14.03v.03c0-.05,0-.1.02-.14Z"/>
    <path class="cls-1" d="M201.7,148.97s-.02.02-.03.02c.02.03.03.05.05.06l.03-.09h-.04Z"/>
    <path class="cls-1" d="M190.38,129.35h0s0-.02,0-.03c0,.02,0,.02,0,.03Z"/>
    <polygon class="cls-1" points="210.01 151.08 210 151.01 209.96 151.07 210.01 151.08"/>
    <path class="cls-1" d="M188.52,127.02s.01-.05,0-.08c0,.02,0,.05,0,.08Z"/>
    <path class="cls-1" d="M187.51,126.32l-.09-.18c.03.09.07.14.09.18Z"/>
    <path class="cls-1" d="M186.79,125.71s-.06.07-.08.09h0s.08-.09.08-.09Z"/>
    <path class="cls-1" d="M199.43,133.71s.02.01.04.01c.1,0,.04-.01-.04-.01Z"/>
    <path class="cls-1" d="M195.41,131.68c.07-.02.13-.03.19-.03-.05-.06-.1-.1-.19.03Z"/>
    <polygon class="cls-1" points="203.62 136.44 203.62 136.44 203.64 136.46 203.62 136.44"/>
    <path class="cls-1" d="M195.77,131.78c-.03-.09-.09-.12-.17-.12.04.05.09.12.17.12Z"/>
    <path class="cls-1" d="M183.38,123.49l-.03-.03s-.02.03-.03.04h.06Z"/>
    <path class="cls-1" d="M183.32,123.49h-.06s.04.02.06,0Z"/>
    <path class="cls-1" d="M183.13,123.5h.13s-.07-.06-.13,0Z"/>
    <path class="cls-1" d="M184.38,124.24l.06-.08s-.04.04-.06.08Z"/>
    <path class="cls-1" d="M184.72,124.41c-.06-.07-.08-.3-.22-.31l-.05.06c.13-.1.11.35.27.25Z"/>
    <path class="cls-1" d="M185.4,126.31l-.23-.23c0,.12-.02.28-.16.23.17.48.06-.25.39,0Z"/>
    <path class="cls-1" d="M186.15,126.95c-.17-.05-.08.14-.12.18.14-.03.18-.03.12-.18Z"/>
    <path class="cls-1" d="M192.1,130.74l-.16.2c.13.04.06-.08.16-.2Z"/>
    <polygon class="cls-1" points="193.96 130.39 193.94 130.19 193.76 130.35 193.96 130.39"/>
    <polygon class="cls-1" points="193.6 132.35 193.53 132.35 193.77 132.39 193.6 132.35"/>
    <path class="cls-1" d="M203.18,139.23l.17-.27c-.1-.01-.34.26-.17.27Z"/>
    <path class="cls-1" d="M207.28,142.25c-.06.15-.02.32.15.27-.07-.09-.08-.26-.15-.27Z"/>
    <polygon class="cls-1" points="211.33 148.54 211.43 148.43 211.24 148.52 211.33 148.54"/>
  </g>
  <g>
    <path class="cls-1" d="M106.15,65.29c-.09-.06-.28,0-.22.19l.35.09-.13-.28Z"/>
    <path class="cls-1" d="M105.73,66.66c.19.2.51.41.79.21-.35-.17-.22-.24-.63-.42-.07-.19.06-.35.18-.33-.09-.06.03-.3-.19-.38-.22.28-.18.61.08.9-.06.08-.16.03-.22.02Z"/>
    <path class="cls-1" d="M111.82,84.7l-.02-.13s0,.08.02.13Z"/>
    <path class="cls-1" d="M117.71,95.02c-.06-.07-.11-.08-.13-.07.07.06.12.1.13.07Z"/>
    <path class="cls-1" d="M118.59,96.9s-.04-.07-.05-.11c0,.06.02.1.05.11Z"/>
    <path class="cls-1" d="M111.82,84.7l.05.33c.11-.03,0-.18-.05-.33Z"/>
    <path class="cls-1" d="M107.03,69.04c-.03-.06-.07-.1-.13-.14.03.05.05.1.07.15h.05Z"/>
    <path class="cls-1" d="M109.29,80.11l-.04-.09s-.1-.02-.15-.02l.19.11Z"/>
    <path class="cls-1" d="M107.68,76.41c.02.09.3.02.42,0-.13,0-.2-.05-.25-.11-.05.02-.11.05-.17.11Z"/>
    <path class="cls-1" d="M106.14,70.18l-.07-.1s.04.07.07.1Z"/>
    <path class="cls-1" d="M110.47,82.74s-.06.05-.07.08c.03-.02.06-.04.07-.08Z"/>
    <path class="cls-1" d="M199.93,142.52s0,.03,0,.05c.02-.03.03-.05,0-.05Z"/>
    <path class="cls-1" d="M204.51,143.89l-.06.02c0,.05,0,.11,0,.16l.07-.17Z"/>
    <path class="cls-1" d="M120.61,100.08s0,0,0-.02c-.09-.06-.05-.02,0,.02Z"/>
    <path class="cls-1" d="M146.44,122.39c-.17-.42.7.09.39-.47-.02.12-.69.06-.39.47Z"/>
    <path class="cls-1" d="M107.02,69.15c.02.05.03.1.04.16,0-.07-.02-.12-.04-.16Z"/>
    <path class="cls-1" d="M146.83,121.93h0s-.03-.06-.03-.06c.01.02.02.04.03.06Z"/>
    <path class="cls-1" d="M126.58,106.33s.02-.1.02-.15c-.02.02-.03.06-.02.15Z"/>
    <path class="cls-1" d="M122.46,101.4l.08.14c-.02-.06-.05-.11-.08-.14Z"/>
    <path class="cls-1" d="M129.26,108.33c.05.07.04.12.16.17,0-.02,0-.03,0-.05-.06,0-.11-.03-.15-.12Z"/>
    <path class="cls-1" d="M131.84,110.62s0-.06-.01-.08c-.03-.02-.06-.04-.09-.06l.1.14Z"/>
    <path class="cls-1" d="M189.86,141.18c.05.09.08.19.09.28,0-.21.49-.16-.09-.28Z"/>
    <path class="cls-1" d="M106.88,69.08c.07,0,.11.02.14.07l-.04-.1s-.08,0-.1.04Z"/>
    <path class="cls-1" d="M130.86,106.79l.37.39c-.09-.12-.23-.26-.37-.39Z"/>
    <path class="cls-1" d="M167.27,132.48l.13.03s-.08-.04-.13-.03Z"/>
    <path class="cls-1" d="M132.45,108.21c0,.14.04.25.1.35.03,0,.06,0,.09-.01l-.19-.33Z"/>
    <path class="cls-1" d="M189.96,141.47h0s0,0,0,0Z"/>
    <path class="cls-1" d="M193.53,141.5c-.5-.09-.3.32-.44.51-.62,0-.23-.31-.4-.53-.39.03-.74.32-1.02.26,0-.06-.06-.09.02-.16-.45.22-1.16-.26-1.7,0-.03-.04-.04-.07-.04-.1.03.2,0,.38-.04.51-.23-.05-.47.13-.5-.13.14.04.17-.05.25-.11l-.26.04c-.13-.39.35-.04.41-.29-.48,0-1.08.15-1.41-.03.01-.35.85.09.45-.32l.51.26c-.29-.62.32.12.07-.53-.68-.27-.83-.02-1.51-.29-.21.14-.02.28-.23.43-1.1.09-.56-1.02-1.41-.81-.25.16-.45.55-.9.17l.29-.31c-.66-.25-.55.41-1.18-.06.17-.1.57.04.48-.03-.37-.43-.39.11-.74,0l.03-.35c-.73-.19-1.61-.15-2.42-.41.08-.08.25-.13.1-.3-1.04-.21-2.1-.82-2.97-1.37l-.47.14c-.08-.03-.11-.18,0-.2-.33-.24-.09.17-.31.21-.22-.06-.22-.26-.05-.29-.74-.03-2.04-.29-2.6-.86l.17-.02c-.48-.34-.84.3-1.22-.16h.12c-1.11-.59-2.46-.96-3.13-1.77-.35.3-1.03-.7-1.36-.21-.52-.57-.29-.58-1.1-1.19-.23-.14-.52.14-.84.04l.13-.28-.55.08-.04-.44-.31-.07c.1.07.17.25.11.32-.5-.1-.95-.74-.89-.89l-1.14-.31c.08-.1.27-.05.44-.04-.69,0,.06-.34-.58-.35.03.1-.12.14-.16.19-.16-.3-.73-.58-1.17-.76l.18-.14c-.71-.47-1.61-.8-2.44-1.28.25.26,0,.54-.27.43l.07-.34c-.26.08.19.25-.25.28-.29-.21-.02-.44.21-.43l-.43-.12c.03-.1.14-.09.23-.18-.26.09-.49-.65-.89-.48l.03-.1c-.82-.48-1.24-.63-1.92-1.02-.16.23-.39.02-.7.09-.44-.38-.87-.9-1.47-1.24-.49-.14-.25.13-.52.15.1-.23-.49-.58-.09-.54-.72-.42-.92-.54-1.91-.93.04.15.12.26.02.3-.18-.07-.31-.33-.22-.42h.06c-1.2-.32-1.88-2.09-2.94-2.19h.06s-.96-.31-.96-.31c-.34-.29.33,0,.15-.33-1.11-.24-1.33-.99-2.21-1.25-.12-.99-1.96-1.35-2.41-2.26l-.06.17c-.29,0-.17-.25-.28-.38-.06.13.11.28-.06.27-1.74-.97-3.11-2.66-4.63-4-.56-.49-.9.47-1.37-.45l.41-.09c-1.41-.63-2.4-1.9-3.73-2.57.12,0,.18-.08.29.01-.09-.38-.88-.73-1-.59-.16-.16.07-.17.03-.34-.15-.31-.79-.27-.76-.55,0-.05.12,0,.17.02-.23-.04-.7-.63-.73-.29-.33-.46-.88-.59-1.1-1-.42.04-.6-.73-.96-.47.33-.31-.47-.91-.87-.99.18-.02-.13-.31.1-.36-.29-.26-.62-.44-.73-.23-.16-.89-1.36-.69-1.18-1.47-1.01-.64-1.89-1.29-2.7-1.98.35-.28.85.8,1.15.44-.83-.58-1.51-.73-2.11-1.53-.13-.23.24-.03.36-.02-.81-.61-1.27-1.44-2.03-1.96.03-.03.13.02.22.06-.13-.12-.21-.35-.36-.2l.15.09c-.04.41-.93-.12-1.07-.05.64-.15-.45-.77.42-.88-.1-.06-.27-.11-.36,0-.08-.16-.05-.25.18-.22-.48-.41-.51-.1-.87-.55.08-.06.18,0,.31-.02-.33-.1-.67-.21-.89-.64.06-.01.09-.11.18,0-.53-.63-1.28-.8-1.66-1.65.51-.04-.07-.33.21-.59l-.37-.33-.04.27c-.24-.35-.68-.51-.79-.88l.31.17-.52-.62.14.45c-.41-.25-.36.31-.6-.22.1.08-.23-.36-.17-.67h0c-.22-.11-.44-.23-.54-.54.06-.13.38-.17.42-.26-.38,0-.61-.8-1.03-.85.11.03.28-.07.3-.11h-.31c-.04-.23-.02-.27.13-.33-.28-.53-.3.41-.5-.3.05.04.06,0,.16.07-.28-.67-.85-1.09-1.08-1.72.23-.36.37.45.53.09-.53-.78-1.38-1.46-1.74-2.3l.05.17c-.52.15-.11-.72-.55-1.01.09.08.33-.01.26,0-.22-.59-.72-1.06-1.31-1.82l.17.04c-.06-.38-.38-.9-.51-1.28-.18-.04-.26-.26-.37-.04.15-1.44-1.41-1.92-1.28-3.19.06.12.24.23.2.14l-.5-.79c-.18.16-.08.17-.16.42-.18-.05-.38-.25-.47-.46.31.32.34-.16.38-.37-.05.06-.15.03-.21.07.18-.61-.46.11-.47-.61l.13-.02c-.16-.2-.4-.35-.47-.61.2-.21.22.19.43.12-.17-.34-.75-.49-.64-.91.13.12.22.33.34.45.15-.46.06-.47,0-.74v.03s-.1-.64-.1-.64l-.02.18c-.83-.18-.47-.84-1.12-1.27.62.43.27,0,.57-.05.02-.18.03-.44.13-.41-.33-.2,0-.53-.47-.8.09-.05-.09-.3.16-.32-.2-.34-.13.14-.26.15-.5-.46-.08-1.44-.75-2.13-.38-.65-.76-.69-1.09-1.32.09-.27.39.09.39.09.05-.4-.05-.66-.24-.98.1.05.15-.04.23-.17-.09-.27-.39-.1-.34-.5.12.04.31.08.45.18-.18-.3-.4-.58-.56-.9.15-.12.29.15.43.24-.15-.36-.35-.94-.64-1.01l-.04.26c-.04-.14.21-.11.28-.02.27.28,0,.48-.09.52l-.11-.23c-.5.36.27.96.38,1.44l-.46-.1.46.41c-.08.13-.29.26-.41.04-.11.4.22.27.08.63-.03.04-.05.03-.07,0l.21.31c-.1-.04-.27.13-.26-.09-.08.68.58.89.34,1.21l-.04-.04c.39.8.32,0,.85.52l-.59.65h.32c.02.08.05.25-.07.26.31.25.11-.1.36.03-.12.5.5,1.09.08,1.34.27.07.04-.45.34-.07-.45.3.27.47.18.92-.3-.02-.29-.42-.38.03.51.07.18.76.38,1.05.34-.12.42.62.74,1.1-.13.01.21,1.06.31,1.59h-.06c.38-.04.53.48.76.81-.21.08-.31.05-.49-.11l.15.34c.14.03.25.11.39.31l-.29.03c.22.44.71.76.81,1.42.25-.08.43-.76.87-.23-.11.08-.32.21-.44.07.04.04.19.13.19.26l-.33-.14c.03.3.24.05.32.27-.18.08-.05.21-.21.25-.04-.04-.02-.22-.12-.26.08.25.12.58.03.74.09-.07.24-.12.35.04.23.44-.14.26-.1.56.18.05.19.39.45.27.06.13-.05.21-.09.3.23.17.58,1.04.73.64v-.07s.02.03.02.03h0s0,0,0,0c.63.61.66,1.61,1.16,2.28l-.09.05c.33.38.59.93.95,1.13.07.13.01.39-.12.39.25.29.37.27.5.83-.34-.24-.07.19-.31-.27.17.47.09.64.59.96-.31-.03-.09.48.1.64l-.02-.39c.16.21.26.42.37.63l-.35.06c.17,1.08,1.53,1.19,1.36,2.2.34.1-.15-.55.21-.49.21.41.06,1.08.14,1.2.2.64.73.23,1,.86.05-.14.27-.38.64-.03.23.4-.08.75-.33.56-.07-.09-.07-.15-.04-.17-.12-.1-.28-.23-.28,0l.13-.02c.03.26.41.78.16.76.29.23.25.01.15-.24.2.59.52.77.8,1.33,0-.12.05-.27.11-.19.42.81.42.19.82.64.06.39-.42.16.07.56.13.37-.2.25-.37.19.53.3.53.92.69,1.2l-.26-.18c.15.11.24.22.33.34l.08-.28c.07.16.16.28.09.34.23.04.22-.35.61-.21.05.25.55.46.35.72-.38-.63-.19.26-.62-.18.1.07.2.18.27.34-.01.04-.07.02-.11,0,.23.72.48.02.93.58-.2.04-.15.34-.04.41-.19-.22.14-.3.41-.18.2.44.41.31.55.51l-.13-.25c.2-.05.33.14.58.35-.09.11-.26-.16-.23-.03.46.06.3.81.78,1.05.07.25-.23.24-.16.45.54.26.23.61.77.91.06-.29,0-.27.45-.13l-.78-.59.68.21c-.2-.21-.53-.34-.62-.5.34.09.28.1.33-.13,0,.53.69.43.83.93l-.44.4c.28.69,1.08.67,1.59,1.42l-.13-.28c.25-.08.41.37.69.51-.16.12-.08.3-.08.47.09-.12.46.47.79.24l.11.47c.45.58.99.16,1.44.68-.3.01-.16.33-.61.12.17.16.29.33.39.23.02.18.66.24.69.52.13,0,.29-.13.47.06,0,.05-.07.07-.07.07.07-.07.39.18.37-.14.12.93,1.51,1.29,1.64,2.09.43.28.93.63,1.29.91-.06.03-.06.07-.12,0,.37.55.66-.18,1.08.43.08.48-.4-.11-.3.13-.34.57.73.48.86,1.08l-.11-.04c.15.41.85.38,1.3.79,0,0-.06.03-.06.07.53,0,1.21.4,1.72.69-.3.09-.29-.06-.36.21.23.13.2-.37.65-.11.05.21.26.54.13.79l-.39-.29c-.02.44.5.39.67.59l-.12.1c.62.43.87.12,1.5.63v-.14c.59-.04.17.4.69.43l-.13.39c.29.1,1.04.31,1.5.57-.41.06-.99-.2-1.4-.29.23.18.8.57,1.04.51-.12-.04-.29-.05-.35-.17.47-.03.93.13,1.38.48-.54.56,1.09,1.05,1.08,1.77.99.37,1.57,1.29,2.56,1.95,0-.73.29.19.58-.35.25.12.33.19.33.24l.48.77c.06.26-.29-.04-.35.09.47.38.06.36.3.72.06-.23.35-.14.59.13l-.24-.51c.88.21.31.84,1.2,1.06h-.33c.43.16,1.33.93,1.96.76.03.1.02.3-.17.23.84.63,2.24.84,2.76,1.53l-.15.08c.19.07.44-.05.56.21-.04.05-.15.08-.08.14.11.01.58.06.75.28l-.28.02c.75.73,1.55.48,2.33.85-.23.37.38.92.68,1.19l-.04.05c.99.66,1.9.76,2.95,1.15.35.75,1.91,1.32,2.74,2.1-.11-.15.19-.29.38-.23.18.21.77.09.54.42l-.08-.05c-.02.44.5.59.87.8l.31-.43c.6,1.18,2.64,1.07,2.85,1.96.29,0,.58.16.87.15l-.14.25c.62.38.94.57,1.77.9l-.25.1c.45.24.93-.46,1.36-.27l-.05.44c.8.37,1.45,1.11,2.41,1.09-.04.05-.11.15-.25.11.38.17,1.37.9,1.46.3-.14.35.82.39,1.33.43l-.18.23c.51-.17.56-.26,1.11-.13.11.09.02.25-.11.12.35.3.41-.1.86.23l-.25.1c.42.18.42.08.73-.03.31,0,.78.37.76.63.11-.12.42-.23.64-.07,0,.1-.11.12-.17.13.65.44,1.17.09,1.57.53-.02.09,0,.15.03.19-.57-.22-1.02-.4-.97-.41-.09.24.36.45-.13.65.44-.04,1.21-.21,1.62.07.01.03.03.06.03.11h-.06c.1.07.2.08.3.08.13.1.21.15.35.2-.01.22.5.28.73.36.07-.27.36-.14.15-.44.03.03-.05.02-.21-.02-.04,0-.08-.01-.11,0l.02-.02c-.16-.04-.36-.1-.59-.16.23-.08.46-.13.67.1.18-.13.37-.27.47-.33.2.47.75.86.76,1.12.76.07,1.72.42,2.31.06.22,0,.19.22.24.32-.13.01-.27-.04-.35.02.44.01,1.23.26,1.42-.06.48.29-.38.26.35.37l-.12.09c1.28.9,2.49-.33,3.89.72-.1-.06-.15-.09-.16-.16.87.32,1.82.4,2.75.5.47.05.93.11,1.39.2.46.08.91.16,1.35.33.5.15.58-.08.91-.23l.09.31.56-.3c.77-.22,1.27.9,2.26.39l-.12-.2c.35.03,1.09-.13,1.04.1.04-.04.11-.21.25-.11v.16s.86-.28.86-.28c.66.11-.09.63.88.65.36-.06,1-.47.86-.57-.14,0-.37-.09-.39-.25l.32-.09c.03-.47.24-.94-.55-1.26l-.53.29-.18-.22.45-.02c-.27-.21-.42-.02-.6.11-.05-.12-.12-.2-.23-.25l-.52.45c-.07-.18.23-.36-.12-.46-.25.21.24.41-.17.55-.26-.21-.18-.38-.49-.2-.04-.12.02-.2.14-.25-.27.15-.71.07-.86.32-.26-.24-.91.06-.87-.39-.09.1-.49.31-.74.3.48-.49-.92-.11-.76-.66-.37.44-1.22.11-1.84.32.04-.03.11-.11.16-.08-.33-.07-.41-.22-.61-.32-.09.4-.62.4-.93.59-.35-.44.31-.41.23-.8-.02.32-.75.2-.65.48-.28-.28-.25-.16-.36-.51-.13.48-.3.03-.61.29-.41-.31-.04-.47-.56-.41-.21-.19.26-.28.26-.28ZM181.81,139.29h0c.1.02.18.05.24.07-.05-.01-.12-.03-.24-.07ZM180.86,138.95c.11.05.25.11.41.16,0,.1-.07.18-.16.14.07-.04-.13-.18-.24-.31ZM182.26,141.51c-.17-.01-.2-.08-.21-.14.08.02.16.04.28.05l.03-.03s-.06.09-.11.11Z"/>
    <path class="cls-1" d="M182.65,141.25s.04,0,.07,0c-.02-.03-.05-.06-.07-.09l-.08.07.09.02Z"/>
    <path class="cls-1" d="M111.8,84.55v.02s0-.04.02-.06c0,.02-.01.02-.02.04Z"/>
    <polygon class="cls-1" points="168.33 132.88 168.3 132.94 168.41 132.93 168.33 132.88"/>
    <path class="cls-1" d="M110.24,79.09s.03-.05.04-.1c-.02.01-.03.05-.04.1Z"/>
    <path class="cls-1" d="M109.36,76.85l-.03-.35c0,.16.02.27.03.35Z"/>
    <path class="cls-1" d="M108.82,75.09c-.05,0-.09,0-.13,0h0s.13,0,.13,0Z"/>
    <path class="cls-1" d="M123.8,100.07s.04.03.06.05c.15.09.06.02-.06-.05Z"/>
    <path class="cls-1" d="M118,93.54c.09.05.19.1.26.16-.07-.14-.13-.25-.26-.16Z"/>
    <polygon class="cls-1" points="130.82 106.75 130.82 106.75 130.86 106.79 130.82 106.75"/>
    <path class="cls-1" d="M118.49,94.05c-.04-.16-.12-.26-.22-.34.05.12.11.26.22.34Z"/>
    <path class="cls-1" d="M106.71,67.45v-.09s-.04,0-.05,0l.05.09Z"/>
    <path class="cls-1" d="M106.66,67.36l-.05-.09s.02.08.05.09Z"/>
    <path class="cls-1" d="M106.5,67.09l.11.19c-.01-.07-.02-.16-.11-.19Z"/>
    <path class="cls-1" d="M107.12,69.83h.11s-.06,0-.11,0Z"/>
    <path class="cls-1" d="M107.34,70.54c-.03-.17.1-.48-.03-.7h-.08c.18.07-.11.59.11.7Z"/>
    <path class="cls-1" d="M107.07,73.88l-.12-.63c-.07.14-.16.32-.28.06-.05.86.18-.23.4.57Z"/>
    <path class="cls-1" d="M107.59,75.78c-.17-.3-.15.06-.21.06.17.17.21.21.21-.06Z"/>
    <path class="cls-1" d="M113.7,88.54l-.24.1c.16.21.09-.05.24-.1Z"/>
    <polygon class="cls-1" points="116.2 90.19 116.21 89.89 115.94 89.91 116.2 90.19"/>
    <polygon class="cls-1" points="115.47 92.5 115.38 92.42 115.69 92.74 115.47 92.5"/>
    <path class="cls-1" d="M131.21,110.41l.15-.29c-.17-.07-.43.17-.15.29Z"/>
    <path class="cls-1" d="M139.36,116.63c0,.19.16.45.4.43-.17-.16-.28-.39-.4-.43Z"/>
    <polygon class="cls-1" points="164.77 133.86 164.54 133.85 164.93 133.96 164.77 133.86"/>
  </g>
</svg>