<?xml version="1.0" encoding="UTF-8"?>
<svg id="Layer_1" data-name="Layer 1" xmlns="http://www.w3.org/2000/svg" viewBox="0 0 170.95 184.25">
  <defs>
    <style>
      .cls-1 {
        fill: #010101;
      }
    </style>
  </defs>
  <g>
    <path d="M158.66,172.18c.09-.17.04-.56-.2-.5l-.18.65.39-.15Z"/>
    <path d="M157.05,170.85c-.29.3-.66.84-.51,1.46.32-.62.38-.35.72-1.08.24-.06.42.24.37.48.09-.16.38.17.52-.24-.31-.53-.69-.58-1.13-.18-.08-.15.01-.32.04-.44Z"/>
    <path d="M135.22,163.21l.1.14c-.02-.06-.05-.1-.1-.14Z"/>
    <path d="M123.05,155.58c.1.05.17.02.21-.03-.11-.02-.2-.03-.21.03Z"/>
    <path d="M121.43,153.6s.06.08.09.12c-.01-.08-.04-.14-.09-.12Z"/>
    <path d="M135.22,163.21l-.25-.36c-.12.18.1.23.25.36Z"/>
    <path d="M153.62,172.16c.09-.02.16-.07.24-.14-.07.02-.14.03-.21.03,0,.03-.02.06-.03.1Z"/>
    <path d="M141.17,165.38l.11.05c.06-.06.12-.13.19-.21l-.3.16Z"/>
    <path d="M145.69,166.95c-.09-.06-.31.46-.42.68.13-.2.24-.28.34-.29.03-.1.06-.23.08-.39Z"/>
    <path d="M152.85,169.72l.15-.05s-.1.03-.15.05Z"/>
    <path d="M138.06,163.88c.03-.08.04-.15.04-.2-.03.06-.04.13-.04.2Z"/>
    <path d="M63.08,58.21s.07,0,.1,0c-.06-.03-.1-.04-.1,0Z"/>
    <path d="M65.81,52.48l.03.08c.11,0,.21.02.32.02l-.35-.1Z"/>
    <path d="M118.21,150.41s0,.01,0,.02c.13.02.07-.01,0-.02Z"/>
    <path d="M87.3,123.54c-.1.68-.96-.18-.96.73.13-.19,1.06-.07.96-.73Z"/>
    <path d="M153.5,172.07c-.07,0-.14-.01-.21-.03.09.03.15.04.21.03Z"/>
    <path d="M86.34,124.27h0s0,.09,0,.09c0-.04,0-.06,0-.09Z"/>
    <path d="M109.84,144.37c-.05.09-.06.17-.07.26.03-.05.06-.12.07-.26Z"/>
    <path d="M115.42,149.75l-.11-.18c.03.09.07.14.11.18Z"/>
    <path d="M106.24,142.42c-.05-.1-.03-.18-.19-.21,0,.03-.01.05-.01.08.09-.03.16-.01.2.13Z"/>
    <path d="M103.05,139.72s0,.09-.02.14c.04.02.08.04.12.06l-.11-.2Z"/>
    <path d="M63.84,71.1c.15-.1.32-.17.49-.23-.39.09-.58-.52-.49.23Z"/>
    <path d="M153.66,171.85c-.04.14-.09.2-.16.22.05,0,.1,0,.15,0,.02-.08.04-.16.01-.21Z"/>
    <path d="M103.26,145.72l-.47-.49c.11.16.28.34.47.49Z"/>
    <path d="M69.46,101.28l-.11-.13c0,.06.04.11.11.13Z"/>
    <path d="M101.22,143.99c.04-.23.02-.4-.04-.54-.05.02-.1.02-.15.06l.19.48Z"/>
    <path d="M64.34,70.87h0s0,0,0,0Z"/>
    <path d="M62.77,66.49c.02.65.74.27,1.17.39.25.76-.53.38-.89.66.22.47.91.8.9,1.16-.12.03-.16.11-.32.03.62.47.09,1.5.88,2.05-.06.05-.12.07-.18.09.36-.12.74-.16,1.01-.16.03.29.51.5.03.64,0-.18-.19-.18-.35-.25l.23.29c-.67.32-.27-.39-.78-.36.27.57.9,1.21.74,1.68-.67.15-.31-1.03-.87-.39l.2-.72c-1.03.61.04-.43-1.06.14-.12.94.43,1.01.3,1.94.39.18.55-.11.94.06.78,1.24-1.62,1.17-.65,2.05.47.21,1.33.22.96.94l-.79-.16c.02.9,1.16.4.75,1.38-.32-.13-.33-.67-.41-.53-.53.67.48.38.53.84l-.67.17c.21.94.82,1.92,1.06,2.95-.21-.03-.44-.18-.62.09.53,1.27.35,2.82.15,4.17l.66.39c.01.11-.23.25-.36.15-.14.54.37-.04.64.16.08.27-.27.43-.48.28.62.8,1.55,2.27,1.11,3.32l-.21-.14c-.09.77,1.34.55.94,1.32l-.13-.1c.03,1.61,1.07,3.14.5,4.54.87,0,.04,1.62,1.2,1.39-.34,1.04-.58.84-.56,2.18.06.34.86.26,1.11.62l-.58.2.79.34-.6.52.27.33c-.02-.16.16-.41.33-.44.46.49.07,1.57-.22,1.69.31.41.66.8,1,1.19-.24.06-.42-.14-.64-.27.88.51-.55.36.26.83.09-.14.36-.08.48-.11-.21.47.09,1.23.46,1.73l-.44.05c.33,1.05,1.01,2.08,1.58,3.17-.01-.48.7-.69.92-.4l-.53.4c.47.04.06-.44.71-.22.13.44-.54.59-.84.44l.45.4c-.16.11-.31.04-.55.12.46.03-.16,1.15.61,1.14l-.16.11c.55,1.1.96,1.52,1.48,2.38.5-.25.59.15,1.14.18.21.71.23,1.64.72,2.38.55.39.5-.09.93-.02-.42.3.07,1.04-.48.84.59.88.78,1.11,1.88,1.98.09-.23.08-.42.27-.44.21.15.13.57-.1.68l-.08-.02c.74.4.91,1.32,1.11,2.2.19.88.39,1.72,1.21,1.86l-.08-.02,1.21.63c.28.5-.52-.03-.51.49,1.5.52,1.22,1.73,2.34,2.23-.65,1.68,2.09,2.17,2.13,3.68l.22-.29c.46-.02.09.4.18.62.18-.21.02-.46.28-.45,1.95,1.61,3.26,4.04,4.9,6.09.62.72,1.62-.97,1.91.44l-.69.27c1.92.65,2.81,2.56,4.63,3.26-.18.04-.32.19-.45.07-.03.61,1.05.96,1.32.67.18.22-.18.31-.18.58.1.47,1.13.18.97.67-.02.08-.18.05-.26.03.34,0,.85.81,1.03.23.35.65,1.15.67,1.36,1.27.67-.24.7.99,1.35.4-.63.66.44,1.34,1.05,1.28-.29.12.11.46-.27.64.39.31.85.47,1.08.06.01,1.42,1.96.5,1.48,1.9,1.45.55,2.72,1.14,3.88,1.8-.6.68-1.2-.84-1.74-.07,1.22.49,2.25.35,3.1,1.27.18.29-.39.2-.57.25,1.23.47,1.88,1.54,3.07,1.82-.05.07-.2.07-.34.05.19.11.33.42.55.07l-.24-.04c.08-.69,1.44-.47,1.66-.7-1,.72.71.89-.65,1.73.16.02.43-.03.56-.27.13.19.09.36-.27.48.77.28.8-.23,1.38.19-.12.16-.28.14-.48.28.52-.1,1.04-.2,1.43.29-.1.08-.13.24-.28.14.88.55,2.01.21,2.74,1.14-.77.52.16.45-.22,1.1l.63.16v-.44c.44.31,1.13.13,1.38.59l-.5.03.91.44-.31-.55c.66-.02.48-.82.95-.25-.16-.02.43.31.42.83h0c.35-.05.7-.1.94.26-.04.25-.52.65-.55.82.56-.38,1.16.52,1.79.14-.18.07-.39.4-.4.49l.46-.31c.12.27.11.35-.09.6.58.47.3-.93.83-.11-.08,0-.09.08-.26.07.64.65,1.62.64,2.18,1.28-.18.77-.7-.21-.79.47,1.09.49,2.58.44,3.47,1.16l-.14-.18c.65-.85.48.88,1.23.73-.16,0-.44.42-.35.34.59.55,1.54.52,2.74.77l-.26.18c.3.43,1.02.68,1.41,1.01.25-.18.49,0,.51-.44.34,1.06,1.1,1.18,1.86,1.24.75.07,1.49.09,1.86.96-.15-.06-.45.06-.33.12l1.17.24c.09-.46-.03-.32-.12-.75.24-.19.62-.26.88-.15-.59.08-.28.69-.16,1.02.02-.15.15-.26.18-.4.26.99.44-.82,1-.03l-.13.21c.34-.01.71-.22,1-.04-.06.55-.4.12-.57.53.46.13,1.22-.64,1.43,0-.24.07-.51-.02-.74.05.22.75.33.62.62.83l-.03-.02.66.54-.14-.23c1-1.13,1.2.2,2.24-.49-.99.62-.27.44-.5,1.01.15.21.4.48.26.62.5-.37.51.54,1.22,0-.03.19.39.13.18.58.52-.02-.03-.36.08-.58.9-.47,1.52,1.31,2.81.6,1.01-.21,1.3-.82,2.19-1,.23.36-.35.66-.35.66.42.36.78.37,1.25.23-.11.15-.04.31.06.55.36.01.33-.66.76-.3-.11.2-.25.53-.45.72.44-.08.91-.45,1.36-.59.08.35-.32.5-.5.71.52-.12,1.32-.22,1.51-.75l-.3-.21c.18-.01.06.47-.08.56-.46.39-.6-.22-.6-.42l.32-.1c-.21-1.17-1.25.14-1.87-.07l.36-.78-.72.58c-.1-.24-.12-.71.19-.78-.37-.48-.43.23-.73-.29-.03-.08,0-.11.04-.14l-.46.17c.11-.16.03-.59.27-.43-.66-.6-1.32.4-1.48-.26l.07-.04c-1.1.09-.22.58-1.17,1.14l-.18-1.6-.24.57c-.1-.05-.3-.15-.2-.38-.49.3,0,.28-.32.6-.37-.68-1.48-.13-1.34-1.1-.31.4.39.48-.24.64.13-1.05-.68,0-1.01-.59.3-.48.65-.09.33-.67-.54.8-.84-.43-1.26-.41-.24.68-.92,0-1.64-.01.12-.22-1.07-.81-1.56-1.26l.06-.11c-.38.65-.95.3-1.43.23.18-.4.33-.53.64-.61l-.41-.17c-.19.18-.36.23-.66.2l.31-.46c-.55-.21-1.34.12-1.89-.52-.25.45-.02,1.55-.91,1.53.09-.26.25-.71.49-.73-.08,0-.32.11-.4-.05l.49-.29c-.24-.33-.33.28-.57.13.17-.36-.07-.34.1-.61.08,0,.15.25.32.15-.26-.19-.51-.55-.49-.88-.07.21-.22.48-.46.44-.55-.22.02-.51-.2-.85-.25.18-.46-.24-.73.28-.15-.08-.06-.34-.05-.52-.39.1-1.31-.58-1.28.14l.05.07s-.03,0-.06,0h0s0,0,0,0c-1.17.06-1.73-1.23-2.72-1.49l.1-.17c-.63-.1-1.22-.54-1.8-.39-.15-.09-.19-.52,0-.69-.47-.1-.63.07-1.04-.54.57-.07.02-.34.54.01-.43-.44-.38-.78-1.21-.63.45-.33-.06-.76-.37-.79l.17.53c-.31-.1-.52-.29-.74-.48l.47-.49c-.59-1.33-2.58,0-2.64-1.63-.52.22.38.63-.15.93-.43-.37-.4-1.48-.55-1.58-.44-.72-1.12.42-1.65-.24-.05.25-.32.84-.94.69-.42-.39-.02-1.21.38-1.17.12.06.13.16.08.22.2.03.45.08.41-.26l-.19.16c-.1-.36-.74-.77-.38-.99-.48-.05-.37.22-.18.5-.4-.69-.92-.64-1.4-1.24.02.17-.05.46-.14.4-.73-.85-.66.11-1.32-.23-.13-.54.62-.62-.16-.8-.22-.46.29-.57.54-.62-.81-.02-.84-.98-1.1-1.27l.4.05c-.24-.03-.38-.13-.52-.24l-.11.5c-.12-.19-.26-.29-.14-.45-.36.13-.33.74-.93.83-.08-.36-.84-.29-.54-.85.58.68.3-.57.95-.22-.16-.02-.3-.13-.42-.32.02-.07.1-.09.17-.08-.34-.94-.73.35-1.42-.17.3-.22.24-.66.09-.69.27.22-.22.58-.64.6-.28-.56-.6-.2-.82-.4l.19.31c-.3.22-.5,0-.87-.14.14-.24.4.06.36-.12-.72.23-.38-1.1-1.11-1.13-.07-.36.39-.55.29-.82-.81-.04-.28-.82-1.07-.95-.13.5-.04.43-.71.49l1.13.45-1.02.1c.28.22.77.21.89.4-.52.09-.42.02-.53.44.06-.86-1.02-.25-1.15-.98l.74-.92c-.32-.93-1.53-.45-2.2-1.36l.14.38c-.41.28-.56-.37-.96-.44.27-.29.19-.54.23-.82-.17.24-.6-.51-1.18.03l-.04-.71c-.54-.72-1.48.23-2.05-.41.47-.17.35-.63.98-.5-.21-.18-.36-.4-.54-.19.03-.29-.94-.09-.9-.54-.2.06-.5.35-.72.12.03-.08.13-.15.13-.15-.13.15-.55-.11-.62.4.13-1.5-1.91-1.51-1.79-2.81-.55-.3-1.2-.68-1.64-1.03.1-.07.13-.15.18-.05-.34-.79-1.1.54-1.49-.35.08-.78.58.05.53-.32.76-1.06-.91-.57-.85-1.52l.16.04c-.05-.63-1.15-.35-1.64-.92,0,0,.1-.06.13-.14-.82.16-1.67-.32-2.33-.65.5-.23.42.01.66-.46-.29-.16-.48.68-1.05.36.03-.35-.15-.83.18-1.28l.47.38c.25-.74-.6-.5-.74-.8l.24-.2c-.72-.55-1.26.02-1.93-.7l-.09.24c-.92.19-.02-.63-.81-.58l.43-.68c-.38-.1-1.42-.31-1.98-.64.67-.17,1.41.13,1.98.2-.25-.24-.89-.77-1.3-.62.16.04.42.03.43.21-.74.15-1.37-.03-1.86-.52,1.15-.96-.97-1.59-.44-2.78-1.24-.52-1.45-1.94-2.47-2.92-.57,1.15-.3-.29-1.17.56-.27-.21-.33-.32-.29-.4l-.06-1.25c.13-.41.4.08.6-.12-.37-.62.21-.56.17-1.14-.28.35-.64.2-.77-.23l-.08.8c-1.14-.39.27-1.32-.87-1.71h.5c-.49-.26-1.2-1.46-2.25-1.32.06-.16.27-.45.47-.32-.57-1.1-2.42-1.69-2.46-2.83l.3-.09c-.2-.14-.7-.03-.61-.43.11-.05.3-.08.26-.18-.16-.04-.79-.23-.79-.59l.42.05c-.27-1.25-1.63-1.18-2.33-1.97.76-.44.54-1.4.42-1.87l.12-.05c-.62-1.25-1.71-1.78-2.63-2.8.25-.57.04-1.23-.24-1.92-.29-.69-.56-1.45-.57-2.15-.07.25-.64.24-.81.05.05-.35-.89-.56-.12-.81l.03.11c.65-.51.22-1.01.05-1.47l-1.02.3c.46-.86.05-1.6-.33-2.29-.39-.68-.79-1.29-.24-1.83-.35-.21-.47-.58-.82-.79l.55-.15c-.14-.85-.19-1.28-.58-2.27l.44.1c-.12-.58-1.77-.29-1.94-.83l.77-.38c-.27-1.02.14-2.2-.81-3.04.12-.01.37-.03.44.12-.08-.49.17-1.99-.92-1.57.74-.17-.15-1.08-.59-1.57l.56-.02c-.8-.33-.99-.31-1.32-.94.04-.17.41-.22.31.02.18-.57-.6-.31-.41-1.01l.39.18c-.04-.55-.22-.47-.68-.7-.27-.31-.02-1.06.46-1.22-.31-.02-.77-.26-.67-.6.18-.07.32.03.38.08.23-.96-.85-1.26-.41-1.96.18-.04.27-.09.31-.15.1.72.16,1.3.11,1.26.51-.08.51-.67,1.28-.31-.45-.4-1.43-1.08-1.25-1.69.05-.03.09-.07.17-.1l.06.05c.04-.14-.02-.25-.12-.35.06-.19.11-.32.1-.49.41-.12.15-.7.14-.99-.56.09-.51-.3-.93.11.04-.05.07.05.12.24.02.04.04.09.07.12h-.05c.04.18.08.42.12.71-.31-.19-.58-.41-.3-.77-.38-.11-.76-.23-.95-.3.73-.49,1.07-1.31,1.54-1.47-.42-.86-.45-2.07-1.53-2.54-.16-.24.28-.32.44-.43.12.14.11.31.27.38-.31-.49-.22-1.5-.97-1.56.28-.67.71.31.52-.57l.23.1c1.04-1.81-2.11-2.71-.68-4.74-.09.14-.13.21-.25.24.55-2.24-.85-4.53.17-6.75.2-.63-.28-.68-.64-1.05l.6-.15-.71-.63c-.54-.91,1.44-1.62.47-2.77l-.41.16c.07-.42-.25-1.32.22-1.26-.07-.04-.42-.13-.21-.3l.32-.02-.55-1.02c.22-.8,1.26.12,1.31-1.05-.13-.43-.93-1.23-1.14-1.06-.01.17-.19.45-.51.46l-.17-.4c-.93-.07-1.89-.37-2.53.61l.58.68-.45.22-.03-.57c-.42.33-.04.53.22.76-.24.06-.41.15-.5.29l.9.66c-.36.08-.73-.29-.92.16.42.31.81-.31,1.09.21-.42.33-.77.24-.4.62-.24.06-.39-.02-.5-.17.29.34.13.9.63,1.07-.52.35.15,1.15-.74,1.13.21.1.7.59.75.9-1.07-.55-.03,1.17-1.17,1.05.96.4.46,1.52,1.01,2.26-.08-.04-.23-.12-.18-.19-.07.42-.35.56-.52.83.78.03.98.68,1.47,1.02-.74.54-.93-.28-1.65-.1.63-.05.66.88,1.18.68-.45.41-.21.35-.85.58.98.03.18.36.8.67-.45.59-.91.19-.58.81-.28.31-.66-.23-.66-.23ZM65.7,81.37s-.01,0-.01,0c-.03-.13-.05-.24-.07-.3.02.06.04.15.08.3ZM65.9,82.62c0-.16-.03-.35-.06-.55.19-.07.39-.05.4.08-.14-.05-.2.26-.34.47ZM69.42,79.49c.1.18,0,.26-.11.3-.02-.09-.05-.19-.11-.33-.02,0-.05,0-.07-.01.11,0,.21.01.29.04Z"/>
    <path d="M68.65,79.23s-.04-.04-.05-.08c-.04.05-.08.09-.11.13.06.02.12.03.18.05,0-.04-.01-.07-.02-.1Z"/>
    <path d="M135.34,163.37l-.02-.02s.02.06.01.1c0-.03,0-.05,0-.07Z"/>
    <polygon points="68.75 100.01 68.89 99.96 68.73 99.9 68.75 100.01"/>
    <path d="M140.81,168.01c0,.05,0,.11.03.17.01-.04,0-.1-.03-.17Z"/>
    <path d="M143.61,169.16l.34.33c-.14-.17-.25-.27-.34-.33Z"/>
    <path d="M145.73,170.18c.06-.09.09-.16.12-.22h0s-.11.22-.11.22Z"/>
    <path d="M113.28,152.85s-.06-.03-.09-.03c-.23-.04-.09.01.09.03Z"/>
    <path d="M122.94,158.08c-.15.02-.3.04-.44.03.14.14.26.24.44-.03Z"/>
    <path d="M103.31,145.77s0,0,0,0l-.06-.05.05.05Z"/>
    <path d="M122.09,157.82c.1.2.25.27.41.29-.11-.12-.23-.27-.41-.29Z"/>
    <path d="M155.73,172.42l.11.03s.01-.07.02-.09l-.13.06Z"/>
    <path d="M155.86,172.36l.13-.06c-.06,0-.11,0-.13.06Z"/>
    <path d="M156.27,172.18l-.28.12c.09,0,.21.03.28-.12Z"/>
    <path d="M152.64,171.78l-.07.2s.05-.1.07-.2Z"/>
    <path d="M151.69,171.68c.21.08.49.53.83.46l.05-.16c-.2.27-.61-.6-.88-.3Z"/>
    <path d="M148.47,168.38l.69.36c-.08-.25-.17-.57.17-.53-.75-.88.07.52-.86.18Z"/>
    <path d="M146.3,167.46c.42,0,.09-.3.15-.41-.3.12-.38.15-.15.41Z"/>
    <path d="M130.85,160.45l.29-.42c-.31-.09-.1.17-.29.42Z"/>
    <polygon points="126.66 161.05 126.76 161.49 127.13 161.17 126.66 161.05"/>
    <polygon points="126.94 156.92 127.09 156.93 126.55 156.81 126.94 156.92"/>
    <path d="M103.93,139.83l-.34.54c.24.05.73-.46.34-.54Z"/>
    <path d="M94.22,132.03c.12-.32,0-.71-.36-.63.17.22.2.59.36.63Z"/>
    <polygon points="74.59 101.49 74.87 101.64 74.54 101.28 74.59 101.49"/>
  </g>
  <g>
    <path d="M136.81,180.39c-.01.17.04.56.11.48v-.66s-.11.18-.11.18Z"/>
    <path d="M137.44,181.57c.07-.33.13-.9.02-1.5-.04.64-.09.38-.12,1.14-.07.08-.15-.2-.16-.45-.01.17-.13-.14-.14.28.14.5.27.51.37.08.04.14.03.32.03.44Z"/>
    <path d="M145.04,182.32l-.05-.08s.03.07.05.08Z"/>
    <path d="M149.75,182.61s-.05.08-.05.14c.03-.04.06-.09.05-.14Z"/>
    <path d="M150.58,183.32s-.03-.03-.05-.04c.02.06.04.09.05.04Z"/>
    <path d="M145.04,182.32l.13.21c0-.22-.07-.16-.13-.21Z"/>
    <path d="M138.38,179.9s-.04.1-.06.18c.02-.03.04-.06.06-.08,0-.04,0-.07,0-.1Z"/>
    <path d="M142.99,182.89h-.04c0,.08-.02.17-.03.27l.06-.27Z"/>
    <path d="M141.42,183.04s.03-.54.04-.78c-.01.23-.04.34-.07.39,0,.11.01.23.03.4Z"/>
    <path d="M138.88,182.16l-.04.08s.03-.05.04-.08Z"/>
    <path d="M144.12,182.99c0,.08.01.16.02.2,0-.07,0-.14-.02-.2Z"/>
    <path d="M150.83,161.48s.06-.02.09-.04c-.06.01-.09.02-.09.04Z"/>
    <polygon points="152.77 158.72 152.8 158.74 153.1 158.64 152.77 158.72"/>
    <path d="M152.09,183.99s0,0,0-.01c-.04.07-.02.05,0,.01Z"/>
    <path d="M168.74,180.96c-.95-.25-.6-.5-1.74-.75.37.12.97.63,1.74.75Z"/>
    <path d="M138.43,179.98s.04-.01.07-.01c-.03-.02-.05-.01-.07.01Z"/>
    <path d="M167,180.2h0s-.11-.03-.11-.03c.05.01.08.02.11.03Z"/>
    <path d="M155.53,183.5c-.01-.1-.03-.17-.05-.24,0,.06.02.13.05.24Z"/>
    <path d="M152.92,182.83l.07.07c-.03-.05-.05-.07-.07-.07Z"/>
    <path d="M156.82,182.61s.06.12.1.04c0-.03-.01-.05-.02-.07-.01.08-.03.12-.08.03Z"/>
    <path d="M158.21,182.48s-.02-.07-.04-.11l-.04.03.08.08Z"/>
    <path d="M152.98,165.37c.12-.1.27-.21.41-.3-.34.21-.56.09-.41.3Z"/>
    <path d="M138.4,180.22c0-.14,0-.21.03-.24-.02,0-.03.02-.04.03,0,.08,0,.16.02.21Z"/>
    <path d="M156.51,178.18l.21.07c-.06-.05-.14-.07-.21-.07Z"/>
    <path d="M158.66,173.72h-.08s.03.03.08,0Z"/>
    <path d="M157.33,178.11c.06.19.11.3.15.38,0-.05.01-.08,0-.15l-.16-.23Z"/>
    <path d="M153.4,165.07h0s0,0,0,0Z"/>
    <path d="M151.51,164.34c.08.21.69-.23,1.09-.38.31.13-.43.35-.72.6.25.06.91-.14.94-.03-.1.06-.13.11-.28.15.6-.12.27.44,1.01.26-.05.04-.1.08-.15.11.31-.21.64-.39.88-.51.06.08.49-.07.08.19-.01-.06-.19.03-.33.08h.23c-.56.4-.27-.02-.72.23.29.07.91-.02.81.2-.58.36-.37-.19-.8.28l.11-.33c-.85.68,0-.16-.93.54-.01.37.48.13.46.5.36-.13.47-.3.83-.43.8.03-1.3,1.16-.36.98.43-.16,1.18-.57.91-.15l-.7.33c.09.29,1.03-.43.76.1-.29.11-.34-.06-.39.02-.41.49.45-.11.53.02l-.56.39c.26.21.86.25,1.15.47-.18.09-.39.16-.52.34.53.18.45.83.35,1.41l.58-.19s-.18.21-.3.24c-.09.26.31-.2.55-.27.09.05-.21.29-.39.34.58-.04,1.35.07,1.01.68l-.18.05c-.06.33,1.13-.47.82.02l-.11.03c.09.56.85.7.37,1.54.73-.44,0,.63.96-.04-.3.58-.52.64-.59,1.2.02.12.69-.31.87-.27l-.49.37.63-.24-.53.52h.2c0-.06.16-.25.3-.35.34-.01-.06.64-.3.83l.7.06c-.2.14-.32.13-.48.18.65-.18-.49.43.11.26.09-.11.3-.21.41-.28-.23.32-.08.52.16.58l-.36.23c.12.34.6.45.82.77.07-.23.68-.65.81-.6l-.49.43c.37-.19.12-.24.61-.42.03.16-.53.52-.75.59h.28c-.15.13-.26.16-.46.3.37-.19-.34.63.28.29l-.15.12c.11.15.24.23.37.3.15.1.2.07.23.07.48-.3.39-.21.81-.4-.09.18-.47.4-.39.44.32-.03.5-.12.88-.18-.53.15-.43.2-.86.25.15.06.16.05.77.16.25-.02.34-.04.56-.04.13.04-.21.08-.52.07h-.07c.54.08.16.19-.27.18-.41,0-.86-.1-.03.13l-.08-.02c.3.09.61.21.94.34-.1.01-.63-.21-1.11-.32.74.25.7.3.61.29-.07,0-.29-.07.11.14-1.25-.49-1.19-.48-1.1-.4.11.08.23.22-.37-.15l.43.28c.4.28-.27-.15-.36-.22.32.22.39.25.6.4.14.19-.16.13-.42-.05-.27-.17-.5-.46-.56-.61-.01-.09.65,1.75.26.96-.05-.22-.1-.43-.16-.64.04.19.03.29,0,.34-.11.06-.27.08-.41.08-.29.02-.58.02-.81.39.01-.16-.01-.35.04-.36-.18-.46-.43.04-.39.42-.09-.03-.06-.35-.14-.54-.15-.27-.23.64-.34.17-.02-.08.02-.16.03-.2-.05.24-.36-.02-.23.52-.24-.24-.38.29-.58-.02-.05.63-.39-.26-.34.62-.07-.9-.43-.69-.53-.26.02-.28-.14-.27-.12-.66-.15.02-.28.2-.22.66-.36-1.06-.51.91-.76-.46-.42.52-.83.87-1.24,1.1-.03-.9.46-.11.38-1.06-.37.39-.56,1.18-.96.98-.11-.12.04-.39.07-.55-.37.39-.76-.05-1.1.46,0-.08.03-.18.07-.25-.07.03-.17-.13-.14.28l.06-.11c.13.59-.23,1.25-.23,1.57.08-1.18-.36-.28-.22-1.77-.04.08-.09.27-.07.55-.07-.08-.1-.24-.04-.55-.24.23-.14.66-.37.66,0-.2.04-.28.05-.51-.1.39-.21.78-.4.62,0-.12-.02-.28.04-.27-.33.07-.53,1.04-.91.68.09-.87-.13-.28-.17-1.03l-.19.23.09.36c-.17,0-.31.54-.46.3l.12-.31-.32.15.19.28c-.17.39.04.94-.19.74.05-.08-.17,0-.27-.44h0c-.08.24-.16.49-.29.31-.04-.24.01-.83-.01-.98-.07.63-.4.18-.49.85.03-.16.03-.55.02-.63l-.06.51c-.08-.16-.09-.24-.09-.55-.24-.09.09.95-.2.54.02-.04,0-.12.05-.19-.29-.21-.54.33-.81.08-.09-.75.23-.19.13-.82-.38.14-.77.91-1.14.74l.07.08c-.04,1.06-.28-.52-.46-.02.04-.08.05-.59.04-.47-.25-.17-.51.27-.88.61l.04-.27c-.15-.24-.39-.13-.55-.26-.04.27-.14.23-.07.63-.52-1.55-.92.85-1.39-.43.05,0,.12-.24.08-.24l-.37.26c.04.46.06.28.14.64-.04.27-.14.49-.23.49.16-.31-.02-.74-.1-1,.02.14,0,.3,0,.44-.22-.82,0,.93-.29.38v-.24c-.09.13-.17.45-.28.38-.06-.53.1-.25.09-.69-.15.03-.27,1.02-.42.49.06-.15.15-.16.21-.31-.17-.62-.18-.46-.29-.56h.01s-.27-.26-.27-.26l.07.17c-.14,1.4-.38.27-.6,1.19.22-.87.02-.5.02-1.11-.07-.17-.18-.35-.16-.52-.1.49-.22-.38-.36.34-.02-.19-.13-.01-.12-.51-.15.16.05.34.05.58-.21.68-.61-.78-.92.15-.28.39-.3,1.05-.56,1.39-.11-.31.04-.71.04-.71-.17-.28-.28-.22-.41.01.02-.17-.02-.31-.08-.53-.11.06-.03.71-.2.44.01-.22.02-.57.06-.79-.13.19-.24.56-.36.75-.06-.34.05-.52.08-.75-.15.16-.39.34-.4.88l.11.18c-.06.03-.06-.46-.03-.56.11-.43.21.17.23.37l-.09.13c.18,1.13.38-.21.59-.16l-.03.84.16-.7c.06.21.11.68.02.81.17.4.11-.3.26.15.02.07.01.11,0,.14l.12-.25c-.02.18.06.59-.04.47.27.47.37-.64.49-.02l-.02.05c.33-.3,0-.61.23-1.34l.25,1.5v-.61s.11.06.11.31c.11-.42-.03-.26.02-.66.2.55.46-.28.54.69.04-.47-.18-.35,0-.68.09,1.04.21-.19.38.29-.03.54-.19.26-.01.74.06-.92.31.19.44.01-.02-.73.28-.31.49-.56,0,.24.43.38.64.64v.12c.02-.73.23-.6.39-.76,0,.44-.02.61-.1.81h.15c.03-.24.07-.37.16-.45l-.02.55c.19-.03.38-.65.63-.29,0-.51-.23-1.42.03-1.77.02.28.03.75-.03.86.02-.04.08-.23.12-.11l-.1.47c.12.2.05-.39.14-.35,0,.39.07.28.07.59-.02.04-.08-.16-.11,0,.1.07.23.3.28.6-.01-.22,0-.53.06-.58.19-.03.07.47.19.68.04-.28.17,0,.16-.58.06,0,.07.28.1.44.1-.26.47-.08.34-.71l-.03-.04s0-.02.02-.03h0,0c.32-.59.69.32,1.01.07v.2c.19-.23.44-.14.57-.57.06,0,.14.36.12.59.15-.15.16-.37.38-.05-.15.35.06.3-.15.25.2.17.25.48.45-.06-.06.51.16.64.25.48l-.14-.36c.1-.08.19-.03.29.01l-.04.67c.41.8.7-1.39,1.02-.04.1-.47-.22-.32-.14-.87.18.09.39,1.04.45,1.04.26.36.22-.98.48-.73-.04-.24-.08-.87.11-1.1.18.08.25.99.13,1.18-.04.02-.07-.05-.07-.13-.06.09-.13.19-.06.45l.02-.24c.1.24.35.21.3.6.14-.23.05-.39-.05-.51.24.34.37,0,.62.23-.04-.13-.08-.41-.05-.41.36.29.15-.45.39-.56.15.36-.03.86.21.56.16.24.05.63,0,.82.21-.46.42.29.55.37l-.11.19c.07-.12.12-.11.18-.11l-.08-.47c.07.08.13.08.14.28.06-.31-.08-.79.05-1.22.1.24.27-.27.32.36-.3-.2.05.63-.19.74.05-.08.1-.08.18,0,.01.07,0,.13-.02.17.3.55.1-.72.39-.71-.02.36.09.67.14.59-.12,0-.08-.59.02-.87.19.27.19-.21.29-.18l-.11-.13c.02-.36.12-.31.24-.43.02.28-.11.19-.06.31.12-.63.35.63.53.21.1.24.04.67.13.82.2-.47.27.47.48.08-.09-.47-.1-.36.05-.83l-.37.36.21-.71c-.12,0-.23.31-.3.23.1-.39.09-.28.02-.67.19.71.29-.43.5.04l.05,1.18c.31.51.46-.63.84-.35l-.13-.2c.02-.47.22-.08.32-.27.01.39.09.54.16.78-.02-.29.27,0,.25-.78l.2.51c.31.19.25-1.15.54-1.03-.05.43.1.7-.07,1.02.09,0,.18.06.16-.21.07.24.22-.55.33-.18.03-.18,0-.59.11-.56.02.08.02.19.02.19-.02-.19.14-.28.01-.71.39,1.21.78-.17,1.14.86.19-.15.42-.3.6-.35,0,.12.02.2-.02.16.3.34.03-1.14.36-.77.22.61-.11.36,0,.59.19,1.28.33-.22.62.5l-.04.08c.21.42.3-.54.56-.48,0,0,0,.12.03.19.08-.68.35-.94.57-1.15,0,.52-.07.28.05.79.11-.09-.16-.81.04-1,.13.26.37.46.55.98l-.27.08c.31.66.37-.1.54,0l.08.3c.44-.19.12-.92.56-.95l-.16-.21c-.19-.74.42.36.32-.2l.54.69c.07-.2.05-.78.16-.96.32.52.21.87.19,1.22.19-.02.54-.19.33-.54,0,.08.06.27-.09.18-.25-.58-.29-.89-.02-.94.62.63.91.65,1.2.63.29-.02.57-.08,1.32.32,0-.29.36-.33.83-.34.46,0,1.05,0,1.37-.13-1.91-.69.17-.08-1.62-.84.03-.09.1-.09.23-.05.5.11,1.02.21,1.56.31.68.18.26.21.7.37.5-.05.9.21,1.61.34.03,0,.06,0,.08,0-.68-.21-1.11-.49-.99-.6-.23,0-.47-.02-.72-.04-1.35-.79,1.35.13-.02-.69l.7.33c-.53-.35-.71-1.02-2.25-1.51.17,0,.59.02.8.15-.11-.28-.71-.67-1.18-.98-.48-.32-.83-.56-.62-.79l.39.03c-.18-.11-.8-.15-.53-.3.15,0,.38.02.36-.04-.16-.05-.8-.22-.7-.38l.46.07c-.01-.68-1.51-.68-1.97-.96.85-.33.78-.9.73-1.22l.11-.06c-.11-.19-.26-.34-.43-.45-.17-.11-.28-.08-.44-.1-.31-.01-.66.01-.93-.06.6-.8-.23-.97-.07-1.64-.09.15-.55.41-.67.4.08-.19-.66.14,0-.33v.04c.59-.54.3-.58.22-.72l-.86.61c.97-1.26-1.12-.55-.16-1.56-.27.08-.34-.03-.62.05l.46-.33c-.05-.31-.08-.47-.39-.67l.37-.18c-.09-.18-1.46.77-1.6.64l.65-.54c-.21-.27.19-.98-.63-.81.1-.07.31-.2.37-.18-.08-.14.11-.83-.81-.12.61-.44-.14-.33-.52-.29l.47-.29c-.67.28-.84.39-1.12.32.03-.08.34-.29.26-.15.14-.31-.51.19-.39-.15l.34-.14c-.06-.17-.21-.05-.61.1-.25.03-.07-.36.34-.66-.27.15-.66.3-.6.13.15-.12.27-.15.33-.17.16-.45-.78,0-.44-.48.15-.1.22-.17.26-.21.12.2.19.37.15.38.43-.28.4-.49,1.08-.75-.4.09-1.25.34-1.15.05.04-.03.07-.07.14-.12l.06-.02c.02-.06-.04-.07-.13-.05.04-.09.07-.16.05-.21.35-.25.08-.3.05-.39-.47.31-.46.15-.79.5.03-.03.07-.02.12.02.02,0,.04.01.07,0l-.05.02s.1.1.15.18c-.28.09-.52.15-.31-.1-.33.15-.67.3-.84.37.6-.53.83-.96,1.22-1.24-.42-.07-.53-.45-1.52-.07-.16,0,.21-.23.34-.35.11-.01.13.04.27-.01-.31,0-.33-.36-.99-.03.19-.34.65-.24.4-.42l.21-.08c.75-1.04-2.09.12-1.04-1.14-.06.08-.09.12-.2.18.26-.91-1.2-1.03-.54-2.09.12-.26-.32-.09-.69-.06l.54-.28-.72.09c-.59-.08,1.17-1.02.14-.99l-.36.19c.03-.15-.37-.31.08-.45-.07.01-.41.11-.23-.01l.29-.11-.62-.12c.13-.31,1.19-.39,1.13-.74-.16-.08-1-.06-1.18.05,0,.06-.14.2-.44.3l-.2-.07c-.89.28-1.83.47-2.33,1l.62.03-.4.22-.09-.18c-.36.25.02.19.29.18-.22.1-.37.19-.43.26l.91-.09c-.33.15-.71.15-.85.37.42-.04.73-.38,1.05-.31-.36.25-.69.34-.31.34-.22.1-.37.13-.49.12.31,0,.22.25.7.13-.45.3.28.31-.55.63.21-.04.72-.07.8.01-1.05.22.1.39-.96.79.93-.24.59.33,1.18.34-.07.02-.23.06-.19.02,0,.16-.25.32-.37.48.72-.31.98-.18,1.47-.28-.61.48-.88.3-1.51.66.57-.28.71,0,1.16-.28-.36.32-.15.2-.71.55.89-.41.2.04.79-.12-.35.39-.8.45-.44.52-.22.23-.62.21-.62.21ZM155.51,167.9s0,0,0,0c-.03-.03-.06-.05-.08-.07.02.01.05.03.09.06ZM155.74,168.24c0-.05-.04-.11-.08-.16.15-.12.33-.21.35-.17-.12.05-.16.19-.26.34ZM158.56,165.42c.1,0,.02.09-.08.15-.02-.02-.06-.04-.11-.06-.02,0-.04.02-.06.03.09-.05.18-.1.25-.13Z"/>
    <path d="M157.88,165.72s-.04,0-.05,0c-.03.04-.06.07-.09.1l.16-.08-.03-.02Z"/>
    <path d="M144.98,182.22h0s-.01-.03-.02-.07c0,.03,0,.04.01.07Z"/>
    <polygon points="158.16 173.52 158.28 173.44 158.15 173.48 158.16 173.52"/>
    <path d="M142.71,180.34s-.02-.1-.03-.14c0,.04.02.09.03.14Z"/>
    <path d="M141.74,180.24l-.14-.2c.06.11.11.16.14.2Z"/>
    <path d="M140.98,179.99c0,.1,0,.17,0,.24h0s0-.24,0-.24Z"/>
    <path d="M152.73,179.07s.02-.01.03-.03c.06-.11.02-.07-.03.03Z"/>
    <path d="M149.29,180.48c.04-.1.07-.2.11-.27-.06-.04-.11-.05-.11.27Z"/>
    <path d="M156.49,178.18h0s.02,0,.02,0h-.02Z"/>
    <path d="M149.56,180.22c-.06-.11-.12-.09-.16,0,.05.04.11.09.16,0Z"/>
    <path d="M137.7,179.9l-.04-.02s0,.07,0,.09l.04-.07Z"/>
    <path d="M137.67,179.97l-.04.07s.03,0,.04-.07Z"/>
    <path d="M137.56,180.19l.07-.15s-.07-.01-.07.15Z"/>
    <path d="M138.72,180.09v-.2s0,.11,0,.2Z"/>
    <path d="M139.02,180.02c-.07-.04-.21-.43-.3-.29v.16c.03-.31.25.48.3.13Z"/>
    <path d="M140.39,182.47l-.25-.15c.05.21.12.5.01.56.34.63-.09-.48.24-.41Z"/>
    <path d="M141.17,182.76c-.13.11.01.32,0,.44.08-.2.1-.25,0-.44Z"/>
    <path d="M146.74,182.65v.51c.1-.07,0-.2,0-.51Z"/>
    <polygon points="147.77 179.99 147.66 179.67 147.62 180.14 147.77 179.99"/>
    <polygon points="148.46 183.62 148.41 183.7 148.58 183.51 148.46 183.62"/>
    <path d="M158.01,183l-.09-.62c-.06.12,0,.83.09.62Z"/>
    <path d="M162.53,181.69c.21.28.5.42.44.13-.16-.01-.41-.21-.44-.13Z"/>
    <polygon points="162.85 171.35 163.07 171.29 162.84 171.27 162.85 171.35"/>
  </g>
  <g>
    <path class="cls-1" d="M21.71,38c-1.68.11-4.4-4.08-5.25-5.42-1.56,1.28-3.39,2.25-5.4,2.38-5.41.36-9.02-4.58-10.34-9.25-.98-3.26-.88-6.85-.22-10.17.8-3.8,3.95-9.53,8.4-9.82.46-.03.97.02,1.44.16.26.11.52.26.79.41.04,0,.13.08.13.08,1.19.09,2.38.35,3.47.82,2.91,1.32,5.17,5.59,6.12,8.43,1.63,4.82.89,10.17-1.99,14.28.94,1.41,1.83,2.82,2.88,4.1.32.36,1.29,1.68,1.36,2.14.15.96-.51,1.8-1.39,1.86ZM11.13,31.51c1.34-.09,2.69-.73,3.72-1.6-.29-.49-2-3.49-2.29-3.97-.05-.08-.35-.23-.4-.31-.22-.2-.59-1.22-.65-1.51-.23-.91.44-1.59,1.24-1.64.38-.03.81.11,1.17.43.49.43.91,1.03,1.33,1.55.23.36,1.64,2.5,1.92,2.86,1.14-1.84,1.83-4.08,1.9-6.27.06-2.24-.51-4.56-1.49-6.6-1.22-2.53-2.84-4.65-5.58-5.44-.08,0-.12.05-.2.1-.45.2-1.01.07-1.33-.33-.09-.12-.38.02-.54.04-2.61.64-4.58,3.88-5.35,6.25-1.26,3.79-1.08,8.37.67,11.95,1.08,2.29,3.13,4.67,5.9,4.49Z"/>
    <path class="cls-1" d="M35.93,29.68c-2.14.14-2.71-4.7-2.9-6.21-.83,1.49-2.32,3.65-3.87,4.47-.49.28-1.07.41-1.62.4-1.53-.19-2.28-1.41-2.79-2.72-.73-2.1-.84-4.41-.74-6.6.06-1.01.08-2.03.39-2.97.17-.64.73-1.06,1.27-1.09.38-.03.72.08.99.35.18.24.33.52.39.82.12.5.15,2.94.19,3.44.03,1.09.1,2.14.21,3.19.14.83.28,1.71.63,2.48,2.5-1.73,3.91-5.82,4.56-8.64.03-.13-.02-.25.02-.38.07-.85.71-1.35,1.42-1.4,1.34-.09,1.63,1.07,1.7,2.16.28,2.89.43,5.78,1,8.61.08.54.47,2.62.34,3.18-.17.56-.66.89-1.2.92Z"/>
    <path class="cls-1" d="M45.23,27.08c-3.27.22-6.15-1.99-6.67-5.28,0-.08-.19-.28-.23-.36-.42-.6-.34-1.24.23-1.66.15-.98.42-1.96.86-2.84.85-1.74,2.85-3.26,4.78-3.39.42-.03.89.03,1.32.16,2.45.76,2.95,3.84,1.27,5.81-1.17,1.42-3.05,2.27-4.84,2.55.6,1.43,2.09,2.34,3.69,2.24.96-.06,1.86-.5,2.67-1.02.12-.09.28-.19.45-.2,1.24-.34,1.99,1.38.9,2.09-.89.61-1.81,1.3-2.84,1.62-.49.16-1.04.24-1.58.27ZM41.86,19.39c1.03-.32,2.18-.69,2.8-1.58.19-.26.41-.83.31-1.11-.1-.16-.4-.23-.6-.17-1.37.26-2.16,1.62-2.5,2.86Z"/>
    <path class="cls-1" d="M60.34,13.7c-3.19.13-5.93.77-5.79,2.83.03.5.5,1.1.77,1.46,1.28,1.47,2.71,2.81,3.79,4.42.47.73.86,1.58.92,2.46.16,2.35-2.05,3.29-4.07,3.43-1.51.1-3.6-.31-4.29-1.9-.44-.94.45-2.01,1.49-1.7.3.06.52.26.82.33.43.1,2.06-.05,2.52-.17-.91-1.71-2.47-2.99-3.67-4.47-.78-.92-1.44-2.01-1.56-3.22-.52-4.6,4.19-6.59,8.88-7.03-.02-1.56-.03-2.99.05-4.3.06-1.06.21-3.17,1.68-3.27.46-.03.98.23,1.36.83.33.48.27,2.76.31,3.35-.01,1.09.02,2.19.09,3.28,1.77.05,3.3.29,4.14.9,1.51,1.12.55,3.8-.83,3.89-.29.02-.55-.09-.86-.28-.98-.74-1.54-.95-2.13-1,.53,4.81,1.31,11.41,3.53,15.72.57.26.87.99.83,1.67-.03.76-.72,1.27-1.39,1.31-.88.06-1.83-.97-2.3-1.62-2.92-3.97-3.93-12.24-4.29-16.93Z"/>
    <path class="cls-1" d="M72.56,10.1c-.5.03-1.03-.23-1.32-.8-.53-1.06-.41-2.33-.36-3.51,0-.63,0-1.22.17-1.82.17-.64.69-1.02,1.19-1.05.54-.04,1.11.31,1.29,1.01.23.95.45,4.26.18,5.21-.17.6-.65.93-1.16.96ZM73.94,27.53c-1.3.09-1.99-1.38-2.27-2.46-.83-3.57-.82-7.31-.52-10.95.05-.55.26-1.2.74-1.48.2-.14.41-.2.62-.21.59-.04,1.2.38,1.42,1.08,0,.08.08.54.08.63.19,2.85.17,5.71.49,8.56.02.29.27,2.17.29,2.46,0,.08.27.28.32.32.69.88-.12,1.99-1.17,2.06Z"/>
    <path class="cls-1" d="M82.02,25.64c-2.35.16-4.52-2.18-4.96-4.89-.36-2.21-.05-4.59.52-6.73.2-.73.45-1.42.83-2.04.23-.31.55-.62.92-.78.45-.16.96-.15,1.39.03.22.11,1.27.08,1.52.11,2.59.29,4.77,2.12,5.08,4.8.35,2.67-1.4,7.42-3.62,8.91-.56.37-1.14.54-1.69.58ZM82.62,21.98c.04-.09.35-.49.38-.57.72-1.27,1.29-2.7,1.41-4.18.05-.55-.08-1.13-.32-1.62-.33-.52-.82-.91-1.39-1.21-.45.24-1.6-.06-2.04-.28-.35,1.71-.7,3.46-.58,5.22.1.84.24,1.71.71,2.44.19.28.69.84.98.86.25.03.65-.42.84-.65Z"/>
    <path class="cls-1" d="M91.93,24.64c-1.3.09-2.13-1.04-2.42-2.2-.19-1-.3-2-.37-3.01-.13-1.97-.18-3.95-.14-5.88.05-.55.09-1.14.18-1.65.16-.73.89-1.11,1.62-.95.43.06.79.49.94.91.36,1.03.58,6.15.65,7.24,1.56-3.05,3.27-6.45,5.72-8.93.51-.54,1.2-.88,1.88-.93,1.09-.07,1.86.76,2.26,1.7.99,2.25,1.29,4.8,2.12,7.14.05.16.22.79.31.91.64.8.05,2.06-1,2.13-.63.04-1.65-.69-1.98-1.26-.19-.32-.76-1.89-.87-2.26-.13-.62-.91-4.11-1.07-4.69-2.41,2.98-4.12,6.38-5.79,9.78-.34.57-.72,1.18-1.24,1.64-.2.18-.53.29-.82.31Z"/>
    <path class="cls-1" d="M110.92,24.64c-1.51.1-3.6-.31-4.29-1.9-.44-.94.45-2.01,1.49-1.7.3.06.52.26.82.33.43.1,2.06-.05,2.51-.17-.91-1.71-2.47-2.99-3.67-4.47-.78-.92-1.44-2.01-1.56-3.22-.1-.88.21-1.87.71-2.62.81-1.15,2.11-1.87,3.41-1.95,1.68-.11,2.99.68,3.35,2.3.22.83-.41,1.38-1.04,1.42-.46.03-.94-.19-1.15-.77-.67.04-1.09.07-1.56.61-.12.09-.35.4-.34.53-.02.34.49,1.06.68,1.3,1.28,1.47,2.71,2.81,3.79,4.42.47.73.86,1.58.92,2.46.16,2.35-2.05,3.29-4.07,3.43Z"/>
    <path class="cls-1" d="M122.12,22.04c-.92.06-2.06.01-2.78-.62-.4-.31-.73-.79-.84-1.29-.18-.79.02-1.6.27-2.29.28-.82.61-1.56.98-2.3,1.31-2.49,2.83-4.86,3.92-7.46.33-.78.65-1.64.68-2.49.02-.38-.14-.83-.37-1.11-.59-.68-1.5-1.04-2.36-1.32-1.12-.35-2.35-.48-3.51-.23-.04,0-.03.13-.03.21-.05.55-.53.96-1.07,1-.29.02-1.27-.08-1.49-.19-.7-.38-1.01-1.2-.67-1.89.8-1.32,3.11-1.93,4.5-2.03.17-.01.34-.02.5-.03,3.54.02,7.53,1.77,7.64,5.3.04,1.85-.68,3.67-1.5,5.32-1.22,2.48-2.84,4.74-4.07,7.18-.26.48-.48,1-.65,1.56.89.15,1.86.04,2.73-.06.13,0,.67-.09.75-.05,1.31,0,1.71,1.7.53,2.24-.53.25-2.07.47-3.16.55ZM123.37,30.79c-.96.06-1.91-.88-1.48-1.96.37-.83,1.06-1.71,1.88-2.15,1.19-.5,2.25.86,1.52,1.96-.04.04.05.12.05.16.07.42-.03.84-.35,1.12-.2.18-.49.28-.73.47-.28.27-.56.37-.9.4Z"/>
  </g>
</svg>