<?xml version="1.0" encoding="UTF-8"?>
<svg id="Layer_1" data-name="Layer 1" xmlns="http://www.w3.org/2000/svg" viewBox="0 0 174.44 104.84">
  <defs>
    <style>
      .cls-1 {
        fill: #010101;
      }
    </style>
  </defs>
  <path d="M22.75,12.44c.12.08-.1.43.11.42l.33-.44c2.35.96,5.15.77,7.54,1.45,1.45.41,2.71,1.7,1.46,3.06-2.37,1.75-5.69,3.04-7.99,4.79-1.27.97-.78,2.17-.64,3.6.23,2.15,1.04,5.14,1.05,7.19.02,2.38-1.29,2.53-3.29,1.79-2.1-1.78-3.86-4.62-5.92-6.34-.48-.4-.97-.83-1.63-.88l-9.12,4.67c-5.62.91-.51-6.52.52-8.82.46-1.04.93-2.1,1.29-3.19-.07-.84-4.27-4.93-5.08-5.93-.91-1.12-2.18-2.44-.74-3.72,1.74-1.53,9.03,1.25,10.49.51,1.19-.61,4.22-8.01,5.82-9.71,1.07-1.14,2.66-1.32,3.25.37,1.03,2.9.72,7.34,1.47,10.42.07.64.68.51,1.07.77Z"/>
  <path d="M42.34,26.61l-6.21-6.33c-.86-1.37-.18-2.87,1.47-2.99,1.9-.13,8.6,1.49,9.56,1,.56-.53.9-1.24,1.28-1.89.98-1.68,3.52-7.55,4.78-8.33s2.28.12,2.71,1.3c.71,1.96.97,9.68,2.08,10.59s7.08.98,9.17,1.9c1.3.57,1.8,2.04.63,3.04-1.43,1.23-4.85,2.49-6.6,3.6-.34.22-1.88,1.27-1.96,1.5l1.29,10.9c-.31,1.37-1.35,1.71-2.63,1.29-.98-.32-4.65-4.74-5.79-5.81-.5-.47-1.53-1.62-2.1-1.73-1.17-.22-7.54,4.21-9.37,4.75-1.2.35-2.68.03-2.79-1.42-.14-1.8,4.04-8.09,4.73-10.2l-.26-1.18Z"/>
  <path d="M101.78,30.94c-1.13.75-5.73,3.12-6.11,4.1.19,2.03.4,4.08.66,6.11.21,1.61,1.95,6.4-1.33,5.91-2.27-.33-6.25-6.83-8.69-7.94-.74,0-7.05,4.15-8.64,4.74-2.17.8-3.22-.08-2.74-2.34.17-.77,1.64-3.69,2.1-4.66.3-.63.81-1.42,1.13-2.13.77-1.72,1.77-2.19.32-3.97s-3.75-3.73-5.11-5.65c-1.32-1.85-.53-2.89,1.58-3.19l8.76,1.12c.9-.37,4.22-7.86,5.19-9.26,1.13-1.65,2.96-2.08,3.62.17.51,1.74.8,9.76,1.44,10.44.17.23.42.26.67.33,1.89.56,9.08.87,10.09,2.26,1.18,1.64-1.79,3.19-2.95,3.95Z"/>
  <path d="M168.47,42.55c-1.01.62-3.43,1.68-3.62,2.78-.15,3.07,1.8,7.45,1.63,10.31-.08,1.32-1.11,1.91-2.37,1.53-1.63-.5-5.17-5.18-7.02-6.56-1.66-1.25-1.85-.99-3.67-.16-2.18,1-4.54,2.91-6.68,3.77-.91.36-1.9.35-2.46-.59-.65-1.06.74-3.61,1.25-4.72.7-1.54,3.09-5.24,2.9-6.73-.06-.51-4.9-5.27-5.69-6.3-.58-.76-1.26-1.35-.92-2.38.38-1.16,1.42-1.19,2.46-1.15,2.09.09,5.52.58,7.66.94.36.06.65.29,1,.37-.25-.68.45-.68.74-1.09,1.88-2.62,2.91-6.29,4.67-9.04,1.76-1.54,2.68-.33,3.24,1.43.6,1.86,1.2,8.84,2.08,9.76,1.09,1.14,7.48,1.04,9.45,1.96.97.46,1.81,1.54,1.01,2.52-.61.75-4.49,2.65-5.65,3.36Z"/>
  <path d="M131.2,48.32s.31.11.33.28c.12,1.2.38,3.01-1.34,3.12-1.03.07-1.54-.3-2.28-.91-1.85-1.54-3.63-3.96-5.47-5.64-.36-.33-1.44-1.47-1.82-1.46l-9.24,5.03c-2.86.18-2.58-1.66-1.67-3.68,1.03-2.31,3.19-5.32,3.96-7.5.16-.46.23-.82.05-1.28l-6.19-7.06c-.53-1.1.66-2.29,1.74-2.42,2.07-.24,8.25,1.46,9.38.62.83-.62,3.51-6.88,4.58-8.46.55-.81.58-1.26,1.59-1.46.99-.19,1.71.6,2.02,1.47.81,2.28.59,6.28,1.19,8.78.09.38.46,1.27.74,1.51.86.74,5.83,1.04,7.35,1.39,1.9.43,4.13,1.13,2.44,3.36l-8.34,5.15c-.33.71.95,7,1.12,8.36.05.37-.15.62-.13.81Z"/>
  <g>
    <path class="cls-1" d="M16.87,61.29c-.79-.1-.94-.81-1.02-1.46-.08-.89.06-3.85.49-4.64.22-.45.69-.67,1.12-.62.2.03.39.09.53.23.48.34.81,1.19.5,1.71,0,.04-.14.18-.15.26-.02.48-.31,2.69-.21,3.15.21.87-.55,1.45-1.26,1.36ZM21.09,60.95c-.43-.06-.8-.34-.89-.88-.09-.5-.15-.98-.21-1.47-.42-.46-.31-1.33.03-1.8.28-.32.66-.48,1.02-.43.4.05.76.34.95.77.19.39.35,2.21.38,2.62.09.86-.65,1.28-1.28,1.2Z"/>
    <path class="cls-1" d="M35.56,87.34c-.59-.12-1.15-.43-1.53-.88-2.29-2.43-3.69-8.03-4.41-11.18-.65-2.73-1.21-5.5-1.82-8.27-.84,4.63-1.46,9.37-2.26,14-.1.43-.52,2.74-.65,3.13-.26.73-.86,1.01-1.41.94-.55-.07-.98-.49-.89-1.2.09-.67-.07-1.33-.06-2.02.08-1.56.2-3.07.39-4.57.5-4.11,1.15-8.2,2-12.27.21-.98.45-1.91.73-2.84.27-1.17.75-2.67,2.25-2.48.55.07,1.04.38,1.41.87.58.76,1.51,4.45,1.74,5.41,1.07,4.4,1.78,8.87,3.02,13.21.48,1.55,1,3.1,1.79,4.49.45-.95.74-1.99,1.03-3,1.33-4.65,2.04-9.45,2.5-14.25.05-.36.18-2.59.22-2.94.02-.16.3-.76.32-.88,0-.04-.01-.2,0-.24.1-.75.74-1.07,1.33-.99.51.07,1.02.45,1.1,1.11.04.29.21.55.29.84.1.49-.13,2.51-.15,2.99-.41,3.76-.98,7.5-1.78,11.21-.5,2.26-1.07,4.52-1.87,6.66-.52,1.5-1.41,3.39-3.3,3.15Z"/>
    <path class="cls-1" d="M47.3,83.56c-2.21-.29-3.8-2.87-3.71-5.46.08-2.12.8-4.27,1.73-6.16.33-.64.68-1.24,1.15-1.74.27-.25.62-.48,1-.55.45-.06.92.04,1.29.29.18.14,1.16.31,1.39.38,2.35.75,4.05,2.86,3.84,5.4-.17,2.55-2.67,6.64-5.01,7.62-.59.24-1.16.29-1.68.22ZM48.53,80.27c.05-.07.41-.39.46-.46.9-1.05,1.7-2.27,2.08-3.62.14-.5.14-1.07,0-1.57-.21-.55-.59-1-1.06-1.38-.46.14-1.48-.35-1.84-.64-.64,1.52-1.29,3.09-1.5,4.74-.06.8-.09,1.63.21,2.4.12.3.48.91.75.98.23.07.68-.27.9-.45Z"/>
    <path class="cls-1" d="M64.89,73.08c-2.99-.47-5.65-.38-5.91,1.56-.06.47.26,1.12.45,1.5.92,1.61,2,3.11,2.71,4.81.3.76.51,1.63.4,2.46-.29,2.21-2.52,2.68-4.42,2.44-1.42-.19-3.29-.95-3.64-2.56-.24-.96.79-1.78,1.7-1.31.27.12.44.34.7.45.38.17,1.92.33,2.37.31-.53-1.76-1.75-3.24-2.58-4.83-.55-1-.97-2.13-.86-3.29.37-4.37,5.12-5.36,9.55-4.9.27-1.45.52-2.78.84-3.99.25-.97.78-2.91,2.16-2.73.43.06.87.39,1.11,1.03.21.51-.26,2.62-.33,3.17-.21,1.02-.39,2.04-.52,3.07,1.64.37,3.02.88,3.69,1.6,1.19,1.32-.19,3.63-1.5,3.46-.28-.04-.5-.19-.75-.42-.77-.86-1.25-1.17-1.8-1.32-.39,4.57-.89,10.85.38,15.27.48.34.62,1.08.46,1.71-.17.7-.9,1.05-1.53.96-.83-.11-1.52-1.24-1.84-1.93-1.98-4.23-1.39-12.11-.86-16.54Z"/>
    <path class="cls-1" d="M75.89,88.25c-.95-.12-1.9-.81-2.36-1.59-.85-1.52-.83-3.48-.45-5.16.6-2.73,3-6.72,5.92-7.5.46-.1.9-.12,1.33-.07.4.05.74.18,1.08.34.42.17.77.54,1,.97.27-.21.59-.25.91-.2.36.05.74.22.93.56.26.44.26,1.04.15,1.59-.22,1.42-.53,2.86-.68,4.33-.15,1.43-.05,2.85.01,4.22.02.16,0,.92.02,1.09.2.95-.57,1.57-1.32,1.48-.32-.04-.62-.2-.85-.55-.45-.58-.88-2.81-.95-3.5-.93,1.61-2.53,4.29-4.74,4ZM76.38,85.42c.47-.22,1.45-1.58,1.74-1.98,1.16-1.78,2.05-3.71,2.94-5.6-.29-.24-.44-.62-.51-.99-.69.03-1.32.59-1.78,1.05-1.43,1.42-2.45,3.42-2.63,5.4-.05.72-.12,1.51.25,2.12Z"/>
    <path class="cls-1" d="M87.81,93.22c-2.41-.31-1.25-9.24-1.03-10.94.31-2.41,1.81-13.58,2.99-14.95.27-.25.65-.36,1-.31.16.02.27.08.42.14.07.05.15.06.23.11.53.27.76.94.49,1.47-.09.11-.08.27-.05.4-.17,2.51-2.31,17.09-2.55,19.59-.08.95-.09,1.92-.13,2.87-.04.32,0,.68-.17.98-.26.49-.73.71-1.21.65Z"/>
    <path class="cls-1" d="M96.26,104.8c-1.3-.17-2.52-1.01-3.22-2.11-.14-.18-.81-1.19-.9-1.4-.37-.89.39-1.76,1.22-1.65.16.02.27.08.42.13.15.06.29.2.44.34.53.55,1.82,1.76,2.55,1.66,2.71-.41,4.72-12.52,5.08-14.64-1.35,2.07-3.8,5.41-6.68,5.03-.35-.05-.74-.18-1.08-.34-1.48-.67-2.13-2.49-2-4.04.03-1.16.42-2.27.95-3.25,1.46-2.9,6.05-8.25,9.45-7.8.51.07,1.02.21,1.46.47.12-.35.25-.69.45-.99.34-.44.8-.62,1.28-.56.67.09,1.32.69,1.36,1.58.01.52-.17,1.02-.23,1.5-.12.63-.76,4.32-.84,4.91-.6,3.98-1.17,8.04-2.27,11.91-.99,3.25-2.96,9.81-7.43,9.23ZM95.67,88.98c.51.07.95-.24,1.32-.55,2.48-2.05,4.62-5.9,5.93-8.83-.04,0-.4-.01-.48.02-1.85.32-6,5.08-6.76,7.19-.2.58-.36,1.2-.23,1.78.02.12.11.38.23.39Z"/>
    <path class="cls-1" d="M109.69,92.97c-1.22-.16-1.59-1.65-1.66-2.71-.11-3.47.58-6.95,1.54-10.28.15-.5.46-1.06.96-1.24.21-.09.42-.11.61-.08.55.07,1.05.58,1.12,1.27,0,.08-.03.52-.04.6-.35,2.69-.9,5.35-1.13,8.05-.04.28-.15,2.07-.18,2.34-.01.08.2.31.24.35.48.95-.48,1.83-1.47,1.7ZM111.63,76.52c-.47-.06-.91-.4-1.08-.98-.3-1.08.05-2.24.31-3.33.12-.59.23-1.13.5-1.66.27-.57.83-.82,1.3-.75.51.07.98.49,1.01,1.18.04.93-.37,4.05-.8,4.88-.27.53-.78.74-1.25.68Z"/>
    <path class="cls-1" d="M116.68,93.56c-.95-.12-1.9-.81-2.36-1.59-.85-1.52-.83-3.48-.45-5.16.6-2.73,3-6.72,5.92-7.5.46-.1.9-.12,1.33-.07.4.05.74.18,1.08.34.42.17.77.54,1,.97.27-.21.59-.24.91-.2.36.05.73.22.93.56.26.44.27,1.04.15,1.59-.22,1.42-.53,2.86-.68,4.33-.15,1.43-.05,2.85.01,4.22.02.16,0,.92.02,1.09.2.95-.57,1.57-1.32,1.47-.32-.04-.62-.2-.85-.55-.45-.58-.88-2.81-.95-3.5-.93,1.61-2.53,4.29-4.74,4ZM117.17,90.74c.47-.22,1.45-1.58,1.74-1.98,1.16-1.78,2.05-3.71,2.94-5.6-.29-.24-.44-.62-.51-.99-.69.03-1.32.59-1.78,1.05-1.43,1.42-2.45,3.42-2.63,5.4-.05.72-.12,1.51.25,2.12Z"/>
    <path class="cls-1" d="M129.86,99.38c-.2-.03-.42-.14-.61-.24-.96-.61-1.14-3.24-1.2-4.37-.05-.57.03-1.16.37-1.6.29-.36.67-.52,1.06-.46.47.06.99.45,1.19,1.04.43,1.3.37,2.7.68,4.02.19.99-.63,1.73-1.5,1.61ZM130.25,88.38c-1.22-.16-1.97-1.82-1.99-2.91.02-.8.13-1.63.24-2.46.22-1.38,1.91-9.43,2.21-10.8.18-.78.47-1.75,1.46-1.62.99.13,1.05,1.22,1.02,2.02-.25,2.5-.65,5.02-1.06,7.53-.16.9-.95,5.1-.87,6.03-.02.12.09.21.16.3.57.88-.22,2.02-1.17,1.9Z"/>
    <path class="cls-1" d="M138.07,75.79c-.2-.03-.35-.09-.53-.23-.32-.28-.51-.71-.54-1.11-.02-.44.32-2.49.38-2.92.1-.75.7-1.07,1.25-1,.51.07,1.02.53.92,1.28l-.31,2.41c0,.08.02.16.05.21.17.83-.51,1.46-1.22,1.37ZM143.09,74.87c-.47-.06-.95-.45-.9-1.08,0-.68,0-1.49.31-2.09.26-.49.92-.88,1.47-.81.87.11,1.32,1.26.6,1.88-.18.18-.15.86-.18,1.1-.06.76-.7,1.07-1.29,1Z"/>
  </g>
</svg>