<?xml version="1.0" encoding="UTF-8"?>
<svg id="Layer_2" data-name="Layer 2" xmlns="http://www.w3.org/2000/svg" viewBox="0 0 147.26 44.74">
  <g id="Layer_1-2" data-name="Layer 1">
    <g>
      <path d="M.59,27.98c-.78-.44-.75-1.48-.16-2.2.24-.29.63-.43.98-.38.24.04.42.14.6.29.07.05.49-.05.5-.13-.29-2.9-.1-5.85.25-8.74.47-3.68,1.21-7.31,1.99-10.94.25-1.13.54-2.26.86-3.37-.36-.01-.81.04-1.2-.02-.28-.04-.54-.16-.75-.35-.71-.67-.17-1.84.82-1.97,1.39-.15,2.86-.3,4.23-.01.75.11,1.51.42,1.99.98.75.88-.04,2.13-1.06,1.98-.12-.02-.27-.08-.42-.14-.26-.12-.58-.17-.89-.21-.02.68-.59,4.22-.73,4.88-.45,2.79-.96,5.62-1.33,8.42-.47,3.15-.7,6.3-.81,9.5.64.02,1.31.15,1.94.21,1.06.16,1.38,1.53.49,2.13-.53.28-2.56.18-3.17.17-.04,0-.29.08-.33.07-.16.02-.31-.09-.47-.07-.6,0-2.77.19-3.33-.09Z"/>
      <path d="M11.79,23.61c-1.22-.18-1.77-1.39-1.8-2.52.02-.96.12-1.92.26-2.86.28-1.85.63-3.69,1.06-5.48.16-.5.32-1.04.5-1.5.3-.64,1.05-.85,1.69-.55.38.14.63.62.69,1.03.13,1.03-.7,5.81-.86,6.84,2.06-2.51,4.33-5.31,7.1-7.12.58-.4,1.29-.57,1.92-.48,1.02.15,1.57,1.08,1.75,2.03.47,2.28.23,4.7.52,7.04.02.16.05.77.11.9.43.87-.37,1.92-1.35,1.77-.59-.09-1.38-.97-1.58-1.56-.11-.34-.32-1.9-.35-2.27,0-.6-.01-3.99-.05-4.56-2.84,2.28-5.1,5.08-7.33,7.89-.43.46-.91.95-1.48,1.27-.22.13-.55.16-.82.12Z"/>
      <path d="M29.85,26.7c-1.58-.23-2.9-1.08-3.39-2.68-.35-1.18-.36-2.47-.14-3.65.5-2.54,3.16-9.03,6.46-8.54,1.58.23,2,1.46,1.99,2.87.72.83.11,1.99-.92,1.84-.67-.1-1.19-.66-1.42-1.3-.43.46-.79.97-1.07,1.53-.76,1.3-1.44,2.64-1.86,4.11-.18.7-.32,2.17.2,2.69.17.19.48.27.84.33.79.12,1.86-.05,2.41-.21.21-.05,1.18-.35,1.38-.36,1.09-.04,1.65,1.33.82,2.05-.32.27-1.78.86-2.16,1.01-1.02.33-2.16.44-3.14.3Z"/>
      <path d="M39,32.37c-2.4-.36-1.08-9.26-.83-10.95.36-2.4,2.05-13.54,3.26-14.9.28-.24.65-.35,1.01-.29.16.02.27.08.42.14.07.05.15.06.22.11.52.28.74.96.46,1.48-.1.11-.08.27-.06.39-.21,2.5-2.62,17.04-2.91,19.54-.1.95-.12,1.91-.18,2.87-.05.32-.02.68-.19.98-.27.48-.75.69-1.22.62Z"/>
      <path d="M53.6,31.08c-2.01-.3-1.57-4.9-1.43-6.33-1.07,1.21-2.89,2.91-4.49,3.36-.51.17-1.07.16-1.58.05-1.38-.49-1.83-1.76-2.04-3.08-.25-2.09.11-4.25.65-6.26.26-.93.48-1.86.96-2.67.28-.56.89-.83,1.4-.76.35.05.65.22.85.53.12.26.2.55.2.84,0,.48-.45,2.75-.52,3.22-.19,1.02-.34,2-.45,2.99-.04.8-.08,1.64.08,2.43,2.66-1.09,4.79-4.6,5.97-7.08.06-.11.04-.24.09-.35.24-.77.93-1.11,1.6-1.01,1.26.19,1.29,1.32,1.14,2.34-.33,2.73-.77,5.44-.81,8.17-.04.52-.09,2.52-.33,3.01-.27.48-.79.69-1.3.61Z"/>
      <path d="M60.38,32.05c-1.42-.21-3.27-1.01-3.59-2.63-.22-.96.83-1.77,1.72-1.28.26.12.43.35.7.47.38.18,1.92.37,2.36.35-.5-1.77-1.69-3.27-2.49-4.88-.54-1.01-.93-2.15-.8-3.3.08-.83.57-1.69,1.18-2.28.98-.9,2.33-1.3,3.55-1.12,1.58.23,2.63,1.24,2.64,2.81.04.81-.66,1.19-1.25,1.1-.43-.06-.83-.37-.91-.94-.63-.09-1.02-.15-1.57.25-.13.06-.41.3-.42.42-.09.31.24,1.08.36,1.34.89,1.62,1.95,3.15,2.62,4.86.29.77.48,1.64.36,2.47-.33,2.21-2.57,2.64-4.46,2.36Z"/>
      <path d="M68.44,33.65c-1.22-.18-1.56-1.68-1.61-2.73-.05-3.47.71-6.94,1.73-10.25.15-.5.48-1.05.99-1.22.21-.09.42-.1.62-.07.55.08,1.04.6,1.1,1.29-.01.08-.04.52-.05.6-.4,2.68-.99,5.33-1.27,8.03-.04.28-.19,2.07-.23,2.34-.01.08.2.31.23.36.46.96-.51,1.82-1.5,1.67ZM70.68,17.23c-.47-.07-.9-.42-1.06-1-.28-1.09.09-2.24.37-3.33.13-.58.25-1.13.53-1.65.29-.56.84-.8,1.32-.73.51.08.97.51.99,1.19.02.93-.44,4.04-.88,4.86-.28.52-.79.73-1.27.66Z"/>
      <path d="M77.02,33.07c-3.9-.58-3.57-8.5-3.32-11.24.02-.16.08-1.12.11-1.27-.02-.93.78-1.46,1.49-1.35.43.06.8.32,1,.83.38.94.48,5.71.61,6.73.12,1.11.22,2.29.85,3.23,1.88-1.53,2.99-4.67,3.49-6.93.12-.51.41-2.52.76-2.95.29-.32.63-.47.99-.42.47.07.94.46,1.05,1.04.13.74-.49,3.55-.68,4.29-.62,2.56-1.97,5.95-4.18,7.51-.59.47-1.43.67-2.17.52Z"/>
      <path d="M89.72,34.56c-3.07-.46-5.3-3.08-5.11-6.24.01-.08-.12-.3-.14-.38-.27-.64-.06-1.22.54-1.49.33-.88.78-1.74,1.37-2.45,1.14-1.44,3.3-2.45,5.12-2.18.39.06.82.2,1.19.42,2.12,1.2,1.96,4.16,0,5.64-1.37,1.08-3.28,1.48-5,1.39.27,1.45,1.47,2.59,2.96,2.82.91.13,1.83-.09,2.68-.41.13-.06.3-.12.46-.09,1.22-.06,1.56,1.68.41,2.11-.94.38-1.94.84-2.96.93-.49.05-1.01.01-1.52-.06ZM88.15,26.76c1.02-.09,2.17-.2,2.91-.9.23-.21.54-.68.51-.97-.06-.17-.32-.29-.52-.28-1.32-.04-2.33,1.06-2.9,2.15Z"/>
      <path d="M111.81,44.73c-2.72-.4-2.42-9.42-2.32-11.5-1.48-.34-1.32-2.25.18-2.27.27-2.66.71-5.33,1.61-7.81.82-2.29,2.79-6.03,5.78-5.58.79.12,1.52.59,1.83,1.48.08.25.3.41.47.63.55.93-.5,2.02-1.47,1.51-.11-.06-.53-.48-.64-.58-.2-.27-.45.01-.68.26-.7.62-1.19,1.51-1.56,2.38-1.01,2.43-1.44,5.06-1.75,7.67.56,0,2.73.04,3.52.16.12.02.2.03.24.04,1.19.42,1.06,2.09-.1,2.32-.58.11-3.28.16-3.88.11-.11,2.08-.05,4.14.08,6.21.04.29.15,1.96.2,2.2-.01.08-.03.48,0,.56.08.54.08,1.1-.19,1.54-.27.48-.79.73-1.3.65Z"/>
      <path d="M128.8,42.26c-2.01-.3-1.57-4.9-1.43-6.33-1.07,1.21-2.89,2.91-4.49,3.36-.51.17-1.07.16-1.58.05-1.38-.49-1.83-1.76-2.04-3.08-.25-2.09.11-4.25.65-6.27.26-.93.48-1.86.96-2.68.28-.56.89-.83,1.4-.76.35.05.65.22.85.53.12.26.2.55.2.83,0,.48-.45,2.75-.52,3.22-.19,1.02-.34,2-.45,2.99-.04.8-.08,1.64.08,2.43,2.66-1.09,4.79-4.6,5.97-7.08.06-.11.04-.24.09-.35.24-.77.93-1.11,1.6-1.01,1.26.19,1.29,1.32,1.14,2.34-.33,2.73-.77,5.44-.81,8.17-.04.52-.09,2.52-.33,3.01-.27.48-.79.69-1.3.61Z"/>
      <path d="M134.18,41.82c-1.22-.18-1.77-1.39-1.8-2.52.02-.96.12-1.91.26-2.86.28-1.85.63-3.69,1.06-5.48.16-.5.32-1.04.5-1.5.3-.64,1.05-.85,1.69-.55.38.14.63.62.69,1.03.13,1.03-.7,5.81-.86,6.84,2.07-2.51,4.33-5.31,7.1-7.12.58-.4,1.29-.57,1.92-.48,1.03.15,1.57,1.08,1.75,2.03.47,2.28.23,4.7.52,7.04.02.16.05.77.11.9.43.87-.37,1.92-1.35,1.77-.59-.09-1.38-.97-1.58-1.56-.11-.34-.32-1.9-.35-2.27,0-.6-.01-3.99-.05-4.56-2.83,2.28-5.1,5.08-7.33,7.89-.43.46-.91.95-1.48,1.27-.22.13-.55.16-.82.12Z"/>
    </g>
  </g>
</svg>