<?xml version="1.0" encoding="UTF-8"?>
<svg id="Layer_2" data-name="Layer 2" xmlns="http://www.w3.org/2000/svg" viewBox="0 0 269.99 36.94">
  <g id="Layer_1-2" data-name="Layer 1">
    <g>
      <path d="M7.45,29.1c-1.43,0-2.91-.62-3.95-1.61C1.13,25.39.31,21.82.09,18.79c-.39-4.38.5-9,2.58-12.84C3.85,3.79,5.83,1.71,8.46,1.69c1.2.03,2.51.46,3.27,1.37.76.95,1.29,2.18,1.26,3.42,0,.6-.11,1.16-.27,1.75-.04.16-.16.32-.16.48,0,.72-.51,1.08-1.07,1.08-.48,0-1-.27-1.24-.87-.12-.4-.09-.92-.13-1.35-.09-1.04-.34-2.71-1.65-2.7-.48-.08-1.03.17-1.39.49-.44.4-.83.84-1.15,1.32-2.17,3.52-2.77,8.02-2.63,12.16.09,1.87.5,3.82,1.39,5.53.56.95,1.69,2.14,2.88,2.13,1.83-.01,3.81-2.34,4.71-3.66.2-.28.91-1.52,1.14-1.72.24-.2.48-.28.67-.28.8,0,1.44.87.97,1.71-1.5,2.6-4.26,6.52-7.64,6.54Z"/>
      <path d="M19.99,28.18c-2.43.02-2.49-8.98-2.5-10.7-.02-2.43-.05-13.7.93-15.22.24-.28.59-.44.95-.44.16,0,.28.04.44.08.08.04.16.04.24.08.56.2.88.83.69,1.39-.08.12-.04.28,0,.4.18,2.51.04,17.24.13,19.75.05.96.17,1.91.26,2.87,0,.32.08.68-.03,1-.2.52-.63.8-1.11.8Z"/>
      <path d="M26.22,25.07c-1.23,0-1.8-1.42-2.01-2.46-.58-3.42-.37-6.97.13-10.4.08-.52.31-1.12.79-1.36.2-.12.4-.16.6-.16.56,0,1.12.43,1.28,1.11,0,.08.04.52.04.6.02,2.71-.16,5.42-.03,8.12,0,.28.13,2.07.14,2.35,0,.08.24.28.28.32.6.87-.23,1.87-1.22,1.88ZM25.91,8.5c-.48,0-.96-.27-1.2-.83-.45-1.03-.25-2.23-.14-3.34.04-.6.07-1.16.27-1.71.2-.6.71-.92,1.19-.92.52,0,1.04.35,1.16,1.03.17.92.19,4.06-.13,4.94-.2.56-.67.84-1.15.84Z"/>
      <path d="M32.02,23.44c-1.23,0-1.96-1.1-2.17-2.22-.13-.95-.17-1.91-.18-2.87-.01-1.87.06-3.74.2-5.58.08-.52.15-1.08.27-1.56.19-.68.91-1,1.59-.81.4.08.72.51.84.91.29.99.2,5.85.21,6.89,1.65-2.8,3.47-5.92,5.92-8.12.51-.48,1.19-.77,1.83-.77,1.04,0,1.72.82,2.04,1.74.81,2.19.95,4.61,1.6,6.88.04.16.16.76.24.88.56.79-.07,1.95-1.06,1.96-.6,0-1.52-.75-1.8-1.3-.16-.32-.61-1.83-.69-2.19-.08-.6-.62-3.94-.75-4.5-2.45,2.68-4.26,5.8-6.03,8.92-.35.52-.75,1.08-1.26,1.48-.2.16-.52.24-.79.24Z"/>
      <path d="M48.72,24.92c-1.23,0-1.8-1.42-2.01-2.46-.58-3.42-.37-6.97.13-10.4.08-.52.31-1.12.79-1.36.2-.12.4-.16.6-.16.56,0,1.12.43,1.28,1.11,0,.08.04.52.04.6.02,2.71-.16,5.42-.03,8.12,0,.28.13,2.07.14,2.35,0,.08.24.28.28.32.6.87-.23,1.87-1.22,1.88ZM48.41,8.35c-.48,0-.96-.27-1.2-.83-.45-1.03-.25-2.23-.14-3.34.04-.6.07-1.16.27-1.71.2-.6.71-.92,1.19-.92.52,0,1.04.35,1.16,1.03.17.92.19,4.06-.13,4.94-.2.56-.67.84-1.15.84Z"/>
      <path d="M56.47,23.67c-1.59.01-3.03-.62-3.76-2.13-.53-1.11-.73-2.38-.7-3.58.1-2.59,1.73-9.41,5.07-9.43,1.59-.01,2.2,1.14,2.41,2.53.84.71.41,1.95-.62,1.96-.68,0-1.28-.47-1.6-1.06-.36.52-.63,1.08-.83,1.68-.55,1.4-1.02,2.83-1.21,4.35-.08.72.01,2.19.61,2.62.2.16.52.2.88.19.8,0,1.83-.33,2.35-.57.2-.08,1.11-.53,1.31-.57,1.07-.21,1.84,1.06,1.13,1.9-.28.32-1.63,1.13-1.98,1.33-.95.48-2.07.77-3.06.78Z"/>
      <path d="M67.07,24.39c-1.43,0-3.39-.49-3.96-2.04-.36-.91.54-1.88,1.5-1.52.28.08.48.28.76.35.4.12,1.95.07,2.39-.02-.77-1.67-2.17-2.97-3.21-4.44-.68-.91-1.25-1.98-1.3-3.14-.05-.84.31-1.75.82-2.44.83-1.04,2.1-1.65,3.33-1.66,1.59-.01,2.79.82,3.04,2.37.16.79-.47,1.28-1.07,1.28-.44,0-.88-.23-1.04-.79-.64,0-1.04,0-1.51.49-.12.08-.36.36-.36.48-.04.32.41,1.03.57,1.27,1.12,1.47,2.41,2.81,3.34,4.4.4.71.73,1.55.73,2.38.01,2.23-2.13,3-4.04,3.01Z"/>
      <path d="M103.91,29.84c-.2,0-.4-.04-.6-.12-.32-.16-5.49-4.34-5.97-4.74-1.94,1.92-4.39,3.73-7.22,3.75-1.99.01-4.07-.97-4.48-3.08-.25-1.03.1-2.23.62-3.19.9-1.76,2.33-3.24,3.67-4.72-1.45-1.86-2.77-3.88-3.51-6.15-.57-1.79-.7-3.82-.16-5.61,1.05-3.23,4.19-5.29,7.53-5.31,3.07-.02,7.54,2.18,8.2,5.44.17.91.01,1.91-.38,2.75-.43,1-1.1,1.88-1.81,2.72-1.82,2.24-3.95,4.21-5.89,6.33,1.08,1.11,2.21,2.18,3.37,3.2.99-1.16,1.98-2.36,2.84-3.6.95-1.28,1.77-2.6,2.72-3.84.24-.32.55-.48.87-.48.68,0,1.32.59,1.2,1.39-.08.48-.98,2.12-1.26,2.52-1.26,2.08-2.76,4-4.34,5.8,1.12,1.03,2.28,2.02,3.37,3.08.24.2,1.32,1.31,1.48,1.54,1.19-.09,1.72,1.42.69,2.03-.28.16-.63.28-.95.29ZM91.95,15.63c1.38-1.48,6.65-6.5,7.15-8.45.16-.6-.21-1.31-.61-1.79-1.16-1.31-2.88-2.05-4.63-2.04-2.27.02-4.33,1.3-4.95,3.58-.23.96-.19,1.99.02,2.95.45,2.11,1.7,4.05,3.03,5.75ZM90.34,25.95c2.03-.21,3.5-1.34,4.92-2.74-1.12-.99-2.24-2.02-3.29-3.12-.95,1.12-1.9,2.24-2.61,3.52-.24.4-.75,1.28-.59,1.68.2.44,1.08.67,1.56.67Z"/>
      <path d="M126.72,28.38c-.32,0-.64-.11-.92-.27-1.36-.99-2.01-2.1-2.61-3.65-1.01-2.74-1.23-5.77-1.45-8.71-.6,0-1.19,0-1.75-.11-1.24-.19-1.25-1.9-.01-2.15.52-.08,1.07-.17,1.63-.21-.14-3.11-.04-6.17.22-9.24.04-.48.3-2.59.46-3.03C122.51.37,123.02,0,123.54,0c.52,0,1.04.27,1.28.91.28.68.1,3.58.11,4.34-.06,2.51-.09,5.06.05,7.57.48-.04,3.14-.26,3.62-.38,1.23-.29,2,1.3,1.05,2.1-.71.6-3.62.94-4.5,1.03.22,2.83.48,6.45,1.54,9.07.2.44.44.87.69,1.31.52.23.76.79.69,1.31-.12.72-.71,1.12-1.35,1.12Z"/>
      <path d="M137.67,22.09c-3.11.02-5.71-2.23-6.01-5.38,0-.08-.16-.28-.2-.36-.36-.59-.25-1.19.31-1.56.19-.92.5-1.84.98-2.63.91-1.6,2.89-2.93,4.72-2.94.4,0,.84.07,1.24.23,2.28.86,2.57,3.81.87,5.57-1.19,1.28-3.01,1.97-4.72,2.14.49,1.39,1.85,2.34,3.36,2.33.92,0,1.79-.37,2.58-.81.12-.08.28-.16.44-.16,1.19-.25,1.8,1.42.73,2.03-.87.52-1.78,1.13-2.78,1.37-.48.12-.99.17-1.51.17ZM134.91,14.62c1-.25,2.11-.53,2.74-1.33.2-.24.43-.76.35-1.04-.08-.16-.36-.24-.56-.2-1.31.17-2.14,1.41-2.53,2.57Z"/>
      <path d="M147.36,23.94c-.96,0-2-.54-2.56-1.26-1.04-1.39-1.3-3.34-1.15-5.05.22-2.79,2.06-7.06,4.84-8.24.44-.16.88-.24,1.31-.25.4,0,.76.07,1.12.19.44.12.84.43,1.12.83.24-.24.55-.32.87-.32.36,0,.76.11,1,.43.32.4.4.99.37,1.55-.03,1.43-.14,2.91-.09,4.38.05,1.43.34,2.83.59,4.18.04.16.13.92.17,1.07.33.91-.35,1.64-1.1,1.64-.32,0-.64-.12-.92-.43-.52-.51-1.25-2.66-1.42-3.34-.71,1.72-1.92,4.59-4.15,4.61ZM147.46,21.07c.44-.28,1.22-1.76,1.46-2.2.9-1.92,1.53-3.95,2.15-5.95-.32-.2-.52-.55-.64-.91-.68.12-1.23.77-1.62,1.29-1.22,1.6-1.97,3.72-1.87,5.71.04.72.09,1.51.53,2.07Z"/>
      <path d="M158.13,20.76c-2-.5-1.7-3.73-1.51-5.8.07-1.12.56-5.38,1.11-6.38.24-.4.67-.64,1.11-.64.4,0,.76.19.96.59.32.64.21,1.43.13,2.15-.04.6-.33,3.91-.33,4.54.87-1.56,1.69-3.12,2.92-4.4.51-.56,1.23-1.04,1.98-1.05.68,0,1.36.35,1.76.9.84,1.19,1.17,2.66,1.62,4.05.79-1.24,1.46-2.52,2.36-3.68.71-.96,2.02-2.2,3.33-2.21.68,0,1.36.31,1.76.86,1.05,1.47,1.14,3.46,1.11,5.21,0,.4-.11,2.03-.26,2.43,0,.04-.04.08-.04.16-.12.6-.63,1-1.19,1-.76,0-1.32-.71-1.48-1.38-.08-.52-.02-3.27-.03-3.82-.04-.52-.05-1.04-.17-1.55-.83.64-1.38,1.56-1.94,2.44-.35.56-1.81,3.08-2.33,3.52-.4.36-.91.52-1.39.53-.64,0-1.24-.27-1.64-.83-.92-1.31-1.17-2.94-1.7-4.45-.79.96-1.42,2.04-2.05,3.12-.35.6-1.93,3.52-2.44,4.04-.4.44-1.07.8-1.67.65Z"/>
      <path d="M181.67,27.13c-1.75.01-2.21-2.69-2.38-4.01-.67-4.3-.74-8.68-.61-13.02.07-.96.36-6.06.55-7.01.11-.88.38-2.03,1.5-2.04.92,0,1.28.67,1.4,1.46.25,1.75,0,11.27.05,13.02.31-1.2.62-2.43,1.05-3.63.63-1.68,1.73-3.83,3.8-3.85.76-.04,1.56.31,2.12.82.76.67,1.29,1.66,1.57,2.66.41,1.51.5,3.18.19,4.7-.54,2.67-2.75,5.79-5.42,5.81-.68,0-1.28-.11-1.87-.47-.15,1.2-.26,2.39-.42,3.59-.11.84-.5,1.96-1.54,1.96ZM185.2,19.02c1.27,0,2.5-1.73,2.84-3.36.23-1.04.26-2.11.1-3.15-.08-.56-.21-1.11-.57-1.55-.16-.24-.48-.51-.72-.39-1.47.65-2.54,6.39-2.81,7.86l.04.04c.36.36.76.55,1.12.55Z"/>
      <path d="M203.47,23.52c-2.03.01-2.3-4.6-2.39-6.04-.87,1.36-2.41,3.32-3.92,4.01-.48.24-1.03.33-1.55.29-1.43-.27-2.08-1.46-2.49-2.73-.57-2.03-.55-4.22-.32-6.29.11-.96.19-1.91.54-2.79.2-.6.75-.96,1.27-.96.36,0,.68.12.92.39.16.24.28.52.32.79.08.48-.02,2.79-.02,3.27-.03,1.04-.03,2.03.02,3.03.08.8.17,1.63.45,2.39,2.46-1.49,4.03-5.28,4.81-7.92.04-.12,0-.24.04-.36.11-.8.75-1.24,1.42-1.24,1.27,0,1.48,1.1,1.49,2.14.1,2.75.08,5.5.45,8.2.04.52.3,2.51.14,3.03-.19.52-.67.8-1.19.8Z"/>
      <path d="M209.05,23.84c-1.23,0-1.8-1.42-2.01-2.46-.58-3.42-.37-6.97.13-10.4.08-.52.31-1.12.79-1.36.2-.12.4-.16.6-.16.56,0,1.12.43,1.28,1.11,0,.08.04.52.04.6.02,2.71-.16,5.42-.03,8.12,0,.28.13,2.07.14,2.35,0,.08.24.28.28.32.6.87-.23,1.87-1.22,1.88ZM208.74,7.27c-.48,0-.96-.27-1.2-.83-.45-1.03-.25-2.23-.14-3.34.04-.6.07-1.16.27-1.71.2-.6.71-.92,1.19-.92.52,0,1.04.35,1.16,1.03.17.92.19,4.06-.13,4.94-.2.56-.67.84-1.15.84Z"/>
      <path d="M215.76,26.86c-2.43.02-2.49-8.98-2.5-10.7-.02-2.43-.05-13.7.93-15.22.24-.28.59-.44.95-.44.16,0,.28.04.44.08.08.04.16.04.24.08.56.2.88.83.69,1.39-.08.12-.04.28,0,.4.18,2.51.04,17.24.13,19.75.05.96.17,1.91.26,2.87,0,.32.08.68-.03,1-.2.52-.63.8-1.11.8Z"/>
      <path d="M231.79,29.5c-.4,0-.84-.15-1.16-.47-2.2-2.06-2.67-6.39-2.85-9.22-.66,1.92-2.07,5.87-4.38,5.88-2.63.02-3.73-3.96-3.9-5.99-.13-1.35.06-2.71.41-3.99.78-2.99,2.94-6.91,6.49-6.93.48,0,.92.07,1.32.27.07-1.43.27-7.13.86-8.41.2-.44.55-.64.95-.64.52,0,1.04.31,1.2.91.04.2.09,1.19.09,1.39.05.84,0,5.73-.04,6.57-.01,3.74.05,7.49.28,11.23.13,2.39.43,4.86,1.36,7.08.72.35.96,1.23.45,1.83-.28.32-.67.48-1.07.48ZM223.46,22.79c.32-.4.59-.88.79-1.36,1.26-2.6,2.12-5.35,2.61-8.18.04-.2.19-1.31.23-1.51.08-.24-.32-.2-.52-.12-.99.33-1.79.89-2.34,1.77-.95,1.48-1.61,3.24-1.76,5.03-.11,1.47.18,3.11.99,4.37Z"/>
      <path d="M236.81,23.65c-1.23,0-1.8-1.42-2.01-2.46-.58-3.42-.37-6.97.13-10.4.08-.52.31-1.12.79-1.36.2-.12.4-.16.6-.16.56,0,1.12.43,1.28,1.11,0,.08.04.52.04.6.02,2.71-.16,5.42-.03,8.12,0,.28.13,2.07.14,2.35,0,.08.24.28.28.32.6.87-.23,1.87-1.22,1.88ZM236.5,7.09c-.48,0-.96-.27-1.2-.83-.45-1.03-.25-2.23-.14-3.34.04-.6.07-1.16.27-1.71.2-.6.71-.92,1.19-.92.52,0,1.04.35,1.16,1.03.17.92.19,4.06-.13,4.94-.2.56-.67.84-1.15.84Z"/>
      <path d="M242.61,22.02c-1.24,0-1.96-1.1-2.17-2.22-.13-.95-.17-1.91-.18-2.87-.01-1.87.06-3.74.2-5.58.08-.52.15-1.08.27-1.56.19-.68.91-1,1.59-.81.4.08.72.51.84.91.29.99.2,5.85.21,6.89,1.65-2.8,3.47-5.92,5.92-8.12.51-.48,1.19-.77,1.83-.77,1.04,0,1.72.82,2.04,1.74.81,2.19.95,4.61,1.6,6.88.04.16.16.76.24.88.56.79-.07,1.95-1.06,1.96-.6,0-1.52-.75-1.8-1.3-.16-.32-.61-1.83-.69-2.19-.08-.6-.62-3.94-.75-4.5-2.45,2.68-4.26,5.8-6.03,8.92-.35.52-.75,1.08-1.26,1.48-.2.16-.52.24-.79.24Z"/>
      <path d="M263.02,36.94c-1.31,0-2.63-.66-3.48-1.65-.16-.16-.96-1.07-1.08-1.27-.48-.83.15-1.79.98-1.8.16,0,.28.04.44.08.16.04.32.16.48.28.6.47,2.04,1.5,2.76,1.3,2.62-.77,2.98-13.04,3.04-15.19-1.06,2.24-3.03,5.87-5.93,5.89-.36,0-.76-.07-1.12-.19-1.56-.47-2.44-2.17-2.53-3.73-.13-1.15.1-2.31.5-3.35,1.05-3.07,4.88-8.99,8.3-9.02.52,0,1.04.07,1.52.27.08-.36.15-.72.31-1.04.27-.48.71-.72,1.19-.72.68,0,1.4.51,1.56,1.38.08.52-.03,1.04-.03,1.51-.04.64-.17,4.38-.17,4.98-.05,4.02-.06,8.13-.64,12.11-.54,3.35-1.6,10.13-6.1,10.16ZM260.29,21.35c.52,0,.91-.36,1.23-.73,2.17-2.36,3.78-6.48,4.68-9.55-.04,0-.4.04-.48.08-1.79.57-5.26,5.85-5.72,8.04-.12.6-.19,1.24.01,1.79.04.12.16.36.28.36Z"/>
    </g>
  </g>
</svg>