<?xml version="1.0" encoding="UTF-8"?>
<svg id="Layer_1" data-name="Layer 1" xmlns="http://www.w3.org/2000/svg" viewBox="0 0 242.9 73.35">
  <defs>
    <style>
      .cls-1 {
        fill: #010101;
      }
    </style>
  </defs>
  <g>
    <path class="cls-1" d="M159.34,73.35c.08-.06.13-.25-.01-.27l-.22.27h.24Z"/>
    <path class="cls-1" d="M158.7,72.41c-.22.08-.5.27-.52.59.27-.23.26-.09.57-.37.15.02.19.19.12.3.08-.06.17.15.33,0-.07-.31-.28-.41-.59-.31-.02-.09.06-.15.1-.2Z"/>
    <path class="cls-1" d="M145.8,67.19l.07.06s-.04-.05-.07-.06Z"/>
    <path class="cls-1" d="M137.59,64.54c.07.01.1-.01.11-.04-.06,0-.12,0-.11.04Z"/>
    <path class="cls-1" d="M136.28,63.79s.05.03.08.05c-.02-.04-.05-.06-.08-.05Z"/>
    <path class="cls-1" d="M145.8,67.19l-.19-.17c-.05.1.09.11.19.17Z"/>
    <path class="cls-1" d="M156.63,72.43c.05,0,.1-.01.15-.03-.04,0-.08,0-.12-.01l-.03.05Z"/>
    <path class="cls-1" d="M149.5,68.12l.07.02s.06-.07.1-.11l-.17.09Z"/>
    <path class="cls-1" d="M152.28,69.03c-.06-.03-.17.22-.24.33.07-.1.14-.13.2-.13.02-.05.03-.11.04-.2Z"/>
    <path class="cls-1" d="M156.45,71.12h.09s-.06,0-.09,0Z"/>
    <path class="cls-1" d="M147.54,67.4s0-.08,0-.1c-.01.03-.01.07,0,.1Z"/>
    <path class="cls-1" d="M67.19,57.73s0-.03,0-.05c-.01.03-.02.05,0,.05Z"/>
    <polygon class="cls-1" points="63.74 56.93 63.79 56.91 63.75 56.75 63.74 56.93"/>
    <path class="cls-1" d="M133.78,62.72h.01c.08,0,.04,0-.01,0Z"/>
    <path class="cls-1" d="M109.39,58.05c.24.29-.5.25-.12.59-.02-.11.44-.38.12-.59Z"/>
    <path class="cls-1" d="M156.57,72.36s-.08-.02-.11-.04c.05.03.08.04.11.04Z"/>
    <path class="cls-1" d="M109.27,58.64h0s.04.03.04.03c-.02-.01-.03-.02-.04-.03Z"/>
    <path class="cls-1" d="M127.69,61.32c0,.05.02.09.03.13,0-.03,0-.07-.03-.13Z"/>
    <path class="cls-1" d="M132.1,62.84l-.1-.07s.07.05.1.07Z"/>
    <path class="cls-1" d="M125.24,61.17c-.06-.03-.07-.08-.16-.06,0,.02.01.03.02.04.04-.03.08-.04.14.02Z"/>
    <path class="cls-1" d="M122.79,60.67s.02.04.03.06h.08s-.12-.06-.12-.06Z"/>
    <path class="cls-1" d="M74.55,57.77c-.05-.08-.07-.17-.09-.26.02.2-.35.24.09.26Z"/>
    <path class="cls-1" d="M156.69,72.28c-.04.06-.07.08-.11.08l.08.02s.04-.07.03-.1Z"/>
    <path class="cls-1" d="M124.68,63.32l-.38-.12c.1.05.24.09.38.12Z"/>
    <path class="cls-1" d="M92.49,58.51l-.09.03s.07,0,.09-.03Z"/>
    <path class="cls-1" d="M123.15,63c-.05-.11-.11-.18-.18-.24-.02.02-.04.03-.06.06l.24.17Z"/>
    <path class="cls-1" d="M74.46,57.51h0s0,0,0,0Z"/>
    <path class="cls-1" d="M71.85,57.99c.37.03.19-.35.28-.56.45-.08.19.28.33.48.28-.08.52-.4.72-.37.01.06.05.09,0,.16.31-.27.87.05,1.24-.29.02.03.03.07.04.1-.04-.19-.03-.38-.01-.51.17,0,.33-.21.37.04-.1-.02-.12.08-.17.15l.19-.09c.13.36-.25.1-.27.36.35-.08.78-.33,1.03-.21.02.34-.63.06-.3.39l-.4-.17c.26.56-.24-.06,0,.54.53.15.61-.12,1.14.03.14-.18-.01-.28.12-.46.79-.27.52.91,1.13.51.17-.21.26-.64.64-.37l-.17.37c.52.08.34-.52.87-.22-.11.14-.42.09-.35.15.33.33.27-.2.54-.18l.03.34c.57,0,1.21-.21,1.84-.24-.04.1-.15.2-.01.31.82-.13,1.69.09,2.44.31l.29-.29c.07,0,.12.13.05.19.29.12.02-.19.16-.3.17-.02.22.17.11.26.52-.24,1.48-.51,2.02-.19l-.11.09c.42.13.49-.59.87-.31l-.08.05c.91.14,1.93-.11,2.62.35.14-.42.9.21.97-.38.51.31.36.41,1.09.62.19.03.3-.36.55-.41v.31s.34-.31.34-.31l.16.37.23-.07c-.09-.02-.19-.15-.17-.23.36-.13.86.25.86.41l.85-.22c-.02.12-.17.16-.28.23.46-.29.07.33.49.06-.05-.07.04-.18.05-.24.19.2.66.22,1.01.16l-.08.21c.61.09,1.31-.02,2,.04-.24-.12-.16-.48.05-.5l.06.33c.15-.19-.2-.14.09-.36.26.06.14.38-.01.48l.32-.09c.01.1-.07.14-.1.27.15-.19.51.37.73.04v.1c.7.06,1.02,0,1.58.03.04-.28.25-.19.45-.4.4.14.83.41,1.33.45.37-.09.13-.22.31-.37,0,.26.49.3.21.45.6.04.77.06,1.56-.03-.07-.12-.15-.17-.09-.25.14-.02.3.15.26.27l-.04.02c.91-.25,1.86,1.03,2.62.6l-.04.02.75-.17c.32.09-.22.16,0,.35.82-.31,1.19.24,1.86.05.37.82,1.73.21,2.31.78v-.18c.18-.15.18.13.3.19,0-.14-.16-.19-.04-.27,1.46,0,2.91.72,4.34,1.12.52.14.46-.86,1.06-.33l-.25.29c1.14-.21,2.2.39,3.3.26-.08.06-.1.16-.2.14.18.28.82.16.86-.03.16.05,0,.18.09.3.2.18.61-.19.69.06.01.04-.08.06-.12.07.17-.09.67.16.58-.14.37.21.78.02,1.06.25.27-.26.64.28.79-.13-.12.44.61.5.9.34-.11.12.19.19.05.35.28.06.56.03.56-.21.4.64,1.14-.2,1.28.55.89-.04,1.7-.03,2.47.06-.14.43-.84-.16-.92.31.75,0,1.26-.28,1.93,0,.17.11-.15.16-.23.22.75,0,1.35.4,2.04.33-.01.04-.09.07-.17.08.13.02.27.14.31-.06l-.14.02c-.12-.34.66-.46.72-.61-.37.51.58.32.05.94.09-.01.22-.08.24-.22.11.07.13.16-.04.28.48.02.38-.24.78-.12-.03.1-.12.11-.19.21.26-.13.51-.26.83-.08-.04.05-.02.14-.12.11.59.13,1.14-.22,1.73.14-.31.36.18.2.11.57h.38s-.09-.22-.09-.22c.3.09.64-.09.87.1l-.27.08.58.09-.28-.23c.36-.1.1-.46.47-.25-.09.01.3.09.4.35h0c.18-.07.37-.15.57,0,.02.13-.16.38-.15.47.23-.26.73.12,1.01-.14-.08.06-.14.24-.13.29l.19-.21c.12.12.13.16.06.31.41.17,0-.49.44-.15-.04,0-.04.05-.13.06.47.25,1.01.13,1.44.39.03.4-.43-.03-.36.32.68.13,1.5-.02,2.11.26l-.11-.08c.24-.48.4.4.8.26-.09.01-.19.25-.15.2.41.21.93.15,1.64.2l-.12.1c.22.2.66.28.91.43.12-.1.28-.03.24-.25.61,1.01,1.76.13,2.31,1-.09-.03-.25.04-.18.07l.68.1c.02-.24-.04-.16-.12-.38.13-.1.34-.14.5-.09-.34.05-.12.35-.03.52,0-.07.07-.13.08-.21.2.5.21-.42.58,0l-.06.11c.19,0,.4-.1.58,0-.01.28-.22.05-.31.26.26.08.68-.3.83.03-.13.03-.29-.02-.43.01.15.39.21.32.38.43h-.02s.39.28.39.28l-.08-.12c.56-.54.7.12,1.29-.16-.57.25-.16.21-.29.48.08.12.22.27.14.33.29-.15.27.31.69.08-.02.1.22.09.08.3.29.03,0-.18.06-.29.53-.16.82.73,1.57.54.57.02.79-.25,1.32-.22.1.21-.26.28-.26.28.2.23.4.29.69.28-.08.06-.06.15-.02.28.2.05.26-.28.46-.04-.08.08-.21.22-.34.29.26,0,.55-.07.82-.06,0,.18-.24.18-.36.25.29.03.74.13.92-.08l-.13-.16c.1.03-.04.23-.13.25-.3.1-.29-.22-.26-.32h.19c.05-.59-.71-.18-1.03-.34l.3-.33-.47.18c-.03-.13,0-.37.19-.36-.17-.29-.27.05-.39-.25,0-.04,0-.06.04-.06l-.28.02c.08-.06.07-.29.19-.18-.34-.39-.8.02-.85-.33h.05c-.64-.11-.17.25-.74.42l-.03-.82-.17.26c-.06-.03-.17-.1-.11-.21-.3.11,0,.14-.21.27-.2-.37-.86-.18-.76-.66-.19.18.22.27-.15.31.09-.52-.4-.05-.58-.38.18-.22.38,0,.19-.32-.32.37-.5-.28-.76-.28-.13.34-.55-.04-.97-.06.07-.11-.66-.44-.98-.69l.03-.05c-.19.32-.54.13-.83.11.08-.2.16-.27.34-.31l-.26-.08c-.1.09-.2.12-.38.11l.15-.24c-.34-.1-.79.08-1.16-.24-.1.24.12.79-.39.8.03-.14.08-.37.22-.38-.05,0-.18.06-.24-.02l.26-.16c-.17-.16-.16.15-.32.08.06-.19-.07-.17,0-.31.05,0,.11.12.2.07-.17-.09-.35-.27-.37-.44-.02.11-.08.25-.22.23-.34-.1-.04-.26-.21-.42-.12.1-.3-.1-.39.18-.1-.03-.08-.17-.09-.26-.22.07-.83-.23-.73.13l.04.03s-.02,0-.03,0h0s0,0,0,0c-.67.1-1.15-.54-1.76-.59l.03-.09c-.38,0-.78-.17-1.09-.04-.1-.03-.19-.25-.11-.34-.28,0-.34.09-.68-.18.31-.09-.05-.17.31-.04-.32-.18-.35-.36-.79-.21.2-.21-.17-.38-.35-.36l.19.24c-.19-.02-.35-.09-.5-.16l.18-.29c-.59-.6-1.46.29-1.8-.52-.25.17.33.27.09.48-.31-.14-.51-.69-.61-.72-.39-.3-.55.35-.97.09.03.13,0,.45-.38.46-.31-.13-.26-.59-.03-.63.08.01.11.06.09.1.12-.01.27-.02.17-.18l-.07.1c-.13-.16-.57-.28-.42-.43-.28.04-.16.16,0,.27-.37-.28-.65-.19-1.04-.42.05.08.07.23,0,.21-.59-.32-.34.14-.77.07-.19-.24.2-.39-.26-.36-.23-.19.03-.32.16-.38-.45.11-.69-.35-.9-.45l.23-.03c-.14.02-.24,0-.34-.04l.05.26c-.11-.07-.21-.1-.18-.2-.17.12-.01.41-.31.54-.13-.16-.52-.01-.49-.33.48.24.03-.32.47-.25-.09.01-.19-.02-.3-.09,0-.04.03-.06.07-.07-.41-.4-.32.28-.82.14.11-.15-.03-.36-.12-.34.2.06.02.31-.2.39-.28-.22-.38,0-.54-.06l.18.11c-.11.15-.27.09-.51.08.02-.14.23-.04.17-.12-.33.23-.48-.46-.89-.35-.13-.16.07-.33-.05-.44-.45.12-.36-.35-.83-.27.06.26.1.21-.25.36h.72s-.52.23-.52.23c.2.05.47-.04.58.04-.26.13-.22.08-.17.3-.19-.42-.61.06-.87-.25l.15-.57c-.43-.38-.94.07-1.54-.22l.18.15c-.14.21-.4-.06-.63-.02.06-.19-.05-.29-.11-.43-.02.15-.46-.12-.61.25l-.23-.32c-.49-.22-.71.42-1.19.25.19-.18,0-.36.36-.44-.16-.04-.31-.11-.34.03-.07-.14-.51.16-.63-.06-.09.07-.15.27-.33.21-.01-.04.02-.1.02-.1-.02.1-.32.07-.2.32-.38-.71-1.43-.25-1.77-.86-.37,0-.82-.03-1.15-.08.03-.05.02-.1.08-.06-.42-.27-.38.5-.86.2-.2-.36.31-.12.16-.27.05-.65-.64-.03-.92-.46l.09-.02c-.23-.27-.69.12-1.12,0,0,0,.03-.05.02-.1-.35.27-.93.28-1.37.3.17-.23.21-.1.18-.37-.19,0-.02.42-.4.42-.1-.16-.35-.32-.34-.6l.35.04c-.12-.38-.46-.06-.63-.16l.05-.15c-.55-.04-.62.35-1.2.22l.04.13c-.38.33-.23-.26-.59-.03l-.03-.41c-.22.06-.79.26-1.18.27.26-.25.72-.33,1.02-.46-.21-.04-.71-.09-.85.09.09-.02.21-.1.28-.03-.3.27-.66.36-1.07.29.19-.74-1.05-.36-1.26-.99-.77.17-1.43-.34-2.29-.42.21.63-.25-.02-.29.59-.2,0-.28-.01-.29-.05l-.55-.45c-.12-.2.21-.11.21-.24-.43-.11-.14-.28-.41-.49.03.22-.2.29-.43.17l.31.33c-.66.23-.45-.59-1.11-.36l.22-.16c-.33.07-1.16-.18-1.54.26-.05-.08-.09-.25.05-.28-.74-.18-1.75.27-2.28-.12l.08-.14c-.15.02-.29.24-.44.07.02-.06.08-.14.01-.16-.08.04-.41.2-.59.09l.19-.14c-.72-.3-1.2.24-1.83.27.06-.44-.51-.65-.8-.76l.02-.06c-.87-.15-1.52.21-2.34.31-.46-.52-1.68-.33-2.46-.65.12.09-.04.34-.19.38-.18-.1-.54.27-.48-.13h.07c-.12-.39-.51-.31-.82-.33l-.08.53c-.76-.81-2.08.19-2.48-.51-.19.13-.43.12-.62.24l.02-.28c-.52-.09-.79-.13-1.44-.08l.14-.2c-.37-.03-.48.81-.82.81l-.09-.42c-.64,0-1.28-.39-1.92-.02.01-.06.03-.18.14-.2-.3-.02-1.16-.31-1.06.28,0-.38-.66-.05-1,.11l.06-.28c-.3.35-.31.45-.71.54-.1-.04-.08-.22.05-.15-.32-.15-.25.26-.64.1l.15-.18c-.33-.03-.3.07-.49.27-.21.11-.62-.08-.67-.34-.05.15-.23.35-.42.28-.02-.1.05-.15.08-.18-.55-.2-.83.31-1.19.02,0-.09-.03-.14-.06-.17.42.03.78.05.74.07,0-.26-.35-.31-.06-.66-.29.19-.77.59-1.1.45-.02-.03-.03-.05-.04-.09l.04-.03c-.08-.03-.15-.01-.22.03-.11-.05-.17-.08-.28-.09-.03-.21-.39-.14-.56-.16,0,.28-.23.22-.03.47-.03-.02.04-.03.15-.04.03,0,.06,0,.08-.02v.02c.1,0,.25,0,.42,0-.15.13-.3.24-.48.08-.1.17-.21.35-.28.44-.21-.41-.65-.66-.7-.9-.54.12-1.26,0-1.65.49-.16.05-.16-.17-.21-.25.09-.04.2-.03.25-.1-.32.11-.91-.03-1.01.33-.37-.2.25-.32-.29-.31l.08-.11c-.99-.68-1.77.78-2.87-.05.08.05.12.08.13.14-1.31-.43-2.74.15-4.06-.37-.38-.1-.42.14-.64.32l-.09-.3-.38.36c-.53.3-1.02-.7-1.69-.12l.11.19c-.26,0-.78.21-.78-.02-.02.04-.05.22-.17.14l-.03-.15-.57.38c-.5-.02-.05-.65-.77-.5-.26.13-.63.64-.5.71.11-.02.29.03.34.18l-.21.14c.09.46.07.95.67,1.14l.29-.37.17.19-.3.09c.22.16.28-.05.38-.2.06.11.12.18.21.22l.28-.5c.08.17-.1.39.16.44.13-.23-.23-.37.03-.56.22.18.18.35.37.15.05.12.01.2-.06.26.17-.16.49-.12.56-.38.22.23.64-.14.66.31.05-.11.31-.37.49-.4-.29.55.66-.01.6.57.22-.48.85-.24,1.28-.49-.02.04-.07.11-.11.09.24.04.31.18.46.28.03-.39.41-.48.63-.71.29.39-.19.45-.11.82,0-.32.52-.3.43-.57.22.24.19.12.3.45.06-.49.21-.08.42-.37.32.26.06.46.43.33.16.16-.17.31-.17.31ZM80.69,57.83h0c-.08,0-.14.01-.19.01.04,0,.09,0,.19-.01ZM81.45,57.86c-.09-.01-.21-.02-.33-.02-.02-.1,0-.2.08-.19-.04.06.13.13.24.21ZM79.98,55.84c.12-.03.15.02.16.08-.05,0-.12,0-.2.02l-.02.03c.01-.05.03-.1.05-.14Z"/>
    <path class="cls-1" d="M79.75,56.19s-.03.02-.05.02c.02.03.04.05.06.07l.05-.09h-.06Z"/>
    <path class="cls-1" d="M145.89,67.26h-.01s.02.02.02.04c0-.02,0-.02,0-.04Z"/>
    <polygon class="cls-1" points="91.66 58.62 91.66 58.54 91.6 58.6 91.66 58.62"/>
    <path class="cls-1" d="M149.46,69.46s0,.06.03.09c0-.02,0-.05-.03-.09Z"/>
    <path class="cls-1" d="M151.1,70.09l.2.18c-.08-.09-.15-.14-.2-.18Z"/>
    <path class="cls-1" d="M152.33,70.68s.05-.07.07-.1h0s-.06.1-.06.1Z"/>
    <path class="cls-1" d="M131.69,64.68s-.04,0-.05,0c-.13.02-.05.02.05,0Z"/>
    <path class="cls-1" d="M138.04,65.78c-.08.03-.16.06-.23.07.1.05.19.08.23-.07Z"/>
    <polygon class="cls-1" points="124.72 63.33 124.72 63.33 124.68 63.32 124.72 63.33"/>
    <path class="cls-1" d="M137.52,65.76c.09.09.19.1.29.09-.08-.04-.18-.1-.29-.09Z"/>
    <path class="cls-1" d="M157.73,72.9l.06.04s.02-.03.02-.04h-.08Z"/>
    <path class="cls-1" d="M157.81,72.9h.08s-.06-.02-.08,0Z"/>
    <path class="cls-1" d="M158.06,72.89h-.17s.1.06.17,0Z"/>
    <path class="cls-1" d="M156.13,72.11l-.06.09s.04-.04.06-.09Z"/>
    <path class="cls-1" d="M155.61,71.94c.11.07.22.32.41.33l.05-.07c-.13.11-.28-.37-.46-.26Z"/>
    <path class="cls-1" d="M153.94,69.95l.4.24c-.04-.13-.08-.3.12-.25-.43-.51.03.27-.52.02Z"/>
    <path class="cls-1" d="M152.65,69.32c.25.04.05-.15.08-.2-.18.04-.22.05-.08.2Z"/>
    <path class="cls-1" d="M142.89,66.1l.1-.24c-.19-.02-.03.09-.1.24Z"/>
    <polygon class="cls-1" points="140.64 66.8 140.77 67.01 140.92 66.81 140.64 66.8"/>
    <polygon class="cls-1" points="140.04 64.73 140.13 64.72 139.8 64.72 140.04 64.73"/>
    <path class="cls-1" d="M123.27,60.51v.32c.13-.03.23-.37,0-.32Z"/>
    <path class="cls-1" d="M115.88,59.5c-.05-.17-.24-.3-.4-.17.16.05.31.2.4.17Z"/>
    <polygon class="cls-1" points="93.73 56.17 93.89 56.07 93.6 56.14 93.73 56.17"/>
  </g>
  <g>
    <path class="cls-1" d="M3.73,28.68C-.58,27.91-.17,22.23.25,18.99c.6-4.91,1.98-9.68,3.28-14.42.12-.46.8-3.09.96-3.55C4.79.22,5.5-.09,6.16.02c1.72.31,1.43,2.16,1.21,3.41-1.27,5.92-3.2,11.73-3.88,17.75-.14,1.03-.33,3.66.38,4.44.13.15.4.27.71.33,1.72.31,3.97-.46,5.57-1.02.78-.27,4.71-1.87,5.55-2.04,1.33-.21,1.8,1.7.54,2.16-.39.13-.74.27-1.09.41-2.07.96-4.16,2-6.39,2.7-1.58.48-3.38.81-5.03.51Z"/>
    <path class="cls-1" d="M23.58,24.96c-3.06-.55-5.2-3.24-4.92-6.39.01-.08-.11-.3-.13-.39-.25-.65-.02-1.22.59-1.47.36-.87.83-1.71,1.44-2.41,1.18-1.41,3.38-2.35,5.18-2.02.39.07.81.23,1.17.45,2.08,1.26,1.83,4.21-.16,5.64-1.4,1.04-3.33,1.39-5.04,1.24.22,1.46,1.39,2.64,2.88,2.9.9.16,1.83-.04,2.69-.33.13-.06.3-.11.46-.08,1.22-.02,1.51,1.73.35,2.13-.95.35-1.96.78-2.98.84-.49.03-1.01-.02-1.52-.11ZM22.23,17.11c1.02-.06,2.17-.14,2.94-.81.24-.2.56-.67.54-.96-.05-.17-.31-.3-.51-.29-1.32-.08-2.36.99-2.96,2.06Z"/>
    <path class="cls-1" d="M35.77,33.46c-.31-.06-.61-.23-.85-.44-1.16-1.22-1.59-2.43-1.9-4.06-.49-2.88-.15-5.89.17-8.83-.59-.11-1.17-.21-1.7-.43-1.18-.42-.88-2.1.38-2.12.52.01,1.09.03,1.64.09.43-3.08,1.09-6.08,1.91-9.04.12-.46.77-2.49,1-2.89.35-.58.92-.85,1.43-.75.51.09.97.46,1.09,1.13.15.72-.56,3.54-.69,4.29-.52,2.46-1.01,4.96-1.34,7.45.48.04,3.14.32,3.63.29,1.26-.06,1.73,1.65.65,2.26-.81.46-3.73.26-4.61.18-.3,2.82-.71,6.43-.16,9.2.12.47.28.94.43,1.41.47.33.6.92.44,1.41-.25.68-.9.97-1.53.86Z"/>
    <path class="cls-1" d="M45.46,10.56c-.75-.13-1.44-1.23-1.47-1.92-.08-.7.02-1.49.38-2.12.34-.55,1.22-1.2,1.89-1.08.98.18,1.28,1.65.18,2.14-.08.03-.1.1-.11.18-.07.15-.1.55-.04.68.03.05.21.2.24.25.6.92-.16,2.03-1.06,1.87Z"/>
    <path class="cls-1" d="M48.5,31.3c-1.41-.25-3.24-1.11-3.51-2.74-.19-.97.88-1.74,1.76-1.22.26.13.42.36.68.49.37.19,1.91.42,2.35.42-.45-1.78-1.59-3.32-2.35-4.95-.5-1.02-.86-2.18-.7-3.32.11-.83.62-1.67,1.25-2.24,1.01-.87,2.37-1.23,3.58-1.02,1.57.28,2.59,1.32,2.56,2.89.02.81-.69,1.17-1.28,1.06-.43-.08-.82-.39-.88-.97-.63-.11-1.02-.18-1.58.2-.13.06-.42.29-.44.41-.1.31.21,1.09.32,1.35.84,1.65,1.85,3.21,2.47,4.94.26.78.43,1.65.28,2.48-.39,2.2-2.64,2.56-4.53,2.22Z"/>
    <path class="cls-1" d="M65.7,45.43c-.55-.54-.76-1.43-.78-2.2-.07-.98.07-1.97.2-2.92.69-5.22,1.79-10.4,3.3-15.43.33-1.15,1.4-4.85,2.3-5.62.33-.26.67-.33,1.02-.26.75.13,1.31.84,1.03,1.68-.54,1.4-2.39,9.04-2.71,10.56,0,.04.28.05.33-.02,1.18-2.74,4.4-9.65,7.93-9.01,1.69.3,2.9,2.3,3.08,4.27.11.95.14,1.93-.1,2.81-.96,3.79-4.38,7.06-8.54,6.32-.35-.06-.74-.17-1.08-.32-.87,2.15-1.63,4.36-2.36,6.58-.43,1.26-1.05,3.82-2.4,3.9-.41.05-.92-.04-1.23-.34ZM72.86,32.6c.35.06.69-.04,1.07-.09,2.26-.4,4.13-2.5,4.29-4.73.08-.88.01-1.86-.56-2.53-1.68.79-4.05,5.66-4.8,7.35Z"/>
    <path class="cls-1" d="M84.02,41.2c-2.39-.43-.8-9.29-.5-10.97.43-2.39,2.46-13.48,3.71-14.79.28-.23.66-.33,1.02-.26.16.03.27.09.42.16.07.05.15.07.22.12.51.29.71.98.42,1.49-.1.1-.09.27-.07.39-.29,2.5-3.13,16.96-3.49,19.44-.13.95-.18,1.91-.27,2.86-.06.31-.04.68-.22.97-.29.47-.77.67-1.24.59Z"/>
    <path class="cls-1" d="M91.64,39.13c-.94-.17-1.86-.9-2.28-1.71-.77-1.56-.66-3.52-.2-5.17.73-2.7,3.32-6.57,6.27-7.21.46-.08.91-.08,1.34,0,.39.07.73.21,1.06.39.41.19.75.58.95,1.02.28-.19.61-.21.92-.16.35.06.72.25.9.61.24.45.21,1.05.08,1.59-.29,1.4-.67,2.83-.89,4.29-.21,1.42-.19,2.84-.19,4.21.01.16-.04.92-.03,1.09.15.96-.64,1.54-1.39,1.41-.31-.06-.61-.23-.82-.59-.42-.6-.74-2.85-.78-3.54-1.01,1.56-2.73,4.16-4.93,3.77ZM92.26,36.33c.48-.2,1.53-1.51,1.84-1.89,1.24-1.72,2.22-3.61,3.2-5.45-.28-.25-.41-.64-.46-1.01-.69,0-1.35.53-1.83.96-1.5,1.35-2.61,3.29-2.89,5.27-.09.71-.19,1.5.14,2.13Z"/>
    <path class="cls-1" d="M109.08,52.86c-2.47-.44-2.07-4.94-1.76-6.67.37-2.04.85-4.06,1.37-6.07-.72.84-1.44,1.72-2.39,2.24-.54.31-1.22.47-1.8.36-.67-.08-1.36-.57-1.78-1.13-.94-1.3-1.22-3.09-1.09-4.73.22-2.59.77-5.2,1.8-7.57.4-.86.95-1.89,2.04-1.7.51.09.89.44,1,.99.09.62-.15,1.31-.35,1.96-.36,1.35-.61,2.72-.86,4.09-.27,1.49-.62,3.65-.11,5.12,2.18-1.31,5.13-6.28,6.17-8.48.33-.71.45-1.62,1.04-2.16.34-.34.73-.44,1.12-.37.67.12,1.21.7,1.19,1.51-.04.48-.2.89-.32,1.36-.92,3.31-4.81,15.73-4.16,19.12,0,.04.1.1.14.15.77.91-.14,2.16-1.24,1.96Z"/>
    <path class="cls-1" d="M137.04,53.51c-.39-.07-.79-.3-1.05-.67-1.79-2.43-1.46-6.78-1.11-9.59-1,1.76-3.11,5.39-5.39,4.98-2.59-.46-2.94-4.58-2.74-6.6.12-1.35.56-2.65,1.13-3.84,1.31-2.8,4.16-6.25,7.65-5.63.47.08.89.24,1.24.51.33-1.4,1.57-6.96,2.39-8.11.27-.4.66-.53,1.05-.46.51.09.96.5,1.01,1.11,0,.2-.13,1.19-.17,1.39-.11.83-1.05,5.64-1.24,6.45-.7,3.68-1.32,7.37-1.79,11.09-.3,2.37-.47,4.85.04,7.21.64.48.72,1.38.11,1.88-.33.26-.75.35-1.14.28ZM130.09,45.39c.38-.34.74-.76,1.02-1.19,1.71-2.32,3.06-4.87,4.07-7.56.08-.19.43-1.26.5-1.45.12-.22-.28-.25-.49-.21-1.04.14-1.92.54-2.62,1.31-1.2,1.28-2.18,2.89-2.65,4.62-.38,1.43-.39,3.09.17,4.48Z"/>
    <path class="cls-1" d="M145.12,47.76c-2.2-.39-3.66-3.04-3.44-5.63.18-2.11,1-4.23,2.02-6.07.36-.62.74-1.2,1.23-1.68.29-.23.65-.45,1.02-.5.45-.04.92.08,1.27.35.18.15,1.15.37,1.38.45,2.31.86,3.9,3.05,3.57,5.58-.29,2.54-2.99,6.5-5.37,7.37-.61.22-1.18.23-1.68.14ZM146.51,44.53c.05-.07.43-.37.48-.44.95-1,1.81-2.18,2.25-3.52.17-.5.19-1.06.08-1.56-.18-.56-.54-1.03-1-1.43-.47.12-1.46-.42-1.81-.73-.71,1.49-1.43,3.02-1.73,4.67-.1.79-.17,1.63.09,2.4.11.3.44.93.71,1.02.23.08.69-.24.92-.4Z"/>
    <path class="cls-1" d="M163.07,58.19c-.39-.07-.79-.3-1.05-.67-1.79-2.43-1.46-6.78-1.11-9.59-1,1.76-3.11,5.39-5.39,4.98-2.59-.46-2.94-4.57-2.74-6.6.12-1.35.56-2.65,1.13-3.84,1.31-2.8,4.16-6.25,7.65-5.63.47.08.89.24,1.24.51.33-1.4,1.57-6.96,2.39-8.11.27-.4.66-.53,1.05-.46.51.09.96.5,1.01,1.11,0,.2-.13,1.19-.17,1.39-.11.83-1.05,5.64-1.24,6.45-.7,3.68-1.32,7.37-1.79,11.09-.3,2.37-.47,4.85.04,7.21.64.48.72,1.38.11,1.88-.33.26-.75.35-1.14.28ZM156.11,50.06c.38-.34.74-.76,1.02-1.19,1.71-2.32,3.06-4.87,4.07-7.56.07-.19.43-1.26.5-1.45.12-.22-.28-.25-.49-.21-1.04.14-1.92.55-2.62,1.31-1.2,1.28-2.18,2.89-2.65,4.62-.38,1.43-.39,3.09.17,4.48Z"/>
    <path class="cls-1" d="M170.5,67.29c-1.29-.23-2.47-1.13-3.11-2.26-.13-.19-.75-1.23-.83-1.44-.32-.91.47-1.74,1.3-1.59.16.03.27.09.42.16.15.07.29.21.42.36.5.58,1.73,1.85,2.47,1.78,2.72-.28,5.32-12.28,5.78-14.38-1.45,2-4.05,5.22-6.91,4.71-.35-.06-.73-.21-1.06-.39-1.44-.75-2-2.58-1.81-4.13.09-1.16.53-2.25,1.1-3.2,1.6-2.83,6.44-7.95,9.82-7.34.51.09,1,.26,1.44.54.14-.34.28-.68.5-.96.36-.42.83-.58,1.3-.49.67.12,1.28.76,1.28,1.65-.01.52-.22,1.01-.31,1.48-.15.62-.97,4.28-1.08,4.87-.79,3.94-1.55,7.97-2.85,11.79-1.14,3.19-3.43,9.66-7.86,8.87ZM170.67,51.46c.51.09.97-.19,1.34-.49,2.57-1.93,4.9-5.67,6.35-8.53-.04,0-.4-.03-.49,0-1.86.23-6.24,4.79-7.1,6.86-.22.57-.41,1.18-.32,1.76.02.12.09.38.21.4Z"/>
    <path class="cls-1" d="M188.21,54.53c-3.06-.55-5.2-3.24-4.92-6.39.01-.08-.11-.3-.13-.39-.25-.65-.02-1.22.59-1.47.36-.87.83-1.71,1.44-2.41,1.18-1.41,3.38-2.35,5.18-2.02.39.07.81.23,1.17.45,2.08,1.26,1.83,4.21-.16,5.64-1.4,1.04-3.32,1.39-5.04,1.24.22,1.46,1.39,2.64,2.88,2.9.9.16,1.83-.04,2.69-.33.13-.06.3-.11.46-.08,1.22-.02,1.51,1.73.35,2.13-.95.36-1.96.78-2.98.84-.49.03-1.01-.02-1.52-.11ZM186.87,46.68c1.02-.06,2.17-.14,2.94-.81.24-.2.57-.67.54-.96-.05-.17-.31-.3-.51-.29-1.32-.08-2.36.99-2.96,2.06Z"/>
    <path class="cls-1" d="M196.91,61.51c-1.72-.31-1.68-3.05-1.6-4.38.13-4.35.87-8.66,1.79-12.91.25-.93,1.46-5.89,1.83-6.79.27-.84.75-1.93,1.85-1.73.9.16,1.13.89,1.11,1.7-.07,1.77-2.07,11.08-2.34,12.81.52-1.12,1.06-2.28,1.7-3.38.92-1.53,2.4-3.45,4.44-3.09.75.09,1.47.59,1.93,1.2.62.8.96,1.87,1.06,2.9.12,1.56-.09,3.22-.67,4.65-1.02,2.53-3.76,5.19-6.39,4.72-.67-.12-1.23-.34-1.76-.8-.37,1.15-.7,2.3-1.06,3.45-.27.8-.85,1.83-1.88,1.65ZM201.86,54.19c1.25.23,2.77-1.24,3.41-2.79.42-.98.65-2.03.67-3.08.02-.56,0-1.13-.27-1.63-.11-.26-.38-.59-.63-.52-1.56.37-3.67,5.81-4.21,7.21l.03.05c.29.42.65.68,1,.75Z"/>
    <path class="cls-1" d="M211.97,60.74c-.94-.17-1.86-.9-2.28-1.71-.77-1.55-.66-3.52-.2-5.17.73-2.7,3.32-6.57,6.27-7.21.46-.08.91-.08,1.34,0,.39.07.73.21,1.06.39.41.19.75.58.95,1.02.28-.19.61-.22.92-.16.35.06.72.25.9.61.24.45.22,1.05.08,1.59-.29,1.4-.67,2.83-.89,4.29-.21,1.42-.19,2.84-.19,4.21.01.16-.04.92-.03,1.09.15.96-.64,1.54-1.38,1.41-.31-.06-.61-.23-.83-.59-.42-.6-.74-2.84-.78-3.54-1.01,1.56-2.73,4.16-4.93,3.77ZM212.6,57.94c.48-.2,1.53-1.51,1.84-1.9,1.24-1.72,2.23-3.61,3.2-5.45-.28-.25-.41-.64-.46-1.01-.69,0-1.35.53-1.83.96-1.5,1.35-2.61,3.29-2.89,5.27-.09.71-.19,1.5.14,2.13Z"/>
    <path class="cls-1" d="M223.65,66.28c-2.39-.43-.8-9.29-.5-10.97.43-2.39,2.46-13.48,3.71-14.79.28-.23.66-.33,1.02-.26.16.03.27.09.42.16.07.05.15.07.22.12.51.29.71.98.42,1.49-.1.1-.09.27-.07.39-.29,2.5-3.13,16.96-3.49,19.44-.13.95-.18,1.91-.27,2.86-.06.31-.04.68-.22.97-.29.47-.77.67-1.24.59Z"/>
    <path class="cls-1" d="M230.35,67.48c-2.39-.43-.8-9.29-.5-10.97.43-2.39,2.46-13.48,3.71-14.79.28-.23.66-.33,1.02-.26.16.03.27.09.42.16.07.05.15.07.22.12.51.29.71.98.42,1.49-.1.1-.09.27-.07.39-.29,2.5-3.13,16.96-3.49,19.44-.13.95-.18,1.91-.27,2.87-.06.31-.04.68-.22.97-.29.47-.77.67-1.24.59Z"/>
    <path class="cls-1" d="M238.26,69.59c-.2-.04-.42-.16-.6-.27-.93-.65-.99-3.29-.99-4.43-.02-.57.09-1.16.45-1.58.3-.35.69-.48,1.09-.41.47.08.96.5,1.14,1.1.37,1.32.24,2.71.48,4.05.15,1-.71,1.69-1.57,1.54ZM239.18,58.63c-1.22-.22-1.88-1.92-1.85-3,.06-.8.21-1.62.36-2.44.29-1.37,2.36-9.33,2.73-10.68.22-.77.55-1.72,1.53-1.55.98.18.99,1.27.92,2.07-.36,2.48-.89,4.98-1.42,7.47-.2.89-1.19,5.05-1.16,5.98-.02.12.08.22.15.31.53.9-.32,2.01-1.26,1.84Z"/>
  </g>
</svg>