<?xml version="1.0" encoding="UTF-8"?>
<svg id="Layer_1" data-name="Layer 1" xmlns="http://www.w3.org/2000/svg" viewBox="0 0 179.96 150.75">
  <defs>
    <style>
      .cls-1 {
        fill: #010101;
      }
    </style>
  </defs>
  <path d="M22.47,19.73c.13.05,0,.44.2.39l.23-.5c2.5.42,5.2-.37,7.68-.24,1.5.08,3.01,1.07,2.1,2.66-1.93,2.23-4.89,4.21-6.75,6.42-1.03,1.22-.29,2.29.17,3.66.69,2.05,2.14,4.78,2.6,6.78.53,2.31-.7,2.75-2.82,2.47-2.44-1.28-4.78-3.66-7.16-4.89-.56-.29-1.12-.59-1.78-.51l-7.88,6.55c-5.29,2.12-1.92-6.25-1.42-8.72.23-1.12.45-2.26.56-3.39-.25-.8-5.24-3.88-6.26-4.68-1.13-.89-2.67-1.91-1.53-3.47,1.37-1.88,9.09-.75,10.34-1.8,1.02-.85,2.37-8.73,3.56-10.75.79-1.34,2.3-1.87,3.25-.35,1.63,2.61,2.31,7,3.71,9.85.21.61.78.35,1.21.52Z"/>
  <path d="M45.01,26.14l-7.44-4.82c-1.14-1.15-.8-2.76.78-3.23,1.82-.55,8.72-.43,9.55-1.11.44-.64.61-1.41.84-2.13.59-1.86,1.78-8.13,2.84-9.17,1.02-1,2.25-.38,2.93.68,1.12,1.76,3.06,9.23,4.34,9.88,1.28.65,7.13-.59,9.36-.15,1.39.27,2.2,1.6,1.28,2.83-1.12,1.51-4.18,3.49-5.65,4.96-.29.29-1.56,1.65-1.59,1.89l3.64,10.35c0,1.4-.94,1.96-2.28,1.84-1.02-.1-5.58-3.61-6.92-4.41-.59-.35-1.84-1.25-2.43-1.23-1.19.04-6.44,5.75-8.1,6.68-1.09.61-2.6.62-3.03-.77-.53-1.72,2.17-8.77,2.39-10.99l-.51-1.09Z"/>
  <path d="M103.64,20.51c-.94.98-4.91,4.29-5.07,5.33.62,1.94,1.28,3.9,1.98,5.81.56,1.53,3.3,5.81,0,6.06-2.29.17-7.59-5.3-10.21-5.85-.73.15-5.97,5.59-7.39,6.52-1.94,1.26-3.16.63-3.18-1.68,0-.79.8-3.96,1.03-5,.15-.68.48-1.56.64-2.33.38-1.85,1.25-2.53-.56-3.94s-4.48-2.82-6.22-4.4-1.15-2.7.85-3.45l8.8-.82c.8-.55,2.4-8.59,3.04-10.17.75-1.86,2.43-2.68,3.57-.62.88,1.59,2.91,9.35,3.69,9.87.22.18.47.16.73.18,1.97.13,9.05-1.14,10.34,0,1.51,1.34-1.05,3.5-2.01,4.5Z"/>
  <path d="M175.03,17.38c-.85.82-2.98,2.39-2.92,3.51.53,3.03,3.39,6.87,3.85,9.7.21,1.31-.66,2.11-1.98,2.01-1.7-.13-6.18-3.92-8.29-4.87-1.9-.85-2.02-.57-3.62.65-1.91,1.45-3.79,3.83-5.7,5.14-.81.55-1.77.75-2.53-.03-.86-.89-.07-3.68.18-4.88.35-1.66,1.87-5.79,1.36-7.2-.17-.48-5.93-4.08-6.93-4.91-.73-.61-1.53-1.04-1.42-2.12.12-1.21,1.13-1.48,2.14-1.66,2.06-.37,5.52-.64,7.68-.76.37-.02.69.14,1.05.14-.39-.61.29-.77.49-1.22,1.26-2.96,1.46-6.77,2.58-9.84,1.38-1.89,2.54-.9,3.48.68.99,1.68,3.1,8.37,4.17,9.07,1.31.87,7.53-.62,9.65-.15,1.05.23,2.1,1.11,1.54,2.23-.43.87-3.8,3.57-4.78,4.51Z"/>
  <path d="M137.88,29.63s.33.04.38.2c.38,1.14,1.02,2.85-.63,3.34-.99.29-1.57.05-2.42-.39-2.14-1.1-4.41-3.07-6.57-4.31-.42-.24-1.73-1.12-2.1-1.03l-7.92,6.93c-2.75.8-2.88-1.06-2.44-3.23.5-2.48,1.95-5.88,2.23-8.19.06-.48.05-.85-.24-1.26l-7.59-5.53c-.76-.96.14-2.38,1.17-2.74,1.97-.68,8.37-.38,9.29-1.45.67-.78,1.92-7.48,2.62-9.26.36-.91.29-1.36,1.24-1.78.92-.4,1.79.21,2.29,1,1.29,2.05,1.95,6,3.08,8.3.17.35.73,1.14,1.05,1.31,1,.54,5.91-.26,7.48-.25,1.95,0,4.27.2,3.11,2.74l-7.02,6.85c-.17.76,2.45,6.62,2.92,7.91.13.35-.01.64.05.82Z"/>
  <g>
    <path class="cls-1" d="M15.31,72.01c-.79.07-1.09-.58-1.31-1.21-.27-.86-.77-3.77-.52-4.63.12-.49.53-.81.97-.84.2-.02.4,0,.57.11.54.23,1.05.99.86,1.56,0,.04-.1.21-.09.29.08.47.28,2.7.47,3.12.39.81-.22,1.54-.94,1.6ZM19.36,70.77c-.44.04-.85-.16-1.06-.67-.2-.46-.36-.93-.52-1.39-.51-.35-.59-1.23-.35-1.77.21-.38.54-.61.9-.64.4-.04.81.17,1.09.54.27.34.82,2.09.94,2.48.27.82-.36,1.39-.99,1.45Z"/>
    <path class="cls-1" d="M25.88,94.99c-.86-.24-1.07-1.27-.66-2.1.17-.33.51-.56.87-.6.24-.02.44.04.65.14.08.03.47-.16.46-.24-.96-2.75-1.46-5.67-1.79-8.56-.4-3.68-.53-7.39-.61-11.1-.02-1.16,0-2.32.06-3.48-.35.07-.78.23-1.18.26-.28.02-.56-.03-.81-.17-.84-.49-.59-1.75.33-2.11,1.32-.48,2.72-.96,4.11-1,.75-.07,1.57.06,2.16.49.94.68.46,2.08-.57,2.17-.12.01-.28-.01-.44-.04-.28-.05-.6-.03-.92,0,.14.67.41,4.24.43,4.92.21,2.82.38,5.68.66,8.5.28,3.17.79,6.29,1.42,9.43.63-.13,1.31-.15,1.94-.25,1.07-.09,1.7,1.17.97,1.95-.45.4-2.45.77-3.04.91-.04,0-.27.14-.31.15-.16.05-.32-.01-.48.04-.59.13-2.65.83-3.26.69Z"/>
    <path class="cls-1" d="M50.07,91.43c-.4.03-.8-.05-1.19-.3-1.87-1.28-2.26-6.64-2.38-8.91-.18-3.38-.15-6.74-.17-10.14.01-.8.03-4.68.24-5.5.19-.58.67-.98,1.19-1.02.32-.03.65.1.91.36,0,.04.13.15.17.15.27.3.35.77.26,1.14.34,2.09.41,4.2.47,6.31.19,4.02.19,8.1.66,12.1.83-2.83,1.58-5.7,2.78-8.44.4-.95.87-1.96,1.64-2.7.33-.27.71-.54,1.14-.66.63-.13,1.28,0,1.79.36,2.13,1.53,3.01,7.01,3.26,9.39.1.67.07,1.31-.07,1.96-.1.65-.53,1.29-1.24,1.35-.87.08-1.26-.65-1.4-1.4-.36-1.81-.64-3.66-1.08-5.46-.25-.98-.45-1.96-.89-2.88-.49.8-.81,1.67-1.18,2.54-1.21,3.1-1.75,6.51-2.91,9.69-.19.58-.46,1.16-.9,1.56-.29.3-.68.46-1.12.5Z"/>
    <path class="cls-1" d="M66.45,86.72c-.95.08-2.03-.38-2.65-1.05-1.15-1.3-1.56-3.22-1.55-4.94,0-2.8,1.49-7.21,4.16-8.6.42-.2.85-.31,1.29-.35.4-.03.76.01,1.13.1.45.08.87.36,1.18.74.22-.26.53-.37.84-.39.36-.03.76.05,1.03.35.35.37.48.96.49,1.52.08,1.43.09,2.91.26,4.37.17,1.43.56,2.79.92,4.12.05.16.2.9.25,1.06.4.88-.21,1.66-.97,1.72-.32.03-.65-.06-.95-.36-.56-.47-1.46-2.55-1.68-3.21-.57,1.77-1.54,4.73-3.77,4.93ZM66.32,83.85c.41-.32,1.08-1.85,1.28-2.31.75-1.98,1.2-4.06,1.66-6.1-.33-.17-.56-.51-.71-.86-.66.18-1.16.86-1.52,1.41-1.09,1.7-1.66,3.86-1.41,5.84.1.71.21,1.5.7,2.02Z"/>
    <path class="cls-1" d="M88.57,90.94c-.4.04-.85-.09-1.19-.38-2.36-1.87-3.18-6.16-3.58-8.96-.51,1.96-1.59,6.02-3.89,6.22-2.62.23-4.04-3.64-4.37-5.65-.24-1.34-.16-2.71.09-4.01.53-3.04,2.38-7.12,5.91-7.43.48-.04.92,0,1.33.16-.04-1.43-.3-7.13.18-8.45.16-.45.5-.68.9-.72.52-.05,1.06.23,1.27.81.06.19.18,1.18.2,1.38.11.83.46,5.72.49,6.55.29,3.73.65,7.46,1.18,11.17.33,2.37.82,4.8,1.93,6.95.75.29,1.06,1.15.59,1.79-.25.34-.63.53-1.03.57ZM79.73,84.92c.28-.42.52-.93.68-1.42,1.04-2.69,1.68-5.5,1.95-8.37.02-.2.08-1.33.11-1.53.06-.25-.33-.17-.53-.07-.96.4-1.71,1.03-2.19,1.95-.82,1.55-1.35,3.36-1.35,5.15,0,1.48.43,3.08,1.33,4.28Z"/>
    <path class="cls-1" d="M106.48,83.14c-1.43.12-3.42-.22-4.11-1.72-.44-.88.39-1.91,1.38-1.64.29.05.5.24.79.29.41.08,1.95-.09,2.38-.21-.9-1.6-2.4-2.79-3.56-4.17-.76-.85-1.4-1.88-1.54-3.02-.11-.83.17-1.77.62-2.49.74-1.1,1.96-1.81,3.19-1.92,1.59-.14,2.85.59,3.22,2.12.23.78-.37,1.31-.96,1.36-.44.04-.89-.16-1.1-.7-.64.05-1.03.09-1.47.61-.11.09-.33.39-.32.51-.01.32.49,1,.67,1.22,1.24,1.37,2.63,2.61,3.68,4.12.46.68.85,1.48.92,2.32.2,2.22-1.88,3.16-3.79,3.33Z"/>
    <path class="cls-1" d="M122.63,81.76c-2.02.18-2.67-4.4-2.87-5.83-.75,1.43-2.13,3.5-3.58,4.31-.46.28-1,.41-1.52.41-1.45-.15-2.19-1.29-2.7-2.52-.73-1.97-.88-4.16-.83-6.24.04-.96.03-1.92.31-2.83.15-.61.67-1.02,1.19-1.06.36-.03.69.06.95.32.18.22.32.49.39.76.12.47.21,2.78.25,3.26.05,1.04.14,2.03.26,3.01.15.79.3,1.61.64,2.34,2.33-1.68,3.59-5.59,4.15-8.28.03-.12-.02-.24,0-.36.05-.8.65-1.29,1.32-1.35,1.27-.11,1.56.98,1.66,2.01.32,2.73.52,5.47,1.11,8.14.09.51.5,2.47.38,3-.15.53-.6.85-1.12.9Z"/>
    <path class="cls-1" d="M129.73,80.3c-1.59.14-3.07-.37-3.92-1.82-.61-1.06-.92-2.32-.99-3.51-.11-2.59.97-9.52,4.3-9.81,1.59-.14,2.28.96,2.6,2.33.89.64.57,1.91-.46,2-.67.06-1.31-.37-1.68-.93-.31.55-.54,1.13-.69,1.74-.43,1.44-.79,2.91-.85,4.43-.02.72.19,2.18.82,2.57.21.14.53.15.89.12.79-.07,1.8-.48,2.29-.76.19-.1,1.06-.61,1.26-.67,1.05-.29,1.92.91,1.28,1.81-.25.34-1.53,1.25-1.87,1.48-.91.56-2,.94-2.99,1.02Z"/>
    <path class="cls-1" d="M140.13,83.55c-.4.04-.8-.05-1.19-.3-1.87-1.27-2.26-6.64-2.38-8.91-.18-3.38-.15-6.74-.17-10.14.01-.8.03-4.68.24-5.5.19-.58.67-.98,1.19-1.02.32-.03.65.1.91.36,0,.04.13.15.17.14.27.3.35.77.26,1.14.34,2.09.41,4.2.47,6.32.19,4.02.19,8.1.66,12.09.83-2.83,1.58-5.69,2.78-8.44.4-.96.87-1.96,1.64-2.7.34-.27.71-.54,1.14-.66.63-.13,1.28,0,1.79.36,2.13,1.53,3.01,7.01,3.26,9.39.1.67.07,1.31-.07,1.97-.1.65-.53,1.28-1.24,1.35-.87.08-1.26-.65-1.4-1.4-.36-1.81-.64-3.66-1.08-5.46-.25-.98-.45-1.96-.89-2.88-.49.8-.81,1.67-1.18,2.54-1.21,3.1-1.75,6.51-2.91,9.69-.19.58-.46,1.16-.9,1.56-.29.31-.68.46-1.11.5Z"/>
    <path class="cls-1" d="M168.41,77.8c-.95.08-2.03-.38-2.65-1.05-1.15-1.3-1.56-3.22-1.55-4.94,0-2.8,1.49-7.21,4.16-8.6.42-.2.85-.31,1.29-.35.4-.03.76.01,1.13.1.45.08.87.36,1.18.74.22-.26.53-.37.84-.39.36-.03.76.05,1.03.35.35.37.48.96.49,1.52.08,1.43.09,2.91.26,4.37.17,1.43.56,2.79.92,4.12.05.16.2.9.25,1.06.4.88-.21,1.66-.97,1.72-.32.03-.64-.06-.95-.36-.56-.47-1.46-2.55-1.68-3.21-.56,1.77-1.54,4.73-3.77,4.93ZM168.28,74.93c.41-.32,1.08-1.85,1.28-2.31.75-1.98,1.2-4.06,1.67-6.1-.33-.17-.56-.51-.71-.86-.66.18-1.16.86-1.51,1.41-1.09,1.7-1.66,3.86-1.41,5.84.1.71.21,1.5.7,2.02Z"/>
    <path class="cls-1" d="M41.25,150.73c-1.31.12-2.68-.45-3.6-1.36-.17-.15-1.05-.99-1.18-1.18-.55-.79,0-1.8.84-1.87.16-.01.28.02.44.04s.33.13.5.24c.64.42,2.15,1.33,2.85,1.07,2.55-.98,1.92-13.24,1.81-15.39-.88,2.32-2.54,6.1-5.44,6.35-.36.03-.76-.01-1.13-.1-1.59-.34-2.61-1.97-2.83-3.51-.22-1.14-.08-2.31.22-3.38.8-3.15,4.14-9.36,7.55-9.66.52-.05,1.04-.01,1.53.15.05-.36.1-.73.23-1.06.24-.5.65-.78,1.13-.82.67-.06,1.44.39,1.67,1.25.12.51.05,1.04.09,1.51.02.64.18,4.38.24,4.98.27,4.01.59,8.1.34,12.12-.26,3.38-.79,10.22-5.27,10.62ZM37.27,135.41c.52-.04.88-.44,1.17-.82,1.98-2.53,3.25-6.76,3.89-9.89-.04,0-.39.07-.47.12-1.74.71-4.77,6.25-5.05,8.48-.07.61-.09,1.25.16,1.79.05.12.19.34.31.33Z"/>
    <path class="cls-1" d="M51.04,133.72c-.36.03-.77-.09-1.07-.39-.52-.47-.67-1.26-.85-1.96-.55-2.67-.95-5.39-1.15-8.13-.08-.95,0-2.28,1.19-2.38.48-.04,1.02.19,1.26.73.05.08.09.11.14.19.22.22.33.53.31.85,0,.04-.06.24-.06.29.22,1.14.4,2.32.54,3.47.06-.21.46-1.12.52-1.33.72-1.34,1.56-2.7,3.19-2.84.79-.07,2.09.14,2.5.7.46.68.1,1.59-.64,1.78-.35.11-.77-.09-1.13-.06-1.15.1-2.13,3.03-2.41,3.97-.15.53-1,3.68-1.19,4.22-.19.54-.64.86-1.16.9Z"/>
    <path class="cls-1" d="M65.87,132.83c-3.1.27-5.87-1.76-6.42-4.88,0-.08-.18-.26-.23-.34-.41-.56-.34-1.17.18-1.58.12-.93.36-1.87.76-2.71.77-1.67,2.64-3.15,4.47-3.31.4-.04.84,0,1.25.13,2.34.68,2.87,3.59,1.32,5.48-1.08,1.37-2.85,2.21-4.54,2.52.6,1.35,2.03,2.18,3.54,2.05.91-.08,1.75-.51,2.51-1.02.11-.09.26-.18.42-.2,1.17-.34,1.91,1.27.89,1.96-.83.59-1.69,1.27-2.66,1.59-.46.16-.98.25-1.49.29ZM62.52,125.6c.97-.33,2.06-.7,2.62-1.55.18-.25.37-.79.27-1.06-.09-.15-.38-.21-.57-.15-1.29.27-2.02,1.58-2.32,2.76Z"/>
    <path class="cls-1" d="M75.68,133.89c-.95.08-2.03-.38-2.65-1.05-1.15-1.3-1.56-3.22-1.55-4.94,0-2.8,1.49-7.21,4.16-8.6.42-.2.85-.31,1.29-.35.4-.03.76.01,1.13.1.45.08.87.36,1.18.74.22-.26.53-.37.84-.39.36-.03.76.05,1.03.35.35.37.48.96.49,1.52.08,1.43.09,2.91.26,4.38.17,1.42.56,2.79.92,4.12.05.16.2.9.25,1.06.4.88-.21,1.66-.97,1.72-.32.03-.65-.06-.95-.36-.56-.47-1.46-2.55-1.68-3.21-.56,1.77-1.54,4.73-3.77,4.93ZM75.55,131.02c.41-.32,1.08-1.85,1.28-2.31.75-1.98,1.2-4.06,1.66-6.1-.33-.17-.56-.51-.71-.86-.66.18-1.16.86-1.52,1.41-1.09,1.7-1.66,3.86-1.41,5.84.1.71.21,1.5.7,2.02Z"/>
    <path class="cls-1" d="M92.6,136.72c-.32.03-.64-.06-.94-.2-1.44-.87-2.17-1.93-2.9-3.42-1.23-2.65-1.69-5.65-2.15-8.57-.6.05-1.19.1-1.76.03-1.25-.09-1.4-1.8-.19-2.14.51-.12,1.06-.25,1.61-.34-.39-3.08-.54-6.15-.53-9.23,0-.48.09-2.61.21-3.06.18-.66.67-1.06,1.18-1.1.52-.04,1.06.19,1.35.8.34.65.39,3.56.46,4.32.14,2.51.32,5.05.66,7.54.47-.08,3.11-.51,3.58-.67,1.21-.39,2.1,1.13,1.22,2.01-.66.66-3.53,1.23-4.4,1.38.45,2.8,1,6.39,2.26,8.92.24.42.51.83.79,1.25.54.19.82.73.79,1.25-.06.72-.62,1.17-1.25,1.23Z"/>
    <path class="cls-1" d="M121.96,135.99c-.4.03-.85-.09-1.19-.38-2.36-1.87-3.18-6.16-3.58-8.96-.51,1.96-1.59,6.02-3.89,6.22-2.62.23-4.04-3.65-4.37-5.65-.24-1.34-.16-2.71.09-4.01.53-3.04,2.38-7.12,5.91-7.43.48-.04.92,0,1.33.16-.04-1.44-.3-7.13.18-8.45.16-.45.5-.68.9-.72.52-.04,1.06.23,1.27.81.06.2.18,1.18.2,1.38.11.83.46,5.72.49,6.55.29,3.73.65,7.46,1.18,11.17.33,2.37.82,4.8,1.93,6.95.75.29,1.06,1.15.59,1.79-.25.34-.63.54-1.03.57ZM113.11,129.97c.28-.42.52-.92.68-1.42,1.04-2.69,1.68-5.5,1.95-8.37.02-.2.08-1.33.11-1.53.06-.24-.33-.17-.53-.07-.96.4-1.71,1.03-2.19,1.95-.82,1.55-1.35,3.36-1.35,5.16.01,1.48.43,3.08,1.33,4.28Z"/>
    <path class="cls-1" d="M127.57,129.35c-.95.08-2.03-.38-2.65-1.05-1.15-1.3-1.56-3.22-1.55-4.94,0-2.8,1.49-7.21,4.16-8.6.42-.2.85-.31,1.29-.35.4-.04.76.01,1.13.1.45.08.87.36,1.18.74.22-.26.53-.37.85-.39.36-.03.76.05,1.03.35.35.37.48.96.49,1.52.08,1.43.09,2.91.26,4.38.17,1.42.56,2.79.92,4.12.05.15.2.9.25,1.06.4.88-.21,1.66-.97,1.72-.32.03-.65-.06-.95-.36-.56-.47-1.46-2.55-1.68-3.21-.57,1.77-1.54,4.73-3.77,4.93ZM127.44,126.48c.41-.32,1.08-1.85,1.28-2.31.75-1.98,1.2-4.06,1.66-6.1-.33-.17-.56-.51-.71-.86-.66.18-1.16.86-1.52,1.41-1.09,1.69-1.66,3.86-1.41,5.84.1.71.21,1.5.7,2.02Z"/>
    <path class="cls-1" d="M148,138.03c-2.5.22-3.29-4.23-3.44-5.97-.18-2.06-.24-4.14-.26-6.21-.47,1-.94,2.04-1.71,2.79-.44.44-1.05.77-1.65.82-.67.1-1.46-.19-2.01-.62-1.25-1.01-1.99-2.66-2.29-4.28-.46-2.56-.62-5.22-.24-7.77.16-.93.42-2.08,1.53-2.17.52-.04.98.2,1.22.69.25.58.19,1.3.17,1.98,0,1.4.12,2.79.25,4.18.13,1.51.36,3.69,1.24,4.97,1.76-1.83,3.31-7.41,3.74-9.8.13-.77.01-1.68.43-2.36.24-.42.59-.61.98-.65.68-.06,1.35.36,1.54,1.14.08.47.04.92.04,1.4-.02,3.44-.52,16.44.99,19.54,0,.04.12.07.17.1.98.67.43,2.12-.68,2.22Z"/>
    <path class="cls-1" d="M153.27,120.18c-1.23.11-2.32-1.36-2.57-2.41-.15-.79-.22-1.62-.29-2.45-.08-1.39-.16-9.62-.17-11.02,0-.8.08-1.81,1.07-1.89.99-.09,1.29.97,1.43,1.75.3,2.49.44,5.04.58,7.58.04.92.17,5.18.45,6.08,0,.12.14.19.22.26.74.73.22,2.02-.74,2.1ZM155.26,131c-.2.02-.44-.04-.65-.1-1.07-.39-1.82-2.92-2.11-4.01-.17-.54-.22-1.14.02-1.64.2-.42.54-.65.94-.68.48-.04,1.06.23,1.39.76.7,1.18.94,2.55,1.53,3.78.4.92-.24,1.82-1.11,1.9Z"/>
    <path class="cls-1" d="M158.21,106.19c-.2.02-.36,0-.57-.11-.38-.21-.65-.58-.76-.97-.12-.43-.22-2.5-.26-2.94-.07-.75.46-1.2,1.01-1.25.52-.04,1.11.3,1.17,1.06l.21,2.42c0,.08.05.16.1.19.35.77-.19,1.54-.9,1.6ZM162.91,104.22c-.48.04-1.02-.23-1.12-.86-.14-.67-.33-1.45-.14-2.11.15-.53.71-1.06,1.26-1.11.87-.08,1.56.94.99,1.71-.14.21.04.88.06,1.11.1.75-.46,1.2-1.05,1.25Z"/>
  </g>
</svg>