<?xml version="1.0" encoding="UTF-8"?>
<svg id="Layer_1" data-name="Layer 1" xmlns="http://www.w3.org/2000/svg" viewBox="0 0 75 50">
  <defs>
    <style>
      .cls-1 {
        fill: #d40775;
      }

      .cls-2 {
        fill: #010101;
      }

      .cls-3 {
        fill: #141414;
      }

      .cls-4 {
        fill: #fffefe;
      }

      .cls-5 {
        fill: #d50172;
      }

      .cls-6 {
        fill: #fefefe;
      }

      .cls-7 {
        fill: #fffdfe;
      }

      .cls-8 {
        fill: #d50373;
      }
    </style>
  </defs>
  <rect class="cls-3" width="75" height="50" rx="10" ry="10"/>
  <path class="cls-2" d="M21.6,39.63V10.37h18.1c.07,0,.13.02.2.03,5.61.16,11.1,1.77,13.88,7.03,2.02,3.83,2.19,9.44.74,13.48-2.25,6.26-8.23,8.54-14.47,8.72h-18.46ZM22.97,11.78v26.44l.09.04h16.8c6.23-.17,11.99-2.38,13.71-8.9.93-3.53.71-8.22-1.08-11.45-2.67-4.79-7.91-6.03-13.03-6.15-5.45-.13-10.93.04-16.39-.03l-.09.04Z"/>
  <path class="cls-6" d="M22.97,11.78l.09-.04c5.46.07,10.94-.1,16.39.03,5.12.12,10.37,1.36,13.03,6.15,1.8,3.22,2.02,7.92,1.08,11.45-1.73,6.52-7.48,8.73-13.71,8.9h-16.8s-.09-.04-.09-.04V11.78ZM51.9,23.79c-.16-1.98-.68-3.93-1.83-5.56-2.26-3.2-6.3-4.16-10.03-4.31h-7.14v5.41c.98-.02,1.94-.08,2.73.61,1.18,1.03,1.2,3.55.1,4.64-.76.76-1.82.73-2.83.71v10.81h6.89c3.84-.11,8.09-.99,10.38-4.36,1.28-1.87,1.73-4.21,1.76-6.45h-3.69l-.04-.04v-5.92h1.5v4.47h2.21ZM27.41,19.11c-2.38.2-3.69,2.99-2.35,4.97,1.51,2.24,4.99,1.72,5.74-.88.64-2.21-1.12-4.28-3.39-4.1ZM32.89,23.79h1.18c1.11,0,1.18-2.01.66-2.64-.17-.2-.5-.35-.76-.35h-1.08v2.99ZM30.3,26.92h-5.15v9.18h5.15v-9.18Z"/>
  <path class="cls-5" d="M51.9,23.79h-2.21v-4.47h-1.5v5.92l.04.04h3.69c-.02,2.25-.48,4.58-1.76,6.45-2.29,3.37-6.54,4.25-10.38,4.36h-6.89v-10.81c1.01.02,2.07.05,2.83-.71,1.1-1.09,1.08-3.61-.1-4.64-.79-.69-1.74-.63-2.73-.61v-5.4h7.14c3.73.14,7.77,1.11,10.03,4.31,1.15,1.63,1.67,3.58,1.83,5.56ZM40.91,19.33h-3.55v5.96h3.68v-1.5h-2.18v-.81h1.95v-1.46l-.04-.04h-1.92v-.69h2.06v-1.47ZM41.75,25.29h1.55l.33-1.16h1.95s.33,1.16.33,1.16h1.55l-1.79-5.96-2.13.03-1.79,5.94Z"/>
  <rect class="cls-2" x="25.15" y="26.92" width="5.15" height="9.18"/>
  <path class="cls-2" d="M27.41,19.11c2.27-.19,4.02,1.89,3.39,4.1-.75,2.6-4.22,3.11-5.74.88-1.34-1.99-.03-4.78,2.35-4.97Z"/>
  <path class="cls-8" d="M32.89,23.79v-2.99h1.08c.26,0,.6.16.76.35.52.63.45,2.64-.66,2.64h-1.18Z"/>
  <path class="cls-4" d="M41.75,25.29l1.79-5.94,2.13-.03,1.79,5.96h-1.55l-.33-1.15h-1.95s-.33,1.15-.33,1.15h-1.55ZM45.15,22.65l-.48-1.64c-.04-.09-.09-.09-.13,0-.15.37-.31,1.02-.42,1.43-.02.07-.04.13-.04.2h1.07Z"/>
  <polygon class="cls-7" points="40.91 19.33 40.91 20.8 38.86 20.8 38.86 21.49 40.77 21.49 40.81 21.52 40.81 22.98 38.86 22.98 38.86 23.79 41.04 23.79 41.04 25.29 37.36 25.29 37.36 19.33 40.91 19.33"/>
  <path class="cls-1" d="M45.15,22.65h-1.07c0-.07.02-.14.04-.2.11-.41.26-1.06.42-1.43.04-.09.09-.09.13,0l.48,1.64Z"/>
</svg>