<?xml version="1.0" encoding="UTF-8"?>
<svg id="Layer_1" data-name="Layer 1" xmlns="http://www.w3.org/2000/svg" viewBox="0 0 75 50">
  <defs>
    <style>
      .cls-1 {
        fill: #141414;
      }

      .cls-2 {
        fill: #fff;
      }

      .cls-3 {
        fill: #016fd0;
      }
    </style>
  </defs>
  <rect class="cls-1" width="75" height="50" rx="10" ry="10"/>
  <g>
    <polygon class="cls-1" points="57.21 30.98 55.2 28.35 53.24 30.98 47.93 30.98 52.67 25.08 47.83 19.06 53.18 19.06 55.28 21.76 57.38 19.06 62.6 19.06 57.81 25.02 62.56 30.98 57.21 30.98"/>
    <path class="cls-2" d="M60.89,19.87l-4.13,5.14,4.1,5.15h-3.25l-2.42-3.17-2.36,3.17h-3.2l4.09-5.08-4.19-5.21h3.25l2.49,3.22,2.5-3.22h3.11ZM64.3,18.24h-7.32l-.49.63-1.21,1.56-1.2-1.55-.49-.63h-7.46l2.14,2.66,3.36,4.18-3.26,4.06-2.14,2.66h7.43l.49-.66,1.07-1.43,1.1,1.45.49.64h7.44l-2.11-2.65-3.28-4.13,3.31-4.12,2.13-2.66h0Z"/>
    <rect class="cls-1" x="40.46" y="19.27" width="8.99" height="11.45"/>
    <path class="cls-2" d="M49.42,21.52c-.31-1.04,0-2.28.94-2.9v-.41h-11.67v13.56h11.67v-.59c-1.31-.94-1.3-3.17,0-4.1v-.81h-.14v-2.49h.14v-.97s-.22-.16-.24-.19c-.08-.07-.16-.15-.23-.24-.14-.17-.25-.35-.34-.55-.1-.21-.09-.35-.08-.58s.04-.46-.05-.67v.93ZM48.72,22.15h-5.8v1.76h5.66v2.17h-5.66v1.83h5.8v2.23h-8.4v-10.29h8.4v2.31Z"/>
    <polygon class="cls-1" points="35.17 30.95 35.17 27.25 33.84 30.95 30.43 30.95 29.08 27.22 29.08 30.95 24.87 30.95 24.87 19.02 30.36 19.04 32.16 24.05 33.91 19.02 39.38 19.02 39.38 30.95 35.17 30.95"/>
    <path class="cls-2" d="M38.56,19.84v10.29h-2.58v-7.58l-2.72,7.58h-2.26l-2.74-7.58v7.58h-2.58v-10.29l4.1.02,2.39,6.64,2.32-6.65h4.06ZM24.06,18.2v13.57h16.14v-13.56h-6.86l-.38,1.1-.8,2.3-.83-2.29-.39-1.08h-1.14s-4.1-.02-4.1-.02h-1.64Z"/>
    <path class="cls-3" d="M19.25,22.24l-1.46,3.6h2.9l-1.45-3.6ZM19.25,24.43l.24.6h-.48l.25-.6Z"/>
    <path class="cls-2" d="M19.25,22.24l-1.46,3.6h2.9l-1.45-3.6ZM19.25,24.43l.24.6h-.48l.25-.6ZM19.25,22.24l-1.46,3.6h2.9l-1.45-3.6ZM19.25,24.43l.24.6h-.48l.25-.6ZM19.25,22.24l-1.46,3.6h2.9l-1.45-3.6ZM19.25,24.43l.24.6h-.48l.25-.6ZM19.25,22.24l-1.46,3.6h2.9l-1.45-3.6ZM19.25,24.43l.24.6h-.48l.25-.6ZM19.25,22.24l-1.46,3.6h2.9l-1.45-3.6ZM19.25,24.43l.24.6h-.48l.25-.6Z"/>
    <path class="cls-2" d="M27.28,31.05c-.87,0-1.5-.37-1.89-.91h-2.94l-.82-2.06h-4.75l-.82,2.06h-2.88l4.42-10.29h3.36l3.96,9.22c-.1-.55-.02-1.14.21-1.64.07-.38.2-.74.42-1.05l-3.08-7.18-.43-.99h-5.52l-.43.99-4.42,10.29-.98,2.28h6.47l.82-2.06h2.53l.82,2.06h6.54l-.32-.75c-.09,0-.17.03-.27.03Z"/>
    <path class="cls-1" d="M20.97,19.85h-3.36l-4.42,10.29h2.88l.82-2.06h4.75l.82,2.06h2.94l-4.42-10.29ZM17.79,25.84l1.46-3.6,1.45,3.6h-2.9Z"/>
    <polygon class="cls-2" points="19.49 25.02 19 25.02 19.25 24.43 19.49 25.02"/>
    <rect class="cls-2" x="49.45" y="23.36" width="2.45" height="3.27"/>
    <rect class="cls-2" x="48.63" y="27.44" width=".82" height="3.27"/>
    <path class="cls-2" d="M48.81,20.16c0,.31.05.62.12.93.06.28.08.57.18.83.04.1.09.19.19.24.09.05.22.07.31.04.19-.06.37-.29.29-.5-.1-.26-.12-.53-.18-.8-.03-.13-.05-.27-.07-.4,0-.03,0-.02,0,.04,0-.02,0-.04,0-.06,0-.03,0-.07,0-.1,0-.08,0-.15,0-.23,0-.21-.19-.42-.41-.41s-.41.18-.41.41h0Z"/>
  </g>
</svg>