<?xml version="1.0" encoding="UTF-8"?>
<svg id="Layer_1" data-name="Layer 1" xmlns="http://www.w3.org/2000/svg" viewBox="0 0 75 50">
  <defs>
    <style>
      .cls-1 {
        fill: #141414;
      }

      .cls-2 {
        fill: #fff;
      }
    </style>
  </defs>
  <rect class="cls-1" width="75" height="50" rx="10" ry="10"/>
  <path class="cls-2" d="M23.31,18.19c-.52.62-1.36,1.11-2.2,1.04-.1-.84.31-1.73.79-2.28.52-.64,1.44-1.09,2.18-1.13.09.87-.25,1.73-.77,2.37h0ZM24.07,19.39c-1.21-.07-2.25.69-2.83.69s-1.47-.66-2.43-.64c-1.25.02-2.41.72-3.05,1.85-1.31,2.25-.34,5.59.93,7.42.62.91,1.36,1.9,2.34,1.87.93-.03,1.29-.6,2.41-.6s1.45.6,2.43.59c1.01-.02,1.65-.91,2.27-1.82.71-1.03,1-2.04,1.01-2.09-.02-.02-1.96-.76-1.97-3-.02-1.87,1.53-2.76,1.6-2.81-.87-1.29-2.24-1.43-2.71-1.47h0ZM31.09,16.86v13.62h2.11v-4.66h2.93c2.67,0,4.55-1.83,4.55-4.49s-1.84-4.47-4.48-4.47h-5.11ZM33.2,18.64h2.44c1.83,0,2.88.98,2.88,2.7s-1.05,2.71-2.89,2.71h-2.43v-5.41ZM44.54,30.58c1.33,0,2.56-.67,3.12-1.74h.04v1.63h1.96v-6.78c0-1.97-1.57-3.23-3.99-3.23-2.24,0-3.9,1.28-3.97,3.05h1.9c.16-.84.93-1.39,2-1.39,1.29,0,2.02.6,2.02,1.71v.75l-2.64.16c-2.45.15-3.78,1.15-3.78,2.9s1.37,2.93,3.34,2.93ZM45.11,28.97c-1.13,0-1.84-.54-1.84-1.37s.69-1.35,2.01-1.43l2.35-.15v.77c0,1.28-1.08,2.18-2.52,2.18ZM52.27,34.18c2.06,0,3.03-.79,3.88-3.17l3.71-10.41h-2.15l-2.49,8.04h-.04l-2.49-8.04h-2.21l3.58,9.91-.19.6c-.32,1.02-.85,1.42-1.78,1.42-.17,0-.49-.02-.62-.03v1.63c.12.03.65.05.8.05Z"/>
</svg>