<?xml version="1.0" encoding="UTF-8"?>
<svg id="Layer_1" data-name="Layer 1" xmlns="http://www.w3.org/2000/svg" viewBox="0 0 75 50">
  <defs>
    <style>
      .cls-1 {
        fill: #4285f4;
      }

      .cls-2 {
        fill: #141414;
      }

      .cls-3 {
        fill: #34a853;
      }

      .cls-4 {
        fill: #fbbc04;
      }

      .cls-5 {
        fill: #fff;
      }

      .cls-6 {
        fill: #ea4335;
      }
    </style>
  </defs>
  <rect class="cls-2" width="75" height="50" rx="10" ry="10"/>
  <g>
    <path class="cls-5" d="M36.18,24.76v5.61h-1.81v-13.86h4.7c1.15,0,2.23.42,3.07,1.21.84.72,1.27,1.81,1.27,2.95s-.42,2.17-1.27,2.95c-.84.78-1.87,1.21-3.07,1.21l-2.89-.06h0ZM36.18,18.19v4.82h3.01c.66,0,1.33-.24,1.75-.72.96-.9.96-2.41.06-3.32l-.06-.06c-.48-.48-1.09-.78-1.75-.72h-3.01Z"/>
    <path class="cls-5" d="M47.57,20.6c1.33,0,2.35.36,3.13,1.09s1.15,1.69,1.15,2.89v5.79h-1.69v-1.33h-.06c-.72,1.09-1.75,1.63-2.95,1.63-1.02,0-1.93-.3-2.65-.9-.66-.6-1.09-1.45-1.09-2.35,0-.96.36-1.75,1.09-2.35s1.75-.84,2.95-.84c1.09,0,1.93.18,2.59.6v-.42c0-.6-.24-1.21-.72-1.57-.48-.42-1.09-.66-1.75-.66-1.02,0-1.81.42-2.35,1.27l-1.57-.96c.96-1.27,2.23-1.87,3.92-1.87ZM45.28,27.47c0,.48.24.9.6,1.15.42.3.9.48,1.39.48.72,0,1.45-.3,1.99-.84.6-.54.9-1.21.9-1.93-.54-.42-1.33-.66-2.35-.66-.72,0-1.33.18-1.81.54-.48.3-.72.72-.72,1.27Z"/>
    <path class="cls-5" d="M61.62,20.9l-5.97,13.68h-1.81l2.23-4.76-3.92-8.86h1.93l2.83,6.81h.06l2.77-6.81h1.87v-.06Z"/>
    <path class="cls-1" d="M29.01,23.55c0-.54-.06-1.09-.12-1.63h-7.53v3.07h4.28c-.18.96-.72,1.87-1.57,2.41v1.99h2.59c1.51-1.39,2.35-3.44,2.35-5.85Z"/>
    <path class="cls-3" d="M21.35,31.33c2.17,0,3.98-.72,5.3-1.93l-2.59-1.99c-.72.48-1.63.78-2.71.78-2.05,0-3.86-1.39-4.46-3.32h-2.65v2.05c1.39,2.71,4.1,4.4,7.11,4.4Z"/>
    <path class="cls-4" d="M16.89,24.88c-.36-.96-.36-2.05,0-3.07v-2.05h-2.65c-1.15,2.23-1.15,4.88,0,7.17l2.65-2.05Z"/>
    <path class="cls-6" d="M21.35,18.55c1.15,0,2.23.42,3.07,1.21h0l2.29-2.29c-1.45-1.33-3.38-2.11-5.3-2.05-3.01,0-5.79,1.69-7.11,4.4l2.65,2.05c.54-1.93,2.35-3.32,4.4-3.32Z"/>
  </g>
</svg>