<?xml version="1.0" encoding="UTF-8"?>
<svg id="Layer_1" data-name="Layer 1" xmlns="http://www.w3.org/2000/svg" viewBox="0 0 75 50">
  <defs>
    <style>
      .cls-1 {
        fill: #f79e1b;
      }

      .cls-2 {
        fill: #141414;
      }

      .cls-3 {
        fill: #eb001b;
      }

      .cls-4 {
        fill: #ff5f00;
      }
    </style>
  </defs>
  <rect class="cls-2" width="75" height="50" rx="10" ry="10"/>
  <g>
    <path class="cls-3" d="M31.65,15.58c-5.2.02-9.4,4.25-9.39,9.45.02,5.2,4.25,9.4,9.45,9.39s9.4-4.25,9.39-9.45c-.02-5.18-4.21-9.37-9.39-9.39h-.06Z"/>
    <path class="cls-1" d="M43.29,15.58c-5.2.02-9.4,4.25-9.39,9.45s4.25,9.4,9.45,9.39,9.4-4.25,9.39-9.45c-.02-5.18-4.21-9.37-9.39-9.39h-.06Z"/>
    <path class="cls-4" d="M37.5,17.6c-4.09,3.21-4.8,9.13-1.59,13.22.46.59,1,1.12,1.59,1.59,4.09-3.21,4.8-9.13,1.59-13.22-.46-.59-1-1.12-1.59-1.59"/>
  </g>
</svg>