<?xml version="1.0" encoding="UTF-8"?>
<svg id="Layer_1" xmlns="http://www.w3.org/2000/svg" version="1.1" viewBox="0 0 50 50">
  <!-- Generator: Adobe Illustrator 29.0.1, SVG Export Plug-In . SVG Version: 2.1.0 Build 192)  -->
  <defs>
    <style>
      .st0 {
        fill: #141414;
      }
    </style>
  </defs>
  <path class="st0" d="M40,0H10C4.5,0,0,4.5,0,10v30c0,5.5,4.5,10,10,10h30c5.5,0,10-4.5,10-10V10c0-5.5-4.5-10-10-10ZM34.1,13.3h-3.3c-2.6,0-3.1,1.2-3.1,3v4h6.2l-.8,6.3h-5.4v16h-6.4v-16h-5.4v-6.2h5.4v-4.6c0-5.3,3.3-8.2,8-8.2s3.2,0,4.8.2v5.6Z"/>
</svg>