<?xml version="1.0" encoding="UTF-8"?>
<svg id="Layer_1" data-name="Layer 1" xmlns="http://www.w3.org/2000/svg" viewBox="0 0 50 50">
  <defs>
    <style>
      .cls-1 {
        fill: #141414;
      }
    </style>
  </defs>
  <path class="cls-1" d="M33.18,25.01c0,4.52-3.66,8.18-8.18,8.18s-8.19-3.66-8.19-8.18,3.66-8.19,8.19-8.19,8.18,3.67,8.18,8.19Z"/>
  <g>
    <path class="cls-1" d="M25,16.81c-4.53,0-8.19,3.67-8.19,8.19s3.66,8.18,8.19,8.18,8.18-3.66,8.18-8.18-3.66-8.19-8.18-8.19ZM25,16.81c-4.53,0-8.19,3.67-8.19,8.19s3.66,8.18,8.19,8.18,8.18-3.66,8.18-8.18-3.66-8.19-8.18-8.19ZM25,16.81c-4.53,0-8.19,3.67-8.19,8.19s3.66,8.18,8.19,8.18,8.18-3.66,8.18-8.18-3.66-8.19-8.18-8.19ZM25,16.81c-4.53,0-8.19,3.67-8.19,8.19s3.66,8.18,8.19,8.18,8.18-3.66,8.18-8.18-3.66-8.19-8.18-8.19ZM25,16.81c-4.53,0-8.19,3.67-8.19,8.19s3.66,8.18,8.19,8.18,8.18-3.66,8.18-8.18-3.66-8.19-8.18-8.19ZM25,16.81c-4.53,0-8.19,3.67-8.19,8.19s3.66,8.18,8.19,8.18,8.18-3.66,8.18-8.18-3.66-8.19-8.18-8.19ZM25,16.81c-4.53,0-8.19,3.67-8.19,8.19s3.66,8.18,8.19,8.18,8.18-3.66,8.18-8.18-3.66-8.19-8.18-8.19Z"/>
    <path class="cls-1" d="M40,0H10C4.47,0,0,4.49,0,10v30c0,5.53,4.47,10,10,10h30c5.52,0,10-4.47,10-10V10c0-5.51-4.48-10-10-10ZM25,38.65c-7.54,0-13.65-6.11-13.65-13.65s6.11-13.63,13.65-13.63,13.64,6.11,13.64,13.63-6.11,13.65-13.64,13.65ZM41.37,11.37c-1.51,0-2.73-1.24-2.73-2.74s1.22-2.72,2.73-2.72,2.73,1.21,2.73,2.72-1.23,2.74-2.73,2.74Z"/>
  </g>
</svg>