<?xml version="1.0" encoding="UTF-8"?>
<svg id="Layer_1" data-name="Layer 1" xmlns="http://www.w3.org/2000/svg" viewBox="0 0 50 50">
  <defs>
    <style>
      .cls-1 {
        fill: #141414;
      }
    </style>
  </defs>
  <path class="cls-1" d="M40,0H10C4.47,0,0,4.48,0,10v30c0,5.53,4.47,10,10,10h30c5.52,0,10-4.47,10-10V10c0-5.52-4.48-10-10-10ZM37.89,21.77c-1.94,0-4.29-.85-6.44-2.3v11.98c0,5.33-4.34,9.67-9.68,9.67s-9.67-4.34-9.67-9.67,4.34-9.68,9.67-9.68v6.46c-1.78,0-3.23,1.44-3.23,3.22s1.45,3.23,3.23,3.23,3.23-1.46,3.23-3.23V8.87h6.45c0,3.25,4.74,6.46,6.44,6.46v6.44Z"/>
</svg>